<svg width="34" height="34" viewBox="0 0 34 34" fill="none" xmlns="http://www.w3.org/2000/svg">
<path fill-rule="evenodd" clip-rule="evenodd" d="M12.7277 22.6274L21.1176 14.2376L21.6316 19.8895C21.6811 20.4396 22.1683 20.8448 22.7177 20.7946C23.2686 20.7444 23.673 20.2579 23.6235 19.7078L22.9164 11.9296C22.9108 11.8688 22.8853 11.8165 22.8691 11.7592C22.8563 11.7125 22.8514 11.6666 22.8316 11.6213C22.7821 11.5082 22.7156 11.4035 22.6293 11.3172C22.6286 11.3165 22.6279 11.3144 22.6272 11.3137C22.6265 11.313 22.6244 11.3123 22.6237 11.3116C22.5374 11.2253 22.4328 11.1589 22.3196 11.1094C22.2744 11.0896 22.2284 11.0846 22.1817 11.0719C22.1245 11.0556 22.0721 11.0302 22.0113 11.0245L14.2332 10.3174C13.9249 10.2905 13.6371 10.4044 13.4348 10.6066C13.275 10.7664 13.1683 10.9807 13.1463 11.2232C13.0961 11.7726 13.5013 12.2598 14.0514 12.3093L19.7033 12.8234L11.3135 21.2132C10.9232 21.6035 10.9232 22.2371 11.3135 22.6274C11.7038 23.0177 12.3374 23.0177 12.7277 22.6274Z" fill="#36BA6B"/>
<mask id="mask0_66_716" style="mask-type:luminance" maskUnits="userSpaceOnUse" x="11" y="10" width="13" height="13">
<path fill-rule="evenodd" clip-rule="evenodd" d="M12.7277 22.6274L21.1176 14.2376L21.6316 19.8895C21.6811 20.4396 22.1683 20.8448 22.7177 20.7946C23.2686 20.7444 23.673 20.2579 23.6235 19.7078L22.9164 11.9296C22.9108 11.8688 22.8853 11.8165 22.8691 11.7592C22.8563 11.7125 22.8514 11.6666 22.8316 11.6213C22.7821 11.5082 22.7156 11.4035 22.6293 11.3172C22.6286 11.3165 22.6279 11.3144 22.6272 11.3137C22.6265 11.313 22.6244 11.3123 22.6237 11.3116C22.5374 11.2253 22.4328 11.1589 22.3196 11.1094C22.2744 11.0896 22.2284 11.0846 22.1817 11.0719C22.1245 11.0556 22.0721 11.0302 22.0113 11.0245L14.2332 10.3174C13.9249 10.2905 13.6371 10.4044 13.4348 10.6066C13.275 10.7664 13.1683 10.9807 13.1463 11.2232C13.0961 11.7726 13.5013 12.2598 14.0514 12.3093L19.7033 12.8234L11.3135 21.2132C10.9232 21.6035 10.9232 22.2371 11.3135 22.6274C11.7038 23.0177 12.3374 23.0177 12.7277 22.6274Z" fill="white"/>
</mask>
<g mask="url(#mask0_66_716)">
<rect y="16.9706" width="24" height="24" transform="rotate(-45 0 16.9706)" fill="#36BA6B"/>
</g>
</svg>
