<svg width="35" height="34" viewBox="0 0 35 34" fill="none" xmlns="http://www.w3.org/2000/svg">
<path fill-rule="evenodd" clip-rule="evenodd" d="M13.6686 22.6274L22.0585 14.2376L22.5725 19.8895C22.622 20.4396 23.1092 20.8448 23.6587 20.7946C24.2095 20.7444 24.614 20.2579 24.5645 19.7078L23.8573 11.9296C23.8517 11.8688 23.8262 11.8165 23.81 11.7592C23.7972 11.7125 23.7923 11.6666 23.7725 11.6213C23.723 11.5082 23.6565 11.4035 23.5703 11.3172C23.5696 11.3165 23.5689 11.3144 23.5681 11.3137C23.5674 11.313 23.5653 11.3123 23.5646 11.3116C23.4783 11.2253 23.3737 11.1589 23.2606 11.1094C23.2153 11.0896 23.1693 11.0846 23.1227 11.0719C23.0654 11.0556 23.0131 11.0302 22.9523 11.0245L15.1741 10.3174C14.8658 10.2905 14.578 10.4044 14.3758 10.6066C14.2159 10.7664 14.1092 10.9807 14.0873 11.2232C14.0371 11.7726 14.4422 12.2598 14.9924 12.3093L20.6443 12.8234L12.2544 21.2132C11.8641 21.6035 11.8641 22.2371 12.2544 22.6274C12.6448 23.0177 13.2783 23.0177 13.6686 22.6274Z" fill="#EAA360"/>
<mask id="mask0_66_721" style="mask-type:luminance" maskUnits="userSpaceOnUse" x="11" y="10" width="14" height="13">
<path fill-rule="evenodd" clip-rule="evenodd" d="M13.6686 22.6274L22.0585 14.2376L22.5725 19.8895C22.622 20.4396 23.1092 20.8448 23.6587 20.7946C24.2095 20.7444 24.614 20.2579 24.5645 19.7078L23.8573 11.9296C23.8517 11.8688 23.8262 11.8165 23.81 11.7592C23.7972 11.7125 23.7923 11.6666 23.7725 11.6213C23.723 11.5082 23.6565 11.4035 23.5703 11.3172C23.5696 11.3165 23.5689 11.3144 23.5681 11.3137C23.5674 11.313 23.5653 11.3123 23.5646 11.3116C23.4783 11.2253 23.3737 11.1589 23.2606 11.1094C23.2153 11.0896 23.1693 11.0846 23.1227 11.0719C23.0654 11.0556 23.0131 11.0302 22.9523 11.0245L15.1741 10.3174C14.8658 10.2905 14.578 10.4044 14.3758 10.6066C14.2159 10.7664 14.1092 10.9807 14.0873 11.2232C14.0371 11.7726 14.4422 12.2598 14.9924 12.3093L20.6443 12.8234L12.2544 21.2132C11.8641 21.6035 11.8641 22.2371 12.2544 22.6274C12.6448 23.0177 13.2783 23.0177 13.6686 22.6274Z" fill="white"/>
</mask>
<g mask="url(#mask0_66_721)">
<rect x="0.940918" y="16.9706" width="24" height="24" transform="rotate(-45 0.940918 16.9706)" fill="#EAA360"/>
</g>
</svg>
