<svg width="7" height="6" viewBox="0 0 7 6" fill="none" xmlns="http://www.w3.org/2000/svg">
<path d="M3.42939 5.41458C2.98139 5.41458 2.55739 5.30258 2.15739 5.07858C1.75739 4.85458 1.43739 4.55058 1.19739 4.16658C0.973387 3.76658 0.861387 3.31058 0.861387 2.79858C0.861387 2.30258 0.973387 1.86258 1.19739 1.47858C1.43739 1.07858 1.75739 0.766581 2.15739 0.542581C2.55739 0.318581 2.98139 0.206581 3.42939 0.206581C3.90939 0.206581 4.34139 0.318581 4.72539 0.542581C5.12539 0.766581 5.43739 1.07858 5.66139 1.47858C5.90139 1.86258 6.02139 2.30258 6.02139 2.79858C6.02139 3.31058 5.90139 3.76658 5.66139 4.16658C5.43739 4.55058 5.12539 4.85458 4.72539 5.07858C4.34139 5.30258 3.90939 5.41458 3.42939 5.41458Z" fill="#36BA6B"/>
</svg>
