<svg width="48" height="49" viewBox="0 0 48 49" fill="none" xmlns="http://www.w3.org/2000/svg">
<g id="icons8-facebook 1">
<path id="Vector" d="M24 5.5C18.9609 5.5 14.1282 7.50178 10.565 11.065C7.00178 14.6282 5 19.4609 5 24.5C5 29.5391 7.00178 34.3718 10.565 37.935C14.1282 41.4982 18.9609 43.5 24 43.5C29.0391 43.5 33.8718 41.4982 37.435 37.935C40.9982 34.3718 43 29.5391 43 24.5C43 19.4609 40.9982 14.6282 37.435 11.065C33.8718 7.50178 29.0391 5.5 24 5.5Z" fill="#039BE5"/>
<path id="Vector_2" d="M26.572 29.5358H31.489L32.261 24.5408H26.571V21.8108C26.571 19.7358 27.249 17.8958 29.19 17.8958H32.309V13.5368C31.761 13.4628 30.602 13.3008 28.412 13.3008C23.839 13.3008 21.158 15.7158 21.158 21.2178V24.5408H16.457V29.5358H21.158V43.2648C22.089 43.4048 23.032 43.4998 24 43.4998C24.875 43.4998 25.729 43.4198 26.572 43.3058V29.5358Z" fill="white"/>
</g>
</svg>
