<svg width="48" height="49" viewBox="0 0 48 49" fill="none" xmlns="http://www.w3.org/2000/svg">
<g id="icons8-instagram 1">
<path id="Vector" d="M41.6699 13.98C41.2699 14.24 40.6999 14.48 40.4599 14.75C40.3699 14.84 40.3199 14.94 40.3399 15.04V16.07L40.0399 17.08L39.7399 18.08L39.4099 19.18L38.7299 21.43L38.0699 23.65L37.5699 25.32C37.5699 25.58 37.5599 25.84 37.5399 26.09C37.4699 27.05 37.2699 27.97 36.9499 28.83C36.7599 29.36 36.5299 29.87 36.2499 30.35C36.1499 30.54 36.0299 30.73 35.9099 30.91C35.5099 31.54 35.0299 32.12 34.4999 32.63C34.0899 33.04 33.6399 33.42 33.1499 33.74C33.1499 33.74 33.1499 33.74 33.1399 33.74C33.0599 33.81 32.9699 33.87 32.8699 33.92C32.5599 34.13 32.2299 34.31 31.8899 34.47C31.6599 34.59 31.4299 34.69 31.1899 34.78C31.1399 34.81 31.0799 34.83 31.0299 34.85C30.4599 35.12 29.7999 35.3 29.1399 35.39C29.0999 35.4 29.0699 35.4 29.0299 35.41C28.6299 35.48 28.2399 35.54 27.8399 35.57C27.6599 35.59 27.4699 35.6 27.2899 35.6L26.5799 35.56L23.1599 35.38C23.1599 35.37 23.1499 35.38 23.1499 35.38L21.4299 35.29C21.2999 35.29 21.1599 35.29 21.0299 35.28C20.4899 35.26 19.9699 35.2 19.4499 35.09C19.4399 35.09 19.4399 35.09 19.4399 35.09C18.4899 34.91 17.5799 34.59 16.7299 34.16C16.2599 33.92 15.7999 33.65 15.3699 33.34C15.1899 33.21 15.0199 33.07 14.8499 32.92C14.3699 32.52 13.9399 32.09 13.5399 31.65C13.4799 31.59 13.4299 31.53 13.3799 31.47C13.3199 31.41 13.2599 31.34 13.2099 31.28C12.8299 30.8 12.5099 30.31 12.2499 29.79C12.0099 29.33 11.8199 28.84 11.6699 28.3C11.6099 28.11 11.5599 27.93 11.5199 27.73C11.5099 27.72 11.4999 27.7 11.4999 27.68C11.3999 27.27 11.3099 26.84 11.2599 26.41C11.1999 26.08 11.1699 25.75 11.1699 25.41C11.1499 25.28 11.1499 25.14 11.1499 25.01L13.0599 22.06L14.9299 19.18L15.7799 17.87L16.5499 16.69L16.8099 16.28V15.25C16.8299 15.02 16.8399 14.78 16.8299 14.56C16.8199 13.86 16.6799 13.18 16.4499 12.53C16.2299 11.84 15.9199 11.19 15.5999 10.59C15.2199 9.9 14.8199 9.28 14.4899 8.72C13.9999 7.9 13.6599 7.23 13.7499 6.76C14.4699 6.59 15.2299 6.5 15.9999 6.5H31.9999C36.1799 6.5 39.7799 9.1 41.2699 12.76C41.4299 13.15 41.5699 13.56 41.6699 13.98Z" fill="#304FFE"/>
<path id="Vector_2" d="M42.0001 16.5V16.77L40.6201 17.57L39.7401 18.08L38.7701 18.64L36.8301 19.77L34.9301 20.87L32.9901 21.99L32.2201 22.44C32.2201 22.92 32.1001 23.36 31.8801 23.76C31.5701 24.34 31.0501 24.82 30.3901 25.23C29.7201 25.64 28.9001 25.97 27.9801 26.21C27.9801 26.21 27.9801 26.2 27.9701 26.21C24.4101 27.13 19.5501 26.71 17.1901 24.95C16.5301 24.46 16.0701 23.86 15.8701 23.17C15.8101 22.94 15.7801 22.69 15.7801 22.44V15.25C15.7901 15.1 15.6901 14.95 15.5101 14.8C14.9701 14.37 13.7001 13.96 12.2801 13.55C11.1701 13.24 9.98012 12.93 8.98012 12.63C8.19012 12.39 7.52012 12.15 7.12012 11.92C7.30012 11.57 7.51012 11.22 7.73012 10.89C9.13012 8.84 11.2701 7.33 13.7501 6.76C14.4701 6.59 15.2301 6.5 16.0001 6.5H26.8001C32.1701 7.44 37.1201 9.63 41.2701 12.76C41.4301 13.15 41.5701 13.56 41.6701 13.98C41.8501 14.64 41.9601 15.32 41.9901 16.03C42.0001 16.18 42.0001 16.34 42.0001 16.5Z" fill="#4928F4"/>
<path id="Vector_3" d="M41.9999 16.5001V20.9101L41.7799 21.5901L41.0299 23.9201L40.2499 26.3201L39.8399 27.6001L39.4599 28.7901L39.0899 29.9201L38.7299 31.0401L38.5399 31.6301L38.2899 32.4101C38.2899 33.1701 38.2699 33.8401 38.2199 34.4101C38.2099 34.4701 38.1999 34.5301 38.1999 34.5901C38.1399 35.1201 38.0599 35.5701 37.9299 35.9501C37.9199 36.0101 37.8999 36.0701 37.8799 36.1201C37.6199 36.8401 37.2299 37.3001 36.6499 37.6001C36.5099 37.6801 36.3499 37.7401 36.1799 37.8001C35.6499 37.9801 34.9799 38.0701 34.1599 38.1201C33.5599 38.1601 32.8699 38.1701 32.0899 38.1701H31.3999L30.2099 38.1201L29.9999 38.1101L27.8299 38.0201L25.6299 37.9301L18.3799 37.6301L16.4999 37.5501H16.2399C15.4599 37.5401 14.7899 37.4901 14.2099 37.4101C13.3699 37.2801 12.7199 37.0601 12.2299 36.7301C11.5299 36.2801 11.1199 35.6201 10.8799 34.7001C10.8199 34.4801 10.7699 34.2501 10.7399 34.0001C10.6399 33.4201 10.5899 32.7501 10.5599 32.0001C10.5599 31.8501 10.5599 31.7001 10.5499 31.5401C10.5399 31.5301 10.5499 31.5301 10.5499 31.5301V30.9501C10.5399 30.6601 10.5399 30.3601 10.5399 30.0501L10.5899 28.4401L10.6199 27.2901L10.6599 25.9501V25.7601L10.7299 23.3001L10.7999 20.8401L10.8699 18.5301L10.9299 16.2601L10.9499 15.6601C10.9499 15.3501 9.89992 15.1701 8.72992 15.0201C7.79992 14.9001 6.77992 14.7901 6.16992 14.6501C6.21992 14.4201 6.26992 14.1901 6.32992 13.9701C6.50992 13.2501 6.77992 12.5701 7.11992 11.9201C7.29992 11.5701 7.50992 11.2201 7.72992 10.8901C9.88992 9.94006 12.1399 9.20006 14.4899 8.72006C16.5499 8.29006 18.6999 8.06006 20.9199 8.06006C28.2799 8.06006 35.0799 10.5501 40.4599 14.7501C40.9799 15.1501 41.4899 15.5801 41.9899 16.0301C41.9999 16.1801 41.9999 16.3401 41.9999 16.5001Z" fill="#6200EA"/>
<path id="Vector_4" d="M42 18.8699V23.4099L41.45 24.4699L40.4 26.5199L39.84 27.5999L39.33 28.5899L39.11 29.0199C39.11 29.3299 39.11 29.6299 39.09 29.9199C39.09 30.3499 39.07 30.7599 39.04 31.1399C39 31.5899 38.94 31.9999 38.88 32.3799C38.73 33.1699 38.52 33.8499 38.22 34.4099C38.18 34.4799 38.14 34.5499 38.1 34.6099C37.99 34.7899 37.86 34.9599 37.72 35.1199C37.54 35.3399 37.34 35.5299 37.11 35.6899C36.77 35.9499 36.37 36.1599 35.91 36.3199C35.34 36.5299 34.68 36.6699 33.9 36.7499C33.39 36.7999 32.83 36.8299 32.22 36.8299L31.8 36.8499L29.72 36.9699H29.71L27.5 37.0999L25.25 37.2299L22.15 37.4099L18.38 37.6299L17.83 37.6599C17.32 37.6599 16.84 37.6299 16.38 37.5699C16.33 37.5599 16.29 37.5499 16.24 37.5499C15.56 37.4399 14.94 37.2599 14.38 37.0099C13.7 36.7099 13.11 36.3099 12.61 35.8299C12.17 35.3999 11.79 34.9099 11.48 34.3599C11.41 34.2299 11.34 34.1099 11.28 33.9699C10.98 33.3799 10.74 32.7199 10.56 31.9999C10.53 31.8799 10.5 31.7499 10.48 31.6199C10.42 31.3899 10.37 31.1499 10.34 30.8999C10.23 30.2599 10.17 29.5799 10.14 28.8699V28.8599C10.13 28.5699 10.12 28.2899 10.12 27.9899L9.63 26.8199L9.56 26.6399L9.5 26.4899L8.75 24.6999L8.63 24.4099L7.91 22.6799L7.11 20.7499C7.11 20.7499 7.11 20.7499 7.1 20.7499L6.29 18.7999L6 18.0899V16.4999C6 15.8699 6.06 15.2499 6.17 14.6499C6.22 14.4199 6.27 14.1899 6.33 13.9699C7.18 13.4799 8.07 13.0299 8.98 12.6299C11.06 11.6999 13.29 11.0099 15.6 10.5899C17.32 10.2799 19.11 10.1099 20.92 10.1099C28.23 10.1099 34.86 12.7599 40.04 17.0799C40.24 17.2399 40.43 17.3999 40.62 17.5699C41.09 17.9799 41.55 18.4099 42 18.8699Z" fill="#673AB7"/>
<path id="Vector_5" d="M42 21.8499V26.9899L41.43 28.1799L40.35 30.4299L40.34 30.4599C40.34 30.8899 40.32 31.2799 40.29 31.6299C40.19 32.7799 39.91 33.5099 39.45 33.9599C39.12 34.2999 38.71 34.4899 38.2 34.5899C38.17 34.5999 38.13 34.5999 38.1 34.6099C37.94 34.6399 37.77 34.6599 37.59 34.6599C36.97 34.7199 36.24 34.6799 35.4 34.6199C35.31 34.6199 35.21 34.6099 35.11 34.5999C34.5 34.5599 33.85 34.5199 33.13 34.4899C32.74 34.4799 32.33 34.4699 31.91 34.4699H31.89L30.88 34.5499H30.87L28.6 34.7099L26.01 34.9099L25.63 34.9399L22.6 35.1599L21.03 35.2799L19.48 35.3899C19.21 35.3899 18.95 35.3899 18.69 35.3799C18.69 35.3799 18.68 35.3699 18.68 35.3799C17.55 35.3599 16.54 35.2899 15.64 35.1199C14.81 34.9799 14.08 34.7599 13.46 34.4299C12.82 34.1199 12.29 33.6799 11.86 33.1199C11.45 32.5699 11.15 31.8799 10.96 31.0499C10.96 31.0399 10.96 31.0399 10.96 31.0399C10.82 30.3699 10.74 29.5899 10.74 28.7099L10.59 28.4399L9.7 26.8499L9.57 26.6299L9.5 26.4899L8.57 24.8399L8.11 24.0099L7.53 22.9799L6.53 21.1899L6 20.2499V16.5699C6.88 15.9899 7.79 15.4799 8.73 15.0199C9.87 14.4399 11.05 13.9499 12.28 13.5499C13.62 13.1099 15.02 12.7599 16.45 12.5299C17.9 12.2899 19.39 12.1699 20.92 12.1699C27.72 12.1699 33.96 14.5999 38.77 18.6399C38.99 18.8099 39.2 18.9999 39.41 19.1799C40.25 19.9299 41.05 20.7399 41.78 21.5899C41.86 21.6799 41.94 21.7599 42 21.8499Z" fill="#8E24AA"/>
<path id="Vector_6" d="M42 25.2102V32.4402C41.76 32.3002 41.43 32.1302 41.02 31.9502C40.8 31.8402 40.55 31.7302 40.29 31.6302C39.91 31.4602 39.5 31.3002 39.04 31.1402C38.94 31.1002 38.84 31.0702 38.73 31.0402C38.55 30.9702 38.36 30.9102 38.17 30.8502C37.58 30.6702 36.93 30.5002 36.25 30.3502C35.99 30.3002 35.72 30.2502 35.45 30.2102C34.58 30.0602 33.65 29.9702 32.68 29.9602C32.6 29.9502 32.51 29.9502 32.43 29.9502L29.86 29.9702L26.36 29.9902H26.35L18.86 30.0502C16.48 30.0502 15.02 30.6202 14.14 30.8502C14.14 30.8502 14.13 30.8502 14.13 30.8602C13.2 31.1002 12.91 30.9502 12.83 29.3202C12.81 28.8702 12.8 28.2902 12.8 27.5802L12.24 27.1502L11.26 26.4102L10.66 25.9502L10.54 25.8602L8.88 24.6002L8.63 24.4102L8.11 24.0102L7.15 23.2902L6 22.4102V19.0102C6.1 18.9302 6.19 18.8602 6.29 18.8002C7.74 17.8002 9.29 16.9502 10.93 16.2602C12.39 15.6402 13.93 15.1502 15.51 14.8002C15.94 14.7102 16.38 14.6202 16.83 14.5602C18.16 14.3302 19.53 14.2202 20.92 14.2202C26.93 14.2202 32.45 16.3102 36.83 19.7702C37.49 20.2902 38.13 20.8402 38.73 21.4302C39.55 22.2102 40.32 23.0402 41.03 23.9202C41.17 24.1002 41.31 24.2802 41.45 24.4702C41.64 24.7102 41.82 24.9602 42 25.2102Z" fill="#C2185B"/>
<path id="Vector_7" d="M42 29.2198V32.4998C42 33.1498 41.94 33.7898 41.82 34.4098C41.64 35.3298 41.33 36.2098 40.91 37.0298C40.69 37.0798 40.44 37.0798 40.16 37.0398C39.53 36.9298 38.79 36.5998 37.99 36.1698C37.95 36.1598 37.91 36.1398 37.88 36.1198C37.63 35.9898 37.37 35.8498 37.11 35.6898C36.58 35.3998 36.02 35.0798 35.46 34.7798C35.34 34.7198 35.22 34.6598 35.11 34.5998C34.47 34.2698 33.81 33.9698 33.15 33.7398C33.15 33.7398 33.15 33.7398 33.14 33.7398C33 33.6898 32.85 33.6398 32.7 33.5998C32.13 33.4398 31.55 33.3398 30.99 33.3398L29.89 33.0198L25.02 31.6098C25.02 31.6098 25.02 31.6098 25.01 31.6098L22.02 30.7398H22.01L20.71 30.3598C16.95 30.3598 14.64 31.9598 13.52 31.3498C13.08 31.1198 12.82 30.5398 12.73 29.3998C12.7 29.0798 12.69 28.7198 12.69 28.2998L11.52 27.7298L11.47 27.7098H11.46L10.62 27.2898L9.7 26.8498L9.63 26.8198L9.46 26.7298L7.5 25.7798L6 25.0498V21.6198C6.17 21.4698 6.35 21.3298 6.53 21.1898C6.72 21.0398 6.91 20.8998 7.1 20.7498C7.11 20.7498 7.11 20.7498 7.11 20.7498C8.29 19.8998 9.54 19.1498 10.87 18.5298C12.42 17.7898 14.07 17.2198 15.78 16.8498C16.03 16.7898 16.29 16.7298 16.55 16.6898C17.97 16.4198 19.43 16.2798 20.92 16.2798C26.19 16.2798 31.03 17.9898 34.93 20.8698C36.06 21.7098 37.11 22.6398 38.07 23.6498C38.86 24.4798 39.59 25.3798 40.25 26.3198C40.3 26.3898 40.35 26.4598 40.4 26.5198C40.77 27.0598 41.11 27.6098 41.43 28.1798C41.64 28.5198 41.82 28.8698 42 29.2198Z" fill="#D81B60"/>
<path id="Vector_8" d="M41.82 34.4101C41.64 35.3301 41.33 36.2101 40.91 37.0301C40.72 37.4001 40.51 37.7501 40.28 38.0901C40.14 38.3001 39.99 38.5001 39.84 38.6901C39.48 38.5501 38.95 38.3501 38.3 38.1301C38.3 38.1301 38.3 38.1301 38.3 38.1201C37.81 37.9501 37.25 37.7701 36.65 37.6001C36.48 37.5501 36.31 37.5001 36.13 37.4501C35.42 37.2601 34.68 37.0901 33.96 36.9901C33.36 36.8901 32.77 36.8301 32.22 36.8301L31.76 36.7001H31.75L29.33 36.0001L27.84 35.5701L26.18 35.0901H26.17L25.63 34.9401L19.1 33.0601L17.22 32.5201L15.82 32.1901L13.54 31.6501L13.26 31.5801C13.26 31.5801 13.26 31.5801 13.25 31.5801L10.96 31.0501C10.96 31.0401 10.96 31.0401 10.96 31.0401L10.55 30.9501L10.34 30.9001L8.67 30.5101L8.48 30.4601L7.06 29.2901L6 28.4001V24.3201C6.37 23.9601 6.75 23.6201 7.15 23.2901C7.27 23.1801 7.4 23.0801 7.53 22.9801C7.65 22.8801 7.78 22.7801 7.91 22.6801C8.82 21.9901 9.78 21.3701 10.8 20.8401C12.1 20.1401 13.48 19.5801 14.93 19.1801C15.21 19.0901 15.49 19.0101 15.78 18.9501C17.42 18.5401 19.14 18.3301 20.92 18.3301C25.39 18.3301 29.55 19.6801 32.99 21.9901C34.7 23.1401 36.24 24.5201 37.54 26.0901C38.2 26.8801 38.8 27.7101 39.33 28.5901C39.38 28.6601 39.42 28.7201 39.46 28.7901C39.78 29.3201 40.08 29.8701 40.35 30.4301C40.6 30.9301 40.82 31.4301 41.02 31.9501C41.34 32.7501 41.6 33.5701 41.82 34.4101Z" fill="#F50057"/>
<path id="Vector_9" d="M40.28 38.0901C40.14 38.3001 39.99 38.5001 39.84 38.6901C39.4 39.2401 38.92 39.7401 38.38 40.1801C37.91 40.5701 37.41 40.9201 36.88 41.2201C36.68 41.1701 36.48 41.1101 36.27 41.0301C35.61 40.8001 34.92 40.4201 34.28 40.0201C33.32 39.4101 32.49 38.7501 32.12 38.4501C31.98 38.3301 31.91 38.2701 31.91 38.2701L30.21 38.1201L30 38.1001L27.8 37.9101L25.52 37.7101L22.15 37.4101L16.81 36.9401L16.79 36.9301L14.91 36.0201L13.01 35.1001L11.48 34.3601L11.15 34.2001L10.74 34.0001L9.32 33.3101L7.43 32.4001L6.84 32.1101L6 31.8501V27.3801C6.47 26.8201 6.97 26.2901 7.5 25.7801C7.84 25.4601 8.2 25.1401 8.57 24.8401C8.63 24.7901 8.69 24.7401 8.75 24.7001C8.79 24.6501 8.84 24.6201 8.88 24.6001C9.47 24.1201 10.09 23.6901 10.73 23.3001C11.47 22.8301 12.25 22.4101 13.06 22.0601C13.93 21.6701 14.84 21.3401 15.78 21.0901C17.41 20.6301 19.14 20.3901 20.92 20.3901C25 20.3901 28.77 21.6301 31.88 23.7601C33.87 25.1201 35.59 26.8401 36.95 28.8301C37.4 29.4701 37.8 30.1501 38.17 30.8501C38.3 31.1101 38.43 31.3701 38.54 31.6301C38.66 31.8801 38.77 32.1301 38.88 32.3801C39.09 32.9001 39.28 33.4201 39.45 33.9601C39.77 34.9601 40.01 35.9801 40.16 37.0401C40.21 37.3901 40.25 37.7401 40.28 38.0901Z" fill="#FF1744"/>
<path id="Vector_10" d="M38.39 39.9199C38.39 39.9999 38.39 40.0899 38.38 40.1799C37.91 40.5699 37.41 40.9199 36.88 41.2199C36.66 41.3399 36.44 41.4599 36.21 41.5599C35.98 41.6699 35.75 41.7699 35.51 41.8599C35.17 41.6799 34.71 41.4599 34.22 41.2499C33.53 40.9399 32.78 40.6599 32.2 40.5699C32.06 40.5399 31.93 40.5299 31.81 40.5299L30.17 40.3199H30.15L28.11 40.0499L26.05 39.7799L25.09 39.6599L17.53 38.6799C17.04 38.6799 16.52 38.6499 15.98 38.5799C15.32 38.5199 14.63 38.4199 13.94 38.2799C13.26 38.1599 12.57 37.9999 11.91 37.8299C11.22 37.6699 10.54 37.4799 9.91 37.2999C9.18 37.0799 8.5 36.8699 7.93 36.6799C7.46 36.5299 7.06 36.3899 6.75 36.2799C6.57 35.8499 6.42 35.3999 6.31 34.9399C6.1 34.1599 6 33.3399 6 32.4999V30.8299C6.32 30.2999 6.67 29.7799 7.06 29.2899C7.77 28.3499 8.58 27.4899 9.46 26.7299C9.49 26.6899 9.53 26.6599 9.56 26.6399L9.57 26.6299C9.88 26.3499 10.2 26.0999 10.54 25.8599C10.58 25.8199 10.62 25.7899 10.66 25.7599C10.82 25.6399 10.99 25.5199 11.17 25.4099C12.6 24.4399 14.18 23.6799 15.87 23.1699C17.47 22.6899 19.16 22.4399 20.92 22.4399C24.41 22.4399 27.67 23.4699 30.39 25.2299C32.4 26.5199 34.13 28.2199 35.45 30.2099C35.61 30.4399 35.76 30.6699 35.91 30.9099C36.6 32.0799 37.17 33.3399 37.59 34.6599C37.64 34.8099 37.68 34.9599 37.72 35.1199C37.8 35.3899 37.87 35.6699 37.93 35.9499C37.95 36.0199 37.97 36.0899 37.99 36.1699C38.13 36.7999 38.23 37.4599 38.3 38.1199C38.3 38.1299 38.3 38.1299 38.3 38.1299C38.36 38.7199 38.39 39.3199 38.39 39.9199Z" fill="#FF5722"/>
<path id="Vector_11" d="M36.3301 39.92C36.3301 40.27 36.3101 40.65 36.2701 41.03C36.2501 41.21 36.2301 41.39 36.2101 41.56C35.9801 41.67 35.7501 41.77 35.5101 41.86C35.0601 42.03 34.6001 42.17 34.1301 42.27C33.8101 42.34 33.4801 42.4 33.1501 42.43H33.1401C32.8301 42.24 32.4701 42.01 32.1001 41.75C31.4301 41.28 30.7301 40.75 30.1701 40.32C30.1601 40.31 30.1601 40.31 30.1501 40.3C29.5601 39.85 29.1401 39.51 29.1401 39.51L28.0801 39.55L26.0401 39.62L25.0901 39.66L21.2701 39.8L18.0401 39.92C17.8301 39.93 17.5801 39.93 17.2701 39.92H17.2601C16.8401 39.91 16.3401 39.88 15.7901 39.83C15.1501 39.78 14.4501 39.72 13.7401 39.65C13.0501 39.57 12.3501 39.49 11.6801 39.41C10.9401 39.33 10.2401 39.24 9.64006 39.16C9.17006 39.1 8.76006 39.05 8.43006 39.01C8.15006 38.69 7.90006 38.36 7.66006 38C7.30006 37.46 6.99006 36.89 6.75006 36.28C6.57006 35.85 6.42006 35.4 6.31006 34.94C6.60006 34.05 6.98006 33.21 7.43006 32.4C7.79006 31.74 8.21006 31.11 8.67006 30.51C9.12006 29.92 9.61006 29.37 10.1401 28.87V28.86C10.2901 28.71 10.4401 28.57 10.5901 28.44C10.8701 28.18 11.1601 27.94 11.4601 27.71H11.4701C11.4801 27.69 11.4901 27.69 11.5001 27.68C11.7401 27.49 11.9901 27.32 12.2401 27.15C13.7201 26.14 15.3901 25.39 17.1901 24.95C18.3801 24.66 19.6301 24.5 20.9201 24.5C23.4601 24.5 25.8601 25.11 27.9701 26.21H27.9801C29.7901 27.14 31.3901 28.42 32.6801 29.96C33.3901 30.78 34.0001 31.68 34.5001 32.63C34.8501 33.27 35.1501 33.94 35.4001 34.62C35.4201 34.68 35.4401 34.73 35.4601 34.78C35.6301 35.28 35.7801 35.8 35.9101 36.32C36.0001 36.69 36.0701 37.07 36.1301 37.45C36.1501 37.57 36.1701 37.68 36.1801 37.8C36.2801 38.49 36.3301 39.2 36.3301 39.92Z" fill="#FF6F00"/>
<path id="Vector_12" d="M34.2802 39.9201V40.0201C34.2802 40.3601 34.2502 40.7901 34.2202 41.2501C34.1902 41.5901 34.1602 41.9401 34.1302 42.2701C33.8102 42.3401 33.4802 42.4001 33.1502 42.4301H33.1402C32.7602 42.4801 32.3902 42.5001 32.0002 42.5001H30.2502L29.8702 42.3901L27.9002 41.7901L25.9002 41.1901L21.2702 39.8001L19.2702 39.2001C19.2702 39.2001 18.4402 39.5301 17.2702 39.9201H17.2602C16.8102 40.0701 16.3202 40.2301 15.8002 40.3901C15.1502 40.5801 14.4602 40.7701 13.7802 40.9201C13.0802 41.0801 12.3902 41.2001 11.7702 41.2501C11.5802 41.2701 11.3902 41.2801 11.2202 41.2801C10.6602 40.9701 10.1202 40.6001 9.63016 40.1901C9.20016 39.8301 8.80016 39.4401 8.43016 39.0101C8.15016 38.6901 7.90016 38.3601 7.66016 38.0001C7.73016 37.5501 7.81016 37.1101 7.93016 36.6801C8.23016 35.4901 8.70016 34.3501 9.32016 33.3101C9.66016 32.7201 10.0402 32.1501 10.4802 31.6201C10.4902 31.5901 10.5202 31.5601 10.5502 31.5401C10.5402 31.5301 10.5502 31.5301 10.5502 31.5301C10.6802 31.3601 10.8202 31.2001 10.9602 31.0501C10.9602 31.0401 10.9602 31.0401 10.9602 31.0401C11.3702 30.6001 11.7902 30.1801 12.2502 29.7901C12.4102 29.6601 12.5602 29.5301 12.7302 29.4001C12.7602 29.3701 12.7902 29.3501 12.8302 29.3201C15.0802 27.6001 17.8902 26.5601 20.9202 26.5601C24.3602 26.5601 27.4902 27.8501 29.8602 29.9701C31.0002 31.0001 31.9702 32.2301 32.7002 33.6001C32.7602 33.7001 32.8202 33.8101 32.8702 33.9201C32.9602 34.1001 33.0502 34.2901 33.1302 34.4901C33.4602 35.2101 33.7202 35.9701 33.9002 36.7501C33.9202 36.8301 33.9402 36.9101 33.9602 36.9901C34.0402 37.3601 34.1102 37.7401 34.1602 38.1201C34.2402 38.7101 34.2802 39.3101 34.2802 39.9201Z" fill="#FF9800"/>
<path id="Vector_13" d="M32.2199 39.9199C32.2199 40.1199 32.2099 40.3399 32.1999 40.5699C32.1799 40.9399 32.1499 41.3399 32.0999 41.7499C32.0799 41.9999 32.0399 42.2499 31.9999 42.4999H26.5199L25.4599 42.3299L21.3199 41.6699L20.7299 41.5799L19.3799 41.3599C18.7899 41.3599 17.5099 41.6199 16.1599 41.8699C15.4499 41.9999 14.7299 42.1399 14.0799 42.2299C13.9999 42.2399 13.9199 42.2499 13.8499 42.2599H13.8399C13.1399 42.1099 12.4599 41.8799 11.8199 41.5799C11.6199 41.4899 11.4199 41.3899 11.2199 41.2799C10.6599 40.9699 10.1199 40.5999 9.62986 40.1899C9.61986 40.0699 9.60986 39.9699 9.60986 39.9199C9.60986 39.6599 9.61986 39.4099 9.63986 39.1599C9.67986 38.5199 9.76986 37.8999 9.90986 37.2999C10.1299 36.3899 10.4499 35.5099 10.8799 34.6999C10.9599 34.5299 11.0499 34.3599 11.1499 34.1999C11.1899 34.1199 11.2399 34.0499 11.2799 33.9699C11.4599 33.6799 11.6599 33.3999 11.8599 33.1199C12.2799 32.5699 12.7499 32.0499 13.2499 31.5799C13.2599 31.5799 13.2599 31.5799 13.2599 31.5799C13.2999 31.5399 13.3399 31.4999 13.3799 31.4699C13.4299 31.4299 13.4699 31.3799 13.5199 31.3499C13.7199 31.1699 13.9199 31.0099 14.1299 30.8599C14.1299 30.8499 14.1399 30.8499 14.1399 30.8499C16.0299 29.4399 18.3699 28.6099 20.9199 28.6099C22.8999 28.6099 24.7399 29.1099 26.3499 29.9899H26.3599C27.7399 30.7499 28.9399 31.7799 29.8899 33.0199C30.2599 33.4999 30.5899 34.0099 30.8699 34.5499H30.8799C30.9299 34.6499 30.9799 34.7499 31.0299 34.8499C31.3299 35.4399 31.5699 36.0599 31.7499 36.6999H31.7599C31.7699 36.7499 31.7899 36.7999 31.7999 36.8499C31.9199 37.2799 32.0199 37.7199 32.0899 38.1699C32.0999 38.2599 32.1099 38.3599 32.1199 38.4499C32.1899 38.9299 32.2199 39.4199 32.2199 39.9199Z" fill="#FFC107"/>
<path id="Vector_14" d="M30.1699 39.8099C30.1699 39.9699 30.1699 40.1399 30.1499 40.2999V40.3099C30.1499 40.3199 30.1499 40.3199 30.1499 40.3199C30.1299 41.0399 30.0299 41.7499 29.8699 42.3899C29.8699 42.4299 29.8599 42.4599 29.8399 42.4999H25.1699L21.3199 41.6699L20.8099 41.5599L20.7299 41.5799L16.4599 42.4599L16.2699 42.4999H15.9999C15.3599 42.4999 14.7299 42.4399 14.1199 42.3199C14.0299 42.2999 13.9399 42.2799 13.8499 42.2599H13.8399C13.1399 42.1099 12.4599 41.8799 11.8199 41.5799C11.7999 41.4699 11.7799 41.3599 11.7699 41.2499C11.6999 40.8199 11.6699 40.3699 11.6699 39.9199C11.6699 39.7499 11.6699 39.5799 11.6799 39.4099C11.7099 38.8699 11.7899 38.3399 11.9099 37.8299C11.9899 37.4499 12.0999 37.0799 12.2299 36.7299C12.3399 36.4199 12.4699 36.1199 12.6099 35.8299C12.7299 35.5799 12.8699 35.3399 13.0099 35.0999C13.1499 34.8699 13.2999 34.6499 13.4599 34.4299C13.8599 33.8799 14.3299 33.3699 14.8499 32.9199C15.1499 32.6599 15.4799 32.4099 15.8199 32.1899C17.2799 31.2299 19.0299 30.6699 20.9199 30.6699C21.2899 30.6699 21.6499 30.6899 21.9999 30.7399H22.0199C23.0899 30.8599 24.0899 31.1599 25.0099 31.6099C25.0199 31.6099 25.0199 31.6099 25.0199 31.6099C26.4699 32.3199 27.6999 33.3899 28.5999 34.7099C28.7499 34.9299 28.8999 35.1699 29.0299 35.4099C29.1399 35.5999 29.2399 35.7999 29.3299 35.9999C29.4699 36.3099 29.5999 36.6399 29.7099 36.9699H29.7199C29.8299 37.3399 29.9299 37.7099 29.9999 38.0999V38.1099C30.1099 38.6599 30.1699 39.2299 30.1699 39.8099Z" fill="#FFD54F"/>
<path id="Vector_15" d="M28.1102 40.0198V40.0498C28.1102 40.6398 28.0402 41.2198 27.9002 41.7898C27.8502 42.0298 27.7802 42.2698 27.6902 42.4998H23.2102L20.9202 41.8698L18.6302 42.4998H16.0002C15.3602 42.4998 14.7302 42.4398 14.1202 42.3198C14.1002 42.2898 14.0902 42.2598 14.0802 42.2298C13.9402 41.7998 13.8302 41.3698 13.7802 40.9198C13.7402 40.6298 13.7202 40.3298 13.7202 40.0198C13.7202 39.8998 13.7202 39.7698 13.7402 39.6498C13.7502 39.1798 13.8202 38.7198 13.9402 38.2798C14.0002 37.9798 14.0902 37.6898 14.2102 37.4098C14.2502 37.2698 14.3102 37.1398 14.3802 37.0098C14.5302 36.6698 14.7102 36.3398 14.9102 36.0198C15.1302 35.6998 15.3702 35.3998 15.6402 35.1198C15.9602 34.7598 16.3202 34.4298 16.7302 34.1598C17.4302 33.6498 18.2302 33.2698 19.1002 33.0598C19.6802 32.8998 20.2902 32.8198 20.9202 32.8198C22.9202 32.8198 24.7102 33.6198 26.0102 34.9098C26.0602 34.9598 26.1202 35.0198 26.1702 35.0898H26.1802C26.3202 35.2398 26.4502 35.3898 26.5802 35.5598C26.9502 36.0298 27.2602 36.5398 27.5002 37.0998C27.6202 37.3598 27.7202 37.6298 27.8002 37.9098C27.8102 37.9498 27.8202 37.9798 27.8302 38.0198C27.9702 38.5098 28.0602 39.0198 28.0802 39.5498C28.1002 39.6998 28.1102 39.8598 28.1102 40.0198Z" fill="#FFE082"/>
<path id="Vector_16" d="M26.0598 40.0199C26.0598 40.4299 26.0098 40.8199 25.8998 41.1899C25.7998 41.5899 25.6498 41.9699 25.4598 42.3299C25.4298 42.3899 25.3598 42.4999 25.3598 42.4999H16.4798C16.4698 42.4899 16.4598 42.4699 16.4598 42.4599C16.3398 42.2699 16.2398 42.0799 16.1598 41.8699C15.9598 41.4099 15.8398 40.9099 15.7998 40.3899C15.7798 40.2699 15.7798 40.1399 15.7798 40.0199C15.7798 39.9599 15.7798 39.8899 15.7898 39.8299C15.7998 39.3899 15.8598 38.9699 15.9798 38.5799C16.0798 38.2199 16.2098 37.8899 16.3798 37.5699C16.3798 37.5699 16.3898 37.5599 16.3898 37.5499C16.5098 37.3399 16.6398 37.1299 16.7898 36.9299C17.2798 36.2699 17.9298 35.7299 18.6798 35.3799C18.6898 35.3799 18.6898 35.3799 18.6898 35.3799C18.9298 35.2599 19.1798 35.1599 19.4398 35.0899C19.4398 35.0899 19.4398 35.0899 19.4498 35.0899C19.9098 34.9499 20.4098 34.8799 20.9198 34.8799C21.5098 34.8799 22.0798 34.9699 22.5998 35.1599C22.7898 35.2099 22.9698 35.2899 23.1498 35.3799C23.1498 35.3799 23.1498 35.3799 23.1598 35.3799C24.0198 35.7899 24.7498 36.4299 25.2498 37.2299C25.3498 37.3799 25.4398 37.5399 25.5198 37.7099C25.5598 37.7799 25.5998 37.8599 25.6298 37.9299C25.8598 38.4499 25.9998 39.0199 26.0398 39.6199C26.0498 39.6699 26.0498 39.7199 26.0498 39.7799C26.0598 39.8599 26.0598 39.9399 26.0598 40.0199Z" fill="#FFECB3"/>
<g id="Group">
<path id="Vector_17" d="M30 11.5H18C14.1 11.5 11 14.6 11 18.5V30.5C11 34.4 14.1 37.5 18 37.5H30C33.9 37.5 37 34.4 37 30.5V18.5C37 14.6 33.9 11.5 30 11.5Z" stroke="white" stroke-width="2" stroke-miterlimit="10" stroke-linecap="round" stroke-linejoin="round"/>
<path id="Vector_18" d="M31 17.5C31.5523 17.5 32 17.0523 32 16.5C32 15.9477 31.5523 15.5 31 15.5C30.4477 15.5 30 15.9477 30 16.5C30 17.0523 30.4477 17.5 31 17.5Z" fill="white"/>
</g>
<g id="Group_2">
<path id="Vector_19" d="M24 30.5C27.3137 30.5 30 27.8137 30 24.5C30 21.1863 27.3137 18.5 24 18.5C20.6863 18.5 18 21.1863 18 24.5C18 27.8137 20.6863 30.5 24 30.5Z" stroke="white" stroke-width="2" stroke-miterlimit="10" stroke-linecap="round" stroke-linejoin="round"/>
</g>
</g>
</svg>
