<svg width="48" height="49" viewBox="0 0 48 49" fill="none" xmlns="http://www.w3.org/2000/svg">
<g id="icons8-tiktok 1">
<path id="Vector" fill-rule="evenodd" clip-rule="evenodd" d="M10.904 6.5H37.095C39.804 6.5 42 8.696 42 11.404V37.595C42 40.304 39.804 42.5 37.096 42.5H10.904C8.196 42.5 6 40.304 6 37.596V11.404C6 8.696 8.196 6.5 10.904 6.5Z" fill="#212121"/>
<path id="Vector_2" fill-rule="evenodd" clip-rule="evenodd" d="M29.2078 21.107C30.7838 22.233 32.7148 22.895 34.7998 22.895V18.884C34.4048 18.884 34.0118 18.843 33.6258 18.761V21.918C31.5408 21.918 29.6108 21.255 28.0338 20.13V28.314C28.0338 32.408 24.7128 35.727 20.6168 35.727C19.0888 35.727 17.6678 35.265 16.4878 34.473C17.8348 35.849 19.7128 36.703 21.7908 36.703C25.8868 36.703 29.2078 33.384 29.2078 29.29V21.107ZM30.6568 17.061C29.8518 16.182 29.3228 15.045 29.2078 13.788V13.272H28.0948C28.3748 14.869 29.3308 16.234 30.6568 17.061ZM19.0788 31.332C18.6288 30.742 18.3858 30.021 18.3868 29.279C18.3868 27.406 19.9058 25.888 21.7798 25.888C22.1288 25.888 22.4758 25.941 22.8088 26.047V21.947C22.4198 21.894 22.0278 21.871 21.6348 21.879V25.07C21.3018 24.964 20.9548 24.911 20.6048 24.911C18.7308 24.911 17.2118 26.429 17.2118 28.302C17.2128 29.627 17.9718 30.774 19.0788 31.332Z" fill="#EC407A"/>
<path id="Vector_3" fill-rule="evenodd" clip-rule="evenodd" d="M28.034 20.13C29.61 21.256 31.541 21.918 33.626 21.918V18.761C32.462 18.513 31.432 17.905 30.657 17.06C29.331 16.233 28.376 14.869 28.096 13.272H25.173V29.29C25.166 31.157 23.65 32.669 21.78 32.669C20.678 32.669 19.699 32.144 19.079 31.331C17.972 30.773 17.213 29.626 17.213 28.302C17.213 26.429 18.732 24.911 20.606 24.911C20.965 24.911 21.311 24.967 21.636 25.07V21.88C17.612 21.963 14.376 25.249 14.376 29.291C14.376 31.309 15.182 33.138 16.49 34.474C17.67 35.266 19.091 35.728 20.619 35.728C24.715 35.728 28.036 32.409 28.036 28.315L28.034 20.13Z" fill="white"/>
<path id="Vector_4" fill-rule="evenodd" clip-rule="evenodd" d="M33.6262 18.7619V17.9079C32.5762 17.9099 31.5482 17.6159 30.6572 17.0599C31.4452 17.9229 32.4832 18.5179 33.6262 18.7619ZM28.0952 13.2719C28.0682 13.1189 28.0482 12.9659 28.0342 12.8109V12.2949H23.9982V28.3139C23.9922 30.1809 22.4752 31.6929 20.6052 31.6929C20.0562 31.6929 19.5382 31.5629 19.0792 31.3309C19.6992 32.1439 20.6782 32.6689 21.7802 32.6689C23.6502 32.6689 25.1662 31.1569 25.1732 29.2899V13.2719H28.0952ZM21.6352 21.8799V20.9709C21.2982 20.9249 20.9582 20.9019 20.6172 20.9019C16.5202 20.9019 13.2002 24.2209 13.2002 28.3149C13.2002 30.8819 14.5052 33.1439 16.4882 34.4739C15.1802 33.1379 14.3742 31.3089 14.3742 29.2909C14.3742 25.2489 17.6112 21.9629 21.6352 21.8799Z" fill="#81D4FA"/>
</g>
</svg>
