<svg width="114" height="115" viewBox="0 0 114 115" fill="none" xmlns="http://www.w3.org/2000/svg">
<g clip-path="url(#clip0_24_73)">
<path d="M113.51 45.6352V8.99429C113.51 6.14519 112.549 4.15008 111.036 3.31115L111.038 3.30997L107.117 1.05646L105.7 4.16865L66.3032 26.8721L111.662 53.0108C112.809 50.6887 113.51 48.0691 113.51 45.635V45.6352Z" fill="#DFDCEA"/>
<path d="M111.661 53.4997C111.576 53.4997 111.492 53.4776 111.417 53.4342L66.0583 27.2955C65.9069 27.2081 65.8135 27.0469 65.8135 26.8723C65.8135 26.6978 65.9069 26.5363 66.0583 26.4491L105.319 3.82406L106.67 0.854561C106.728 0.729072 106.835 0.633685 106.966 0.591465C107.098 0.549245 107.241 0.564491 107.361 0.633099L111.282 2.88661C111.293 2.89306 111.304 2.9001 111.315 2.90733C113.022 3.87997 114 6.09478 114 8.9945V45.6354C114 48.0529 113.325 50.7491 112.1 53.2274C112.041 53.3486 111.933 53.4397 111.803 53.4788C111.757 53.4929 111.709 53.4999 111.661 53.4999L111.661 53.4997ZM67.2822 26.8723L111.447 52.3234C112.464 50.1107 113.021 47.7544 113.021 45.6352V8.99431C113.021 6.43704 112.211 4.52129 110.798 3.73845C110.783 3.73004 110.769 3.72105 110.755 3.71128L107.339 1.74842L106.146 4.37078C106.104 4.46362 106.033 4.54083 105.945 4.59185L67.282 26.8721L67.2822 26.8723Z" fill="#6D6A88"/>
<path d="M66.3031 26.8723L11.6275 58.3803C7.75734 60.6105 4.61974 66.5941 4.61974 71.745V108.386C4.61974 109.141 4.68887 109.834 4.81616 110.464L2.95459 111.686L7.26992 114.173L7.27501 114.162C8.47075 114.736 9.98237 114.622 11.6275 113.674L106.503 58.9999C108.544 57.8236 110.381 55.6027 111.661 53.011L66.3031 26.8723Z" fill="#BCB2CD"/>
<path d="M8.84247 114.997C8.24734 114.997 7.68041 114.881 7.15774 114.647C7.11153 114.637 7.06668 114.62 7.02497 114.596L2.70964 112.109C2.56257 112.024 2.46994 111.87 2.46505 111.7C2.46015 111.531 2.54338 111.371 2.68536 111.278L4.2759 110.234C4.17896 109.65 4.13 109.03 4.13 108.386V71.7454C4.13 66.4473 7.38354 60.262 11.3826 57.9575L66.058 26.4495C66.2094 26.3621 66.3962 26.3621 66.5476 26.4495L111.906 52.5882C112.129 52.7171 112.214 52.9968 112.1 53.2276C110.714 56.0325 108.813 58.2329 106.747 59.4235L11.8724 114.097C10.8358 114.694 9.80263 114.997 8.84247 114.997ZM7.42407 113.697C7.44542 113.704 7.46676 113.712 7.48713 113.722C8.58515 114.249 9.93227 114.086 11.3828 113.251L106.258 58.5769C108.031 57.555 109.748 55.6103 111.014 53.2028L66.3032 27.4368L11.8724 58.8034C8.14316 60.9524 5.10935 66.7579 5.10935 71.7448V108.386C5.10935 109.087 5.17221 109.753 5.29617 110.367C5.33554 110.562 5.25211 110.762 5.08527 110.872L3.88678 111.659L7.42407 113.697V113.697Z" fill="#6D6A88"/>
<path d="M68.5549 25.5747L64.0508 28.1702L110.543 54.9624C111.353 53.7333 112.036 52.3555 112.542 50.9227L68.5549 25.5747Z" fill="white"/>
<path d="M8.84248 114.997C8.24735 114.997 7.68061 114.881 7.15794 114.647C7.11153 114.637 7.06668 114.62 7.02497 114.596L2.70964 112.109C2.56257 112.024 2.46994 111.87 2.46505 111.7C2.46015 111.531 2.54338 111.371 2.68536 111.278L4.2759 110.234C4.17896 109.65 4.13 109.03 4.13 108.386V71.7454C4.13 66.4473 7.38354 60.262 11.3826 57.9575L105.319 3.82406L106.67 0.854561C106.728 0.729072 106.835 0.633685 106.966 0.591465C107.098 0.549245 107.241 0.564491 107.36 0.633099L111.282 2.88661C111.293 2.89306 111.304 2.9001 111.315 2.90733C113.022 3.88016 114 6.09497 114 8.9945V45.6354C114 50.9334 110.746 57.1187 106.747 59.4233L11.8724 114.097C10.8358 114.694 9.80263 114.997 8.84248 114.997ZM7.42407 113.697C7.44561 113.704 7.46676 113.712 7.48713 113.722C8.58515 114.249 9.93227 114.086 11.3828 113.251L106.258 58.5769C109.987 56.428 113.021 50.6225 113.021 45.6356V8.9943C113.021 6.43704 112.211 4.52129 110.798 3.73845C110.784 3.73024 110.769 3.72105 110.755 3.71148L107.339 1.74842L106.146 4.37078C106.104 4.46362 106.034 4.54083 105.945 4.59185L11.8724 58.8034C8.14316 60.9524 5.10935 66.7579 5.10935 71.7448V108.386C5.10935 109.087 5.17221 109.753 5.29598 110.367C5.33554 110.562 5.25211 110.762 5.08527 110.872L3.88678 111.659L7.42407 113.697V113.697Z" fill="#6D6A88"/>
<path d="M102.373 1.32798L7.49755 56.0019C3.62715 58.2321 0.489746 64.2157 0.489746 69.3666V106.007C0.489746 111.158 3.62715 113.526 7.49755 111.295L102.373 56.6217C106.243 54.3914 109.38 48.4078 109.38 43.257V6.61589C109.38 1.4652 106.243 -0.902274 102.373 1.32798Z" fill="#EDEDED"/>
<path d="M4.71091 112.623C3.97752 112.623 3.28722 112.445 2.66682 112.087C0.971909 111.11 0 108.894 0 106.007V69.3664C0 64.0683 3.25353 57.8832 7.25259 55.5785L102.128 0.904788C103.97 -0.157172 105.773 -0.288329 107.203 0.535946C108.898 1.51268 109.87 3.72886 109.87 6.61588V43.2568C109.87 48.5548 106.616 54.7401 102.617 57.0447L7.74217 111.718C6.69879 112.32 5.66813 112.623 4.71091 112.623ZM102.372 1.32797L102.617 1.75115L7.74217 56.4248C4.01297 58.5738 0.979154 64.3795 0.979154 69.3664V106.007C0.979154 108.536 1.77286 110.443 3.1566 111.241C4.27087 111.883 5.72511 111.752 7.25259 110.872L102.128 56.1983C105.857 54.0493 108.891 48.2436 108.891 43.2568V6.61588C108.891 4.08735 108.097 2.17981 106.713 1.38231C105.598 0.740207 104.144 0.871168 102.617 1.75115L102.373 1.32797H102.372Z" fill="#6D6A88"/>
<path d="M45.9273 56.1621C46.1638 55.5521 46.2637 54.9851 46.2267 54.4604C46.1889 53.937 46.0399 53.5279 45.7782 53.2327C45.5166 52.9385 45.1612 52.8346 44.7127 52.9209C44.2643 53.0066 43.741 53.3514 43.1427 53.9546L29.3508 68.1488C28.5786 68.9387 27.9987 69.7462 27.613 70.5718C27.2266 71.3977 27.0337 72.2702 27.0337 73.1887C27.0337 75.0269 27.8053 75.8457 29.3508 75.6441L43.1427 73.9424C43.741 73.8562 44.2643 73.5976 44.7127 73.1672C45.1612 72.7362 45.5164 72.2233 45.7782 71.6271C46.0399 71.0316 46.1889 70.4575 46.2267 69.9041C46.2637 69.3513 46.164 68.9061 45.9273 68.5687C45.6907 68.2317 45.2853 68.0986 44.7127 68.1703L33.2028 69.6983L44.7127 57.9608C45.2853 57.3723 45.6907 56.7734 45.9273 56.1625V56.1621Z" fill="#938CAE"/>
<path d="M28.9163 76.1625C28.2956 76.1625 27.7833 75.9895 27.391 75.6459C26.8292 75.1537 26.5444 74.3269 26.5444 73.1887C26.5444 72.2016 26.7548 71.2514 27.1697 70.365C27.5761 69.495 28.1924 68.6343 29.0007 67.8077L42.7915 53.6146C43.4711 52.9295 44.0684 52.547 44.621 52.4414C45.4014 52.2909 45.881 52.6125 46.1444 52.9088C46.4779 53.2851 46.6698 53.7952 46.715 54.426C46.7571 55.0208 46.6457 55.6641 46.3843 56.339C46.1252 57.0071 45.681 57.6674 45.0642 58.3015L34.5463 69.0272L44.6484 67.6861C45.6047 67.5667 46.0891 67.9477 46.3284 68.2884C46.6298 68.718 46.7599 69.2725 46.7154 69.9369C46.6741 70.545 46.5096 71.1795 46.227 71.8234C45.9413 72.4745 45.5461 73.045 45.0528 73.5194C44.5307 74.0204 43.9119 74.3255 43.2132 74.4262L29.4112 76.1293C29.2395 76.1517 29.0744 76.1629 28.9165 76.1629L28.9163 76.1625ZM45.0052 53.3799C44.9469 53.3799 44.8807 53.3863 44.8055 53.4008C44.5662 53.4465 44.1445 53.6393 43.4907 54.2984L29.7024 68.4889C28.9702 69.2379 28.4168 70.0077 28.0568 70.7782C27.7028 71.5345 27.5234 72.3452 27.5234 73.1885C27.5234 74.0317 27.6961 74.6128 28.0367 74.9113C28.3079 75.1488 28.7287 75.2323 29.2874 75.1594L43.0827 73.4572C43.5715 73.3867 43.9971 73.1762 44.3735 72.8148C44.7737 72.4299 45.0957 71.9643 45.3297 71.4309C45.5671 70.8904 45.7045 70.3656 45.7382 69.8709C45.7674 69.435 45.6961 69.091 45.5263 68.849C45.4805 68.7837 45.3401 68.5841 44.7737 68.6551L33.2673 70.1826C33.0591 70.2098 32.8584 70.1035 32.765 69.917C32.6716 69.7305 32.7066 69.5055 32.8529 69.3564L44.3629 57.6189C44.8861 57.081 45.2594 56.5312 45.4705 55.986C45.6797 55.4463 45.7697 54.9448 45.7378 54.4952C45.7084 54.0839 45.5984 53.7681 45.4112 53.5568C45.3309 53.4667 45.2196 53.3801 45.0048 53.3801L45.0052 53.3799Z" fill="#6D6A88"/>
<path d="M60.56 34.0318C60.1115 33.9886 59.6314 34.1077 59.1208 34.3868C58.6097 34.6677 58.1241 35.1124 57.6629 35.7226C57.2017 36.3332 56.8717 37.0688 56.6728 37.93L48.3748 72.5208C48.1758 73.4108 48.1758 74.0925 48.3748 74.5669C48.5744 75.0404 48.892 75.3027 49.3277 75.3529C49.764 75.4031 50.244 75.2843 50.7675 74.9977C51.2907 74.71 51.7764 74.2651 52.2248 73.6621C52.6739 73.0589 53.0097 72.3195 53.2338 71.444L61.4939 36.8749C61.7189 35.9421 61.7307 35.2457 61.5315 34.7857C61.3316 34.327 61.0083 34.0752 60.5598 34.0322L60.56 34.0318Z" fill="#938CAE"/>
<path d="M49.5234 75.8527C49.4384 75.8527 49.3546 75.848 49.2717 75.8384C48.8441 75.7892 48.2632 75.5613 47.9238 74.7567C47.6822 74.1805 47.6738 73.4147 47.897 72.4147L56.1967 37.8166C56.4094 36.8962 56.7715 36.0912 57.272 35.4286C57.7724 34.7664 58.3148 34.2718 58.8845 33.9587C59.4824 33.6319 60.0603 33.4929 60.6068 33.5455C61.0437 33.5875 61.6369 33.8029 61.9804 34.5905C62.2262 35.1581 62.2224 35.9423 61.9698 36.9892L53.7099 71.5574C53.4692 72.4987 53.1022 73.3025 52.6177 73.9536C52.1299 74.6097 51.5867 75.1052 51.0037 75.4258C50.4853 75.7098 49.9885 75.8527 49.5232 75.8527H49.5234ZM60.3812 34.5121C60.0689 34.5121 59.7248 34.6139 59.3563 34.8154C58.9092 35.0611 58.4709 35.4656 58.0542 36.017C57.6369 36.5693 57.3327 37.25 57.1504 38.04L48.8515 72.6348C48.6347 73.605 48.7181 74.1193 48.827 74.3785C48.9939 74.7741 49.2126 74.8478 49.3845 74.8677C49.7135 74.9057 50.1011 74.8056 50.5325 74.5695C50.9907 74.3173 51.4282 73.9141 51.832 73.3711C52.2405 72.8222 52.5527 72.1334 52.7599 71.3232L61.0181 36.7615C61.2654 35.7367 61.1896 35.2269 61.0825 34.9794C60.9196 34.6059 60.7032 34.5367 60.5132 34.5185C60.4699 34.5144 60.4261 34.5123 60.3814 34.5123L60.3812 34.5121Z" fill="#6D6A88"/>
<path d="M80.5185 38.6624L66.7271 40.3639C66.129 40.4501 65.6113 40.7054 65.1761 41.129C64.7398 41.5525 64.3846 42.0658 64.1106 42.6684C63.8362 43.2726 63.6864 43.8541 63.6618 44.4134C63.6369 44.974 63.7426 45.4225 63.98 45.7595C64.2165 46.0973 64.6086 46.237 65.1573 46.1792L76.6945 44.6354L65.1573 56.3887C64.6086 56.9634 64.2165 57.5556 63.98 58.1657C63.7428 58.7761 63.6369 59.3398 63.6618 59.8566C63.6866 60.3742 63.8364 60.7759 64.1106 61.0625C64.3844 61.3502 64.7398 61.4536 65.1761 61.3748C65.6113 61.296 66.129 60.9546 66.7271 60.3516L80.5185 46.1577C81.3161 45.3252 81.9016 44.4925 82.2751 43.6593C82.6493 42.8268 82.8361 41.9513 82.8361 41.0316C82.8361 39.2517 82.0634 38.4618 80.5185 38.6626V38.6624Z" fill="#938CAE"/>
<path d="M64.9058 61.8887C64.4564 61.8887 64.0638 61.7226 63.7557 61.3989C63.3997 61.0271 63.2033 60.5156 63.1725 59.8799C63.1443 59.2961 63.2624 58.6596 63.5233 57.9888C63.7822 57.3213 64.2128 56.6694 64.8026 56.0515L75.3481 45.3086L65.2221 46.6635C64.2899 46.7623 63.8156 46.3784 63.5785 46.0396C63.2797 45.6153 63.1426 45.0605 63.1725 44.3919C63.2 43.773 63.3654 43.1254 63.6647 42.4669C63.9627 41.8111 64.3563 41.2431 64.8348 40.7789C65.3431 40.2842 65.9563 39.9818 66.6572 39.8805L80.4568 38.178C81.3182 38.0662 82.006 38.2286 82.4993 38.6608C83.0478 39.1417 83.3261 39.9396 83.3261 41.0318C83.3261 42.0168 83.1228 42.9681 82.7221 43.8594C82.3275 44.7396 81.7054 45.6268 80.8727 46.4956L67.0788 60.6921C66.3983 61.3781 65.8057 61.7577 65.2636 61.8561C65.141 61.8783 65.0216 61.8893 64.906 61.8893L64.9058 61.8887ZM76.6945 44.1465C76.878 44.1465 77.0483 44.2494 77.1319 44.4163C77.2256 44.6028 77.1903 44.8281 77.044 44.9771L65.5068 56.7304C65.0106 57.2503 64.6487 57.7939 64.4362 58.3418C64.2251 58.8848 64.1292 59.3864 64.1505 59.8328C64.1697 60.2321 64.2723 60.524 64.4646 60.7245C64.5719 60.8371 64.7394 60.9569 65.0889 60.8936C65.3175 60.8521 65.7273 60.6647 66.3793 60.0073L80.1671 45.817C80.9199 45.0316 81.4794 44.2374 81.8282 43.4591C82.1722 42.6939 82.3465 41.877 82.3465 41.031C82.3465 40.2324 82.1803 39.6815 81.8528 39.3944C81.5804 39.1557 81.1522 39.0723 80.5819 39.1466C80.5807 39.1466 80.5797 39.1467 80.5786 39.1469L66.787 40.8485C66.2986 40.919 65.8801 41.1254 65.5178 41.4783C65.1271 41.8577 64.8038 42.3256 64.5565 42.8698C64.3091 43.4141 64.1726 43.9407 64.1507 44.4345C64.1309 44.8823 64.2083 45.2333 64.3804 45.4781C64.4333 45.5531 64.5723 45.7492 65.1058 45.6929L76.6294 44.1506C76.6512 44.1477 76.6731 44.1463 76.6947 44.1463L76.6945 44.1465Z" fill="#6D6A88"/>
</g>
<defs>
<clipPath id="clip0_24_73">
<rect width="114" height="115" fill="white"/>
</clipPath>
</defs>
</svg>
