<svg width="115" height="128" viewBox="0 0 115 128" fill="none" xmlns="http://www.w3.org/2000/svg">
<g filter="url(#filter0_d_24_44)">
<path d="M108.987 52.7364C109.907 48.3083 110.396 43.9267 110.396 39.6872C110.396 26.8036 105.876 17.5493 98.4787 12.8153L98.4822 12.8005L98.1929 12.6361C97.7457 12.3599 97.2878 12.0998 96.8207 11.856L81.54 3.17151L79.336 9.81942C74.933 10.6561 70.2335 12.374 65.3513 15.0452C62.0902 16.8291 58.8951 18.9498 55.8045 21.3461C51.051 25.0325 46.5499 29.3771 42.4448 34.169L104.227 67.9684C106.318 62.9252 107.935 57.7998 108.987 52.7357L108.987 52.7364Z" fill="#DFDCEA"/>
<path d="M104.226 68.542C104.122 68.542 104.017 68.5164 103.924 68.4658L42.1421 34.6665C41.9885 34.5822 41.8818 34.4394 41.8499 34.2744C41.8179 34.11 41.8634 33.9396 41.975 33.8095C46.1697 28.9119 50.6942 24.57 55.4214 20.9045C58.5809 18.4536 61.8201 16.316 65.0486 14.5503C69.7544 11.9761 74.4006 10.2198 78.8654 9.32788L80.9628 3.00064C81.0182 2.83357 81.1519 2.69951 81.3247 2.63685C81.4981 2.57488 81.6915 2.59104 81.8501 2.68132L97.1315 11.3658C97.6029 11.611 98.0778 11.8811 98.5236 12.1573L98.7916 12.3096C98.8414 12.3379 98.8862 12.3723 98.9245 12.4107C106.713 17.4586 111 27.1387 111 39.6881C111 43.8818 110.522 48.3092 109.579 52.8472C108.536 57.8695 106.924 63.0272 104.788 68.1788C104.724 68.3338 104.591 68.455 104.425 68.5103C104.361 68.5312 104.293 68.542 104.225 68.542H104.226ZM43.3621 34.011L103.918 67.14C105.902 62.2592 107.406 57.3797 108.394 52.6262C109.322 48.1603 109.792 43.8077 109.792 39.6881C109.792 27.4735 105.654 18.0986 98.1404 13.2898C98.1112 13.2716 98.0842 13.2507 98.0593 13.2278L97.8823 13.1281C97.4408 12.8553 96.9921 12.6006 96.5286 12.3574L81.8856 4.03609L79.9113 9.99146C79.8451 10.1909 79.6695 10.3404 79.4534 10.3808C75.0106 11.2256 70.3673 12.9617 65.6515 15.5413C62.4799 17.2753 59.2955 19.3779 56.1857 21.7897C51.6896 25.276 47.3776 29.3848 43.3606 34.0103L43.3621 34.011Z" fill="#6D6A88"/>
<path d="M42.4441 34.1708C34.7962 43.0991 28.5298 53.5836 24.6046 64.2858L16.8828 107.631L31.6623 115.475C39.9137 121.126 51.9475 120.95 65.3513 113.617C81.9246 104.55 96.4047 86.8346 104.227 67.9702L42.4441 34.1708Z" fill="#BCB2CD"/>
<path d="M45.2088 120C40.001 120 35.2688 118.652 31.3073 115.939L16.5868 108.131C16.3643 108.013 16.2442 107.775 16.2861 107.536L24.0079 64.1903C24.0136 64.1586 24.0221 64.1276 24.0335 64.0973C27.9544 53.408 34.1583 42.9342 41.9746 33.8092C42.1616 33.5916 42.4894 33.535 42.746 33.6744L104.528 67.4738C104.787 67.616 104.898 67.9151 104.788 68.1792C96.6754 87.7436 81.6798 105.345 65.6525 114.114C58.496 118.028 51.5051 120 45.2088 120ZM17.5488 107.329L31.9564 114.976C40.3622 120.728 52.4023 120.039 65.0475 113.122C80.7235 104.546 95.4113 87.369 103.471 68.2196L42.5889 34.9113C35.0228 43.8316 29.0131 54.0257 25.1909 64.4281L17.5481 107.328L17.5488 107.329Z" fill="#6D6A88"/>
<path d="M84.12 99.2876C84.0176 99.2876 83.9138 99.2627 83.8185 99.2108L68.5584 90.8618C68.2691 90.7035 68.1702 90.3532 68.3366 90.0797C68.5037 89.8068 68.8727 89.7125 69.162 89.8695L84.4221 98.2185C84.7115 98.3768 84.8103 98.7271 84.644 99.0006C84.5316 99.1838 84.329 99.2876 84.12 99.2876Z" fill="#6D6A88"/>
<path d="M110.183 39.2454C110.081 39.2454 109.977 39.2205 109.882 39.1686L94.1331 30.5529C93.8438 30.3946 93.7449 30.0442 93.9113 29.7707C94.0784 29.4979 94.4481 29.4036 94.7367 29.5605L110.485 38.1763C110.775 38.3346 110.873 38.6849 110.707 38.9584C110.595 39.1417 110.392 39.2454 110.183 39.2454Z" fill="#6D6A88"/>
<path d="M69.2289 111.887C69.1265 111.887 69.0227 111.862 68.9275 111.81L54.0491 103.671C53.7598 103.513 53.661 103.162 53.8273 102.889C53.9944 102.615 54.3641 102.521 54.6528 102.679L69.5311 110.818C69.8204 110.976 69.9193 111.327 69.7529 111.6C69.6406 111.783 69.4379 111.887 69.2289 111.887Z" fill="#6D6A88"/>
<path d="M50.0791 26.2164C45.0348 30.8918 40.3758 36.2752 36.3105 42.0844L99.9744 76.9138C103.311 70.7058 105.966 64.229 107.76 57.7731L50.0791 26.2164Z" fill="white"/>
<path d="M45.2088 120C40.001 120 35.2688 118.651 31.3073 115.938L16.5868 108.13C16.3643 108.012 16.2442 107.774 16.2861 107.535L24.0079 64.1898C24.0136 64.1581 24.0221 64.1271 24.0335 64.0968C30.0838 47.601 41.8175 31.4542 55.4204 20.9036C58.5806 18.4527 61.8197 16.3151 65.0482 14.5494C69.7541 11.9753 74.4002 10.219 78.8651 9.32702L80.9624 2.99979C81.0179 2.83272 81.1515 2.69865 81.3243 2.636C81.4978 2.57402 81.6912 2.59019 81.8497 2.68046L97.1311 11.3649C97.6025 11.6101 98.0774 11.8803 98.5232 12.1565L98.7913 12.3087C98.841 12.337 98.8858 12.3714 98.9242 12.4098C106.713 17.4577 111 27.1379 111 39.6872C111 43.8809 110.522 48.3084 109.579 52.8463C104.441 77.5799 86.3778 102.773 65.6518 114.112C58.4953 118.027 51.5051 119.998 45.2088 119.998V120ZM17.5488 107.328L31.9564 114.975C40.3622 120.727 52.4016 120.039 65.0475 113.121C85.4934 101.936 103.317 77.0598 108.393 52.6267C109.321 48.1608 109.791 43.8082 109.791 39.6886C109.791 27.474 105.653 18.0991 98.1393 13.2903C98.1101 13.2721 98.0831 13.2512 98.0582 13.2283L97.8812 13.1286C97.4397 12.8558 96.9911 12.6011 96.5275 12.3579L81.8845 4.03659L79.9102 9.99195C79.8441 10.1914 79.6685 10.3409 79.4523 10.3813C75.0095 11.2261 70.3662 12.9622 65.6504 15.5418C62.4788 17.2758 59.2944 19.3784 56.1846 21.7902C42.7588 32.2019 31.1744 48.1379 25.1895 64.4276L17.5466 107.328L17.5488 107.328Z" fill="#6D6A88"/>
<path d="M49.9708 6.49434C75.0259 -7.21242 95.3367 3.76054 95.3367 31.0029C95.3367 58.2454 75.0259 91.4418 49.9708 105.149C24.9158 118.855 4.60498 107.882 4.60498 80.6399C4.60498 53.3975 24.9158 20.2011 49.9708 6.49434Z" fill="#EDEDED"/>
<path d="M29.6089 111.644C25.1839 111.644 21.0944 110.665 17.4891 108.692C8.79047 103.933 4 93.9708 4 80.64C4.00071 53.2595 24.4871 19.7747 49.6687 5.99789C62.0352 -0.766566 73.6779 -1.8485 82.4519 2.95149C91.1498 7.71039 95.9403 17.6728 95.9403 31.0037C95.9403 58.3855 75.4539 91.8696 50.2723 105.645C42.9871 109.631 35.9528 111.644 29.6089 111.644ZM50.273 6.99023C25.4249 20.5845 5.20935 53.6239 5.20935 80.64C5.20935 93.5444 9.78511 103.154 18.0934 107.7C26.4785 112.287 37.6925 111.205 49.6687 104.653C74.5169 91.0592 94.7317 58.0204 94.7317 31.0037C94.7317 18.0993 90.1559 8.48917 81.8476 3.94383C73.4632 -0.642608 62.2499 0.439328 50.273 6.99023Z" fill="#6D6A88"/>
<path d="M34.7134 97.7911C31.3712 97.7911 28.282 97.0508 25.5569 95.5599C18.9905 91.9678 15.3745 84.4589 15.3745 74.417C15.3745 53.8555 30.759 28.7103 49.6685 18.3652C58.9821 13.2695 67.7597 12.4577 74.3837 16.0821C80.9502 19.6742 84.5661 27.183 84.5661 37.225C84.5661 57.7865 69.1816 82.9317 50.2721 93.2768C44.7899 96.276 39.4932 97.7905 34.7134 97.7905V97.7911ZM65.2237 14.9981C60.6565 14.9981 55.5667 16.462 50.2728 19.3582C31.6968 29.5207 16.5831 54.2207 16.5831 74.4177C16.5831 84.0332 19.9844 91.1897 26.1612 94.5682C32.395 97.9804 40.7431 97.168 49.6685 92.2851C68.2446 82.1226 83.3575 57.4227 83.3575 37.2256C83.3575 27.6102 79.9563 20.4536 73.7794 17.0744C71.2434 15.6866 68.3562 14.9981 65.2237 14.9981Z" fill="#6D6A88"/>
<path d="M64.5036 54.4856C64.2548 48.6474 61.5737 46.1009 52.0049 49.0692C46.7999 50.6375 45.5422 50.5513 45.4491 48.5194C45.3808 47.0373 46.1657 44.9469 48.7892 43.3718C51.751 41.5946 52.6845 42.7008 53.1282 43.8643C53.2562 44.1991 53.6081 44.2752 54.0012 44.0394L61.8965 39.3014C62.4347 38.9781 62.8193 38.2215 62.7105 37.7075C61.7799 33.3097 58.4945 31.5116 52.167 34.2636L52.0475 31.6699C52.024 31.1586 51.6138 30.9781 51.1311 31.2677L45.6602 34.5513C45.1775 34.841 44.8056 35.4904 44.8291 36.0017L44.95 38.6244C38.9409 43.4021 35.1636 49.9753 35.4373 55.9205C35.6918 61.4515 38.3451 63.9535 48.4358 60.831C52.9732 59.4284 54.2138 59.7666 54.3169 62.0025C54.3951 63.707 53.5228 65.8358 50.4514 67.679C47.8948 69.213 46.1337 68.928 45.3495 67.1656C45.2159 66.8638 44.8654 66.8254 44.4957 67.0471C44.126 67.2687 36.407 71.9016 36.407 71.9016C35.8731 72.2223 35.4835 72.9735 35.5909 73.4841C36.5634 78.1298 40.3188 79.8821 47.0018 76.9145L47.1611 80.3719C47.1845 80.8832 47.5948 81.0637 48.0775 80.7741L53.5839 77.469C54.0666 77.1793 54.4385 76.5298 54.415 76.0185L54.2558 72.5585C60.7177 67.6622 64.783 61.3147 64.5022 54.4842L64.5036 54.4856Z" fill="#BCB2CD"/>
<path d="M47.641 81.4858C47.4682 81.4858 47.3019 81.4487 47.1504 81.374C46.795 81.1975 46.5788 80.8424 46.5582 80.3985L46.4381 77.7819C43.0887 79.1266 40.3636 79.3152 38.326 78.339C36.6047 77.5131 35.485 75.9178 34.9987 73.5963C34.8451 72.8606 35.3421 71.8636 36.085 71.419L44.1729 66.5657C44.5384 66.3461 44.9265 66.2814 45.265 66.3805C45.5557 66.4667 45.7833 66.6675 45.907 66.9457C46.1643 67.5244 46.5369 67.8902 47.0146 68.0323C47.769 68.254 48.8447 67.9663 50.1287 67.197C53.2029 65.3518 53.7745 63.3678 53.7133 62.0292C53.6714 61.121 53.4339 60.8637 53.2583 60.7485C52.5132 60.2607 50.2552 60.8731 48.6228 61.377C43.11 63.0828 39.5346 63.2148 37.3704 61.7954C35.7743 60.7471 34.9681 58.8898 34.833 55.9471C34.5621 50.0538 38.1959 43.3418 44.3329 38.3707L44.2248 36.0277C44.1921 35.3109 44.6692 34.4688 45.3361 34.0686L50.8069 30.7851C51.2328 30.5297 51.6885 30.488 52.0575 30.6699C52.413 30.8464 52.6291 31.2021 52.6497 31.646L52.7308 33.4064C55.7844 32.2173 58.2635 32.0637 60.1084 32.9557C61.7422 33.7446 62.8165 35.3055 63.3007 37.596C63.4599 38.3492 62.9736 39.3314 62.2172 39.7855L54.3212 44.5235C53.9522 44.7458 53.5598 44.8064 53.2171 44.6959C52.9099 44.5962 52.6753 44.3712 52.5573 44.0607C52.3419 43.4954 52.0803 43.1795 51.7333 43.067C51.178 42.8858 50.2709 43.1593 49.1091 43.8565C46.153 45.6303 46.02 47.8562 46.0492 48.4955C46.0804 49.1733 46.2468 49.3592 46.3691 49.44C47.0317 49.8779 49.38 49.2581 51.8186 48.5245C56.9631 46.9285 60.3487 46.8322 62.466 48.2261C64.1318 49.3221 64.97 51.3041 65.1044 54.4637C65.3738 61.0227 61.7422 67.5331 54.8708 72.8256L55.0165 75.996C55.0499 76.7128 54.5722 77.5549 53.9053 77.955L48.3989 81.2594C48.1479 81.4103 47.8863 81.4865 47.6389 81.4865L47.641 81.4858ZM47.0033 76.3429C47.112 76.3429 47.2208 76.3705 47.3161 76.4251C47.4889 76.5241 47.5976 76.6986 47.6069 76.8899L47.7633 80.286L53.2619 76.9869C53.5591 76.8084 53.8264 76.351 53.8122 76.0451L53.6529 72.5851C53.6444 72.4025 53.7283 72.2274 53.879 72.1128C60.5976 67.0218 64.156 60.77 63.8993 54.5088C63.7813 51.7386 63.1073 50.0403 61.7785 49.1658C60.0231 48.0111 56.8871 48.1567 52.1926 49.6132C48.2019 50.8157 46.6215 51.001 45.6795 50.3785C44.9856 49.919 44.8704 49.1119 44.8448 48.5447C44.8078 47.7491 44.9607 44.9917 48.4657 42.8885C49.9893 41.9736 51.1873 41.6792 52.1272 41.9824C53.0898 42.2949 53.4965 43.164 53.6565 43.5675C53.6629 43.5642 53.67 43.5601 53.6771 43.5554L61.573 38.8174C61.9186 38.6092 62.1731 38.079 62.1183 37.8203C61.7102 35.8909 60.85 34.5974 59.5624 33.9756C57.9009 33.1733 55.4979 33.4461 52.4201 34.784C52.2374 34.8629 52.0248 34.8507 51.8527 34.7524C51.6814 34.6534 51.5726 34.4789 51.5641 34.2889L51.4475 31.7565L45.9845 35.0347C45.6873 35.2132 45.42 35.6706 45.4342 35.9765L45.555 38.5998C45.5636 38.7776 45.4839 38.9494 45.3396 39.0633C39.3462 43.8276 35.7836 50.2774 36.0416 55.8953C36.1589 58.4499 36.8002 60.0249 38.0601 60.8516C39.8616 62.0332 43.1953 61.8479 48.2496 60.2863C51.4368 59.3001 52.981 59.1707 53.948 59.8053C54.7556 60.3355 54.8907 61.2989 54.922 61.9773C54.9838 63.3213 54.5274 65.9116 50.7763 68.1624C49.1603 69.1325 47.7739 69.4558 46.6549 69.1237C45.8735 68.8913 45.2529 68.3362 44.8526 67.5129C44.8426 67.5183 44.832 67.5244 44.8213 67.5304L36.7327 72.385C36.3879 72.5925 36.1319 73.1166 36.1853 73.3726C36.5955 75.3304 37.4998 76.6575 38.8727 77.3157C40.6977 78.1922 43.4207 77.8728 46.7473 76.3961C46.8291 76.3597 46.9165 76.3422 47.004 76.3422L47.0033 76.3429Z" fill="#6D6A88"/>
</g>
<defs>
<filter id="filter0_d_24_44" x="0" y="0" width="115" height="128" filterUnits="userSpaceOnUse" color-interpolation-filters="sRGB">
<feFlood flood-opacity="0" result="BackgroundImageFix"/>
<feColorMatrix in="SourceAlpha" type="matrix" values="0 0 0 0 0 0 0 0 0 0 0 0 0 0 0 0 0 0 127 0" result="hardAlpha"/>
<feOffset dy="4"/>
<feGaussianBlur stdDeviation="2"/>
<feComposite in2="hardAlpha" operator="out"/>
<feColorMatrix type="matrix" values="0 0 0 0 0 0 0 0 0 0 0 0 0 0 0 0 0 0 0.25 0"/>
<feBlend mode="normal" in2="BackgroundImageFix" result="effect1_dropShadow_24_44"/>
<feBlend mode="normal" in="SourceGraphic" in2="effect1_dropShadow_24_44" result="shape"/>
</filter>
</defs>
</svg>
