<svg width="132" height="98" viewBox="0 0 132 98" fill="none" xmlns="http://www.w3.org/2000/svg">
<path d="M7.58008 0.25C3.45654 0.25 0.0800781 3.62646 0.0800781 7.75V90.25C0.0800781 94.3735 3.45654 97.75 7.58008 97.75H123.83C127.954 97.75 131.33 94.3735 131.33 90.25V7.75C131.33 3.62646 127.954 0.25 123.83 0.25H7.58008ZM7.58008 4H123.83C125.925 4 127.58 5.65527 127.58 7.75V90.25C127.58 92.3447 125.925 94 123.83 94H7.58008C5.48535 94 3.83008 92.3447 3.83008 90.25V7.75C3.83008 5.65527 5.48535 4 7.58008 4ZM33.8301 30.25C27.6411 30.25 22.5801 35.311 22.5801 41.5C22.5801 45.2134 24.4111 48.5166 27.209 50.5674C22.2578 53.021 18.8301 58.1187 18.8301 64H22.5801C22.5801 57.7671 27.5972 52.75 33.8301 52.75C40.063 52.75 45.0801 57.7671 45.0801 64H48.8301C48.8301 58.1187 45.4023 53.021 40.4512 50.5674C43.249 48.5166 45.0801 45.2134 45.0801 41.5C45.0801 35.311 40.019 30.25 33.8301 30.25ZM33.8301 34C37.9976 34 41.3301 37.3325 41.3301 41.5C41.3301 45.6675 37.9976 49 33.8301 49C29.6626 49 26.3301 45.6675 26.3301 41.5C26.3301 37.3325 29.6626 34 33.8301 34ZM63.8301 34V37.75H112.58V34H63.8301ZM63.8301 45.25V49H105.08V45.25H63.8301ZM63.8301 56.5V60.25H112.58V56.5H63.8301ZM16.9551 84.625C15.9224 84.625 15.0801 85.4673 15.0801 86.5C15.0801 87.5327 15.9224 88.375 16.9551 88.375C17.9878 88.375 18.8301 87.5327 18.8301 86.5C18.8301 85.4673 17.9878 84.625 16.9551 84.625ZM24.4551 84.625C23.4224 84.625 22.5801 85.4673 22.5801 86.5C22.5801 87.5327 23.4224 88.375 24.4551 88.375C25.4878 88.375 26.3301 87.5327 26.3301 86.5C26.3301 85.4673 25.4878 84.625 24.4551 84.625ZM31.9551 84.625C30.9224 84.625 30.0801 85.4673 30.0801 86.5C30.0801 87.5327 30.9224 88.375 31.9551 88.375C32.9878 88.375 33.8301 87.5327 33.8301 86.5C33.8301 85.4673 32.9878 84.625 31.9551 84.625ZM39.4551 84.625C38.4224 84.625 37.5801 85.4673 37.5801 86.5C37.5801 87.5327 38.4224 88.375 39.4551 88.375C40.4878 88.375 41.3301 87.5327 41.3301 86.5C41.3301 85.4673 40.4878 84.625 39.4551 84.625ZM46.9551 84.625C45.9224 84.625 45.0801 85.4673 45.0801 86.5C45.0801 87.5327 45.9224 88.375 46.9551 88.375C47.9878 88.375 48.8301 87.5327 48.8301 86.5C48.8301 85.4673 47.9878 84.625 46.9551 84.625ZM54.4551 84.625C53.4224 84.625 52.5801 85.4673 52.5801 86.5C52.5801 87.5327 53.4224 88.375 54.4551 88.375C55.4878 88.375 56.3301 87.5327 56.3301 86.5C56.3301 85.4673 55.4878 84.625 54.4551 84.625ZM61.9551 84.625C60.9224 84.625 60.0801 85.4673 60.0801 86.5C60.0801 87.5327 60.9224 88.375 61.9551 88.375C62.9878 88.375 63.8301 87.5327 63.8301 86.5C63.8301 85.4673 62.9878 84.625 61.9551 84.625ZM69.4551 84.625C68.4224 84.625 67.5801 85.4673 67.5801 86.5C67.5801 87.5327 68.4224 88.375 69.4551 88.375C70.4878 88.375 71.3301 87.5327 71.3301 86.5C71.3301 85.4673 70.4878 84.625 69.4551 84.625ZM76.9551 84.625C75.9224 84.625 75.0801 85.4673 75.0801 86.5C75.0801 87.5327 75.9224 88.375 76.9551 88.375C77.9878 88.375 78.8301 87.5327 78.8301 86.5C78.8301 85.4673 77.9878 84.625 76.9551 84.625ZM84.4551 84.625C83.4224 84.625 82.5801 85.4673 82.5801 86.5C82.5801 87.5327 83.4224 88.375 84.4551 88.375C85.4878 88.375 86.3301 87.5327 86.3301 86.5C86.3301 85.4673 85.4878 84.625 84.4551 84.625ZM91.9551 84.625C90.9224 84.625 90.0801 85.4673 90.0801 86.5C90.0801 87.5327 90.9224 88.375 91.9551 88.375C92.9878 88.375 93.8301 87.5327 93.8301 86.5C93.8301 85.4673 92.9878 84.625 91.9551 84.625ZM99.4551 84.625C98.4224 84.625 97.5801 85.4673 97.5801 86.5C97.5801 87.5327 98.4224 88.375 99.4551 88.375C100.488 88.375 101.33 87.5327 101.33 86.5C101.33 85.4673 100.488 84.625 99.4551 84.625ZM106.955 84.625C105.922 84.625 105.08 85.4673 105.08 86.5C105.08 87.5327 105.922 88.375 106.955 88.375C107.988 88.375 108.83 87.5327 108.83 86.5C108.83 85.4673 107.988 84.625 106.955 84.625ZM114.455 84.625C113.422 84.625 112.58 85.4673 112.58 86.5C112.58 87.5327 113.422 88.375 114.455 88.375C115.488 88.375 116.33 87.5327 116.33 86.5C116.33 85.4673 115.488 84.625 114.455 84.625Z" fill="black"/>
</svg>
