<svg width="132" height="132" viewBox="0 0 132 132" fill="none" xmlns="http://www.w3.org/2000/svg">
<path d="M37.9243 13.2C30.8491 13.2 25.0801 18.9558 25.0801 26.0442V107.276C25.0801 114.351 30.8491 120.12 37.9243 120.12H91.2709C94.8986 123.39 99.6827 125.4 104.94 125.4C116.222 125.4 125.4 116.222 125.4 104.94C125.4 94.7842 117.954 86.3573 108.24 84.7713V41.58V41.25C108.24 40.8936 108.109 40.5624 107.859 40.3116L81.1285 13.5816C80.8777 13.3308 80.5465 13.2 80.1901 13.2H37.9243ZM37.9243 15.84H79.2001V29.6742C79.2001 36.6042 84.8362 42.24 91.753 42.24H105.6V84.5135C105.379 84.5064 105.163 84.48 104.94 84.48C103.349 84.48 101.808 84.6813 100.32 85.0266V78.54C100.32 78.1704 100.016 77.88 99.6601 77.88C99.2905 77.88 99.0001 78.1704 99.0001 78.54V85.3643C96.7775 86.0402 94.7253 87.098 92.8925 88.44H83.8201C83.4505 88.44 83.1601 88.7304 83.1601 89.1C83.1601 89.4564 83.4505 89.76 83.8201 89.76H91.2709C88.8797 91.9155 87.0034 94.6198 85.8362 97.68H74.5801C74.2105 97.68 73.9201 97.9704 73.9201 98.34C73.9201 98.6964 74.2105 99 74.5801 99H85.3644C84.7922 100.882 84.4801 102.874 84.4801 104.94C84.4801 107.006 84.7922 108.998 85.3644 110.88H43.1115C38.2671 110.88 34.3201 106.921 34.3201 102.05V32.5385C34.3201 29.7137 35.692 27.0345 37.9888 25.3713C39.4936 24.2757 41.2635 23.7084 43.1115 23.7084C43.4679 23.7084 43.7715 23.4048 43.7715 23.0484C43.7715 22.6788 43.4679 22.3884 43.1115 22.3884C40.9863 22.3884 38.9394 23.0474 37.2102 24.3014C34.5702 26.2154 33.0001 29.2913 33.0001 32.5385V102.05C33.0001 107.647 37.5279 112.2 43.1115 112.2H85.8362C86.5664 114.114 87.5696 115.89 88.8088 117.48H37.9243C32.3011 117.48 27.7201 112.899 27.7201 107.276V26.0442C27.7201 20.421 32.3011 15.84 37.9243 15.84ZM80.5201 16.7114L104.729 40.92H91.753C85.5622 40.92 80.5201 35.8782 80.5201 29.6742V16.7114ZM40.2601 51.48C39.8905 51.48 39.6001 51.7704 39.6001 52.14C39.6001 52.4964 39.8905 52.8 40.2601 52.8H67.9801C68.3497 52.8 68.6401 52.4964 68.6401 52.14C68.6401 51.7704 68.3497 51.48 67.9801 51.48H40.2601ZM71.9401 51.48C71.5705 51.48 71.2801 51.7704 71.2801 52.14V70.62C71.2801 70.9764 71.5705 71.28 71.9401 71.28C72.2965 71.28 72.6001 70.9764 72.6001 70.62V52.8H92.4001V72.6H77.2201C76.8505 72.6 76.5601 72.8904 76.5601 73.26C76.5601 73.6164 76.8505 73.92 77.2201 73.92H93.0601C93.4297 73.92 93.7201 73.6164 93.7201 73.26V52.14C93.7201 51.7704 93.4165 51.48 93.0601 51.48H71.9401ZM40.2601 60.72C39.8905 60.72 39.6001 61.0104 39.6001 61.38C39.6001 61.7364 39.8905 62.04 40.2601 62.04H67.9801C68.3497 62.04 68.6401 61.7364 68.6401 61.38C68.6401 61.0104 68.3497 60.72 67.9801 60.72H40.2601ZM99.6601 60.72C99.2905 60.72 99.0001 61.0104 99.0001 61.38V65.34C99.0001 65.6964 99.2905 66 99.6601 66C100.03 66 100.32 65.6964 100.32 65.34V61.38C100.32 61.0104 100.016 60.72 99.6601 60.72ZM99.6601 67.32C99.2905 67.32 99.0001 67.6104 99.0001 67.98V75.9C99.0001 76.2564 99.2905 76.56 99.6601 76.56C100.03 76.56 100.32 76.2564 100.32 75.9V67.98C100.32 67.6104 100.016 67.32 99.6601 67.32ZM40.2601 69.96C39.8905 69.96 39.6001 70.2504 39.6001 70.62C39.6001 70.9764 39.8905 71.28 40.2601 71.28H67.9801C68.3497 71.28 68.6401 70.9764 68.6401 70.62C68.6401 70.2504 68.3497 69.96 67.9801 69.96H40.2601ZM40.2601 79.2C39.8905 79.2 39.6001 79.4904 39.6001 79.86C39.6001 80.2164 39.8905 80.52 40.2601 80.52H57.4201C57.7897 80.52 58.0801 80.2164 58.0801 79.86C58.0801 79.4904 57.7897 79.2 57.4201 79.2H40.2601ZM61.3801 79.2C61.0105 79.2 60.7201 79.4904 60.7201 79.86C60.7201 80.2164 61.0105 80.52 61.3801 80.52H93.0601C93.4297 80.52 93.7201 80.2164 93.7201 79.86C93.7201 79.4904 93.4165 79.2 93.0601 79.2H61.3801ZM104.94 87.12C114.766 87.12 122.76 95.1139 122.76 104.94C122.76 114.766 114.766 122.76 104.94 122.76C95.114 122.76 87.1201 114.766 87.1201 104.94C87.1201 95.1139 95.114 87.12 104.94 87.12ZM40.2601 88.44C39.8905 88.44 39.6001 88.7304 39.6001 89.1C39.6001 89.4564 39.8905 89.76 40.2601 89.76H62.7001C63.0697 89.76 63.3601 89.4564 63.3601 89.1C63.3601 88.7304 63.0697 88.44 62.7001 88.44H40.2601ZM66.6601 88.44C66.2905 88.44 66.0001 88.7304 66.0001 89.1C66.0001 89.4564 66.2905 89.76 66.6601 89.76H81.1801C81.5497 89.76 81.8401 89.4564 81.8401 89.1C81.8401 88.7304 81.5497 88.44 81.1801 88.44H66.6601ZM104.94 93.72C104.576 93.72 104.28 94.0157 104.28 94.38V104.28H94.5038C94.1395 104.28 93.8438 104.576 93.8438 104.94C93.8438 105.304 94.1395 105.6 94.5038 105.6H104.28V115.5C104.28 115.864 104.576 116.16 104.94 116.16C105.304 116.16 105.6 115.864 105.6 115.5V105.6H115.5C115.864 105.6 116.16 105.304 116.16 104.94C116.16 104.576 115.864 104.28 115.5 104.28H105.6V94.38C105.6 94.0157 105.304 93.72 104.94 93.72ZM40.2601 97.68C39.8905 97.68 39.6001 97.9704 39.6001 98.34C39.6001 98.6964 39.8905 99 40.2601 99H71.9401C72.3097 99 72.6001 98.6964 72.6001 98.34C72.6001 97.9704 72.3097 97.68 71.9401 97.68H40.2601Z" fill="black"/>
</svg>
