<svg width="104" height="126" viewBox="0 0 104 126" fill="none" xmlns="http://www.w3.org/2000/svg">
<g clip-path="url(#clip0_24_91)">
<g filter="url(#filter0_d_24_91)">
<path d="M69.9702 18.0217C71.7234 19.0405 73.222 20.3896 74.5105 21.9695L86.2958 28.8183C85.0073 27.2384 83.5087 25.8893 81.7555 24.8705L69.9702 18.0217Z" fill="#DFDCEA"/>
</g>
<g filter="url(#filter1_d_24_91)">
<path d="M86.2951 29.1907C86.2312 29.1907 86.1669 29.174 86.1085 29.1402L74.3232 22.2914C74.2843 22.2688 74.2501 22.2396 74.2217 22.205C72.904 20.5891 71.4117 19.291 69.7858 18.3457L69.7829 18.344C69.605 18.2409 69.5449 18.0129 69.6481 17.8355C69.7512 17.6576 69.9792 17.5971 70.1566 17.7006C70.1583 17.7014 70.1604 17.7027 70.1625 17.704L81.9419 24.5498C83.6467 25.5402 85.2083 26.8976 86.5836 28.584C86.6972 28.7235 86.6951 28.9239 86.5782 29.0609C86.5051 29.1464 86.4007 29.1915 86.2947 29.1915L86.2951 29.1907ZM74.7553 21.6818L84.301 27.2291C83.4421 26.4321 82.5281 25.7506 81.5682 25.1928L73.9591 20.7711C74.2309 21.063 74.4964 21.3666 74.7553 21.6822V21.6818Z" fill="#6D6A88"/>
</g>
<g filter="url(#filter2_d_24_91)">
<path d="M27.9862 102.549C25.9157 102.237 23.9462 101.608 22.1395 100.578C22.1028 100.558 22.066 100.536 22.0293 100.515L33.8146 107.364C33.8513 107.385 33.8881 107.406 33.9248 107.427C35.7315 108.457 37.701 109.087 39.7715 109.398L27.9862 102.549Z" fill="#DFDCEA"/>
</g>
<g filter="url(#filter3_d_24_91)">
<path d="M39.7717 109.77C39.7534 109.77 39.735 109.769 39.7162 109.766C37.5166 109.435 35.5062 108.757 33.7405 107.751L33.6261 107.685L21.842 100.837C21.6646 100.734 21.604 100.506 21.7068 100.329C21.8099 100.151 22.0379 100.091 22.2149 100.193L22.323 100.255C24.0086 101.216 25.9326 101.864 28.0411 102.182C28.0875 102.189 28.1322 102.204 28.1727 102.228L39.958 109.077C40.1124 109.167 40.1813 109.354 40.1221 109.522C40.069 109.673 39.9271 109.771 39.7713 109.771L39.7717 109.77ZM26.3973 102.623L34.1087 107.104C35.1672 107.707 36.3196 108.187 37.553 108.539L27.8604 102.906C27.3627 102.829 26.875 102.735 26.3973 102.623Z" fill="#6D6A88"/>
</g>
<g filter="url(#filter4_d_24_91)">
<path d="M91.5111 27.9043L103.296 34.7531L99.3561 20.3061L87.5708 13.4573L91.5115 27.9043H91.5111Z" fill="#DFDCEA"/>
</g>
<g filter="url(#filter5_d_24_91)">
<path d="M103.296 35.1255C103.232 35.1255 103.167 35.1088 103.109 35.075L91.324 28.2262C91.2393 28.177 91.1775 28.0968 91.152 28.0024L87.2113 13.555C87.1717 13.4092 87.2239 13.2539 87.3437 13.1621C87.4635 13.0702 87.6268 13.0593 87.7575 13.1353L99.5428 19.9841C99.6275 20.0334 99.6893 20.1136 99.7148 20.2079L103.655 34.6554C103.695 34.8011 103.643 34.9564 103.523 35.0483C103.457 35.0997 103.377 35.1255 103.296 35.1255ZM91.8301 27.6592L102.698 33.9752L99.0371 20.5511L88.1687 14.2351L91.8301 27.6592Z" fill="#6D6A88"/>
</g>
<g filter="url(#filter6_d_24_91)">
<path d="M27.1865 118.046L38.9718 124.894L53.5132 120.98L41.7279 114.131L27.1865 118.046Z" fill="#DFDCEA"/>
</g>
<g filter="url(#filter7_d_24_91)">
<path d="M38.9716 125.267C38.9064 125.267 38.8417 125.25 38.7845 125.216L26.9992 118.367C26.8694 118.292 26.7975 118.146 26.8172 117.997C26.8368 117.848 26.9445 117.725 27.0894 117.686L41.6308 113.772C41.7269 113.746 41.8287 113.76 41.9147 113.809L53.7 120.658C53.8299 120.734 53.9017 120.88 53.8821 121.029C53.8625 121.177 53.7547 121.3 53.6098 121.339L39.068 125.254C39.0359 125.263 39.0037 125.267 38.9711 125.267L38.9716 125.267ZM28.1458 118.173L39.0246 124.495L52.5539 120.853L41.6751 114.531L28.1458 118.173Z" fill="#6D6A88"/>
</g>
<g filter="url(#filter8_d_24_91)">
<path d="M79.7743 41.373C79.5885 47.1601 78.3639 53.5087 76.0249 60.0226L87.8102 66.8714C90.1492 60.3574 91.3738 54.0089 91.5596 48.2218L79.7743 41.373Z" fill="#DFDCEA"/>
</g>
<g filter="url(#filter9_d_24_91)">
<path d="M87.81 67.2435C87.7449 67.2435 87.6806 67.2263 87.623 67.1929L75.8377 60.3441C75.6823 60.2539 75.6134 60.0656 75.6744 59.8965C77.9571 53.5383 79.2113 47.3021 79.4021 41.3606C79.4063 41.2299 79.4794 41.1105 79.5938 41.047C79.7078 40.984 79.8476 40.9848 79.9612 41.0508L91.7465 47.8996C91.8651 47.9685 91.9361 48.0966 91.9315 48.2332C91.7386 54.2523 90.4697 60.565 88.1603 66.9963C88.1232 67.1002 88.0413 67.1821 87.9378 67.2201C87.8964 67.2351 87.853 67.2426 87.81 67.2426V67.2435ZM76.479 59.856L87.6096 66.324C89.7695 60.1909 90.9703 54.1742 91.1795 48.4311L80.1224 42.0052C79.8689 47.7459 78.6443 53.7459 76.479 59.8556V59.856Z" fill="#6D6A88"/>
</g>
<g filter="url(#filter10_d_24_91)">
<path d="M61.81 84.6349C57.3337 89.9225 52.4364 94.1839 47.5024 97.2644L59.2877 104.113C64.2217 101.033 69.1194 96.7713 73.5953 91.4837L61.81 84.6349Z" fill="#DFDCEA"/>
</g>
<g filter="url(#filter11_d_24_91)">
<path d="M59.2053 104.567C59.1406 104.567 59.0763 104.55 59.0183 104.516L47.233 97.6674C47.1198 97.6019 47.0501 97.482 47.048 97.3518C47.0459 97.2215 47.1123 97.0991 47.223 97.0302C52.2797 93.8729 57.0647 89.6487 61.4442 84.4759C61.5606 84.3381 61.7586 84.3034 61.9151 84.3949L73.7004 91.2437C73.7956 91.2988 73.8616 91.3936 73.8804 91.5021C73.8992 91.6107 73.8687 91.7217 73.7977 91.8061C69.3685 97.0382 64.5251 101.313 59.4032 104.511C59.3427 104.548 59.2746 104.568 59.2062 104.568L59.2053 104.567ZM48.1374 97.3321L59.1978 103.76C64.0738 100.686 68.695 96.6181 72.9405 91.6629L61.8095 85.1944C57.5857 90.1418 52.9899 94.2215 48.1374 97.3321Z" fill="#6D6A88"/>
</g>
<g filter="url(#filter12_d_24_91)">
<path d="M72.7046 86.6867L84.4899 93.5355L95.091 75.1736L83.3058 68.3248L72.7046 86.6867Z" fill="#DFDCEA"/>
</g>
<g filter="url(#filter13_d_24_91)">
<path d="M84.4901 93.908C84.425 93.908 84.3602 93.8909 84.303 93.8575L72.5173 87.0087C72.3399 86.9055 72.2793 86.6784 72.382 86.5009L82.9832 68.1391C83.0329 68.0535 83.1139 67.9913 83.2095 67.9654C83.3055 67.9399 83.407 67.9537 83.4922 68.0034L95.2775 74.8522C95.4549 74.9553 95.5155 75.1825 95.4128 75.3599L84.8116 93.7218C84.7619 93.8074 84.6809 93.8696 84.5853 93.8955C84.5536 93.9038 84.5218 93.908 84.4901 93.908ZM73.2125 86.5515L84.3544 93.0266L94.5835 75.3094L83.4417 68.8343L73.2125 86.5515Z" fill="#6D6A88"/>
</g>
<g filter="url(#filter14_d_24_91)">
<path d="M63.9995 15.9795L75.7848 22.8283L76.5844 7.33195L64.7991 0.483154L63.9995 15.9795Z" fill="#BCB2CD"/>
</g>
<g filter="url(#filter15_d_24_91)">
<path d="M75.7843 23.2008C75.7196 23.2008 75.6549 23.1837 75.5973 23.1503L63.812 16.3015C63.6913 16.2317 63.6203 16.0998 63.6274 15.9607L64.427 0.464424C64.4337 0.334571 64.5072 0.218079 64.6216 0.156285C64.7352 0.0944896 64.8734 0.0961598 64.9857 0.161712L76.771 7.01051C76.8916 7.08024 76.9626 7.21218 76.9555 7.35122L76.1559 22.8475C76.1493 22.9774 76.0758 23.0939 75.9614 23.1557C75.9063 23.1857 75.8453 23.2008 75.7843 23.2008ZM64.3828 15.772L75.444 22.2004L76.2006 7.53994L65.1393 1.1116L64.3828 15.772Z" fill="#6D6A88"/>
</g>
<g filter="url(#filter16_d_24_91)">
<path d="M4.4126 105.071L16.1979 111.92L29.2583 103.407L17.473 96.5585L4.4126 105.071Z" fill="#BCB2CD"/>
</g>
<g filter="url(#filter17_d_24_91)">
<path d="M16.198 112.292C16.1337 112.292 16.0689 112.274 16.0109 112.241L4.22562 105.392C4.11372 105.327 4.04357 105.209 4.04065 105.08C4.03731 104.95 4.10119 104.829 4.20934 104.758L17.2698 96.2462C17.3879 96.1693 17.5387 96.166 17.6602 96.2361L29.4455 103.085C29.5574 103.15 29.6275 103.268 29.6304 103.397C29.6338 103.527 29.5699 103.648 29.4617 103.719L16.4013 112.231C16.3395 112.271 16.2689 112.292 16.198 112.292ZM5.12206 105.052L16.1867 111.482L28.5486 103.425L17.484 96.9952L5.12206 105.052Z" fill="#6D6A88"/>
</g>
<g filter="url(#filter18_d_24_91)">
<path d="M35.3221 53.1821C29.4671 63.3236 29.4984 74.2688 35.3915 77.6249L47.1767 84.4737C41.2837 81.118 41.2524 70.1724 47.1074 60.0309C50.0352 54.9616 53.8794 51.0523 57.7291 48.8297C61.5783 46.6072 65.4326 46.0719 68.3795 47.7496L56.5942 40.9008C53.6473 39.2231 49.7934 39.7584 45.9438 41.9809C42.0941 44.2035 38.2499 48.1128 35.3221 53.1821Z" fill="#BCB2CD"/>
</g>
<g filter="url(#filter19_d_24_91)">
<path d="M47.176 84.8462C47.1138 84.8462 47.0504 84.8303 46.9923 84.7973C46.9543 84.7756 46.9163 84.7539 46.8792 84.7313L35.2045 77.9464C33.2417 76.8287 31.8258 74.8479 31.1135 72.2195C29.6918 66.9762 31.1812 59.61 34.9999 52.9955C37.8642 48.036 41.6846 44.0098 45.7577 41.6582C49.8938 39.2699 53.8077 38.8858 56.778 40.5768L68.5663 47.4277C68.7433 47.5308 68.8042 47.7575 68.702 47.935C68.5997 48.1124 68.3729 48.1742 68.1955 48.0728C65.464 46.5183 61.8135 46.9016 57.9154 49.1517C53.9538 51.4389 50.2299 55.3683 47.4299 60.2167C43.7067 66.6659 42.2454 73.8149 43.6174 78.8738C44.2642 81.2587 45.5213 83.0595 47.257 84.0892L47.3639 84.1514C47.541 84.2545 47.6019 84.4812 47.4996 84.6587C47.4307 84.7785 47.3055 84.8453 47.1769 84.8453L47.176 84.8462ZM35.6442 53.3683C31.921 59.8171 30.4597 66.9661 31.8317 72.0254C32.4914 74.4579 33.7857 76.2826 35.5753 77.3018L44.4449 82.4562C43.771 81.5013 43.2495 80.3639 42.8984 79.0696C41.4767 73.8266 42.966 66.4601 46.7848 59.8455C49.6491 54.8861 53.4699 50.8598 57.5425 48.5083C60.3246 46.902 63.0068 46.2018 65.3675 46.4306L56.4069 41.2231C53.6779 39.6699 50.0274 40.0532 46.1297 42.3037C42.1681 44.591 38.4442 48.5199 35.6442 53.3683Z" fill="#6D6A88"/>
</g>
<g filter="url(#filter20_d_24_91)">
<path d="M79.7744 41.3731L91.5597 48.2219L103.296 34.7531L91.5108 27.9043L79.7744 41.3731Z" fill="#BCB2CD"/>
</g>
<g filter="url(#filter21_d_24_91)">
<path d="M91.5591 48.5939C91.4952 48.5939 91.4305 48.5772 91.3724 48.5434L79.5871 41.6946C79.4911 41.6391 79.4251 41.543 79.4068 41.4336C79.3888 41.3238 79.4206 41.2119 79.4936 41.1284L91.2301 27.6596C91.3474 27.5252 91.5436 27.493 91.6977 27.5824L103.483 34.4312C103.579 34.4867 103.645 34.5827 103.663 34.6921C103.681 34.802 103.65 34.9139 103.577 34.9974L91.8397 48.4661C91.767 48.5496 91.6639 48.5939 91.5591 48.5939ZM80.3508 41.2775L91.4806 47.7455L102.719 34.8483L91.5896 28.3803L80.3508 41.2775Z" fill="#6D6A88"/>
</g>
<g filter="url(#filter22_d_24_91)">
<path d="M41.728 114.131L53.5133 120.98L59.2874 104.113L47.5021 97.2645L41.728 114.131Z" fill="#BCB2CD"/>
</g>
<g filter="url(#filter23_d_24_91)">
<path d="M53.5136 121.352C53.4489 121.352 53.3842 121.335 53.3266 121.301L41.5413 114.453C41.3876 114.364 41.3187 114.178 41.3759 114.011L47.1504 97.1439C47.1863 97.0386 47.2677 96.9547 47.3725 96.9159C47.4765 96.8775 47.593 96.8871 47.6894 96.9426L59.4747 103.791C59.6284 103.88 59.6973 104.066 59.6401 104.234L53.8656 121.1C53.8297 121.205 53.7483 121.289 53.6435 121.328C53.6013 121.344 53.5579 121.352 53.5136 121.352ZM42.1793 113.963L53.3086 120.43L58.8372 104.282L47.7078 97.814L42.1793 113.963Z" fill="#6D6A88"/>
</g>
<g filter="url(#filter24_d_24_91)">
<path d="M83.3058 68.3248L95.0911 75.1736L87.8102 66.8714L76.0249 60.0226L83.3058 68.3248Z" fill="#BCB2CD"/>
</g>
<g filter="url(#filter25_d_24_91)">
<path d="M95.0911 75.5461C95.0272 75.5461 94.9629 75.5294 94.9044 75.4955L83.1191 68.6467C83.0845 68.6267 83.0528 68.6008 83.026 68.5703L75.7451 60.2681C75.6248 60.1307 75.6219 59.927 75.7376 59.7863C75.8537 59.6456 76.0541 59.6088 76.2119 59.7011L87.9976 66.5499C88.0323 66.5699 88.064 66.5958 88.0907 66.6263L95.3717 74.9289C95.4919 75.0663 95.4948 75.2701 95.3792 75.4108C95.3065 75.4993 95.2001 75.5465 95.0919 75.5465L95.0911 75.5461ZM83.5459 68.0338L93.3124 73.7093L87.5713 67.1624L77.8048 61.4869L83.5459 68.0338Z" fill="#6D6A88"/>
</g>
<g filter="url(#filter26_d_24_91)">
<path d="M61.8101 84.6349L73.5953 91.4837L84.4896 93.5359L72.7043 86.6871L61.8101 84.6349Z" fill="#BCB2CD"/>
</g>
<g filter="url(#filter27_d_24_91)">
<path d="M84.4903 93.9079C84.4674 93.9079 84.4444 93.9058 84.421 93.9013L73.5267 91.8491C73.485 91.8411 73.4453 91.8265 73.4086 91.8052L61.6233 84.9564C61.4667 84.8654 61.3982 84.6746 61.4613 84.5047C61.5243 84.3347 61.6997 84.2358 61.8788 84.2688L72.7731 86.3209C72.8149 86.3289 72.8545 86.3435 72.8913 86.3648L84.677 93.2136C84.8335 93.3046 84.902 93.4954 84.839 93.6653C84.7839 93.8132 84.6431 93.9079 84.4903 93.9079ZM73.7276 91.1297L82.4298 92.7689L72.5731 87.0408L63.8709 85.4015L73.7276 91.1297Z" fill="#6D6A88"/>
</g>
<g filter="url(#filter28_d_24_91)">
<path d="M12.2111 77.1557C12.3969 71.3691 13.624 65.0188 15.9627 58.5049L8.68171 50.2022L19.2829 31.8404L30.1746 33.8942C34.651 28.6066 39.5483 24.3456 44.4848 21.2634L50.2588 4.39674L64.799 0.482788L63.9994 15.9791C66.0704 16.2906 68.0395 16.9207 69.8461 17.9503C71.6528 18.977 73.1918 20.3524 74.5104 21.969L87.5704 13.4568L91.5107 27.9039L79.7742 41.3726C79.5884 47.1597 78.3638 53.5082 76.0248 60.0222L83.3057 68.3244L72.7046 86.6863L61.8103 84.6341C57.3339 89.9217 52.4367 94.1831 47.5027 97.2636L41.7286 114.13L27.1872 118.045L27.9868 102.548C25.9162 102.236 23.9467 101.607 22.1401 100.578C20.3359 99.5496 18.7944 98.1759 17.4733 96.5576L4.41326 105.07L0.472168 90.6232L12.2111 77.1557ZM35.322 53.1826C29.4669 63.324 29.4982 74.2692 35.3913 77.6254C38.3383 79.3043 42.1921 78.7694 46.0417 76.5469C49.891 74.3244 53.7356 70.4146 56.6634 65.3441C62.5184 55.2051 62.4871 44.2599 56.5941 40.9013C53.6471 39.2236 49.7933 39.7589 45.944 41.9814C42.0948 44.2039 38.2497 48.1133 35.322 53.1826Z" fill="#EDEDED"/>
</g>
<g filter="url(#filter29_d_24_91)">
<path d="M27.1866 118.418C27.1023 118.418 27.0196 118.389 26.9528 118.335C26.8601 118.26 26.8087 118.146 26.815 118.027L27.5974 102.864C25.5277 102.516 23.6309 101.857 21.9553 100.902C20.2852 99.9502 18.7537 98.6555 17.3984 97.0509L4.616 105.382C4.51621 105.447 4.39137 105.461 4.28031 105.418C4.16924 105.376 4.0849 105.283 4.05358 105.168L0.113324 90.7207C0.0803388 90.6004 0.109984 90.4722 0.19182 90.3783L11.8439 77.0105C12.0489 71.0999 13.2915 64.9029 15.5391 58.5856L8.40219 50.4475C8.29739 50.3277 8.28027 50.154 8.3596 50.0158L18.9608 31.6539C19.0397 31.5174 19.1971 31.4464 19.352 31.4744L30.0317 33.4877C34.3903 28.3692 39.1477 24.1746 44.176 21.0173L49.9075 4.27543C49.9476 4.1581 50.0432 4.06875 50.163 4.0366L64.702 0.123062C64.8168 0.0917473 64.9399 0.118052 65.0326 0.19279C65.1253 0.267946 65.1767 0.38235 65.1704 0.501347L64.388 15.6636C66.4564 16.011 68.3529 16.6707 70.0301 17.6265C71.6969 18.5739 73.228 19.8678 74.5845 21.4757L87.3669 13.1447C87.4667 13.0795 87.5915 13.0662 87.7026 13.1088C87.8137 13.1509 87.898 13.244 87.9293 13.3589L91.87 27.8063C91.903 27.9266 91.8733 28.0548 91.7915 28.1487L80.1419 41.5181C79.9365 47.4333 78.6947 53.6291 76.4488 59.9418L83.5857 68.0795C83.6905 68.1993 83.7076 68.373 83.6283 68.5112L73.0271 86.8731C72.9482 87.01 72.7912 87.0819 72.6359 87.0526L61.9542 85.0405C57.5955 90.1591 52.8386 94.3532 47.8119 97.5098L42.0804 114.252C42.0403 114.369 41.9447 114.458 41.8253 114.49L27.2839 118.405C27.2517 118.414 27.2192 118.418 27.1866 118.418ZM17.4727 96.1858C17.5812 96.1858 17.6881 96.2329 17.7612 96.3227C19.1098 97.9753 20.6451 99.298 22.3236 100.255C24.0092 101.215 25.9332 101.863 28.0417 102.181C28.2313 102.209 28.3678 102.377 28.3578 102.568L27.5845 117.553L41.4399 113.823L47.1501 97.1436C47.1777 97.0626 47.2324 96.9937 47.305 96.9486C52.3618 93.7912 57.1467 89.567 61.5262 84.3942C61.6126 84.2919 61.7471 84.2447 61.879 84.2689L72.514 86.2719L82.85 68.3697L75.7449 60.2679C75.6559 60.166 75.6288 60.024 75.6747 59.8967C77.9574 53.5385 79.2116 47.3022 79.4025 41.3607C79.4054 41.2751 79.4375 41.1929 79.4939 41.1282L91.0997 27.8093L87.346 14.047L74.714 22.2803C74.5545 22.3847 74.3428 22.3513 74.2221 22.2039C72.8718 20.548 71.3374 19.2256 69.6627 18.2732C67.9754 17.3117 66.0518 16.6636 63.9445 16.3467C63.7554 16.3183 63.6185 16.1509 63.6285 15.9597L64.4017 0.97483L50.5488 4.7034L44.8386 21.3826C44.8111 21.4636 44.7564 21.5325 44.6837 21.578C39.6253 24.7362 34.84 28.9604 30.4605 34.1336C30.374 34.2359 30.24 34.2835 30.1077 34.2589L19.4748 32.2543L9.13914 50.1565L16.2443 58.2583C16.3332 58.3602 16.3604 58.5021 16.3144 58.6295C14.0297 64.9927 12.7746 71.2294 12.5846 77.1663C12.5817 77.2523 12.5496 77.3341 12.4932 77.3993L0.883673 90.7173L4.6373 104.48L17.2693 96.2463C17.332 96.2054 17.4025 96.1858 17.4723 96.1858H17.4727ZM39.2921 78.988C37.8045 78.988 36.4266 78.6431 35.207 77.9483C33.2412 76.8289 31.8258 74.8481 31.1131 72.2198C29.6914 66.9764 31.1807 59.6103 34.9995 52.9957C35.0011 52.9924 35.0032 52.989 35.0053 52.9861C37.8688 48.0312 41.6871 44.0087 45.7572 41.6584C49.8933 39.2701 53.8073 38.8856 56.7776 40.5774C58.7438 41.6981 60.16 43.6801 60.8723 46.3097C62.2928 51.5531 60.8034 58.918 56.9851 65.5296C54.1212 70.4903 50.3004 74.517 46.2274 76.869C43.789 78.2765 41.4278 78.988 39.2921 78.988ZM35.6387 53.3782C31.9193 59.8249 30.4609 66.9689 31.8317 72.0252C32.4914 74.4577 33.7857 76.2824 35.5753 77.3016C38.3059 78.8577 41.9568 78.4753 45.8553 76.2243C49.8173 73.9371 53.5409 70.0068 56.3404 65.1576C60.0632 58.7113 61.5245 51.5636 60.1538 46.5047C59.4945 44.0705 58.1993 42.2446 56.4093 41.2246C53.6787 39.6697 50.0277 40.0526 46.1297 42.3035C42.1677 44.5908 38.4441 48.5206 35.6441 53.3686C35.6421 53.3719 35.6408 53.3752 35.6387 53.3782Z" fill="#6D6A88"/>
</g>
</g>
<defs>
<filter id="filter0_d_24_91" x="65.9702" y="18.0217" width="24.3257" height="18.7966" filterUnits="userSpaceOnUse" color-interpolation-filters="sRGB">
<feFlood flood-opacity="0" result="BackgroundImageFix"/>
<feColorMatrix in="SourceAlpha" type="matrix" values="0 0 0 0 0 0 0 0 0 0 0 0 0 0 0 0 0 0 127 0" result="hardAlpha"/>
<feOffset dy="4"/>
<feGaussianBlur stdDeviation="2"/>
<feComposite in2="hardAlpha" operator="out"/>
<feColorMatrix type="matrix" values="0 0 0 0 0 0 0 0 0 0 0 0 0 0 0 0 0 0 0.25 0"/>
<feBlend mode="normal" in2="BackgroundImageFix" result="effect1_dropShadow_24_91"/>
<feBlend mode="normal" in="SourceGraphic" in2="effect1_dropShadow_24_91" result="shape"/>
</filter>
<filter id="filter1_d_24_91" x="65.5977" y="17.65" width="25.0698" height="19.5415" filterUnits="userSpaceOnUse" color-interpolation-filters="sRGB">
<feFlood flood-opacity="0" result="BackgroundImageFix"/>
<feColorMatrix in="SourceAlpha" type="matrix" values="0 0 0 0 0 0 0 0 0 0 0 0 0 0 0 0 0 0 127 0" result="hardAlpha"/>
<feOffset dy="4"/>
<feGaussianBlur stdDeviation="2"/>
<feComposite in2="hardAlpha" operator="out"/>
<feColorMatrix type="matrix" values="0 0 0 0 0 0 0 0 0 0 0 0 0 0 0 0 0 0 0.25 0"/>
<feBlend mode="normal" in2="BackgroundImageFix" result="effect1_dropShadow_24_91"/>
<feBlend mode="normal" in="SourceGraphic" in2="effect1_dropShadow_24_91" result="shape"/>
</filter>
<filter id="filter2_d_24_91" x="18.0293" y="100.515" width="25.7422" height="16.883" filterUnits="userSpaceOnUse" color-interpolation-filters="sRGB">
<feFlood flood-opacity="0" result="BackgroundImageFix"/>
<feColorMatrix in="SourceAlpha" type="matrix" values="0 0 0 0 0 0 0 0 0 0 0 0 0 0 0 0 0 0 127 0" result="hardAlpha"/>
<feOffset dy="4"/>
<feGaussianBlur stdDeviation="2"/>
<feComposite in2="hardAlpha" operator="out"/>
<feColorMatrix type="matrix" values="0 0 0 0 0 0 0 0 0 0 0 0 0 0 0 0 0 0 0.25 0"/>
<feBlend mode="normal" in2="BackgroundImageFix" result="effect1_dropShadow_24_91"/>
<feBlend mode="normal" in="SourceGraphic" in2="effect1_dropShadow_24_91" result="shape"/>
</filter>
<filter id="filter3_d_24_91" x="17.6567" y="100.143" width="26.4863" height="17.6275" filterUnits="userSpaceOnUse" color-interpolation-filters="sRGB">
<feFlood flood-opacity="0" result="BackgroundImageFix"/>
<feColorMatrix in="SourceAlpha" type="matrix" values="0 0 0 0 0 0 0 0 0 0 0 0 0 0 0 0 0 0 127 0" result="hardAlpha"/>
<feOffset dy="4"/>
<feGaussianBlur stdDeviation="2"/>
<feComposite in2="hardAlpha" operator="out"/>
<feColorMatrix type="matrix" values="0 0 0 0 0 0 0 0 0 0 0 0 0 0 0 0 0 0 0.25 0"/>
<feBlend mode="normal" in2="BackgroundImageFix" result="effect1_dropShadow_24_91"/>
<feBlend mode="normal" in="SourceGraphic" in2="effect1_dropShadow_24_91" result="shape"/>
</filter>
<filter id="filter4_d_24_91" x="83.5708" y="13.4573" width="23.7256" height="29.2959" filterUnits="userSpaceOnUse" color-interpolation-filters="sRGB">
<feFlood flood-opacity="0" result="BackgroundImageFix"/>
<feColorMatrix in="SourceAlpha" type="matrix" values="0 0 0 0 0 0 0 0 0 0 0 0 0 0 0 0 0 0 127 0" result="hardAlpha"/>
<feOffset dy="4"/>
<feGaussianBlur stdDeviation="2"/>
<feComposite in2="hardAlpha" operator="out"/>
<feColorMatrix type="matrix" values="0 0 0 0 0 0 0 0 0 0 0 0 0 0 0 0 0 0 0.25 0"/>
<feBlend mode="normal" in2="BackgroundImageFix" result="effect1_dropShadow_24_91"/>
<feBlend mode="normal" in="SourceGraphic" in2="effect1_dropShadow_24_91" result="shape"/>
</filter>
<filter id="filter5_d_24_91" x="83.1982" y="13.085" width="24.4702" height="30.0405" filterUnits="userSpaceOnUse" color-interpolation-filters="sRGB">
<feFlood flood-opacity="0" result="BackgroundImageFix"/>
<feColorMatrix in="SourceAlpha" type="matrix" values="0 0 0 0 0 0 0 0 0 0 0 0 0 0 0 0 0 0 127 0" result="hardAlpha"/>
<feOffset dy="4"/>
<feGaussianBlur stdDeviation="2"/>
<feComposite in2="hardAlpha" operator="out"/>
<feColorMatrix type="matrix" values="0 0 0 0 0 0 0 0 0 0 0 0 0 0 0 0 0 0 0.25 0"/>
<feBlend mode="normal" in2="BackgroundImageFix" result="effect1_dropShadow_24_91"/>
<feBlend mode="normal" in="SourceGraphic" in2="effect1_dropShadow_24_91" result="shape"/>
</filter>
<filter id="filter6_d_24_91" x="23.1865" y="114.131" width="34.3267" height="18.7636" filterUnits="userSpaceOnUse" color-interpolation-filters="sRGB">
<feFlood flood-opacity="0" result="BackgroundImageFix"/>
<feColorMatrix in="SourceAlpha" type="matrix" values="0 0 0 0 0 0 0 0 0 0 0 0 0 0 0 0 0 0 127 0" result="hardAlpha"/>
<feOffset dy="4"/>
<feGaussianBlur stdDeviation="2"/>
<feComposite in2="hardAlpha" operator="out"/>
<feColorMatrix type="matrix" values="0 0 0 0 0 0 0 0 0 0 0 0 0 0 0 0 0 0 0.25 0"/>
<feBlend mode="normal" in2="BackgroundImageFix" result="effect1_dropShadow_24_91"/>
<feBlend mode="normal" in="SourceGraphic" in2="effect1_dropShadow_24_91" result="shape"/>
</filter>
<filter id="filter7_d_24_91" x="22.814" y="113.759" width="35.0713" height="19.5081" filterUnits="userSpaceOnUse" color-interpolation-filters="sRGB">
<feFlood flood-opacity="0" result="BackgroundImageFix"/>
<feColorMatrix in="SourceAlpha" type="matrix" values="0 0 0 0 0 0 0 0 0 0 0 0 0 0 0 0 0 0 127 0" result="hardAlpha"/>
<feOffset dy="4"/>
<feGaussianBlur stdDeviation="2"/>
<feComposite in2="hardAlpha" operator="out"/>
<feColorMatrix type="matrix" values="0 0 0 0 0 0 0 0 0 0 0 0 0 0 0 0 0 0 0.25 0"/>
<feBlend mode="normal" in2="BackgroundImageFix" result="effect1_dropShadow_24_91"/>
<feBlend mode="normal" in="SourceGraphic" in2="effect1_dropShadow_24_91" result="shape"/>
</filter>
<filter id="filter8_d_24_91" x="72.0249" y="41.373" width="23.5347" height="33.4983" filterUnits="userSpaceOnUse" color-interpolation-filters="sRGB">
<feFlood flood-opacity="0" result="BackgroundImageFix"/>
<feColorMatrix in="SourceAlpha" type="matrix" values="0 0 0 0 0 0 0 0 0 0 0 0 0 0 0 0 0 0 127 0" result="hardAlpha"/>
<feOffset dy="4"/>
<feGaussianBlur stdDeviation="2"/>
<feComposite in2="hardAlpha" operator="out"/>
<feColorMatrix type="matrix" values="0 0 0 0 0 0 0 0 0 0 0 0 0 0 0 0 0 0 0.25 0"/>
<feBlend mode="normal" in2="BackgroundImageFix" result="effect1_dropShadow_24_91"/>
<feBlend mode="normal" in="SourceGraphic" in2="effect1_dropShadow_24_91" result="shape"/>
</filter>
<filter id="filter9_d_24_91" x="71.6523" y="41.0005" width="24.2793" height="34.2429" filterUnits="userSpaceOnUse" color-interpolation-filters="sRGB">
<feFlood flood-opacity="0" result="BackgroundImageFix"/>
<feColorMatrix in="SourceAlpha" type="matrix" values="0 0 0 0 0 0 0 0 0 0 0 0 0 0 0 0 0 0 127 0" result="hardAlpha"/>
<feOffset dy="4"/>
<feGaussianBlur stdDeviation="2"/>
<feComposite in2="hardAlpha" operator="out"/>
<feColorMatrix type="matrix" values="0 0 0 0 0 0 0 0 0 0 0 0 0 0 0 0 0 0 0.25 0"/>
<feBlend mode="normal" in2="BackgroundImageFix" result="effect1_dropShadow_24_91"/>
<feBlend mode="normal" in="SourceGraphic" in2="effect1_dropShadow_24_91" result="shape"/>
</filter>
<filter id="filter10_d_24_91" x="43.5024" y="84.6349" width="34.0928" height="27.4783" filterUnits="userSpaceOnUse" color-interpolation-filters="sRGB">
<feFlood flood-opacity="0" result="BackgroundImageFix"/>
<feColorMatrix in="SourceAlpha" type="matrix" values="0 0 0 0 0 0 0 0 0 0 0 0 0 0 0 0 0 0 127 0" result="hardAlpha"/>
<feOffset dy="4"/>
<feGaussianBlur stdDeviation="2"/>
<feComposite in2="hardAlpha" operator="out"/>
<feColorMatrix type="matrix" values="0 0 0 0 0 0 0 0 0 0 0 0 0 0 0 0 0 0 0.25 0"/>
<feBlend mode="normal" in2="BackgroundImageFix" result="effect1_dropShadow_24_91"/>
<feBlend mode="normal" in="SourceGraphic" in2="effect1_dropShadow_24_91" result="shape"/>
</filter>
<filter id="filter11_d_24_91" x="43.0479" y="84.344" width="34.8379" height="28.2236" filterUnits="userSpaceOnUse" color-interpolation-filters="sRGB">
<feFlood flood-opacity="0" result="BackgroundImageFix"/>
<feColorMatrix in="SourceAlpha" type="matrix" values="0 0 0 0 0 0 0 0 0 0 0 0 0 0 0 0 0 0 127 0" result="hardAlpha"/>
<feOffset dy="4"/>
<feGaussianBlur stdDeviation="2"/>
<feComposite in2="hardAlpha" operator="out"/>
<feColorMatrix type="matrix" values="0 0 0 0 0 0 0 0 0 0 0 0 0 0 0 0 0 0 0.25 0"/>
<feBlend mode="normal" in2="BackgroundImageFix" result="effect1_dropShadow_24_91"/>
<feBlend mode="normal" in="SourceGraphic" in2="effect1_dropShadow_24_91" result="shape"/>
</filter>
<filter id="filter12_d_24_91" x="68.7046" y="68.3248" width="30.3862" height="33.2107" filterUnits="userSpaceOnUse" color-interpolation-filters="sRGB">
<feFlood flood-opacity="0" result="BackgroundImageFix"/>
<feColorMatrix in="SourceAlpha" type="matrix" values="0 0 0 0 0 0 0 0 0 0 0 0 0 0 0 0 0 0 127 0" result="hardAlpha"/>
<feOffset dy="4"/>
<feGaussianBlur stdDeviation="2"/>
<feComposite in2="hardAlpha" operator="out"/>
<feColorMatrix type="matrix" values="0 0 0 0 0 0 0 0 0 0 0 0 0 0 0 0 0 0 0.25 0"/>
<feBlend mode="normal" in2="BackgroundImageFix" result="effect1_dropShadow_24_91"/>
<feBlend mode="normal" in="SourceGraphic" in2="effect1_dropShadow_24_91" result="shape"/>
</filter>
<filter id="filter13_d_24_91" x="68.332" y="67.9529" width="31.1309" height="33.9551" filterUnits="userSpaceOnUse" color-interpolation-filters="sRGB">
<feFlood flood-opacity="0" result="BackgroundImageFix"/>
<feColorMatrix in="SourceAlpha" type="matrix" values="0 0 0 0 0 0 0 0 0 0 0 0 0 0 0 0 0 0 127 0" result="hardAlpha"/>
<feOffset dy="4"/>
<feGaussianBlur stdDeviation="2"/>
<feComposite in2="hardAlpha" operator="out"/>
<feColorMatrix type="matrix" values="0 0 0 0 0 0 0 0 0 0 0 0 0 0 0 0 0 0 0.25 0"/>
<feBlend mode="normal" in2="BackgroundImageFix" result="effect1_dropShadow_24_91"/>
<feBlend mode="normal" in="SourceGraphic" in2="effect1_dropShadow_24_91" result="shape"/>
</filter>
<filter id="filter14_d_24_91" x="59.9995" y="0.483154" width="20.585" height="30.3451" filterUnits="userSpaceOnUse" color-interpolation-filters="sRGB">
<feFlood flood-opacity="0" result="BackgroundImageFix"/>
<feColorMatrix in="SourceAlpha" type="matrix" values="0 0 0 0 0 0 0 0 0 0 0 0 0 0 0 0 0 0 127 0" result="hardAlpha"/>
<feOffset dy="4"/>
<feGaussianBlur stdDeviation="2"/>
<feComposite in2="hardAlpha" operator="out"/>
<feColorMatrix type="matrix" values="0 0 0 0 0 0 0 0 0 0 0 0 0 0 0 0 0 0 0.25 0"/>
<feBlend mode="normal" in2="BackgroundImageFix" result="effect1_dropShadow_24_91"/>
<feBlend mode="normal" in="SourceGraphic" in2="effect1_dropShadow_24_91" result="shape"/>
</filter>
<filter id="filter15_d_24_91" x="59.627" y="0.111206" width="21.3291" height="31.0896" filterUnits="userSpaceOnUse" color-interpolation-filters="sRGB">
<feFlood flood-opacity="0" result="BackgroundImageFix"/>
<feColorMatrix in="SourceAlpha" type="matrix" values="0 0 0 0 0 0 0 0 0 0 0 0 0 0 0 0 0 0 127 0" result="hardAlpha"/>
<feOffset dy="4"/>
<feGaussianBlur stdDeviation="2"/>
<feComposite in2="hardAlpha" operator="out"/>
<feColorMatrix type="matrix" values="0 0 0 0 0 0 0 0 0 0 0 0 0 0 0 0 0 0 0.25 0"/>
<feBlend mode="normal" in2="BackgroundImageFix" result="effect1_dropShadow_24_91"/>
<feBlend mode="normal" in="SourceGraphic" in2="effect1_dropShadow_24_91" result="shape"/>
</filter>
<filter id="filter16_d_24_91" x="0.412598" y="96.5585" width="32.8457" height="23.361" filterUnits="userSpaceOnUse" color-interpolation-filters="sRGB">
<feFlood flood-opacity="0" result="BackgroundImageFix"/>
<feColorMatrix in="SourceAlpha" type="matrix" values="0 0 0 0 0 0 0 0 0 0 0 0 0 0 0 0 0 0 127 0" result="hardAlpha"/>
<feOffset dy="4"/>
<feGaussianBlur stdDeviation="2"/>
<feComposite in2="hardAlpha" operator="out"/>
<feColorMatrix type="matrix" values="0 0 0 0 0 0 0 0 0 0 0 0 0 0 0 0 0 0 0.25 0"/>
<feBlend mode="normal" in2="BackgroundImageFix" result="effect1_dropShadow_24_91"/>
<feBlend mode="normal" in="SourceGraphic" in2="effect1_dropShadow_24_91" result="shape"/>
</filter>
<filter id="filter17_d_24_91" x="0.0405273" y="96.1859" width="33.5898" height="24.1056" filterUnits="userSpaceOnUse" color-interpolation-filters="sRGB">
<feFlood flood-opacity="0" result="BackgroundImageFix"/>
<feColorMatrix in="SourceAlpha" type="matrix" values="0 0 0 0 0 0 0 0 0 0 0 0 0 0 0 0 0 0 127 0" result="hardAlpha"/>
<feOffset dy="4"/>
<feGaussianBlur stdDeviation="2"/>
<feComposite in2="hardAlpha" operator="out"/>
<feColorMatrix type="matrix" values="0 0 0 0 0 0 0 0 0 0 0 0 0 0 0 0 0 0 0.25 0"/>
<feBlend mode="normal" in2="BackgroundImageFix" result="effect1_dropShadow_24_91"/>
<feBlend mode="normal" in="SourceGraphic" in2="effect1_dropShadow_24_91" result="shape"/>
</filter>
<filter id="filter18_d_24_91" x="26.9512" y="39.9161" width="45.4282" height="52.5576" filterUnits="userSpaceOnUse" color-interpolation-filters="sRGB">
<feFlood flood-opacity="0" result="BackgroundImageFix"/>
<feColorMatrix in="SourceAlpha" type="matrix" values="0 0 0 0 0 0 0 0 0 0 0 0 0 0 0 0 0 0 127 0" result="hardAlpha"/>
<feOffset dy="4"/>
<feGaussianBlur stdDeviation="2"/>
<feComposite in2="hardAlpha" operator="out"/>
<feColorMatrix type="matrix" values="0 0 0 0 0 0 0 0 0 0 0 0 0 0 0 0 0 0 0.25 0"/>
<feBlend mode="normal" in2="BackgroundImageFix" result="effect1_dropShadow_24_91"/>
<feBlend mode="normal" in="SourceGraphic" in2="effect1_dropShadow_24_91" result="shape"/>
</filter>
<filter id="filter19_d_24_91" x="26.584" y="39.5385" width="46.1675" height="53.3077" filterUnits="userSpaceOnUse" color-interpolation-filters="sRGB">
<feFlood flood-opacity="0" result="BackgroundImageFix"/>
<feColorMatrix in="SourceAlpha" type="matrix" values="0 0 0 0 0 0 0 0 0 0 0 0 0 0 0 0 0 0 127 0" result="hardAlpha"/>
<feOffset dy="4"/>
<feGaussianBlur stdDeviation="2"/>
<feComposite in2="hardAlpha" operator="out"/>
<feColorMatrix type="matrix" values="0 0 0 0 0 0 0 0 0 0 0 0 0 0 0 0 0 0 0.25 0"/>
<feBlend mode="normal" in2="BackgroundImageFix" result="effect1_dropShadow_24_91"/>
<feBlend mode="normal" in="SourceGraphic" in2="effect1_dropShadow_24_91" result="shape"/>
</filter>
<filter id="filter20_d_24_91" x="75.7744" y="27.9043" width="31.522" height="28.3176" filterUnits="userSpaceOnUse" color-interpolation-filters="sRGB">
<feFlood flood-opacity="0" result="BackgroundImageFix"/>
<feColorMatrix in="SourceAlpha" type="matrix" values="0 0 0 0 0 0 0 0 0 0 0 0 0 0 0 0 0 0 127 0" result="hardAlpha"/>
<feOffset dy="4"/>
<feGaussianBlur stdDeviation="2"/>
<feComposite in2="hardAlpha" operator="out"/>
<feColorMatrix type="matrix" values="0 0 0 0 0 0 0 0 0 0 0 0 0 0 0 0 0 0 0.25 0"/>
<feBlend mode="normal" in2="BackgroundImageFix" result="effect1_dropShadow_24_91"/>
<feBlend mode="normal" in="SourceGraphic" in2="effect1_dropShadow_24_91" result="shape"/>
</filter>
<filter id="filter21_d_24_91" x="75.4019" y="27.5321" width="32.2666" height="29.0618" filterUnits="userSpaceOnUse" color-interpolation-filters="sRGB">
<feFlood flood-opacity="0" result="BackgroundImageFix"/>
<feColorMatrix in="SourceAlpha" type="matrix" values="0 0 0 0 0 0 0 0 0 0 0 0 0 0 0 0 0 0 127 0" result="hardAlpha"/>
<feOffset dy="4"/>
<feGaussianBlur stdDeviation="2"/>
<feComposite in2="hardAlpha" operator="out"/>
<feColorMatrix type="matrix" values="0 0 0 0 0 0 0 0 0 0 0 0 0 0 0 0 0 0 0.25 0"/>
<feBlend mode="normal" in2="BackgroundImageFix" result="effect1_dropShadow_24_91"/>
<feBlend mode="normal" in="SourceGraphic" in2="effect1_dropShadow_24_91" result="shape"/>
</filter>
<filter id="filter22_d_24_91" x="37.728" y="97.2645" width="25.5596" height="31.7155" filterUnits="userSpaceOnUse" color-interpolation-filters="sRGB">
<feFlood flood-opacity="0" result="BackgroundImageFix"/>
<feColorMatrix in="SourceAlpha" type="matrix" values="0 0 0 0 0 0 0 0 0 0 0 0 0 0 0 0 0 0 127 0" result="hardAlpha"/>
<feOffset dy="4"/>
<feGaussianBlur stdDeviation="2"/>
<feComposite in2="hardAlpha" operator="out"/>
<feColorMatrix type="matrix" values="0 0 0 0 0 0 0 0 0 0 0 0 0 0 0 0 0 0 0.25 0"/>
<feBlend mode="normal" in2="BackgroundImageFix" result="effect1_dropShadow_24_91"/>
<feBlend mode="normal" in="SourceGraphic" in2="effect1_dropShadow_24_91" result="shape"/>
</filter>
<filter id="filter23_d_24_91" x="37.356" y="96.8927" width="26.3042" height="32.4593" filterUnits="userSpaceOnUse" color-interpolation-filters="sRGB">
<feFlood flood-opacity="0" result="BackgroundImageFix"/>
<feColorMatrix in="SourceAlpha" type="matrix" values="0 0 0 0 0 0 0 0 0 0 0 0 0 0 0 0 0 0 127 0" result="hardAlpha"/>
<feOffset dy="4"/>
<feGaussianBlur stdDeviation="2"/>
<feComposite in2="hardAlpha" operator="out"/>
<feColorMatrix type="matrix" values="0 0 0 0 0 0 0 0 0 0 0 0 0 0 0 0 0 0 0.25 0"/>
<feBlend mode="normal" in2="BackgroundImageFix" result="effect1_dropShadow_24_91"/>
<feBlend mode="normal" in="SourceGraphic" in2="effect1_dropShadow_24_91" result="shape"/>
</filter>
<filter id="filter24_d_24_91" x="72.0249" y="60.0226" width="27.0664" height="23.151" filterUnits="userSpaceOnUse" color-interpolation-filters="sRGB">
<feFlood flood-opacity="0" result="BackgroundImageFix"/>
<feColorMatrix in="SourceAlpha" type="matrix" values="0 0 0 0 0 0 0 0 0 0 0 0 0 0 0 0 0 0 127 0" result="hardAlpha"/>
<feOffset dy="4"/>
<feGaussianBlur stdDeviation="2"/>
<feComposite in2="hardAlpha" operator="out"/>
<feColorMatrix type="matrix" values="0 0 0 0 0 0 0 0 0 0 0 0 0 0 0 0 0 0 0.25 0"/>
<feBlend mode="normal" in2="BackgroundImageFix" result="effect1_dropShadow_24_91"/>
<feBlend mode="normal" in="SourceGraphic" in2="effect1_dropShadow_24_91" result="shape"/>
</filter>
<filter id="filter25_d_24_91" x="71.6528" y="59.6504" width="27.811" height="23.8961" filterUnits="userSpaceOnUse" color-interpolation-filters="sRGB">
<feFlood flood-opacity="0" result="BackgroundImageFix"/>
<feColorMatrix in="SourceAlpha" type="matrix" values="0 0 0 0 0 0 0 0 0 0 0 0 0 0 0 0 0 0 127 0" result="hardAlpha"/>
<feOffset dy="4"/>
<feGaussianBlur stdDeviation="2"/>
<feComposite in2="hardAlpha" operator="out"/>
<feColorMatrix type="matrix" values="0 0 0 0 0 0 0 0 0 0 0 0 0 0 0 0 0 0 0.25 0"/>
<feBlend mode="normal" in2="BackgroundImageFix" result="effect1_dropShadow_24_91"/>
<feBlend mode="normal" in="SourceGraphic" in2="effect1_dropShadow_24_91" result="shape"/>
</filter>
<filter id="filter26_d_24_91" x="57.8101" y="84.6349" width="30.6797" height="16.901" filterUnits="userSpaceOnUse" color-interpolation-filters="sRGB">
<feFlood flood-opacity="0" result="BackgroundImageFix"/>
<feColorMatrix in="SourceAlpha" type="matrix" values="0 0 0 0 0 0 0 0 0 0 0 0 0 0 0 0 0 0 127 0" result="hardAlpha"/>
<feOffset dy="4"/>
<feGaussianBlur stdDeviation="2"/>
<feComposite in2="hardAlpha" operator="out"/>
<feColorMatrix type="matrix" values="0 0 0 0 0 0 0 0 0 0 0 0 0 0 0 0 0 0 0.25 0"/>
<feBlend mode="normal" in2="BackgroundImageFix" result="effect1_dropShadow_24_91"/>
<feBlend mode="normal" in="SourceGraphic" in2="effect1_dropShadow_24_91" result="shape"/>
</filter>
<filter id="filter27_d_24_91" x="57.438" y="84.2625" width="31.4243" height="17.6455" filterUnits="userSpaceOnUse" color-interpolation-filters="sRGB">
<feFlood flood-opacity="0" result="BackgroundImageFix"/>
<feColorMatrix in="SourceAlpha" type="matrix" values="0 0 0 0 0 0 0 0 0 0 0 0 0 0 0 0 0 0 127 0" result="hardAlpha"/>
<feOffset dy="4"/>
<feGaussianBlur stdDeviation="2"/>
<feComposite in2="hardAlpha" operator="out"/>
<feColorMatrix type="matrix" values="0 0 0 0 0 0 0 0 0 0 0 0 0 0 0 0 0 0 0.25 0"/>
<feBlend mode="normal" in2="BackgroundImageFix" result="effect1_dropShadow_24_91"/>
<feBlend mode="normal" in="SourceGraphic" in2="effect1_dropShadow_24_91" result="shape"/>
</filter>
<filter id="filter28_d_24_91" x="-3.52783" y="0.482788" width="99.0386" height="125.562" filterUnits="userSpaceOnUse" color-interpolation-filters="sRGB">
<feFlood flood-opacity="0" result="BackgroundImageFix"/>
<feColorMatrix in="SourceAlpha" type="matrix" values="0 0 0 0 0 0 0 0 0 0 0 0 0 0 0 0 0 0 127 0" result="hardAlpha"/>
<feOffset dy="4"/>
<feGaussianBlur stdDeviation="2"/>
<feComposite in2="hardAlpha" operator="out"/>
<feColorMatrix type="matrix" values="0 0 0 0 0 0 0 0 0 0 0 0 0 0 0 0 0 0 0.25 0"/>
<feBlend mode="normal" in2="BackgroundImageFix" result="effect1_dropShadow_24_91"/>
<feBlend mode="normal" in="SourceGraphic" in2="effect1_dropShadow_24_91" result="shape"/>
</filter>
<filter id="filter29_d_24_91" x="-3.8999" y="0.110107" width="99.7832" height="126.308" filterUnits="userSpaceOnUse" color-interpolation-filters="sRGB">
<feFlood flood-opacity="0" result="BackgroundImageFix"/>
<feColorMatrix in="SourceAlpha" type="matrix" values="0 0 0 0 0 0 0 0 0 0 0 0 0 0 0 0 0 0 127 0" result="hardAlpha"/>
<feOffset dy="4"/>
<feGaussianBlur stdDeviation="2"/>
<feComposite in2="hardAlpha" operator="out"/>
<feColorMatrix type="matrix" values="0 0 0 0 0 0 0 0 0 0 0 0 0 0 0 0 0 0 0.25 0"/>
<feBlend mode="normal" in2="BackgroundImageFix" result="effect1_dropShadow_24_91"/>
<feBlend mode="normal" in="SourceGraphic" in2="effect1_dropShadow_24_91" result="shape"/>
</filter>
<clipPath id="clip0_24_91">
<rect width="103.568" height="125.156" fill="white" transform="translate(0.100098 0.110596)"/>
</clipPath>
</defs>
</svg>
