<svg width="101" height="102" viewBox="0 0 101 102" fill="none" xmlns="http://www.w3.org/2000/svg">
<path d="M9.73 0.960022C4.37248 0.960022 0 5.3325 0 10.69V69.07C0 74.4275 4.37248 78.8 9.73 78.8H11.12V80.19C11.12 85.5475 15.4925 89.92 20.85 89.92H22.24V91.31C22.24 96.6675 26.6125 101.04 31.97 101.04H90.35C95.7075 101.04 100.08 96.6675 100.08 91.31V32.93C100.08 27.5725 95.7075 23.2 90.35 23.2H88.96V21.81C88.96 16.4525 84.5875 12.08 79.23 12.08H77.84V10.69C77.84 5.3325 73.4675 0.960022 68.11 0.960022H9.73ZM9.73 3.74002H68.11C71.9654 3.74002 75.06 6.83463 75.06 10.69V69.07C75.06 72.9254 71.9654 76.02 68.11 76.02H9.73C5.8746 76.02 2.78 72.9254 2.78 69.07V10.69C2.78 6.83463 5.8746 3.74002 9.73 3.74002ZM15.985 10.69C12.5388 10.69 9.73 13.4989 9.73 16.945V62.815C9.73 66.2612 12.5388 69.07 15.985 69.07H61.855C65.3012 69.07 68.11 66.2612 68.11 62.815V16.945C68.11 13.4989 65.3012 10.69 61.855 10.69H15.985ZM15.985 12.08H61.855C64.5499 12.08 66.72 14.2502 66.72 16.945V49.458L52.6978 29.0614C52.6319 28.9653 52.5429 28.8874 52.439 28.8348C52.3352 28.7821 52.2197 28.7564 52.1033 28.76C51.9935 28.7633 51.8861 28.7926 51.7898 28.8455C51.6936 28.8983 51.6112 28.9733 51.5495 29.0641L35.4233 52.8271L24.8815 38.7669C24.8186 38.6833 24.7375 38.6149 24.6445 38.567C24.5514 38.519 24.4487 38.4927 24.344 38.49C24.2441 38.4876 24.1449 38.5067 24.0531 38.546C23.9613 38.5854 23.879 38.644 23.8119 38.7181L11.12 52.6778V16.945C11.12 14.2502 13.2901 12.08 15.985 12.08ZM77.84 14.86H79.23C83.0854 14.86 86.18 17.9546 86.18 21.81V80.19C86.18 84.0454 83.0854 87.14 79.23 87.14H20.85C16.9946 87.14 13.9 84.0454 13.9 80.19V78.8H68.11C73.4675 78.8 77.84 74.4275 77.84 69.07V14.86ZM27.8 16.25C23.2022 16.25 19.46 19.9922 19.46 24.59C19.46 29.1878 23.2022 32.93 27.8 32.93C32.3978 32.93 36.14 29.1878 36.14 24.59C36.14 19.9922 32.3978 16.25 27.8 16.25ZM27.8 17.64C31.6466 17.64 34.75 20.7434 34.75 24.59C34.75 28.4366 31.6466 31.54 27.8 31.54C23.9534 31.54 20.85 28.4366 20.85 24.59C20.85 20.7434 23.9534 17.64 27.8 17.64ZM88.96 25.98H90.35C94.2054 25.98 97.3 29.0746 97.3 32.93V91.31C97.3 95.1654 94.2054 98.26 90.35 98.26H31.97C28.1146 98.26 25.02 95.1654 25.02 91.31V89.92H79.23C84.5875 89.92 88.96 85.5475 88.96 80.19V25.98ZM52.1304 30.6876L66.72 51.9122V62.815C66.72 65.5099 64.5499 67.68 61.855 67.68H27.0263L52.1304 30.6876ZM24.2734 40.2737L34.6007 54.0434L25.3458 67.68H15.985C13.2901 67.68 11.12 65.5099 11.12 62.815V54.7411L24.2734 40.2737Z" fill="black"/>
</svg>
