<svg width="103" height="135" viewBox="0 0 103 135" fill="none" xmlns="http://www.w3.org/2000/svg">
<g filter="url(#filter0_d_24_60)">
<path d="M38.8622 9.811C20.8939 25.1446 12.4693 53.9045 20.0457 74.0483C27.6221 94.1922 48.3301 98.0916 66.2984 82.7581C84.2669 67.4246 92.6913 38.6646 85.1149 18.521C77.5387 -1.62305 56.8305 -5.52247 38.8622 9.811ZM57.7821 76.3414C54.1499 79.4408 50.405 81.5207 46.9525 82.3555C37.7198 84.5882 33.1416 76.4139 31.2341 71.3424C24.8542 54.3796 32.2473 29.14 47.3787 16.2273C51.011 13.1279 54.7559 11.0481 58.2083 10.2133C67.4408 7.98071 72.019 16.1549 73.9265 21.2263C80.3064 38.1892 72.9133 63.4288 57.7821 76.3413V76.3414Z" fill="#DFDCEA"/>
<path d="M43.8616 92.5685C42.2715 92.5685 40.6981 92.4243 39.1496 92.1326C30.2161 90.4501 23.2461 84.0725 19.5233 74.1742C15.8319 64.3595 15.7679 52.2318 19.3435 40.0254C22.919 27.819 29.7096 16.9821 38.4646 9.51103C47.294 1.9764 57.0764 -1.24673 66.0106 0.435879C74.9441 2.11831 81.9143 8.49614 85.6371 18.3942C89.3285 28.209 89.3922 40.3367 85.8169 52.5431C82.2414 64.7495 75.4508 75.5863 66.6958 83.0574C59.3967 89.2862 51.4455 92.5685 43.8616 92.5685ZM39.2596 10.1103C21.4388 25.3178 13.0539 53.9436 20.5679 73.9218C24.1734 83.508 30.8612 89.6731 39.3993 91.281C40.862 91.5564 42.3516 91.6929 43.8568 91.6929C51.1382 91.6932 58.8143 88.5054 65.9008 82.4583C83.7216 67.2508 92.1065 38.6252 84.5925 18.6471C80.987 9.0608 74.2992 2.89574 65.7611 1.28786C57.2239 -0.320033 47.8112 2.8128 39.2596 10.1103ZM43.888 83.1768C36.3429 83.1768 32.4463 76.0807 30.7117 71.4687C24.2825 54.3746 31.733 28.9401 46.9811 15.9279C50.6788 12.7725 54.5069 10.6515 58.0508 9.79449C62.3344 8.75844 66.0963 9.73517 69.2302 12.6979C71.87 15.1935 73.525 18.6444 74.4487 21.1001C80.8779 38.194 73.4277 63.6287 58.1795 76.6409C54.4818 79.7963 50.654 81.9173 47.1099 82.7743C45.9688 83.0503 44.8956 83.1768 43.888 83.1768ZM61.2169 10.2764C60.2973 10.2764 59.3466 10.3947 58.3657 10.6319C55.0048 11.4447 51.3431 13.4831 47.7761 16.5268C32.7619 29.3395 25.4257 54.384 31.7563 71.216C33.6048 76.1309 38.016 84.0592 46.795 81.9365C50.1556 81.1237 53.8177 79.0851 57.3845 76.0416C72.3988 63.2289 79.7347 38.1844 73.4041 21.3524C72.5105 18.9764 70.9166 15.6444 68.3981 13.2636C66.2951 11.2755 63.8884 10.2764 61.2171 10.2764H61.2169Z" fill="#6D6A88"/>
<path d="M21.4518 74.1404L16.4666 109.824L7.59961 118.155L24.432 125.949C26.0844 126.817 28.293 126.793 30.7205 125.669L88.8424 98.7621C91.5036 97.5302 93.901 95.2195 95.5915 92.5167L28.3323 61.3793C24.3709 64.3396 21.4518 69.5505 21.4518 74.1404Z" fill="#BCB2CD"/>
<path d="M27.0395 127C25.9919 127 25.0136 126.774 24.1466 126.322L7.32703 118.534C7.18672 118.469 7.08961 118.357 7.06211 118.229C7.03462 118.101 7.07957 117.97 7.18475 117.871L15.9432 109.642L20.9064 74.1159C20.9167 69.5232 23.8147 64.1578 27.9606 61.0595C28.1361 60.9284 28.3977 60.9044 28.6055 61.0007L95.8645 92.1381C96.1146 92.254 96.2088 92.5061 96.0794 92.7131C94.2606 95.6216 91.7873 97.9044 89.1156 99.1413L30.9937 126.049C29.6259 126.682 28.284 127 27.0398 127L27.0395 127ZM8.44039 118.039L24.705 125.57C24.714 125.574 24.7227 125.579 24.7312 125.583C26.2677 126.39 28.2978 126.287 30.4481 125.291L88.57 98.3837C90.9118 97.2997 93.1885 95.2365 94.8688 92.6876L28.4137 61.9223C24.6208 64.9031 21.9973 69.8746 21.9973 74.1406C21.9973 74.1569 21.9962 74.1731 21.9938 74.1892L17.0086 109.872C16.9964 109.959 16.9523 110.041 16.8814 110.108L8.43995 118.039L8.44039 118.039Z" fill="#6D6A88"/>
<path d="M98.1113 38.6515C98.1113 35.6007 96.8208 33.4703 94.7926 32.5916L94.8037 32.5811L77.9713 24.7868L73.9137 30.2003L30.7207 59.9404C29.8948 60.3227 29.0948 60.8102 28.3325 61.3798L95.5915 92.5172C97.1529 90.0208 98.1113 87.19 98.1113 84.5623V38.6515Z" fill="#DFDCEA"/>
<path d="M95.5917 92.9539C95.4968 92.9539 95.4027 92.9342 95.3189 92.8953L28.0599 61.7579C27.91 61.6886 27.8101 61.5663 27.7906 61.4286C27.771 61.2907 27.8343 61.1537 27.9606 61.059C28.7556 60.4651 29.577 59.9682 30.4034 59.5817L73.4917 29.9139L77.5038 24.5609C77.657 24.3563 77.9861 24.2879 78.2443 24.4074L95.0767 32.2017C95.114 32.219 95.1485 32.2397 95.1791 32.263C97.3916 33.2866 98.657 35.6058 98.657 38.6509V84.5616C98.657 87.1602 97.7416 90.0551 96.0792 92.7127C96.0118 92.8203 95.892 92.9009 95.7482 92.9356C95.6969 92.9478 95.6441 92.9539 95.5915 92.9539H95.5917ZM29.2608 61.3036L95.3576 91.903C96.7845 89.4824 97.5659 86.8921 97.5659 84.5616V38.6509C97.5659 35.8794 96.4607 33.811 94.5336 32.9758C94.4886 32.9564 94.4478 32.9323 94.412 32.9043L78.1631 25.3801L74.3815 30.4251C74.3514 30.4652 74.3137 30.5013 74.2694 30.5317L31.0762 60.2718C31.0504 60.2895 31.0227 60.3052 30.9935 60.3187C30.4128 60.5874 29.8321 60.9176 29.2606 61.3038L29.2608 61.3036Z" fill="#6D6A88"/>
<path d="M97.7464 87.4841L33.7657 57.8433L30.7204 59.94C29.8945 60.3224 29.0945 60.8099 28.3322 61.3794C27.1261 62.2807 26.0176 63.3913 25.0576 64.629L92.7764 96.0016C93.8402 94.9741 94.7947 93.79 95.591 92.5169C96.5844 90.9286 97.3322 89.2049 97.7459 87.4841H97.7464Z" fill="white"/>
<path d="M27.0395 126.999C25.9916 126.999 25.0134 126.774 24.1464 126.322L7.32703 118.534C7.18672 118.469 7.08961 118.357 7.06211 118.229C7.03462 118.101 7.07957 117.97 7.18475 117.871L15.9432 109.642L20.9065 74.1156C20.9167 69.523 23.8147 64.1576 27.9606 61.0592C28.7556 60.4651 29.5772 59.9682 30.4034 59.5817L73.4917 29.9139L77.5039 24.5609C77.6571 24.3563 77.9861 24.2879 78.2443 24.4074L95.0765 32.2017C95.1138 32.219 95.1481 32.2395 95.1789 32.263C97.3914 33.2866 98.6569 35.6058 98.6569 38.6509V84.5616C98.6569 87.1602 97.7414 90.0549 96.0792 92.7127C94.2601 95.6212 91.7871 97.9041 89.1152 99.1409L30.9933 126.048C29.6254 126.681 28.2836 127 27.0393 127L27.0395 126.999ZM8.44039 118.039L24.705 125.57C24.714 125.574 24.7227 125.578 24.7312 125.583C26.2677 126.39 28.2978 126.286 30.4481 125.291L88.5701 98.3832C91.0231 97.2476 93.4047 95.038 95.1042 92.3205C96.6918 89.7821 97.5662 87.0267 97.5662 84.5618V38.6509C97.5662 35.8794 96.4609 33.811 94.5338 32.9758C94.4888 32.9564 94.448 32.9323 94.4125 32.9043L78.1633 25.3801L74.3818 30.4251C74.3517 30.4652 74.3139 30.5013 74.2696 30.5317L31.0764 60.2718C31.0506 60.2895 31.0229 60.3052 30.9937 60.3187C30.2238 60.6751 29.4537 61.1395 28.7048 61.6993C24.7559 64.6503 21.9978 69.7662 21.9978 74.1403C21.9978 74.1566 21.9967 74.1729 21.9943 74.189L17.009 109.872C16.9968 109.959 16.9525 110.041 16.8818 110.108L8.44039 118.039Z" fill="#6D6A88"/>
<path d="M71.936 90.7981L13.8141 117.705C8.69509 120.075 4.54541 117.56 4.54541 112.087V66.1763C4.54541 60.7035 8.69509 54.3456 13.8141 51.9759L71.936 25.0685C77.055 22.6988 81.2047 25.2143 81.2047 30.6871V76.5976C81.2047 82.0704 77.055 88.4283 71.936 90.7981Z" fill="#EDEDED"/>
<path d="M10.1292 119.034C9.17662 119.034 8.28083 118.849 7.47669 118.476C5.26721 117.454 4 115.125 4 112.087V66.1766C4 60.5733 8.28039 54.0329 13.5417 51.5973L71.6634 24.69C74.068 23.5768 76.4156 23.4377 78.2737 24.2981C80.4832 25.321 81.7504 27.6498 81.7504 30.6876V76.5981C81.7504 82.2014 77.47 88.7417 72.2087 91.1774L14.0872 118.085C12.7234 118.716 11.3774 119.034 10.1292 119.034ZM75.6195 24.6176C74.5609 24.6176 73.4006 24.896 72.2089 25.4475L14.0872 52.355C9.12687 54.6514 5.0911 60.8518 5.0911 66.1766V112.087C5.0911 114.804 6.15951 116.857 8.02224 117.719C9.52861 118.416 11.4889 118.277 13.5415 117.327L71.6632 90.4195C76.6235 88.1231 80.6593 81.9227 80.6593 76.5979V30.6873C80.6593 27.9705 79.5909 25.9178 77.7282 25.0555C77.0962 24.763 76.3844 24.6176 75.6193 24.6176H75.6195Z" fill="#6D6A88"/>
<path d="M51.2772 56.1088C51.2772 51.7938 47.4827 50.0561 42.8146 52.2475C38.3081 54.3632 34.5999 59.4401 34.4764 63.6681C34.3969 66.3917 35.7894 68.1366 37.9614 68.5835C38.3448 68.6624 38.5547 68.9891 38.5217 69.4412L36.9739 90.5973C36.918 91.3601 37.5487 91.6944 38.3467 91.3251L47.404 87.132C48.2018 86.7626 48.8324 85.8443 48.7768 85.1332L47.229 65.4104C47.196 64.9896 47.4046 64.4688 47.7876 64.0357C49.9015 61.6443 51.2776 58.7069 51.2776 56.1088H51.2772Z" fill="#938CAE"/>
<path d="M37.7294 91.9128C37.492 91.9128 37.2679 91.8643 37.0708 91.7667C36.6237 91.5453 36.3898 91.1098 36.4293 90.5715L37.9771 69.4154C37.9928 69.2 37.9291 69.0284 37.8259 69.007C35.3043 68.4884 33.8484 66.4886 33.9311 63.6577C34.0596 59.2535 37.8407 54.0757 42.539 51.8699C44.977 50.7253 47.2993 50.5453 49.0773 51.3628C50.8477 52.1766 51.823 53.862 51.823 56.1086C51.823 58.6873 50.4807 61.7452 48.2326 64.2885C47.9284 64.6326 47.7484 65.0621 47.7735 65.3827L49.3213 85.1055C49.3898 85.9801 48.6522 87.059 47.6768 87.5106L38.6195 91.7037C38.3193 91.8426 38.0149 91.9126 37.7296 91.9126L37.7294 91.9128ZM46.625 51.7339C45.5548 51.7339 44.3502 52.0333 43.0902 52.6249C38.7599 54.658 35.1405 59.6164 35.022 63.6782C34.9519 66.0739 36.1015 67.7491 38.0969 68.1596C38.7439 68.2926 39.1156 68.7936 39.0662 69.4667L37.5184 90.6228C37.502 90.8477 37.5695 90.9854 37.6439 91.0221C37.7078 91.0538 37.8656 91.0424 38.0738 90.946L47.131 86.753C47.7501 86.4663 48.2749 85.7073 48.2319 85.1606L46.6841 65.4378C46.6431 64.9141 46.889 64.2954 47.342 63.7827C49.4644 61.3818 50.7314 58.513 50.7314 56.1086C50.7314 54.1891 49.9511 52.7731 48.5344 52.1219C47.9703 51.8625 47.3263 51.7339 46.625 51.7339Z" fill="#6D6A88"/>
</g>
<defs>
<filter id="filter0_d_24_60" x="0" y="0" width="102.657" height="135" filterUnits="userSpaceOnUse" color-interpolation-filters="sRGB">
<feFlood flood-opacity="0" result="BackgroundImageFix"/>
<feColorMatrix in="SourceAlpha" type="matrix" values="0 0 0 0 0 0 0 0 0 0 0 0 0 0 0 0 0 0 127 0" result="hardAlpha"/>
<feOffset dy="4"/>
<feGaussianBlur stdDeviation="2"/>
<feComposite in2="hardAlpha" operator="out"/>
<feColorMatrix type="matrix" values="0 0 0 0 0 0 0 0 0 0 0 0 0 0 0 0 0 0 0.25 0"/>
<feBlend mode="normal" in2="BackgroundImageFix" result="effect1_dropShadow_24_60"/>
<feBlend mode="normal" in="SourceGraphic" in2="effect1_dropShadow_24_60" result="shape"/>
</filter>
</defs>
</svg>
