<svg width="150" height="150" viewBox="0 0 150 150" fill="none" xmlns="http://www.w3.org/2000/svg">
<path d="M75 13.125C40.8496 13.125 13.125 40.8496 13.125 75C13.125 109.15 40.8496 136.875 75 136.875C109.15 136.875 136.875 109.15 136.875 75C136.875 40.8496 109.15 13.125 75 13.125ZM75 16.875C107.124 16.875 133.125 42.8762 133.125 75C133.125 107.124 107.124 133.125 75 133.125C42.8762 133.125 16.875 107.124 16.875 75C16.875 42.8762 42.8762 16.875 75 16.875ZM75 22.5C74.5027 22.5 74.0258 22.6975 73.6742 23.0492C73.3225 23.4008 73.125 23.8777 73.125 24.375C73.125 24.8723 73.3225 25.3492 73.6742 25.7008C74.0258 26.0525 74.5027 26.25 75 26.25C75.4973 26.25 75.9742 26.0525 76.3258 25.7008C76.6775 25.3492 76.875 24.8723 76.875 24.375C76.875 23.8777 76.6775 23.4008 76.3258 23.0492C75.9742 22.6975 75.4973 22.5 75 22.5ZM65.1233 23.4741C64.626 23.4741 64.1491 23.6717 63.7975 24.0233C63.4458 24.3749 63.2483 24.8518 63.2483 25.3491C63.2483 25.8464 63.4458 26.3233 63.7975 26.6749C64.1491 27.0266 64.626 27.2241 65.1233 27.2241C65.6206 27.2241 66.0975 27.0266 66.4491 26.6749C66.8007 26.3233 66.9983 25.8464 66.9983 25.3491C66.9983 24.8518 66.8007 24.3749 66.4491 24.0233C66.0975 23.6717 65.6206 23.4741 65.1233 23.4741ZM84.8767 23.4741C84.3794 23.4741 83.9025 23.6717 83.5509 24.0233C83.1992 24.3749 83.0017 24.8518 83.0017 25.3491C83.0017 25.8464 83.1992 26.3233 83.5509 26.6749C83.9025 27.0266 84.3794 27.2241 84.8767 27.2241C85.374 27.2241 85.8509 27.0266 86.2025 26.6749C86.5542 26.3233 86.7517 25.8464 86.7517 25.3491C86.7517 24.8518 86.5542 24.3749 86.2025 24.0233C85.8509 23.6717 85.374 23.4741 84.8767 23.4741ZM55.6274 26.3525C55.1302 26.3525 54.6532 26.5501 54.3016 26.9017C53.95 27.2533 53.7524 27.7303 53.7524 28.2275C53.7524 28.7248 53.95 29.2017 54.3016 29.5534C54.6532 29.905 55.1302 30.1025 55.6274 30.1025C56.1247 30.1025 56.6016 29.905 56.9533 29.5534C57.3049 29.2017 57.5024 28.7248 57.5024 28.2275C57.5024 27.7303 57.3049 27.2533 56.9533 26.9017C56.6016 26.5501 56.1247 26.3525 55.6274 26.3525ZM94.3726 26.3525C93.8753 26.3525 93.3984 26.5501 93.0467 26.9017C92.6951 27.2533 92.4976 27.7303 92.4976 28.2275C92.4976 28.7248 92.6951 29.2017 93.0467 29.5534C93.3984 29.905 93.8753 30.1025 94.3726 30.1025C94.8698 30.1025 95.3468 29.905 95.6984 29.5534C96.05 29.2017 96.2476 28.7248 96.2476 28.2275C96.2476 27.7303 96.05 27.2533 95.6984 26.9017C95.3468 26.5501 94.8698 26.3525 94.3726 26.3525ZM46.875 31.0327C46.3777 31.0327 45.9008 31.2303 45.5492 31.5819C45.1975 31.9335 45 32.4104 45 32.9077C45 33.405 45.1975 33.8819 45.5492 34.2335C45.9008 34.5852 46.3777 34.7827 46.875 34.7827C47.3723 34.7827 47.8492 34.5852 48.2008 34.2335C48.5525 33.8819 48.75 33.405 48.75 32.9077C48.75 32.4104 48.5525 31.9335 48.2008 31.5819C47.8492 31.2303 47.3723 31.0327 46.875 31.0327ZM103.125 31.0327C102.628 31.0327 102.151 31.2303 101.799 31.5819C101.448 31.9335 101.25 32.4104 101.25 32.9077C101.25 33.405 101.448 33.8819 101.799 34.2335C102.151 34.5852 102.628 34.7827 103.125 34.7827C103.622 34.7827 104.099 34.5852 104.451 34.2335C104.802 33.8819 105 33.405 105 32.9077C105 32.4104 104.802 31.9335 104.451 31.5819C104.099 31.2303 103.622 31.0327 103.125 31.0327ZM39.2029 37.3279C38.7056 37.3279 38.2287 37.5254 37.8771 37.8771C37.5254 38.2287 37.3279 38.7056 37.3279 39.2029C37.3279 39.7002 37.5254 40.1771 37.8771 40.5287C38.2287 40.8803 38.7056 41.0779 39.2029 41.0779C39.7002 41.0779 40.1771 40.8803 40.5287 40.5287C40.8803 40.1771 41.0779 39.7002 41.0779 39.2029C41.0779 38.7056 40.8803 38.2287 40.5287 37.8771C40.1771 37.5254 39.7002 37.3279 39.2029 37.3279ZM110.797 37.3279C110.3 37.3279 109.823 37.5254 109.471 37.8771C109.12 38.2287 108.922 38.7056 108.922 39.2029C108.922 39.7002 109.12 40.1771 109.471 40.5287C109.823 40.8803 110.3 41.0779 110.797 41.0779C111.294 41.0779 111.771 40.8803 112.123 40.5287C112.475 40.1771 112.672 39.7002 112.672 39.2029C112.672 38.7056 112.475 38.2287 112.123 37.8771C111.771 37.5254 111.294 37.3279 110.797 37.3279ZM32.9077 45C32.4104 45 31.9335 45.1975 31.5819 45.5492C31.2303 45.9008 31.0327 46.3777 31.0327 46.875C31.0327 47.3723 31.2303 47.8492 31.5819 48.2008C31.9335 48.5525 32.4104 48.75 32.9077 48.75C33.405 48.75 33.8819 48.5525 34.2335 48.2008C34.5852 47.8492 34.7827 47.3723 34.7827 46.875C34.7827 46.3777 34.5852 45.9008 34.2335 45.5492C33.8819 45.1975 33.405 45 32.9077 45ZM117.092 45C116.595 45 116.118 45.1975 115.766 45.5492C115.415 45.9008 115.217 46.3777 115.217 46.875C115.217 47.3723 115.415 47.8492 115.766 48.2008C116.118 48.5525 116.595 48.75 117.092 48.75C117.59 48.75 118.066 48.5525 118.418 48.2008C118.77 47.8492 118.967 47.3723 118.967 46.875C118.967 46.3777 118.77 45.9008 118.418 45.5492C118.066 45.1975 117.59 45 117.092 45ZM75 52.5C74.4175 52.5 73.8351 52.6062 73.2825 52.8186H73.2788L39.5508 65.8228C38.325 66.2942 37.5 67.4841 37.5 68.8037V70.6787H38.1519C38.5081 71.1592 38.9756 71.5628 39.5544 71.7847L39.5764 71.792L43.125 73.0554V88.0298C42.0136 88.6854 41.25 89.8859 41.25 91.2524C41.25 92.0773 41.4601 92.5021 41.6675 93.0432C41.8749 93.5844 42.1291 94.1355 42.3779 94.6472C42.8755 95.6707 43.3667 96.5442 43.3667 96.5442L45 99.4556L46.6333 96.5442C46.6333 96.5442 47.1245 95.6707 47.6221 94.6472C47.8709 94.1355 48.1251 93.5844 48.3325 93.0432C48.5399 92.5021 48.75 92.0773 48.75 91.2524C48.75 89.8859 47.9864 88.6854 46.875 88.0298V74.3921L54.375 77.0654V86.25V86.5247H54.408C54.493 87.2902 54.8935 87.9317 55.3198 88.3484C55.7976 88.8153 56.3264 89.1223 56.9202 89.4031C58.1076 89.9646 59.5868 90.3825 61.3733 90.7397C64.9462 91.4543 69.721 91.875 75 91.875C80.279 91.875 85.0538 91.4543 88.6267 90.7397C90.4132 90.3825 91.8924 89.9646 93.0798 89.4031C93.6736 89.1223 94.2024 88.8153 94.6802 88.3484C95.1065 87.9317 95.507 87.2902 95.592 86.5247H95.625V86.25V77.0691L110.427 71.792L110.449 71.7847C111.026 71.5617 111.493 71.1588 111.848 70.6787H112.5V68.8037C112.5 67.4851 111.675 66.2937 110.449 65.8228H110.446L76.7175 52.8186C76.1649 52.6062 75.5825 52.5 75 52.5ZM28.2275 53.7524C27.7303 53.7524 27.2533 53.95 26.9017 54.3016C26.5501 54.6532 26.3525 55.1302 26.3525 55.6274C26.3525 56.1247 26.5501 56.6016 26.9017 56.9533C27.2533 57.3049 27.7303 57.5024 28.2275 57.5024C28.7248 57.5024 29.2017 57.3049 29.5534 56.9533C29.905 56.6016 30.1025 56.1247 30.1025 55.6274C30.1025 55.1302 29.905 54.6532 29.5534 54.3016C29.2017 53.95 28.7248 53.7524 28.2275 53.7524ZM121.772 53.7524C121.275 53.7524 120.798 53.95 120.447 54.3016C120.095 54.6532 119.897 55.1302 119.897 55.6274C119.897 56.1247 120.095 56.6016 120.447 56.9533C120.798 57.3049 121.275 57.5024 121.772 57.5024C122.27 57.5024 122.747 57.3049 123.098 56.9533C123.45 56.6016 123.647 56.1247 123.647 55.6274C123.647 55.1302 123.45 54.6532 123.098 54.3016C122.747 53.95 122.27 53.7524 121.772 53.7524ZM75 56.25C75.1256 56.25 75.2494 56.2733 75.3699 56.3196L107.703 68.7854L95.4712 73.1433C95.164 72.0875 94.4002 71.1896 93.3435 70.7593H93.3398C90.7386 69.7043 84.2202 67.5 75 67.5C65.7798 67.5 59.2615 69.7043 56.6602 70.7593H56.6565C55.6031 71.1882 54.8373 72.085 54.5288 73.1396L42.3047 68.7817L74.6265 56.3196C74.747 56.2733 74.8744 56.25 75 56.25ZM25.3491 63.2483C24.8518 63.2483 24.3749 63.4458 24.0233 63.7975C23.6717 64.1491 23.4741 64.626 23.4741 65.1233C23.4741 65.6206 23.6717 66.0975 24.0233 66.4491C24.3749 66.8007 24.8518 66.9983 25.3491 66.9983C25.8464 66.9983 26.3233 66.8007 26.6749 66.4491C27.0266 66.0975 27.2241 65.6206 27.2241 65.1233C27.2241 64.626 27.0266 64.1491 26.6749 63.7975C26.3233 63.4458 25.8464 63.2483 25.3491 63.2483ZM124.651 63.2483C124.154 63.2483 123.677 63.4458 123.325 63.7975C122.973 64.1491 122.776 64.626 122.776 65.1233C122.776 65.6206 122.973 66.0975 123.325 66.4491C123.677 66.8007 124.154 66.9983 124.651 66.9983C125.148 66.9983 125.625 66.8007 125.977 66.4491C126.328 66.0975 126.526 65.6206 126.526 65.1233C126.526 64.626 126.328 64.1491 125.977 63.7975C125.625 63.4458 125.148 63.2483 124.651 63.2483ZM75 71.25C83.583 71.25 89.5886 73.289 91.875 74.2126V82.6501C90.9209 82.3126 89.876 82.0101 88.6267 81.7603C85.0538 81.0457 80.279 80.625 75 80.625C69.721 80.625 64.9462 81.0457 61.3733 81.7603C60.124 82.0101 59.0791 82.3126 58.125 82.6501V74.2126C60.4114 73.289 66.417 71.25 75 71.25ZM24.375 73.125C23.8777 73.125 23.4008 73.3225 23.0492 73.6742C22.6975 74.0258 22.5 74.5027 22.5 75C22.5 75.4973 22.6975 75.9742 23.0492 76.3258C23.4008 76.6775 23.8777 76.875 24.375 76.875C24.8723 76.875 25.3492 76.6775 25.7008 76.3258C26.0525 75.9742 26.25 75.4973 26.25 75C26.25 74.5027 26.0525 74.0258 25.7008 73.6742C25.3492 73.3225 24.8723 73.125 24.375 73.125ZM125.625 73.125C125.128 73.125 124.651 73.3225 124.299 73.6742C123.948 74.0258 123.75 74.5027 123.75 75C123.75 75.4973 123.948 75.9742 124.299 76.3258C124.651 76.6775 125.128 76.875 125.625 76.875C126.122 76.875 126.599 76.6775 126.951 76.3258C127.302 75.9742 127.5 75.4973 127.5 75C127.5 74.5027 127.302 74.0258 126.951 73.6742C126.599 73.3225 126.122 73.125 125.625 73.125ZM25.3491 83.0017C24.8518 83.0017 24.3749 83.1992 24.0233 83.5509C23.6717 83.9025 23.4741 84.3794 23.4741 84.8767C23.4741 85.374 23.6717 85.8509 24.0233 86.2025C24.3749 86.5542 24.8518 86.7517 25.3491 86.7517C25.8464 86.7517 26.3233 86.5542 26.6749 86.2025C27.0266 85.8509 27.2241 85.374 27.2241 84.8767C27.2241 84.3794 27.0266 83.9025 26.6749 83.5509C26.3233 83.1992 25.8464 83.0017 25.3491 83.0017ZM124.651 83.0017C124.154 83.0017 123.677 83.1992 123.325 83.5509C122.973 83.9025 122.776 84.3794 122.776 84.8767C122.776 85.374 122.973 85.8509 123.325 86.2025C123.677 86.5542 124.154 86.7517 124.651 86.7517C125.148 86.7517 125.625 86.5542 125.977 86.2025C126.328 85.8509 126.526 85.374 126.526 84.8767C126.526 84.3794 126.328 83.9025 125.977 83.5509C125.625 83.1992 125.148 83.0017 124.651 83.0017ZM75 84.375C80.0763 84.375 84.6774 84.7944 87.8906 85.437C89.1378 85.6865 89.9374 85.9749 90.6738 86.25C89.9374 86.5251 89.1378 86.8135 87.8906 87.063C84.6774 87.7056 80.0763 88.125 75 88.125C69.9237 88.125 65.3226 87.7056 62.1094 87.063C60.8622 86.8135 60.0626 86.5251 59.3262 86.25C60.0626 85.9749 60.8622 85.6865 62.1094 85.437C65.3226 84.7944 69.9237 84.375 75 84.375ZM28.2275 92.4976C27.7303 92.4976 27.2533 92.6951 26.9017 93.0467C26.5501 93.3984 26.3525 93.8753 26.3525 94.3726C26.3525 94.8698 26.5501 95.3468 26.9017 95.6984C27.2533 96.05 27.7303 96.2476 28.2275 96.2476C28.7248 96.2476 29.2017 96.05 29.5534 95.6984C29.905 95.3468 30.1025 94.8698 30.1025 94.3726C30.1025 93.8753 29.905 93.3984 29.5534 93.0467C29.2017 92.6951 28.7248 92.4976 28.2275 92.4976ZM121.772 92.4976C121.275 92.4976 120.798 92.6951 120.447 93.0467C120.095 93.3984 119.897 93.8753 119.897 94.3726C119.897 94.8698 120.095 95.3468 120.447 95.6984C120.798 96.05 121.275 96.2476 121.772 96.2476C122.27 96.2476 122.747 96.05 123.098 95.6984C123.45 95.3468 123.647 94.8698 123.647 94.3726C123.647 93.8753 123.45 93.3984 123.098 93.0467C122.747 92.6951 122.27 92.4976 121.772 92.4976ZM32.9077 101.25C32.4104 101.25 31.9335 101.448 31.5819 101.799C31.2303 102.151 31.0327 102.628 31.0327 103.125C31.0327 103.622 31.2303 104.099 31.5819 104.451C31.9335 104.802 32.4104 105 32.9077 105C33.405 105 33.8819 104.802 34.2335 104.451C34.5852 104.099 34.7827 103.622 34.7827 103.125C34.7827 102.628 34.5852 102.151 34.2335 101.799C33.8819 101.448 33.405 101.25 32.9077 101.25ZM117.092 101.25C116.595 101.25 116.118 101.448 115.766 101.799C115.415 102.151 115.217 102.628 115.217 103.125C115.217 103.622 115.415 104.099 115.766 104.451C116.118 104.802 116.595 105 117.092 105C117.59 105 118.066 104.802 118.418 104.451C118.77 104.099 118.967 103.622 118.967 103.125C118.967 102.628 118.77 102.151 118.418 101.799C118.066 101.448 117.59 101.25 117.092 101.25ZM39.2029 108.922C38.7056 108.922 38.2287 109.12 37.8771 109.471C37.5254 109.823 37.3279 110.3 37.3279 110.797C37.3279 111.294 37.5254 111.771 37.8771 112.123C38.2287 112.475 38.7056 112.672 39.2029 112.672C39.7002 112.672 40.1771 112.475 40.5287 112.123C40.8803 111.771 41.0779 111.294 41.0779 110.797C41.0779 110.3 40.8803 109.823 40.5287 109.471C40.1771 109.12 39.7002 108.922 39.2029 108.922ZM110.797 108.922C110.3 108.922 109.823 109.12 109.471 109.471C109.12 109.823 108.922 110.3 108.922 110.797C108.922 111.294 109.12 111.771 109.471 112.123C109.823 112.475 110.3 112.672 110.797 112.672C111.294 112.672 111.771 112.475 112.123 112.123C112.475 111.771 112.672 111.294 112.672 110.797C112.672 110.3 112.475 109.823 112.123 109.471C111.771 109.12 111.294 108.922 110.797 108.922ZM46.875 115.217C46.3777 115.217 45.9008 115.415 45.5492 115.766C45.1975 116.118 45 116.595 45 117.092C45 117.59 45.1975 118.066 45.5492 118.418C45.9008 118.77 46.3777 118.967 46.875 118.967C47.3723 118.967 47.8492 118.77 48.2008 118.418C48.5525 118.066 48.75 117.59 48.75 117.092C48.75 116.595 48.5525 116.118 48.2008 115.766C47.8492 115.415 47.3723 115.217 46.875 115.217ZM103.125 115.217C102.628 115.217 102.151 115.415 101.799 115.766C101.448 116.118 101.25 116.595 101.25 117.092C101.25 117.59 101.448 118.066 101.799 118.418C102.151 118.77 102.628 118.967 103.125 118.967C103.622 118.967 104.099 118.77 104.451 118.418C104.802 118.066 105 117.59 105 117.092C105 116.595 104.802 116.118 104.451 115.766C104.099 115.415 103.622 115.217 103.125 115.217ZM55.6274 119.897C55.1302 119.897 54.6532 120.095 54.3016 120.447C53.95 120.798 53.7524 121.275 53.7524 121.772C53.7524 122.27 53.95 122.747 54.3016 123.098C54.6532 123.45 55.1302 123.647 55.6274 123.647C56.1247 123.647 56.6016 123.45 56.9533 123.098C57.3049 122.747 57.5024 122.27 57.5024 121.772C57.5024 121.275 57.3049 120.798 56.9533 120.447C56.6016 120.095 56.1247 119.897 55.6274 119.897ZM94.3726 119.897C93.8753 119.897 93.3984 120.095 93.0467 120.447C92.6951 120.798 92.4976 121.275 92.4976 121.772C92.4976 122.27 92.6951 122.747 93.0467 123.098C93.3984 123.45 93.8753 123.647 94.3726 123.647C94.8698 123.647 95.3468 123.45 95.6984 123.098C96.05 122.747 96.2476 122.27 96.2476 121.772C96.2476 121.275 96.05 120.798 95.6984 120.447C95.3468 120.095 94.8698 119.897 94.3726 119.897ZM65.1233 122.776C64.626 122.776 64.1491 122.973 63.7975 123.325C63.4458 123.677 63.2483 124.154 63.2483 124.651C63.2483 125.148 63.4458 125.625 63.7975 125.977C64.1491 126.328 64.626 126.526 65.1233 126.526C65.6206 126.526 66.0975 126.328 66.4491 125.977C66.8007 125.625 66.9983 125.148 66.9983 124.651C66.9983 124.154 66.8007 123.677 66.4491 123.325C66.0975 122.973 65.6206 122.776 65.1233 122.776ZM84.8767 122.776C84.3794 122.776 83.9025 122.973 83.5509 123.325C83.1992 123.677 83.0017 124.154 83.0017 124.651C83.0017 125.148 83.1992 125.625 83.5509 125.977C83.9025 126.328 84.3794 126.526 84.8767 126.526C85.374 126.526 85.8509 126.328 86.2025 125.977C86.5542 125.625 86.7517 125.148 86.7517 124.651C86.7517 124.154 86.5542 123.677 86.2025 123.325C85.8509 122.973 85.374 122.776 84.8767 122.776ZM75 123.75C74.5027 123.75 74.0258 123.948 73.6742 124.299C73.3225 124.651 73.125 125.128 73.125 125.625C73.125 126.122 73.3225 126.599 73.6742 126.951C74.0258 127.302 74.5027 127.5 75 127.5C75.4973 127.5 75.9742 127.302 76.3258 126.951C76.6775 126.599 76.875 126.122 76.875 125.625C76.875 125.128 76.6775 124.651 76.3258 124.299C75.9742 123.948 75.4973 123.75 75 123.75Z" fill="black"/>
</svg>
