<svg width="322" height="563" viewBox="0 0 322 563" fill="none" xmlns="http://www.w3.org/2000/svg">
<g clip-path="url(#clip0_83_1897)">
<path d="M69.2783 533.648C208.38 517.803 308.299 392.193 292.454 253.091C276.608 113.989 150.999 14.0703 11.897 29.9157C-127.205 45.7611 -227.124 171.371 -211.279 310.473C-195.433 449.574 -69.8236 549.494 69.2783 533.648Z" fill="#B0C3FF"/>
<path d="M69.3169 533.988C35.2589 537.868 1.49568 534.965 -31.1036 525.354C-62.5989 516.064 -91.6245 500.95 -117.408 480.44C-143.192 459.929 -164.451 435.013 -180.583 406.447C-197.317 376.815 -207.739 344.569 -211.619 310.511C-215.498 276.453 -212.596 242.69 -202.984 210.091C-193.695 178.595 -178.581 149.57 -158.074 123.752C-137.567 97.934 -112.647 76.709 -84.0817 60.5779C-54.4792 43.881 -22.1998 33.4555 11.8582 29.5758C45.9163 25.6962 79.6795 28.5987 112.279 38.21C143.774 47.4996 172.8 62.6139 198.584 83.1243C224.368 103.635 245.627 128.551 261.762 157.151C278.458 186.753 288.88 218.998 292.76 253.057C296.639 287.115 293.737 320.878 284.126 353.477C274.836 384.972 259.722 413.998 239.211 439.782C218.701 465.566 193.784 486.825 165.219 502.956C135.62 519.687 103.375 530.109 69.3169 533.988ZM11.9357 30.2556C-126.744 46.0529 -226.736 171.754 -210.939 310.434C-195.141 449.113 -69.4399 549.106 69.2395 533.308C207.919 517.511 307.911 391.809 292.114 253.13C276.317 114.451 150.615 14.4584 11.9357 30.2556Z" fill="#111111"/>
<path d="M167.169 62.1534C166.653 62.4533 166.348 62.7979 166.296 63.2514C166.058 65.9985 165.894 66.9813 162.057 64.4229C158.219 61.8646 144.601 58.3888 142.08 57.712C139.558 57.0352 140.093 60.5207 138.888 62.0352C137.683 63.5497 133.833 61.7847 131.172 61.3992C129.875 61.2025 128.262 63.9686 126.602 64.5021C124.941 65.0356 133.781 75.8385 131.012 76.0162C127.318 76.2304 123.07 64.629 119.719 62.1184C115.729 59.1298 119.355 64.3635 115.835 66.1072C113.425 67.3115 121.056 72.6398 120.093 72.9561C119.131 73.2723 110.76 69.612 106.954 67.6354C94.8098 61.3751 103.765 68.6529 103.765 68.6529C99.2388 67.3092 88.0612 67.7217 84.9187 67.9419C81.8101 68.1583 78.8555 69.4245 76.2461 69.7906C73.6366 70.1567 75.3602 65.0367 73.477 65.7333C71.5937 66.4298 71.8265 69.9842 69.0716 69.6782C66.3128 69.3383 63.1001 70.1519 59.9149 72.7183C56.6957 75.2886 51.0276 72.078 49.9666 70.9249C48.9056 69.7718 52.6958 64.6574 54.9576 66.9821C57.2194 69.3068 61.4139 68.3469 64.9881 67.079C68.6603 65.7655 65.5681 63.7076 62.2104 62.6439C58.3575 61.4646 56.199 58.2329 53.0431 55.0116C49.8872 51.7902 36.7365 51.8077 32.6259 51.6906C28.5492 51.5697 10.599 55.095 4.71229 57.5215C1.55765 58.8449 -12.6196 59.2204 -18.8772 61.4137C-25.131 63.6411 -32.5964 70.3448 -31.6705 71.8231C-30.7107 73.2976 -18.9273 70.647 -18.3809 71.5144C-17.8345 72.3818 -21.7928 75.415 -23.6128 75.7601C-25.8708 76.1894 -28.3925 75.5126 -32.4171 76.4531C-36.4718 77.4314 -32.1779 83.6908 -30.139 84.6636C-28.8302 85.272 -27.3931 85.797 -23.5918 84.7098C-19.7905 83.6225 -18.2993 84.6233 -15.3344 84.3545C-12.3695 84.0856 -8.46832 78.1322 -5.35114 78.2936C-2.26794 78.4589 0.589362 77.548 2.70494 76.1708C4.85449 74.7897 2.27345 71.7784 2.27345 71.7784C3.8766 69.5299 26.6255 62.187 30.3549 63.7936C34.1901 65.4226 18.5095 68.6205 16.5729 69.151C13.13 70.0596 9.67159 76.2725 9.99039 78.1643C10.3053 80.0221 27.7117 79.2788 24.674 81.9317C21.6364 84.5847 15.5208 80.7708 9.24172 80.6597C2.92862 80.5525 3.18803 82.8299 6.71394 83.2546C10.2059 83.6831 6.30604 86.0211 4.71022 86.8226C3.1144 87.6242 0.338867 85.3236 -1.44109 85.1132C-3.25504 84.9066 -8.75073 90.7662 -13.6436 91.9433C-18.5364 93.1204 -27.3622 88.7889 -27.3622 88.7889C-27.3622 88.7889 -31.4457 91.6299 -33.0028 87.3312C-34.6549 82.8023 -40.101 83.3538 -42.2953 84.9466C-44.2672 86.3763 -53.3671 85.3815 -57.081 86.6309C-60.0326 87.6213 -67.7759 92.1875 -67.7759 92.1875C-68.423 93.1564 -73.3077 93.1963 -74.6298 91.8664C-75.952 90.5365 -77.8455 92.9558 -78.6131 94.0761C-79.3807 95.1965 -81.4855 93.6459 -84.1354 93.0525C-86.7853 92.4592 -86.9618 99.6754 -87.1103 101.999C-87.2588 104.323 -98.1593 112.003 -99.5456 113.435C-100.932 114.867 -105.759 109.667 -107.365 106.751C-108.968 103.869 -117.26 113.284 -119.165 115.911C-121.031 118.568 -126.85 119.472 -127.035 122.385C-127.224 125.265 -132.611 126.636 -132.648 128.121C-132.652 129.602 -133.236 134.144 -133.236 134.144L-133.056 139.047C-133.056 139.047 -129.098 136.014 -128.072 136.861C-124.202 140.001 -116.749 137.121 -112.997 131.667C-109.242 126.246 -100.133 125.209 -96.7461 124.41C-93.3557 123.645 -89.1856 115.216 -87.9925 119.04C-86.7956 122.897 -85.7359 122.226 -82.1592 121.887C-79.742 121.646 -78.163 118.884 -75.233 121.029C-72.303 123.175 -76.1942 125.89 -76.1542 130.775C-76.1143 135.66 -72.7889 142.787 -72.7903 146.402C-72.7615 149.98 -77.1605 154.888 -75.8577 156.048C-74.5587 157.174 -69.9077 153.27 -68.2873 151.777C-66.667 150.284 -68.406 147.108 -65.7961 145.537C-63.1861 143.965 -64.4223 146.413 -63.4732 148.095C-62.524 149.778 -60.2002 147.206 -61.5064 144.807C-63.1921 141.797 -64.553 140.127 -66.1647 136.558C-67.5329 133.615 -68.1137 131.236 -67.871 128.833C-67.5921 125.84 -66.9446 123.666 -65.2704 121.134C-62.5391 117.001 -57.9256 120.022 -59.0464 125.9C-60.1673 131.777 -57.7209 133.909 -56.4999 135.56C-55.2789 137.211 -51.9634 139.416 -55.0221 144C-58.0808 148.583 -57.9517 148.809 -57.7788 151.234C-57.6398 153.663 -59.6453 153.891 -60.1079 160.107C-60.5705 166.323 -56.8579 174.129 -56.0933 170.565C-55.3287 167 -50.3464 168.12 -48.5238 165.984C-46.7012 163.848 -48.7905 162.433 -49.8274 159.074C-50.8642 155.715 -46.939 152.995 -46.939 152.995C-46.939 152.995 -43.7006 158.755 -42.9717 154.574C-42.2428 150.394 -39.9181 153.572 -36.9356 152.854C-33.9531 152.135 -32.3001 154.254 -35.339 157.802C-38.4119 161.354 -34.38 161.687 -35.7745 164.256C-37.1311 166.855 -42.8276 164.302 -39.6959 167.01C-36.5641 169.717 -40.8318 171.546 -40.3986 176.558C-39.709 184.123 -35.5814 175.321 -33.475 180.211C-31.3685 185.102 -27.6846 181.17 -25.1143 178.949C-22.5439 176.728 -19.4131 187.286 -19.4131 187.286C-19.4131 187.286 -16.7055 184.154 -14.0483 186.021C-10.5318 188.478 -9.58523 183.791 -7.74548 185.131C-5.90573 186.47 -3.19555 184.268 -3.18399 189.81C-3.2103 195.322 -5.71177 192.405 -6.82315 196.25C-7.93454 200.095 -10.7583 202.207 -13.0826 203.264C-15.4068 204.321 -18.796 215.071 -21.7536 213.892C-24.715 212.68 -32.2182 213.914 -32.2182 213.914C-32.2031 215.255 -32.1834 216.94 -32.1705 218.866L-32.1322 223.132C-30.1557 230.206 -28.137 233.419 -25.164 232.013C-22.187 230.641 -17.6786 244.829 -17.3676 252.093C-17.0527 259.391 -11.0301 262.389 -13.1728 271.689C-14.5579 277.666 -11.3487 281.053 -7.33882 288.446C-3.32895 295.84 1.39248 311.898 -0.898245 316.876C-3.22297 321.858 -3.39095 337.612 8.90961 333.456C17.3981 330.596 22.5887 330.521 28.6811 331.411C34.8074 332.297 41.6446 325.217 47.2543 326.403C52.8639 327.589 47.9019 321.509 57.9048 319.853C67.9078 318.197 74.8138 319.579 78.8617 313.403C82.1196 308.452 86.473 308.886 87.793 302.641C95.1018 299.398 99.3015 294.857 99.401 291.196C93.9768 287.407 99.1554 282.995 93.2493 282.532C84.7019 281.853 81.5508 273.535 83.9238 266.86C83.9238 266.86 75.5401 274.874 70.7678 275.899C66.4975 276.799 56.8482 277.933 56.5643 270.907C56.2804 263.881 59.9281 265.979 53.458 259.657C46.988 253.336 38.9992 241.541 45.6419 237.892C52.2846 234.243 58.5099 238.113 58.9719 246.703C59.4339 255.292 77.3951 263.954 81.3608 262.194C85.3264 260.434 87.0995 260.886 89.1539 267.435C91.2083 273.984 128.894 277.163 133.73 276.096C138.567 275.028 136.661 282.786 144.212 289.225C151.733 295.702 145.088 297.216 153.091 303.088C161.093 308.959 165.19 294.444 165.341 301.21C165.513 308.765 163.789 322.046 167.189 331.334C170.588 340.621 172.572 353.204 175.826 359.1C179.114 364.992 174.011 377.624 180.585 377.908C187.16 378.192 194.489 364.549 195.826 357.854C197.164 351.16 192.956 341.723 199.091 336.032C205.229 330.375 215.764 321.6 217.514 316.408C219.268 311.25 226.485 307.811 227.994 302.922C229.503 298.033 237.523 299.22 238.972 295.922C240.421 292.623 245.302 287.109 245.283 293.894C245.264 300.679 244.061 301.608 248.739 305.793C253.416 309.977 248.527 319.348 249.534 324.26C250.92 330.989 256.794 328.15 263.552 325.211C270.344 322.269 264.95 356.522 266.584 368.146C267.601 375.261 270.003 381.839 271.703 385.88C289.846 345.664 297.748 300.175 292.39 253.133C282.991 170.02 234.39 100.944 167.169 62.1534ZM18.7132 166.829C11.4557 165.384 4.10316 158.267 -0.115889 157.199C-5.00786 155.966 -15.5009 159.364 -18.3027 157.136C-21.1045 154.907 -28.2415 153.31 -18.7926 145.278C-9.34373 137.247 -3.77663 132.619 1.11273 135.643C5.99822 138.632 5.46257 137.557 5.99823 138.632C6.53387 139.708 -0.339406 139.217 1.38288 140.432C3.07118 141.651 1.62546 146.189 5.60832 145.184C9.62519 144.176 12.1168 144.891 14.8648 145.438C17.6128 145.986 26.7286 148.632 26.3662 154.216C26.0039 159.801 27.9908 159.713 28.7437 161.486C29.5229 163.188 25.9706 168.275 18.7132 166.829ZM23.2625 141.176C21.8625 143.092 18.5887 143.671 16.2008 143.565C14.5383 143.478 10.1191 142.467 10.9117 139.45C11.7383 136.429 26.4602 136.302 27.1542 137.255C27.8482 138.209 24.6665 139.295 23.2625 141.176ZM78.91 156.047C75.9283 157.075 72.5212 155.879 70.9223 159.677C70.4344 160.834 74.5174 167.359 76.4707 168.789C78.4241 170.219 77.4271 177.184 77.4271 177.184C77.9813 175.4 81.9797 171.811 84.2935 177.917C86.8014 184.518 80.9048 182.022 78.1882 180.541C75.5056 179.056 76.9744 185.603 79.4664 187.832C81.9584 190.062 79.8497 193.917 80.2794 197.69C81.1149 204.722 76.3292 202.306 73.132 203.256C69.9348 204.206 60.514 199.184 57.0217 194.521C53.5294 189.857 63.2907 182.754 63.7334 180.294C64.1762 177.833 61.2738 172.001 57.6145 167.081C53.9213 162.164 57.0399 153.27 60.5365 154.043C64.0371 154.849 70.5447 148.805 78.4446 148.938C86.3444 149.071 81.8878 154.985 78.91 156.047Z" fill="white"/>
<path d="M271.806 386.178L271.772 386.182C271.636 386.198 271.522 386.107 271.473 385.975C269.682 381.738 267.321 375.224 266.312 368.177C265.726 363.94 266.054 356.844 266.373 349.371C266.843 338.988 267.4 327.252 264.97 325.566C264.633 325.329 264.218 325.308 263.761 325.532L263.006 325.859C258.346 327.87 254.347 329.634 251.71 328.247C250.465 327.597 249.664 326.311 249.232 324.329C248.845 322.445 249.288 319.984 249.745 317.35C250.527 313.026 251.323 308.528 248.524 306.024C244.65 302.54 244.702 301.191 244.869 297.212C244.897 296.245 244.947 295.172 244.969 293.861C244.98 292.138 244.656 291.108 244.055 290.97C242.856 290.728 240.394 293.59 239.327 296.019C238.618 297.649 236.587 298.259 234.42 298.885C231.823 299.663 229.158 300.448 228.38 302.981C227.597 305.481 225.329 307.633 223.158 309.739C220.984 311.812 218.75 313.96 217.865 316.471C216.34 320.914 208.72 327.773 202.566 333.295C201.409 334.322 200.316 335.307 199.352 336.209C195.455 339.786 195.844 345.009 196.247 350.059C196.458 352.824 196.655 355.453 196.2 357.812C194.773 364.929 187.221 378.426 180.609 378.112C176.456 377.931 176.591 373.37 176.729 368.534C176.817 365.081 176.928 361.522 175.588 359.127C173.686 355.728 172.262 350.175 170.73 344.289C169.573 339.876 168.397 335.293 166.913 331.331C164.358 324.322 164.658 315.164 164.917 307.766C165.016 305.31 165.063 302.998 165.054 301.105C165.008 299.802 164.849 299.614 164.811 299.583C164.638 299.569 163.997 300.296 163.474 300.838C161.511 302.955 157.899 306.913 152.936 303.243C148.765 300.172 148.476 298.242 148.172 296.176C147.895 294.349 147.644 292.449 144.054 289.346C140.313 286.123 138.841 282.572 137.787 279.972C136.597 277.077 135.97 275.806 133.889 276.284C133.723 276.337 133.519 276.361 133.281 276.388C126.415 277.17 90.9703 274.011 88.9082 267.394C87.8296 263.971 86.8427 262.258 85.6435 261.706C84.7017 261.297 83.5839 261.459 81.5841 262.341C79.4221 263.31 73.7427 261.513 68.3767 258.233C65.565 256.522 59.0166 251.931 58.7185 246.594C58.4841 242.42 56.8354 239.13 54.1527 237.645C51.7653 236.334 48.8529 236.459 45.9371 238.065C44.6394 238.764 43.8718 239.884 43.6567 241.32C43.016 245.972 48.2891 253.876 53.8272 259.271C58.0888 263.434 58.1284 264.083 57.5712 266.144C57.3358 267.1 56.9654 268.382 57.0587 270.713C57.1086 272.36 57.7355 273.631 58.8674 274.501C62.1158 277.023 68.8334 275.844 70.8496 275.408C75.4559 274.436 83.7491 266.536 83.8433 266.456C83.9677 266.339 84.1376 266.32 84.2512 266.41C84.3648 266.5 84.4521 266.663 84.3996 266.806C83.1252 270.429 83.5218 274.515 85.4455 277.498C86.6596 279.392 89.0574 281.701 93.4369 282.063C96.7735 282.337 96.8875 283.942 97.0131 285.649C97.1271 287.255 97.2644 289.064 99.7701 290.81C99.8799 290.866 99.9293 290.998 99.907 291.104C99.7744 295.079 95.2347 299.659 88.2581 302.795C87.4372 306.469 85.5294 307.857 83.4973 309.363C82.0684 310.421 80.6094 311.516 79.2851 313.492C76.2079 318.215 71.6076 318.636 65.27 319.22C63.1247 319.43 60.7037 319.637 58.1019 320.071C52.7625 320.955 51.8391 323.126 51.1899 324.68C50.6193 326.019 50.1353 327.211 47.3115 326.603C44.5936 326.017 41.5565 327.465 38.3571 329C35.1878 330.497 31.8903 332.078 28.7383 331.611C22.6838 330.751 17.5272 330.822 9.1067 333.675C5.22667 334.978 2.24458 334.491 0.198327 332.245C-3.46997 328.152 -2.59775 319.79 -1.12925 316.661C1.05261 311.937 -3.51347 296.033 -7.56895 288.542C-8.39286 287.052 -9.16732 285.694 -9.85829 284.464C-12.6824 279.621 -14.5273 276.423 -13.3961 271.542C-12.1492 266.167 -13.6765 263.035 -15.265 259.67C-16.3479 257.417 -17.4764 255.067 -17.5831 252.015C-17.8614 245.642 -21.3958 233.959 -24.0939 232.339C-24.389 232.166 -24.6347 232.125 -24.8989 232.224C-25.8158 232.638 -26.7073 232.671 -27.5054 232.314C-29.287 231.484 -30.7796 228.659 -32.34 223.121L-32.3516 223.019L-32.411 217.964C-32.423 216.347 -32.4457 214.938 -32.4376 213.801C-32.4569 213.631 -32.3025 213.476 -32.1665 213.46C-31.8606 213.425 -24.5235 212.245 -21.4941 213.45C-20.0153 214.039 -18.1097 210.516 -16.5384 207.686C-15.2566 205.336 -14.1439 203.316 -13.095 202.852C-11.3253 202.065 -8.17243 200.122 -7.01629 196.065C-6.49996 194.251 -5.62094 193.806 -4.942 193.419C-4.09698 192.978 -3.41416 192.625 -3.40336 189.697C-3.39042 186.184 -4.43335 186.096 -5.79381 185.941C-6.45512 185.879 -7.18827 185.79 -7.82805 185.312C-8.31638 184.955 -8.70489 185.171 -9.52281 185.85C-10.5331 186.653 -11.8862 187.771 -14.1308 186.202C-16.489 184.543 -18.9295 187.3 -19.0538 187.417C-19.148 187.497 -19.2801 187.546 -19.386 187.524C-19.4918 187.502 -19.6054 187.411 -19.6549 187.279C-20.2804 185.112 -22.34 179.425 -24.0489 178.931C-24.2985 178.856 -24.5326 178.917 -24.7851 179.118C-25.0037 179.315 -25.2562 179.516 -25.4709 179.747C-27.1894 181.286 -29.3489 183.184 -31.2579 182.748C-32.2483 182.516 -33.0666 181.68 -33.675 180.268C-33.9981 179.548 -34.3204 179.137 -34.7515 178.979C-35.3642 178.739 -36.149 179.104 -36.8998 179.465C-37.7486 179.872 -38.5975 180.278 -39.3354 179.846C-40.0354 179.444 -40.4274 178.421 -40.6141 176.48C-40.8094 174.16 -40.0659 172.526 -39.4614 171.184C-38.7218 169.515 -38.2485 168.532 -39.8163 167.161C-40.6948 166.4 -40.9831 165.986 -40.8218 165.589C-40.6643 165.157 -40.0826 165.126 -39.2552 165.135C-38.1219 165.109 -36.5429 165.067 -35.9754 164.004C-35.4642 163.05 -35.802 162.503 -36.1892 161.824C-36.7511 160.821 -37.4305 159.693 -35.5137 157.478C-34.1429 155.91 -33.6519 154.477 -34.1605 153.64C-34.5438 152.995 -35.5644 152.801 -36.7725 153.076C-37.9807 153.352 -39.0808 153.064 -39.9314 152.851C-40.7141 152.63 -41.3491 152.496 -41.7338 152.746C-42.0844 152.993 -42.3624 153.575 -42.5297 154.524C-42.7156 155.613 -43.0955 156.207 -43.7035 156.311C-44.9194 156.518 -46.3383 154.338 -46.9304 153.373C-47.7784 154.089 -50.1788 156.291 -49.4048 158.854C-49.077 159.918 -48.6364 160.763 -48.2716 161.548C-47.4661 163.178 -46.8014 164.479 -48.1645 166.115C-48.9854 167.069 -50.3558 167.432 -51.696 167.757C-53.5384 168.208 -55.2448 168.643 -55.6475 170.548C-55.8674 171.641 -56.4073 171.737 -56.721 171.704C-58.399 171.482 -60.699 164.892 -60.3612 159.998C-60.0918 156.318 -59.2804 154.676 -58.6604 153.469C-58.2396 152.63 -57.9577 152.081 -58.0283 151.159L-58.0593 150.887C-58.2167 148.599 -58.1388 148.073 -55.2268 143.713C-52.7812 140.095 -54.5547 138.127 -55.9379 136.563C-56.2146 136.251 -56.4534 135.968 -56.6922 135.685C-56.8174 135.493 -56.9766 135.305 -57.1736 135.086C-58.4209 133.507 -60.3467 131.109 -59.3037 125.757C-58.6557 122.378 -59.9348 120.216 -61.3757 119.657C-62.6011 119.177 -63.9142 119.74 -64.915 121.231C-66.4725 123.578 -67.1696 125.62 -67.463 128.787C-67.6911 131.016 -67.1938 133.266 -65.7761 136.341C-64.7612 138.601 -63.8353 140.08 -62.8638 141.656C-62.3135 142.558 -61.7632 143.459 -61.1217 144.557C-60.1649 146.307 -60.9531 148.153 -61.9225 148.711C-62.6014 149.098 -63.2821 148.866 -63.6693 148.187C-64.0527 147.542 -64.1038 146.79 -64.1697 146.212C-64.2122 145.838 -64.2665 145.363 -64.3762 145.306C-64.414 145.276 -64.6597 145.235 -65.531 145.748C-66.851 146.552 -66.9194 147.765 -67.0102 149.084C-67.098 150.127 -67.1441 151.234 -67.9542 151.98C-70.3284 154.11 -74.52 157.514 -75.9742 156.234C-76.8149 155.503 -75.9957 153.929 -74.985 151.92C-74.0569 150.093 -73.0161 148.046 -73.0019 146.358C-73.0139 144.741 -73.7385 142.31 -74.4785 139.743C-75.3863 136.61 -76.3397 133.379 -76.3659 130.73C-76.402 128.6 -75.6701 126.864 -75.1073 125.457C-74.2442 123.361 -73.8845 122.287 -75.3116 121.245C-77.0757 119.965 -78.2451 120.581 -79.5767 121.283C-80.3237 121.678 -81.1046 122.077 -81.9922 122.144L-83.1479 122.275C-85.8331 122.581 -87.0567 122.721 -88.1964 119.063C-88.2992 118.765 -88.4477 118.369 -88.7312 118.298C-89.4002 118.167 -90.7186 119.591 -91.8785 120.894C-93.3513 122.474 -95.0048 124.28 -96.5451 124.662C-97.0132 124.784 -97.5532 124.88 -98.1951 124.988C-102.103 125.743 -109.413 127.161 -112.574 131.756C-114.937 135.193 -118.881 137.742 -122.571 138.3C-124.806 138.624 -126.715 138.187 -128.158 137.009C-128.65 136.617 -130.887 137.836 -132.693 139.213C-132.787 139.292 -132.923 139.308 -133.033 139.251C-133.143 139.195 -133.226 139.067 -133.238 138.965L-133.417 134.062L-133.425 133.994C-133.429 133.96 -132.871 129.489 -132.83 128.038C-132.821 127.211 -131.825 126.581 -130.569 125.818C-129.061 124.854 -127.322 123.795 -127.217 122.303C-127.116 120.466 -125.131 119.448 -123.053 118.351C-121.559 117.561 -120.031 116.767 -119.26 115.681C-117.984 113.883 -111.071 105.658 -108.055 105.831C-107.538 105.841 -107.163 106.108 -106.905 106.561C-105.561 108.99 -101.893 113.083 -100.113 113.293C-99.833 113.33 -99.7047 113.247 -99.6105 113.167C-99.2112 112.743 -98.0087 111.814 -96.4933 110.608C-93.3004 108.11 -87.3254 103.435 -87.2539 101.947L-87.2286 101.565C-87.118 99.2111 -86.8899 94.2615 -85.2084 93.0026C-84.8276 92.7182 -84.3595 92.596 -83.8983 92.7156C-82.9457 92.917 -82.0796 93.2659 -81.3232 93.5585C-79.9542 94.0912 -79.0958 94.3722 -78.7383 93.8838C-77.9066 92.7217 -76.7281 91.2791 -75.5385 91.1436L-75.5045 91.1397C-75.0286 91.0855 -74.5936 91.277 -74.2451 91.616C-73.5064 92.3582 -71.3371 92.662 -69.6677 92.5063C-68.5081 92.4086 -68.0215 92.1466 -67.901 91.9951C-67.8709 91.9573 -67.8408 91.9194 -67.7767 91.8777C-67.4523 91.703 -59.9654 87.3038 -57.0138 86.3133C-55.1909 85.6925 -52.1348 85.6198 -49.2185 85.5287C-46.2683 85.4336 -43.2462 85.3648 -42.2923 84.6708C-40.9236 83.6886 -38.3451 83.0505 -36.0953 83.7583C-34.3825 84.2863 -33.1438 85.488 -32.4968 87.2391C-32.0971 88.3298 -31.4642 89.0496 -30.6815 89.2704C-29.1464 89.7497 -27.3931 88.517 -27.3591 88.5132C-27.2649 88.4336 -27.1289 88.4181 -27.0192 88.4744C-26.9435 88.5347 -18.2352 92.7418 -13.5123 91.584C-10.8658 90.9383 -7.9702 88.8524 -5.64766 87.1762C-3.57771 85.7009 -2.11869 84.605 -1.17384 84.7384C-0.406712 84.8232 0.43313 85.244 1.37496 85.6532C2.64979 86.2654 3.99647 86.9039 4.80751 86.4672C6.92393 85.3998 8.11103 84.3349 8.03444 83.9649C8.03057 83.9309 7.96559 83.6629 6.91878 83.5411C5.17283 83.3268 4.09805 82.6573 4.14496 81.8601C4.22887 80.7832 6.16158 80.2187 9.47496 80.2889C12.0289 80.3422 14.5468 80.9851 16.7811 81.5569C20.1155 82.4166 22.9849 83.1227 24.6771 81.656C24.8655 81.4968 24.9219 81.3871 24.9141 81.3191C24.693 80.5868 20.1018 80.1801 17.3886 79.9383C12.3099 79.4839 10.0726 79.1879 9.89234 78.2099C9.55418 76.1481 13.0311 69.7955 16.7081 68.8257C16.9761 68.7608 17.5122 68.6308 18.2824 68.4398C20.1966 68.0152 23.349 67.2773 26.082 66.484C30.6797 65.1339 30.8441 64.461 30.8704 64.3891C30.8704 64.3891 30.8209 64.257 30.4616 64.1258C27.0574 62.6543 5.51591 69.412 2.96491 71.8029C3.37063 72.342 4.28877 73.7524 4.12224 75.0109C4.01811 75.6081 3.69844 76.1265 3.15545 76.4983C0.783453 78.0424 -2.15735 78.825 -5.10071 78.6783C-6.58939 78.6068 -8.40594 80.191 -10.1622 81.6994C-11.8846 83.204 -13.5165 84.595 -15.05 84.7352C-16.2095 84.8329 -17.1466 84.7675 -18.0497 84.6982C-19.5461 84.5588 -20.9367 84.4417 -23.2355 85.1168C-27.0708 86.2079 -28.6059 85.7285 -30.0284 85.0298C-31.5566 84.3087 -34.4113 80.7087 -34.1462 78.1995C-34.0576 77.4663 -33.6824 76.5284 -32.2101 76.1541C-29.7297 75.5616 -27.8671 75.5905 -26.2123 75.6086C-25.1431 75.6245 -24.2478 75.6258 -23.3718 75.4572C-22.0578 75.2042 -19.2788 73.3038 -18.5228 72.0815C-18.4062 71.896 -18.3838 71.7902 -18.3877 71.7562C-18.8907 71.5725 -21.3341 71.8852 -23.3055 72.1098C-28.0942 72.6897 -31.0591 72.9586 -31.6473 72.0271C-31.8142 71.7707 -31.8189 71.4269 -31.6916 71.0336C-30.8409 68.5266 -24.1315 63.0452 -18.7043 61.1186C-15.1981 59.8584 -9.27997 59.2187 -4.07948 58.6263C-0.000680433 58.1617 3.50417 57.7969 4.88529 57.2264C10.606 54.8532 28.6504 51.2483 32.9349 51.38C33.2446 51.3791 33.6263 51.4045 34.038 51.3921C39.146 51.4988 50.2912 51.7098 53.2918 54.7767C53.9927 55.4887 54.6217 56.1746 55.2507 56.8604C57.4902 59.2909 59.419 61.4125 62.3116 62.3225C64.5613 63.0303 66.9712 64.2364 66.9901 65.6115C67.0034 66.333 66.3855 66.9543 65.0948 67.4112C61.8528 68.5724 57.2435 69.8205 54.7128 67.251C53.5838 66.1057 52.1967 67.2277 51.6352 67.7393C50.4821 68.8003 49.8629 70.3169 50.2192 70.724C51.1627 71.7527 56.6532 74.9147 59.6839 72.5036C63.4684 69.4557 66.9091 69.1327 69.1086 69.3986C70.503 69.5496 70.9802 68.6 71.5778 67.499C72.0326 66.6553 72.4874 65.8116 73.3781 65.4691C73.7063 65.3284 74.02 65.3616 74.2433 65.5083C74.7239 65.7978 74.8091 66.5456 74.9058 67.3954C74.9949 68.1772 75.0956 69.0609 75.5121 69.3922C75.6635 69.5127 75.9092 69.5535 76.2151 69.5187C77.2989 69.3608 78.4352 69.0592 79.6356 68.7159C81.3041 68.2504 83.0746 67.7732 84.8877 67.67C88.0303 67.4497 97.3569 67.1104 102.426 68.0824C99.8279 65.8304 100.182 65.3081 100.298 65.1227C100.592 64.6761 101.328 64.4889 107.071 67.45C111.096 69.5393 117.969 72.4406 119.688 72.7267C119.408 72.38 118.824 71.7922 118.324 71.3327C116.351 69.4228 114.866 67.8704 115.048 66.7479C115.088 66.5022 115.22 66.143 115.71 65.9149C117.208 65.159 117.253 63.7422 117.291 62.5671C117.312 61.8417 117.314 61.2562 117.775 61.066C118.197 60.8457 118.81 61.0858 119.946 61.9893C121.377 63.0659 122.906 65.6117 124.527 68.3537C126.656 71.933 129.044 75.9649 131.027 75.8423C131.163 75.8269 131.193 75.789 131.223 75.7511C131.561 75.0929 129.728 71.9963 128.532 69.9633C126.828 67.0931 125.883 65.4448 126.141 64.6923C126.224 64.5107 126.344 64.3593 126.544 64.302C127.243 64.0848 127.955 63.3839 128.637 62.7209C129.537 61.8608 130.408 61.0386 131.285 61.1797C132.056 61.2985 132.944 61.5416 133.829 61.7507C135.779 62.2516 137.98 62.8273 138.669 61.9224C139.03 61.4681 139.255 60.7195 139.415 60.0126C139.778 58.6629 140.242 56.9918 142.192 57.4926L142.616 57.5821C153.194 60.3711 159.815 62.578 162.275 64.2259C162.907 64.6359 164.773 65.9039 165.396 65.6264C165.788 65.444 165.876 64.401 165.96 63.3241C166 62.7686 166.361 62.3143 166.972 61.9348C167.07 61.8892 167.206 61.8737 167.316 61.9301C201 81.3685 230.177 108.689 251.717 140.907C262.714 157.352 271.758 175.087 278.621 193.621C285.712 212.645 290.471 232.659 292.794 253.053C297.974 298.531 290.814 344.486 272.092 385.973C272.036 386.083 271.942 386.163 271.806 386.178ZM264.182 324.692C264.624 324.642 265.013 324.735 265.35 324.972C268.113 326.861 267.603 337.799 267.061 349.361C266.708 356.838 266.406 363.862 266.988 368.065C267.909 374.64 270.053 380.766 271.806 384.973C290.219 343.796 297.248 298.201 292.114 253.13C283.077 173.797 236.367 102.578 167.178 62.5312C166.857 62.7398 166.681 63.001 166.644 63.2807C166.527 64.6712 166.447 65.7822 165.696 66.1431C165.009 66.4624 163.969 66.0988 161.884 64.7181C160.245 63.6308 155.536 61.5849 142.44 58.153L142.013 58.0296C140.769 57.6892 140.488 58.5476 140.073 60.041C139.852 60.8236 139.635 61.6402 139.183 62.2081C138.189 63.4576 135.883 62.8595 133.645 62.2537C132.756 62.0106 131.906 61.7976 131.173 61.709C130.613 61.6349 129.871 62.3737 129.125 63.0784C128.379 63.7832 127.637 64.5219 126.806 64.7887C126.661 65.3217 128.145 67.7695 129.128 69.4479C131.166 72.831 132.339 74.9698 131.858 75.8854C131.775 76.0669 131.561 76.298 131.115 76.3143C128.72 76.4494 126.299 72.4213 123.991 68.4836C122.416 65.8397 120.924 63.324 119.607 62.3379C118.441 61.4722 118.169 61.5031 118.135 61.507C118.075 61.5827 118.065 62.1003 118.031 62.414C117.997 63.623 117.96 65.4176 116.07 66.3559C115.84 66.451 115.822 66.5909 115.795 66.6627C115.654 67.5396 117.59 69.4194 118.866 70.6512C120.223 71.9773 120.689 72.4406 120.599 72.864C120.547 73.0077 120.46 73.1553 120.294 73.2086C119.033 73.6277 109.808 69.4107 106.845 67.8888C102.714 65.7771 101.432 65.4066 101.017 65.3851C101.283 65.9057 102.711 67.258 104.036 68.3122C104.149 68.4025 104.207 68.6026 104.12 68.7502C104.034 68.8977 103.867 68.9511 103.728 68.9326C99.2358 67.585 87.8203 68.0246 85.0215 68.2401C83.2463 68.3734 81.5438 68.8428 79.9054 69.2705C78.671 69.6177 77.5347 69.9193 76.3829 70.0849C75.907 70.1391 75.4836 70.0496 75.1808 69.8087C74.5371 69.2967 74.421 68.277 74.3164 67.3592C74.2545 66.8154 74.1732 66.1016 73.9877 65.985C73.9159 65.9588 73.7799 65.9742 73.7158 66.016C73.0553 66.2634 72.6909 66.9935 72.2925 67.7275C71.6686 68.9004 70.9884 70.1829 69.1404 69.9803C67.0808 69.7329 63.844 70.0327 60.2178 72.9592C56.814 75.7227 50.8809 72.3013 49.816 71.1142C49.0695 70.304 49.9559 68.4126 51.2634 67.1963C52.6915 65.8286 54.255 65.6505 55.3083 66.7356C57.5662 69.0263 61.9075 67.8431 64.9834 66.7353C65.908 66.3889 66.4131 65.9871 66.4045 65.6093C66.3834 64.8198 64.6048 63.714 62.1773 62.9576C59.073 62.0028 57.1025 59.8171 54.7873 57.3264C54.1583 56.6405 53.5293 55.9547 52.8663 55.2727C50.0589 52.3904 38.6718 52.1726 33.8057 52.0727C33.3901 52.0512 33.0123 52.0598 32.7025 52.0607C28.8337 51.9505 10.9738 55.3622 4.95886 57.8722C3.51363 58.4844 -0.0592044 58.857 -4.172 59.3255C-9.33849 59.914 -15.1886 60.546 -18.6307 61.7644C-24.1259 63.6988 -30.4653 69.1035 -31.2187 71.2552C-31.2673 71.4329 -31.2819 71.6067 -31.2402 71.6708C-30.8229 72.3119 -26.1021 71.7397 -23.5529 71.4494C-19.376 70.9391 -18.2806 70.8832 -17.9467 71.3961C-17.8176 71.6224 -17.8206 71.8982 -17.9557 72.2234C-18.5641 73.5323 -21.7764 75.8608 -23.4265 76.1864C-24.3364 76.359 -25.2998 76.3654 -26.369 76.3495C-27.9897 76.3275 -29.8144 76.3288 -32.2269 76.9135C-33.099 77.1161 -33.5624 77.5821 -33.6131 78.3453C-33.8305 80.3671 -31.3428 83.7678 -29.8864 84.4627C-28.5776 85.0711 -27.1822 85.5319 -23.581 84.5019C-21.1462 83.8114 -19.6158 83.947 -18.1572 84.0563C-17.2881 84.1294 -16.385 84.1987 -15.2935 84.1088L-15.2595 84.1049C-13.9678 83.9578 -12.3699 82.5707 -10.836 81.2253C-8.98934 79.6033 -7.07858 77.9395 -5.31024 78.0479C-2.50671 78.1762 0.267997 77.4469 2.54578 75.9824C2.93042 75.732 3.16751 75.3951 3.22302 74.9756C3.42354 73.7132 2.07041 72.1114 2.03255 72.0813C1.91509 71.9569 1.92971 71.7831 2.02006 71.6695C2.96835 70.322 9.64076 67.8404 15.435 66.113C18.3302 65.2323 27.9675 62.4818 30.5016 63.5703C31.0803 63.8143 31.357 64.1271 31.3015 64.5466C31.1991 65.7633 27.5268 67.0769 18.2316 69.2031C17.5256 69.3524 16.9555 69.4862 16.6874 69.5511C13.4446 70.4026 10.0649 76.3998 10.3682 78.1557C10.6039 78.7142 14.7456 79.1031 17.2509 79.3342C22.05 79.7516 25.0166 80.1023 25.3784 81.1629C25.489 81.529 25.3539 81.8543 24.9468 82.2106C22.972 83.9161 19.9249 83.1614 16.4128 82.2531C14.2125 81.6773 11.7325 81.0646 9.2465 81.0035C5.79716 80.9488 4.63546 81.6321 4.60232 81.9457C4.59543 82.1875 5.20509 82.7034 6.77723 82.9031C7.16274 82.9624 8.34939 83.1027 8.47243 83.8806C8.66819 84.9945 6.31469 86.3989 4.88108 87.1131C3.77574 87.6866 2.28535 86.9956 0.828954 86.3007C-0.0448785 85.8838 -0.843002 85.5271 -1.50816 85.4307C-2.17334 85.3343 -3.79455 86.5175 -5.51386 87.7463C-7.8665 89.4604 -10.8262 91.5879 -13.6087 92.2492C-18.2335 93.3614 -26.0787 89.779 -27.3875 89.1706C-27.9004 89.5045 -29.5564 90.3817 -31.1256 89.9063C-32.1276 89.5728 -32.9081 88.7665 -33.3689 87.4418C-33.9209 85.9208 -35.0421 84.8434 -36.5394 84.3942C-38.5736 83.7652 -40.9521 84.346 -42.1284 85.203C-43.2406 86.0184 -46.1267 86.0717 -49.4207 86.1715C-52.303 86.2588 -55.2571 86.3198 -57.0121 86.9329C-59.7636 87.8661 -66.8697 91.981 -67.5788 92.406C-67.9703 92.8982 -68.9823 93.0824 -69.7679 93.1374C-71.6073 93.3125 -73.9543 92.9601 -74.8862 92.0334C-75.0833 91.8148 -75.3328 91.7399 -75.6086 91.7369C-76.3263 91.7842 -77.3249 92.6899 -78.3597 94.185C-79.0106 95.1199 -80.27 94.6436 -81.7449 94.0886C-82.5013 93.796 -83.3295 93.4772 -84.2481 93.2719C-84.5316 93.2009 -84.7657 93.262 -85.0221 93.429C-86.4471 94.5209 -86.683 99.4026 -86.7906 101.481L-86.8159 101.862C-86.902 103.525 -91.3423 107.164 -96.307 111.035C-97.7282 112.161 -98.9608 113.128 -99.33 113.514C-99.5146 113.707 -99.8351 113.916 -100.394 113.842C-102.594 113.576 -106.418 109.019 -107.675 106.752C-107.804 106.526 -107.99 106.409 -108.269 106.372C-110.695 106.235 -117.105 113.438 -118.885 115.948C-119.743 117.182 -121.335 118.018 -122.893 118.849C-124.809 119.859 -126.594 120.82 -126.673 122.241C-126.807 124.081 -128.768 125.303 -130.341 126.308C-131.307 126.9 -132.268 127.526 -132.286 127.976C-132.293 129.423 -132.818 133.58 -132.874 134L-132.737 138.219C-131.433 137.279 -128.865 135.643 -127.88 136.426C-126.593 137.45 -124.862 137.838 -122.826 137.572C-119.303 137.067 -115.554 134.609 -113.312 131.324C-110.004 126.505 -102.524 125.068 -98.4842 124.263C-97.8423 124.156 -97.3062 124.026 -96.8342 123.938C-95.4901 123.647 -93.8969 121.916 -92.5222 120.382C-90.9591 118.689 -89.735 117.345 -88.7105 117.572C-88.2493 117.692 -87.8969 118.065 -87.6758 118.797C-86.7 121.922 -85.9862 121.841 -83.369 121.543L-82.2133 121.411C-81.4656 121.326 -80.7827 120.973 -80.0319 120.612C-78.6663 119.906 -77.1385 119.112 -75.0376 120.628C-73.1221 122.028 -73.7937 123.689 -74.6043 125.64C-75.1671 127.047 -75.8427 128.674 -75.8259 130.634C-75.8074 133.215 -74.8084 136.544 -73.9578 139.477C-73.18 142.074 -72.4516 144.539 -72.4619 146.262C-72.4529 148.154 -73.554 150.277 -74.5122 152.142C-75.241 153.602 -76.0865 155.248 -75.6623 155.647C-74.973 156.257 -71.9745 154.47 -68.5376 151.392C-67.9121 150.839 -67.8729 149.974 -67.8152 148.969C-67.7283 147.616 -67.6267 146.09 -66.0163 145.114C-65.145 144.602 -64.6128 144.438 -64.2118 144.633C-63.739 144.855 -63.7071 145.437 -63.6336 146.082C-63.5716 146.626 -63.532 147.276 -63.2322 147.793C-63.0157 148.181 -62.7662 148.256 -62.4078 148.077C-61.6987 147.652 -61.1058 146.208 -61.8424 144.88C-62.4499 143.778 -63.0002 142.877 -63.5466 142.01C-64.5181 140.433 -65.4479 138.921 -66.5007 136.63C-67.9639 133.457 -68.4729 131.105 -68.2263 128.736C-67.9066 125.497 -67.1609 123.278 -65.5772 120.859C-64.3995 119.107 -62.7241 118.399 -61.2075 119.019C-59.5093 119.72 -58.0254 122.168 -58.7366 125.899C-59.7125 130.934 -57.9838 133.112 -56.7403 134.658C-56.5773 134.88 -56.4181 135.069 -56.255 135.291C-56.0541 135.544 -55.8153 135.826 -55.5425 136.105C-54.1593 137.669 -52.0296 140.043 -54.7686 144.108C-57.6505 148.431 -57.6156 148.737 -57.5116 150.859L-57.4806 151.131C-57.4247 152.227 -57.759 152.919 -58.1759 153.793C-58.7357 154.924 -59.5209 156.494 -59.8058 160.038C-60.1844 165.177 -57.7433 170.89 -56.7644 171.02C-56.6926 171.046 -56.576 170.861 -56.4564 170.399C-55.9603 168.105 -53.8537 167.555 -52.0114 167.104C-50.7391 166.787 -49.5008 166.474 -48.8344 165.675C-47.7385 164.414 -48.2285 163.437 -49.0262 161.875C-49.4251 161.094 -49.8695 160.215 -50.2051 159.083C-51.2992 155.523 -47.3477 152.732 -47.1894 152.61C-47.1253 152.569 -47.0272 152.523 -46.9213 152.545C-46.8155 152.568 -46.7398 152.628 -46.6941 152.726C-46.0032 153.956 -44.6647 155.731 -44.0189 155.658L-43.9849 155.654C-43.713 155.623 -43.4914 155.15 -43.3687 154.413C-43.1605 153.219 -42.8262 152.526 -42.2832 152.155C-41.6081 151.734 -40.7915 151.95 -39.9069 152.159C-39.0563 152.372 -38.096 152.642 -37.0578 152.386C-35.5175 152.004 -34.2736 152.344 -33.6893 153.242C-33.01 154.369 -33.5418 156.048 -35.1234 157.881C-36.7051 159.714 -36.2683 160.525 -35.7181 161.426C-35.2891 162.169 -34.8184 162.977 -35.4987 164.259C-36.2615 165.723 -38.1202 165.728 -39.3555 165.766C-39.6652 165.767 -40.043 165.775 -40.2431 165.833C-40.1596 165.961 -39.9626 166.179 -39.4665 166.605C-37.52 168.277 -38.1809 169.729 -38.9507 171.435C-39.5591 172.744 -40.2462 174.268 -40.0401 176.38C-39.8921 177.981 -39.5759 178.944 -39.0992 179.199C-38.6565 179.459 -38.0076 179.109 -37.287 178.786C-36.4381 178.38 -35.4911 177.927 -34.591 178.272C-33.9783 178.513 -33.5046 179.044 -33.1282 179.931C-32.611 181.146 -31.9441 181.862 -31.1692 182.014C-29.6156 182.354 -27.6145 180.577 -25.9864 179.152C-25.7338 178.951 -25.5191 178.72 -25.2665 178.519C-24.8595 178.162 -24.3914 178.04 -23.8923 178.19C-21.7561 178.807 -19.7947 184.541 -19.1962 186.469C-18.2918 185.643 -16.0334 184.009 -13.7888 185.578C-11.9568 186.85 -10.9805 186.05 -10.0043 185.25C-9.28057 184.651 -8.45878 184.007 -7.48211 184.722C-6.99378 185.079 -6.40046 185.15 -5.77316 185.216C-4.02719 185.43 -2.77558 185.838 -2.78768 189.662C-2.77911 192.759 -3.5368 193.362 -4.67225 193.974C-5.35506 194.327 -5.96989 194.672 -6.41523 196.204C-7.64235 200.544 -10.9915 202.578 -12.8592 203.411C-13.712 203.783 -14.881 205.913 -15.9898 207.968C-17.8429 211.347 -19.7825 214.873 -21.806 214.036C-24.3324 213.016 -30.4051 213.811 -31.8249 214.041C-31.803 215.14 -31.7918 216.448 -31.7952 217.929L-31.7437 222.915C-30.286 228.155 -28.8692 230.92 -27.273 231.633C-26.6565 231.908 -26.0029 231.902 -25.2521 231.541C-24.9578 231.404 -24.4518 231.312 -23.8237 231.688C-20.7168 233.572 -17.2147 245.878 -16.9713 251.945C-16.8461 254.857 -15.8049 257.046 -14.7181 259.332C-13.1374 262.629 -11.5111 266.025 -12.7989 271.646C-13.8552 276.277 -12.056 279.378 -9.3153 284.092C-8.6282 285.288 -7.81589 286.676 -6.99198 288.166C-3.27424 295.111 1.90926 311.598 -0.550561 316.905C-2.01905 320.034 -2.65421 328.059 0.691823 331.741C2.54103 333.769 5.27744 334.214 8.85544 332.98C17.4081 330.078 22.6365 330.033 28.7968 330.915C31.7372 331.338 34.9365 329.803 38.0077 328.351C41.3052 326.771 44.4443 325.311 47.4041 325.904C49.6607 326.37 49.9611 325.681 50.5015 324.38C51.2334 322.644 52.2393 320.291 57.9526 319.365C60.5544 318.931 63.0056 318.686 65.1547 318.51C71.3224 317.946 75.7488 317.51 78.6531 313.082C80.0338 310.997 81.621 309.817 83.0159 308.763C85.048 307.258 86.7935 305.957 87.528 302.43C87.5504 302.325 87.6106 302.249 87.7087 302.203C94.4289 299.234 98.8636 294.942 99.0951 291.231C96.502 289.323 96.3415 287.31 96.2236 285.67C96.098 283.963 96.0159 282.94 93.2726 282.736C88.6172 282.371 86.0602 279.873 84.7665 277.886C82.9302 275.065 82.3985 271.304 83.2766 267.829C80.9365 269.955 74.7933 275.269 70.893 276.092C68.2388 276.67 61.7437 277.685 58.3477 275.076C57.0264 274.056 56.3462 272.619 56.2731 270.768C56.1681 268.335 56.5308 266.985 56.7963 265.991C57.2825 264.214 57.372 263.791 53.2657 259.782C47.7994 254.414 42.1972 246.341 42.8934 241.269C43.1154 239.591 44.0035 238.32 45.4935 237.496C48.6356 235.76 51.7859 235.608 54.3967 237.067C57.3026 238.698 59.1066 242.143 59.338 246.592C59.5329 250.116 62.9215 254.172 68.6585 257.685C73.6915 260.761 79.3408 262.597 81.2425 261.76C83.0801 260.966 84.5787 260.519 85.8875 261.128C87.306 261.793 88.3649 263.531 89.5085 267.223C90.3242 269.85 97.9814 272.386 110.476 274.165C120.661 275.622 131.328 276.163 133.68 275.654C136.432 275.03 137.242 277.004 138.383 279.766C139.429 282.298 140.856 285.751 144.483 288.884C148.263 292.138 148.563 294.169 148.855 296.133C149.14 298.029 149.379 299.826 153.362 302.747C157.836 306.059 160.963 302.673 163.016 300.442C163.965 299.404 164.549 298.787 165.123 298.997C165.588 299.151 165.76 299.751 165.779 301.126C165.826 303.049 165.745 305.365 165.646 307.821C165.38 315.15 165.072 324.241 167.611 331.113C169.065 335.114 170.279 339.727 171.436 344.14C172.964 349.992 174.384 355.511 176.241 358.811C177.668 361.369 177.569 365.03 177.488 368.551C177.369 373.247 177.244 377.29 180.739 377.443C186.898 377.705 194.269 364.436 195.633 357.67C196.099 355.413 195.873 352.822 195.665 350.091C195.277 344.867 194.835 339.478 198.98 335.666C199.979 334.76 201.037 333.779 202.194 332.752C208.284 327.272 215.84 320.455 217.283 316.193C218.182 313.508 220.514 311.315 222.749 309.166C224.953 307.056 227.033 305.063 227.797 302.704C228.707 299.811 231.674 298.956 234.301 298.141C236.298 297.535 238.197 296.974 238.771 295.669C239.702 293.566 242.412 289.849 244.279 290.221C245.232 290.423 245.745 291.604 245.751 293.772C245.762 295.079 245.716 296.186 245.655 297.157C245.507 300.996 245.434 302.175 249.074 305.41C252.141 308.159 251.252 313.047 250.505 317.367C250.036 319.899 249.623 322.322 249.994 324.07C250.369 325.852 251.049 326.98 252.108 327.513C254.45 328.727 258.518 326.956 262.815 325.089L263.57 324.762C263.71 324.78 263.944 324.719 264.182 324.692ZM77.503 203.24C76.9932 203.298 76.4415 203.292 75.8938 203.32C74.9985 203.319 74.073 203.355 73.2728 203.584C69.9094 204.587 60.3411 199.479 56.7731 194.756C54.2174 191.363 58.1151 186.89 60.9471 183.641C62.1333 182.266 63.2933 180.964 63.4198 180.261C63.8255 178.08 61.2299 172.522 57.3658 167.315C54.8442 163.919 55.3433 158.628 57.2429 155.657C58.2097 154.17 59.4394 153.479 60.6415 153.755C62.0893 154.072 64.2475 153.069 66.7339 151.925C69.9712 150.42 74.0272 148.546 78.4777 148.625C82.1009 148.694 83.0336 149.931 83.2216 150.976C83.5637 153.072 80.8999 155.683 79.0129 156.345C78.0542 156.695 77.0647 156.774 76.1469 156.878C74.0735 157.114 72.2721 157.32 71.2437 159.778C70.8948 160.644 74.6866 167.03 76.6778 168.49C78.2146 169.589 78.1384 173.454 77.9443 175.679C78.6448 174.877 79.6705 174.209 80.7999 174.149C81.8992 174.127 83.48 174.705 84.6558 177.773C85.4931 179.984 85.5158 181.393 84.6678 182.11C83.2583 183.338 79.9183 181.824 78.0794 180.794C77.4929 180.482 77.3763 180.668 77.3161 180.743C76.6913 181.607 77.859 185.812 79.7413 187.526C81.4305 189.055 81.1646 191.254 80.8763 193.559C80.7175 194.886 80.5286 196.25 80.6796 197.576C80.9274 199.751 80.6821 201.225 79.9214 202.104C79.289 202.899 78.4547 203.132 77.503 203.24ZM74.1733 202.724C74.7511 202.658 75.3367 202.661 75.8844 202.633C77.2935 202.61 78.6345 202.595 79.3613 201.72C80.0015 200.993 80.1982 199.697 79.9736 197.725C79.811 196.298 79.996 194.899 80.1509 193.539C80.4469 191.301 80.6759 189.382 79.2556 188.097C77.2597 186.293 75.7775 181.745 76.7258 180.398C76.9327 180.099 77.4078 179.735 78.3612 180.246C80.5632 181.441 83.2256 182.446 84.164 181.616C84.7294 181.139 84.6541 179.873 83.9614 178.024C83.1319 175.88 82.0446 174.799 80.7754 174.84C79.3702 174.897 78.0179 176.325 77.7107 177.255C77.6621 177.433 77.4999 177.52 77.3222 177.472C77.1445 177.423 77.0231 177.265 77.0717 177.087C77.3385 175.197 77.7172 170.059 76.2561 169.02C74.4542 167.71 70.0003 160.953 70.5932 159.508C71.7867 156.686 73.9621 156.438 76.0695 156.198C76.9872 156.094 77.905 155.989 78.7995 155.681C80.6225 155.06 82.7918 152.644 82.5457 151.088C82.3151 149.668 80.2099 149.323 78.4872 149.312C74.1765 149.252 70.2185 151.08 67.0114 152.548C64.2948 153.787 62.1706 154.786 60.5111 154.424C59.275 154.152 58.3074 155.329 57.8371 156.037C56.0201 158.827 55.6298 163.864 57.9389 166.906C61.3934 171.539 64.6404 177.677 64.1228 180.387C63.9477 181.268 62.8819 182.491 61.5111 184.059C58.8336 187.153 55.1467 191.36 57.3423 194.312C60.9521 199.1 70.2321 203.793 73.0933 202.916C73.4293 202.843 73.7994 202.767 74.1733 202.724ZM22.4586 167.367C21.3709 167.491 20.0939 167.464 18.65 167.181C14.3522 166.328 10.1133 163.574 6.39295 161.14C3.78909 159.439 1.5221 157.976 -0.216983 157.52C-2.41341 156.978 -5.77842 157.362 -9.07159 157.771C-13.1125 158.266 -16.8854 158.696 -18.5475 157.405C-19.0018 157.043 -19.5581 156.693 -20.1484 156.347C-21.8135 155.332 -23.7359 154.174 -23.8925 152.195C-24.0452 150.249 -22.4536 147.899 -19.0314 144.996C-9.92927 137.245 -3.89878 132.151 1.28186 135.313C3.68868 136.795 4.77807 137.291 5.31891 137.505C5.93545 137.779 5.97718 137.843 6.28481 138.428C6.37215 138.59 6.36139 138.798 6.2749 138.945C6.01932 139.422 5.10547 139.561 3.50794 139.742C2.82813 139.82 1.87643 139.928 1.51415 140.073L1.55201 140.103C2.3015 140.637 2.51576 141.611 2.69215 142.555C2.89866 143.462 3.06731 144.338 3.69548 144.714C4.10421 144.977 4.68979 144.979 5.49394 144.784C9.17476 143.848 11.6771 144.355 14.0775 144.874C14.361 144.945 14.6407 144.982 14.8902 145.057C19.1162 145.884 27.0276 148.839 26.6722 154.182C26.426 158.066 27.3317 159.065 28.1238 159.973C28.4422 160.35 28.7945 160.723 29.0303 161.281C29.3612 162.07 29.0208 163.314 28.1134 164.416C27.5751 165.131 25.7896 166.987 22.4586 167.367ZM-7.61947 156.917C-4.76431 156.592 -1.99948 156.38 -0.0147395 156.877C1.79232 157.326 4.10105 158.853 6.77677 160.58C10.4593 162.984 14.6224 165.677 18.8143 166.508C24.2764 167.607 26.9625 164.891 27.6552 164.02C28.4985 162.96 28.6659 162.011 28.4796 161.585C28.2933 161.159 28.0166 160.846 27.6983 160.469C26.8266 159.466 25.8034 158.343 26.0866 154.179C26.4627 148.111 14.9754 145.804 14.8696 145.782C14.5899 145.745 14.3064 145.674 14.0228 145.603C11.5885 145.088 9.26381 144.63 5.74908 145.513C4.74485 145.765 3.98159 145.714 3.42527 145.364C2.5738 144.841 2.3518 143.799 2.1298 142.757C1.92716 141.885 1.76627 141.077 1.24394 140.723C0.907068 140.486 0.774107 140.226 0.848975 139.976C0.994839 139.443 1.8747 139.309 3.54022 139.119C4.254 139.038 5.40966 138.906 5.73407 138.731C5.55552 138.373 5.52155 138.377 5.12055 138.182C4.57585 137.934 3.48646 137.438 1.00778 135.93C-3.5447 133.143 -8.81835 137.325 -18.5198 145.557C-21.7235 148.263 -23.2587 150.504 -23.1369 152.177C-23.0191 153.817 -21.32 154.828 -19.7307 155.783C-19.1025 156.159 -18.5122 156.505 -18.054 156.901C-16.6531 158.015 -12.8122 157.578 -9.11115 157.122C-8.63916 157.033 -8.12932 156.975 -7.61947 156.917ZM18.3323 143.838C17.5845 143.923 16.8629 143.937 16.2055 143.908C15.1665 143.855 12.2184 143.364 10.9973 141.713C10.5043 141.011 10.3812 140.233 10.5942 139.383C10.8898 138.351 12.4517 137.553 15.2836 137.024C19.3994 136.28 26.7546 136.165 27.4447 137.085C27.5699 137.277 27.6271 137.477 27.5824 137.689C27.4744 138.252 26.841 138.737 25.9134 139.359C25.0838 139.936 24.1601 140.592 23.5655 141.417C22.4588 142.886 20.3377 143.61 18.3323 143.838ZM17.5588 137.35C15.9952 137.528 14.5113 137.8 13.3147 138.178C11.786 138.662 11.3644 139.192 11.2633 139.513C11.0989 140.186 11.1647 140.764 11.5666 141.269C12.5032 142.54 14.9113 143.126 16.2262 143.183C18.7199 143.312 21.7442 142.658 22.9937 140.931C23.6485 140.031 24.6665 139.295 25.496 138.718C26.1332 138.267 26.8346 137.774 26.9056 137.49C26.9056 137.49 26.9017 137.456 26.86 137.392C26.3755 137.069 21.7395 136.874 17.5588 137.35Z" fill="#111111"/>
<path d="M-153.505 152.98C-155.505 157.787 -162.286 162.037 -164.824 162.429C-167.324 162.852 -172.219 172.775 -179.111 179.069C-185.415 184.78 -183.769 189.86 -187.812 193.97C-189.222 199.123 -195.264 209.556 -197.68 215.546C-200.01 221.39 -203.821 236.905 -202.939 240.109C-202.058 243.314 -202.637 246.996 -202.855 260.793C-203.074 274.59 -199.978 278.197 -196.393 279.442C-192.808 280.686 -193.6 289.453 -191.183 291.622C-188.771 293.757 -188.317 283.239 -181.713 288.615C-175.11 293.992 -176.815 300.177 -174.996 304.962C-173.177 309.748 -166.173 309.57 -164.773 317.329C-163.373 325.089 -168.125 335.96 -168.501 345.058C-168.876 354.156 -156.275 367.147 -156.261 376.338C-156.247 385.53 -153.257 391.525 -152.584 395.924C-151.91 400.323 -154.157 403.575 -155.843 409.93C-157.563 416.289 -141.673 434.277 -141.274 439.293C-140.874 444.309 -125.664 466.299 -113.965 477.121C-102.265 487.942 -85.0923 496.935 -80.0106 497.114C-74.9289 497.292 -72.41 487.365 -71.7637 483.366C-71.0835 479.363 -64.8836 486.335 -62.182 483.755C-59.4766 481.209 -65.8571 474.464 -66.1092 470.74C-66.3613 467.015 -43.0463 464.945 -38.5514 463.297C-34.0565 461.648 -36.6938 445.146 -39.4439 442.464C-42.1941 439.782 -42.8127 429.213 -42.582 425.193C-41.856 413.128 -19.5394 395.643 2.96543 391.599C20.5805 388.456 40.9305 355.219 41.5713 347.846C42.0033 342.874 3.14614 354.496 -3.10917 342.503C-6.71719 335.615 -2.11553 326.139 -16.4321 314.41C-21.4075 310.329 -20.0249 295.263 -24.6819 291.558C-29.3389 287.854 -20.198 275.003 -27.6696 261.702C-31.732 254.453 -32.0226 231.348 -32.118 218.723L-32.1657 213.77C-32.1674 213.151 -32.1915 212.637 -32.2117 212.157C-32.4431 204.987 -44.9476 209.166 -44.9476 209.166C-64.1277 198.267 -72.5265 181.664 -77.9344 191.921C-87.5667 210.13 -93.7285 184.148 -100.732 176.166C-111.616 163.737 -96.0095 162.613 -96.7941 152.098C-106.19 151.825 -110.266 142.649 -119.708 144.688C-130.797 147.088 -133.545 145.335 -133.008 138.87C-133.038 138.907 -151.505 148.173 -153.505 152.98Z" fill="white"/>
<path d="M-79.4543 497.463C-79.6582 497.487 -79.8621 497.51 -80.0699 497.499C-85.1856 497.324 -102.502 488.279 -114.24 477.427C-125.864 466.666 -141.255 444.593 -141.64 439.403C-141.796 437.424 -144.634 433.065 -147.635 428.483C-152.135 421.627 -157.226 413.806 -156.187 409.935C-155.633 407.84 -155.011 406.048 -154.43 404.501C-153.283 401.272 -152.481 398.942 -152.912 396.065C-153.139 394.679 -153.593 393.112 -154.104 391.346C-155.195 387.51 -156.598 382.747 -156.593 376.445C-156.617 372.006 -159.684 366.537 -162.668 361.196C-165.782 355.628 -169.02 349.868 -168.837 345.13C-168.693 341.258 -167.73 337.016 -166.815 332.953C-165.535 327.263 -164.322 321.892 -165.101 317.47C-165.873 313.116 -168.45 311.344 -170.948 309.666C-172.777 308.428 -174.495 307.247 -175.283 305.167C-175.865 303.684 -176.085 302.056 -176.312 300.361C-176.848 296.565 -177.403 292.6 -181.878 288.978C-183.245 287.86 -184.471 287.38 -185.452 287.526C-186.838 287.753 -187.711 289.161 -188.501 290.387C-189.114 291.352 -189.637 292.203 -190.347 292.319C-190.686 292.357 -191.042 292.26 -191.353 291.951C-192.5 290.946 -192.925 288.722 -193.4 286.366C-193.971 283.47 -194.584 280.509 -196.448 279.861C-199.889 278.669 -203.351 275.483 -203.157 260.862C-203.083 256.377 -202.987 252.992 -202.885 250.26C-202.692 244.695 -202.646 242.383 -203.195 240.276C-204.21 236.811 -200.253 221.073 -198.002 215.445C-196.981 212.919 -195.384 209.707 -193.671 206.31C-191.342 201.672 -188.96 196.89 -188.129 193.903C-188.103 193.831 -188.073 193.793 -188.043 193.755C-186.313 192.009 -185.643 190.039 -184.919 187.925C-183.99 185.203 -182.899 182.083 -179.312 178.816C-175.819 175.629 -172.845 171.503 -170.437 168.165C-168.002 164.754 -166.214 162.312 -164.828 162.086C-162.597 161.728 -155.763 157.644 -153.796 152.841C-151.77 147.962 -133.925 138.974 -133.144 138.575C-133.046 138.53 -132.91 138.514 -132.797 138.605C-132.683 138.695 -132.637 138.793 -132.656 138.933C-132.894 141.68 -132.5 143.322 -131.391 144.298C-129.743 145.763 -126.158 145.802 -119.777 144.386C-114.503 143.235 -110.912 145.442 -107.131 147.801C-104.092 149.692 -100.943 151.641 -96.761 151.784C-96.5872 151.799 -96.4357 151.919 -96.4164 152.089C-96.0868 156.493 -98.5535 159.322 -100.745 161.844C-103.973 165.552 -106.74 168.759 -100.446 175.961C-98.4673 178.215 -96.6176 181.757 -94.6729 185.53C-91.4977 191.641 -88.1973 197.945 -84.5479 197.942C-82.5154 197.952 -80.3753 195.883 -78.1917 191.778C-77.1432 189.799 -75.9561 188.734 -74.5061 188.466C-71.4363 187.91 -67.657 191.163 -62.4196 195.731C-57.8335 199.719 -52.1039 204.679 -44.8465 208.845C-43.7179 208.475 -36.8553 206.454 -33.5661 208.731C-32.4797 209.502 -31.8645 210.671 -31.83 212.182C-31.8137 212.628 -31.8197 213.18 -31.784 213.795L-31.7363 218.748C-31.6289 230.27 -31.4416 254.282 -27.3375 261.596C-23.0131 269.332 -24.2386 277.012 -25.1146 282.621C-25.7532 286.688 -26.2846 289.882 -24.4293 291.357C-22.044 293.255 -21.2115 297.843 -20.3218 302.63C-19.4739 307.354 -18.5764 312.21 -16.1455 314.206C-6.23257 322.338 -5.27964 329.495 -4.48546 335.258C-4.10773 337.969 -3.81045 340.276 -2.70904 342.389C1.0358 349.572 17.08 348.054 28.7919 346.892C36.2172 346.184 40.4814 345.836 41.6823 347.007C41.9172 347.256 42.0579 347.584 42.0286 347.932C41.7175 351.548 36.6641 361.593 29.0188 371.553C23.7713 378.383 13.4714 390.127 3.14785 391.991C-7.34562 393.875 -18.552 398.87 -27.6567 405.692C-36.3767 412.263 -41.7778 419.558 -42.1285 425.245C-42.4069 429.752 -41.5706 439.814 -39.0894 442.252C-36.9188 444.38 -34.8804 454.718 -36.0516 460.154C-36.4543 462.059 -37.2482 463.251 -38.3389 463.651C-39.8258 464.199 -43.3074 464.768 -47.3251 465.467C-54.6885 466.719 -65.8054 468.57 -65.6596 470.757C-65.5688 472.159 -64.4829 474.135 -63.4765 476.018C-61.7831 479.096 -60.0402 482.306 -61.8752 484.03C-63.3674 485.439 -65.6258 484.354 -67.623 483.445C-68.8978 482.833 -70.2406 482.228 -70.8593 482.54C-71.1196 482.673 -71.2586 482.964 -71.3442 483.421C-71.6953 484.873 -73.8799 496.828 -79.4543 497.463ZM-185.466 286.805C-184.276 286.669 -182.975 287.21 -181.495 288.418C-176.826 292.225 -176.202 296.492 -175.67 300.253C-175.447 301.915 -175.201 303.471 -174.656 304.924C-173.926 306.803 -172.283 307.924 -170.565 309.106C-168.067 310.784 -165.266 312.703 -164.425 317.358C-163.597 321.912 -164.836 327.356 -166.142 333.117C-167.057 337.181 -167.993 341.35 -168.141 345.189C-168.314 349.719 -165.155 355.385 -162.05 360.884C-159.028 366.255 -155.91 371.857 -155.905 376.436C-155.888 382.631 -154.523 387.365 -153.439 391.132C-152.924 392.933 -152.47 394.5 -152.236 395.953C-151.752 398.997 -152.636 401.508 -153.787 404.703C-154.334 406.246 -154.96 408.005 -155.514 410.099C-156.482 413.687 -151.478 421.346 -147.058 428.108C-143.852 432.976 -141.098 437.207 -140.956 439.36C-140.561 444.342 -125.056 466.505 -113.776 476.962C-102.156 487.689 -85.0514 496.689 -80.0755 496.846C-75.6172 496.992 -73.0115 488.432 -72.1755 483.378C-72.049 482.675 -71.7895 482.233 -71.333 482.008C-70.3899 481.522 -69.0432 482.161 -67.481 482.878C-65.6653 483.704 -63.6264 484.677 -62.5111 483.586C-61.0831 482.218 -62.6931 479.268 -64.2575 476.416C-65.389 474.342 -66.4371 472.395 -66.5433 470.858C-66.7016 468.259 -58.8215 466.707 -47.6366 464.848C-43.649 464.187 -40.2053 463.588 -38.7824 463.082C-37.6918 462.682 -37.1668 461.245 -36.9207 460.081C-35.8205 454.929 -37.7677 444.787 -39.783 442.813C-42.6884 439.976 -43.2545 429.264 -43.02 425.277C-42.6585 419.383 -37.1408 411.902 -28.2625 405.21C-19.0976 398.313 -7.75908 393.268 2.80236 391.376C12.8918 389.573 23.0713 377.981 28.2546 371.193C35.8057 361.312 40.8105 351.445 41.1333 347.931C41.1518 347.791 41.1023 347.659 40.9887 347.569C39.9772 346.548 34.4592 347.073 28.6693 347.629C16.7495 348.78 0.437318 350.363 -3.5278 342.758C-4.67484 340.547 -5.02934 338.04 -5.36534 335.392C-6.14489 329.456 -7.04748 322.741 -16.7672 314.793C-19.3874 312.647 -20.3004 307.655 -21.16 302.829C-21.9808 298.343 -22.8211 293.688 -25.0171 291.941C-27.1752 290.224 -26.6292 286.856 -25.9459 282.578C-25.0251 276.758 -23.8513 269.531 -28.0844 261.991C-32.2759 254.515 -32.4748 230.401 -32.5861 218.845L-32.6338 213.892C-32.6355 213.273 -32.6596 212.759 -32.6798 212.279C-32.7288 210.942 -33.181 209.995 -34.1159 209.344C-37.3334 207.094 -44.8671 209.57 -44.9351 209.578C-45.0332 209.624 -45.139 209.601 -45.2147 209.541C-52.6121 205.357 -58.3834 200.333 -63.0112 196.281C-68.0933 191.867 -71.7629 188.67 -74.5268 189.191C-75.7388 189.433 -76.8016 190.38 -77.7335 192.173C-80.0561 196.57 -82.3283 198.688 -84.6706 198.679C-88.7356 198.66 -92.1272 192.16 -95.3898 185.887C-97.3267 182.182 -99.1763 178.64 -101.079 176.447C-107.768 168.807 -104.665 165.217 -101.377 161.434C-99.2497 158.954 -97.0239 156.428 -97.1973 152.488C-101.421 152.281 -104.536 150.328 -107.609 148.44C-111.276 146.173 -114.724 144.017 -119.73 145.104C-126.451 146.558 -130.108 146.493 -131.948 144.843C-133.134 143.808 -133.633 142.143 -133.486 139.509C-136.545 141.063 -151.521 148.932 -153.248 153.123C-155.248 157.93 -162.047 162.32 -164.819 162.773C-165.899 162.965 -167.807 165.558 -169.975 168.594C-172.383 171.933 -175.417 176.135 -178.944 179.325C-182.407 182.474 -183.419 185.378 -184.375 188.173C-185.094 190.321 -185.795 192.329 -187.581 194.185C-188.437 197.244 -190.823 201.991 -193.119 206.626C-194.832 210.023 -196.429 213.235 -197.419 215.723C-199.801 221.71 -203.503 236.972 -202.667 240.079C-202.072 242.283 -202.148 244.633 -202.333 250.266C-202.435 252.998 -202.531 256.383 -202.606 260.868C-202.816 275.043 -199.577 278.083 -196.386 279.2C-194.162 279.979 -193.526 283.144 -192.898 286.24C-192.435 288.494 -192.025 290.582 -191.063 291.471C-190.794 291.715 -190.662 291.666 -190.594 291.658C-190.186 291.612 -189.693 290.798 -189.227 290.056C-188.411 288.758 -187.422 287.165 -185.734 286.87C-185.568 286.816 -185.5 286.809 -185.466 286.805Z" fill="#111111"/>
<path d="M-5.8716 470.592C-15.5338 472.519 -19.4995 471.559 -18.8447 481.538C-18.529 486.426 -24.4945 489.068 -24.0449 494.526C-23.5954 499.984 -9.33767 502.732 -6.47517 500.96C-3.61268 499.188 -7.24571 496.916 0.664549 492.606C8.60879 488.293 12.7265 469.128 9.76645 464.3C6.76851 459.443 3.89259 468.653 -5.8716 470.592Z" fill="white"/>
<path d="M-8.10511 501.766C-11.1642 502.114 -16.5127 501.105 -20.0536 499.339C-22.7208 497.99 -24.2176 496.336 -24.3849 494.565C-24.616 491.63 -23.1032 489.495 -21.6506 487.436C-20.3146 485.562 -19.035 483.798 -19.1886 481.543C-19.7534 472.655 -16.5816 472.087 -9.62225 470.916C-8.54232 470.724 -7.29242 470.513 -5.94443 470.256C-1.33039 469.352 1.74896 466.763 3.9764 464.856C5.70647 463.42 6.92754 462.351 8.1899 462.552C8.88906 462.644 9.49873 463.16 10.0529 464.095C11.5291 466.475 11.3861 472.173 9.77477 478.278C7.86781 485.416 4.53199 490.892 0.869218 492.893C-3.96299 495.509 -4.34335 497.309 -4.66434 498.722C-4.86958 499.641 -5.04856 500.488 -6.24037 501.209C-6.68913 501.501 -7.32333 501.677 -8.10511 501.766ZM-5.79901 470.928C-7.147 471.185 -8.39689 471.396 -9.47683 471.588C-16.4323 472.793 -19.0001 473.224 -18.471 481.496C-18.3243 483.993 -19.6865 485.938 -21.0564 487.816C-22.4526 489.765 -23.909 491.79 -23.6711 494.483C-23.5223 496.395 -21.4291 497.843 -19.7154 498.681C-15.1871 500.954 -8.38477 501.729 -6.61598 500.632C-5.65049 500.04 -5.51623 499.405 -5.33724 498.558C-5.024 497.076 -4.56878 495.027 0.553845 492.24C4.05441 490.327 7.27364 485.036 9.12811 478.042C10.6986 472.182 10.8531 466.587 9.50215 464.399C9.03921 463.66 8.581 463.265 8.12364 463.179C7.2128 463.042 5.98399 464.042 4.47637 465.316C2.12458 467.34 -1.01889 469.97 -5.79901 470.928Z" fill="#111111"/>
<path d="M115.25 523.729C101.144 525.336 73.2353 523.35 38.0979 518.056C-28.25 508.089 -100.05 489.549 -121.994 476.761C-122.141 476.675 -122.202 476.441 -122.116 476.293C-122.029 476.146 -121.795 476.085 -121.648 476.171C-99.7764 488.933 -28.0818 507.45 38.1943 517.391C81.843 523.953 114.276 525.458 122.754 521.29C122.916 521.203 123.131 521.282 123.219 521.444C123.306 521.606 123.227 521.822 123.065 521.909C121.367 522.722 118.717 523.334 115.25 523.729ZM214.308 455.117C190.04 457.882 142.036 454.501 80.9417 445.312C-33.7869 428.047 -158.012 396.026 -195.931 373.868C-196.079 373.782 -196.14 373.547 -196.054 373.4C-195.967 373.252 -195.733 373.191 -195.586 373.278C-157.742 395.376 -33.6565 427.378 81.0342 444.613C122.336 450.823 158.251 454.479 184.917 455.229C210.442 455.936 226.556 453.825 230.242 449.308C230.363 449.157 230.567 449.133 230.718 449.254C230.87 449.374 230.893 449.578 230.773 449.73C228.66 452.346 223.01 454.126 214.308 455.117Z" fill="#111111"/>
<path d="M-31.3949 525.215C-31.4289 525.219 -31.4629 525.223 -31.5347 525.197C-69.4158 515.464 -100.022 484.657 -117.642 438.495C-135.409 391.936 -138.678 333.018 -126.801 272.547C-120.252 239.057 -109.499 206.81 -94.86 176.633C-80.7246 147.478 -63.6071 121.53 -43.9477 99.4582C-24.2844 77.4205 -3.05854 60.3349 19.1044 48.7549C42.0822 36.7722 65.0664 31.193 87.4305 32.2607C87.6043 32.2753 87.7597 32.4298 87.745 32.6036C87.7304 32.7774 87.5759 32.9328 87.4021 32.9181C43.339 30.8791 -3.11571 54.6948 -43.4439 99.9518C-83.7682 145.243 -113.138 206.605 -126.128 272.712C-137.952 333.039 -134.733 391.825 -117.011 438.285C-99.4833 484.251 -69.066 514.907 -31.4005 524.561C-31.2228 524.61 -31.0976 524.802 -31.1462 524.98C-31.1647 525.12 -31.259 525.199 -31.3949 525.215Z" fill="#111111"/>
<path d="M-15.7055 529.35L-15.8075 529.362C-18.5857 528.852 -21.103 527.004 -23.216 523.87C-30.7874 512.716 -33.9482 485.876 -32.3351 446.234C-30.6674 405.863 -24.2019 355.924 -13.5959 301.83C-0.616978 235.621 17.0022 171.156 36.0303 120.268C55.0847 69.309 73.2869 38.0724 87.2943 32.2762C87.4565 32.1888 87.676 32.3016 87.7293 32.4676C87.7827 32.6337 87.7039 32.8493 87.5378 32.9026C58.9306 44.7347 13.8356 165.422 -12.9269 301.96C-23.5367 356.021 -30.0061 405.925 -31.6816 446.228C-33.274 485.145 -30.0814 512.567 -22.6807 523.43C-20.6551 526.402 -18.3193 528.167 -15.681 528.658C-15.5033 528.707 -15.382 528.865 -15.3966 529.039C-15.4452 529.217 -15.5696 529.334 -15.7055 529.35Z" fill="#111111"/>
<path d="M8.70872 532.698C6.56734 532.941 4.43285 532.944 2.30912 532.738C2.1353 532.723 1.97611 532.535 1.99074 532.361C2.00537 532.187 2.19383 532.028 2.36765 532.043C22.2978 534.111 44.8433 514.706 65.7601 477.375C86.9703 439.599 105.088 385.854 116.808 326.124C143.604 189.582 130.305 58.0204 87.2203 32.8355C87.0727 32.749 87.0116 32.5149 87.0981 32.3674C87.1846 32.2198 87.4187 32.1587 87.5662 32.2452C98.2257 38.4681 107.237 51.0763 114.387 69.7154C121.286 87.66 126.158 110.484 128.889 137.477C134.52 192.958 130.452 260.011 117.477 326.254C105.73 386.056 87.583 439.839 66.3504 477.721C47.4976 511.408 27.2673 530.583 8.70872 532.698Z" fill="#111111"/>
<path d="M269.704 337.801C260.594 338.839 249.733 339.008 239.797 338.832C208.198 338.3 164.597 333.97 113.729 326.302C-20.4748 306.125 -165.705 268.646 -210.076 242.747C-210.223 242.661 -210.285 242.427 -210.198 242.279C-210.112 242.132 -209.878 242.07 -209.73 242.157C-165.435 267.996 -20.3104 305.452 113.822 325.603C164.651 333.241 208.218 337.574 239.784 338.11C270.072 338.62 287.661 335.549 289.235 329.413C289.283 329.235 289.475 329.11 289.653 329.159C289.831 329.207 289.956 329.4 289.907 329.577C288.772 334.114 280.478 336.574 269.704 337.801ZM261.776 204.733C237.031 207.551 188.091 204.105 125.878 194.769C8.97969 177.2 -117.522 144.543 -156.175 121.986C-156.323 121.9 -156.384 121.666 -156.297 121.518C-156.211 121.37 -155.977 121.309 -155.829 121.396C-117.248 143.926 9.14406 176.527 125.97 194.069C167.869 200.383 204.343 204.113 231.459 204.881C257.434 205.606 273.93 203.52 277.884 198.938C278.765 197.908 279.019 196.812 278.664 195.51C278.611 195.343 278.723 195.124 278.889 195.071C279.055 195.017 279.275 195.13 279.328 195.296C279.774 196.795 279.446 198.141 278.414 199.36C276.196 201.954 270.477 203.741 261.776 204.733ZM194.914 95.0423C180.264 96.711 151.388 94.698 114.569 89.1481C45.4207 78.7765 -29.3967 59.4443 -52.2632 46.1075C-52.4107 46.021 -52.4718 45.787 -52.3854 45.6394C-52.2989 45.4918 -52.0648 45.4307 -51.9172 45.5172C-29.1226 58.8278 45.5851 78.1036 114.666 88.483C164.025 95.9097 200.133 97.0301 204.469 91.2682C204.947 90.6284 205.006 89.9331 204.641 89.1483C204.554 88.9861 204.632 88.7706 204.795 88.6832C204.957 88.5959 205.172 88.6746 205.26 88.8368C205.723 89.8858 205.658 90.8229 204.995 91.6559C203.772 93.3102 200.319 94.4266 194.914 95.0423Z" fill="#111111"/>
<path d="M50.4744 534.516C41.501 535.539 32.4347 535.745 23.4076 535.086C23.2337 535.071 23.0784 534.917 23.0892 534.709C23.0999 534.501 23.2583 534.38 23.4661 534.391C117.127 541.109 202.266 458.52 225.896 338.005C238.883 271.864 231.595 203.66 205.407 146.045C179.218 88.4291 137.286 48.2731 87.3 32.9297C87.1223 32.8811 87.0311 32.6849 87.0798 32.5072C87.1284 32.3295 87.3246 32.2383 87.5023 32.2869C112.869 40.0709 136.169 54.1848 156.806 74.2486C176.709 93.6042 193.292 117.676 206.063 145.763C218.835 173.85 227.151 204.545 230.815 237.01C234.607 270.596 233.182 304.638 226.599 338.132C220.747 368.065 210.994 396.101 197.698 421.442C184.857 445.939 169.012 467.335 150.602 484.961C120.956 513.369 86.1639 530.451 50.4744 534.516Z" fill="#111111"/>
</g>
<defs>
<clipPath id="clip0_83_1897">
<rect width="507.674" height="507.674" fill="white" transform="translate(-240.348 58.3052) rotate(-6.49867)"/>
</clipPath>
</defs>
</svg>
