<svg width="312" height="464" viewBox="0 0 312 464" fill="none" xmlns="http://www.w3.org/2000/svg">
<g clip-path="url(#clip0_127_170)">
<path d="M44.62 333.889L-0.450893 398.11L-23.8604 402.342L21.2107 338.121L44.62 333.889Z" fill="white"/>
<path d="M-0.374611 398.296C-0.387475 398.301 -0.401058 398.306 -0.415069 398.308L-23.8244 402.54C-23.9046 402.555 -23.9859 402.52 -24.0299 402.451C-24.0739 402.382 -24.0719 402.293 -24.025 402.227L21.0459 338.005C21.0763 337.962 21.1228 337.932 21.175 337.923L44.5843 333.69C44.6646 333.676 44.7458 333.711 44.7899 333.78C44.8339 333.849 44.8318 333.937 44.7849 334.004L-0.285977 398.226C-0.308248 398.257 -0.339187 398.282 -0.374611 398.296ZM-23.4138 402.057L-0.568291 397.926L44.1736 334.174L21.3281 338.304L-23.4138 402.057Z" fill="#111111"/>
<path d="M44.62 333.888L48.2017 346.679L3.13077 410.9L-0.450895 398.11L44.62 333.888Z" fill="#3658C1"/>
<path d="M3.20672 411.086C3.17241 411.1 3.13441 411.105 3.09658 411.099C3.01979 411.085 2.95763 411.029 2.93655 410.954L-0.644933 398.164C-0.661319 398.106 -0.650461 398.044 -0.615907 397.994L44.455 333.773C44.4999 333.709 44.5773 333.677 44.6538 333.69C44.7306 333.703 44.7927 333.759 44.8138 333.834L48.3953 346.624C48.4117 346.683 48.4008 346.745 48.3663 346.794L3.29536 411.016C3.2726 411.048 3.24177 411.072 3.20672 411.086ZM-0.231518 398.147L3.20966 410.437L47.9815 346.641L44.5404 334.352L-0.231518 398.147Z" fill="#111111"/>
<path d="M-0.451056 398.11L3.13061 410.9L-20.2789 415.132L-23.8605 402.342L-0.451056 398.11Z" fill="#B0C3FF"/>
<path d="M3.20663 411.086C3.19377 411.092 3.18019 411.096 3.16625 411.098L-20.2431 415.331C-20.3452 415.349 -20.445 415.287 -20.4729 415.186L-24.0543 402.396C-24.0697 402.342 -24.0612 402.283 -24.031 402.235C-24.0008 402.187 -23.9517 402.154 -23.896 402.144L-0.486725 397.912C-0.384596 397.893 -0.284872 397.955 -0.257012 398.055L3.32455 410.846C3.33986 410.9 3.33137 410.959 3.30126 411.007C3.27876 411.043 3.24549 411.071 3.2069 411.087L3.20663 411.086ZM-20.1344 414.901L2.87668 410.741L-0.595653 398.341L-23.6068 402.501L-20.1344 414.901Z" fill="#111111"/>
<path d="M230.411 291.639L185.34 355.86L8.70261 387.796L53.7735 323.574L230.411 291.639Z" fill="#111111"/>
<path d="M185.417 356.047C185.404 356.052 185.39 356.056 185.376 356.059L8.73849 387.994C8.65825 388.008 8.57698 387.973 8.53295 387.904C8.48891 387.836 8.49099 387.747 8.53787 387.68L53.6087 323.459C53.6391 323.415 53.6855 323.386 53.7378 323.376L230.375 291.441C230.456 291.426 230.537 291.462 230.581 291.531C230.625 291.599 230.623 291.688 230.576 291.755L185.505 355.976C185.483 356.008 185.452 356.032 185.417 356.047ZM9.14903 387.51L185.223 355.677L229.965 291.925L53.8908 323.758L9.14903 387.51Z" fill="#111111"/>
<path d="M230.411 291.639L236.301 312.672L191.23 376.893L185.34 355.861L230.411 291.639Z" fill="#3658C1"/>
<path d="M191.306 377.079C191.272 377.093 191.234 377.098 191.196 377.091C191.119 377.078 191.057 377.022 191.036 376.947L185.146 355.915C185.13 355.857 185.141 355.794 185.175 355.745L230.246 291.523C230.291 291.46 230.369 291.428 230.445 291.441C230.522 291.454 230.584 291.51 230.605 291.585L236.495 312.617C236.511 312.675 236.5 312.738 236.466 312.787L191.395 377.008C191.372 377.041 191.341 377.065 191.306 377.079ZM185.56 355.898L191.309 376.429L236.081 312.634L230.332 292.103L185.56 355.898Z" fill="#111111"/>
<path d="M185.34 355.861L191.23 376.893L14.5922 408.828L8.70272 387.796L185.34 355.861Z" fill="#B0C3FF"/>
<path d="M191.306 377.079C191.293 377.084 191.28 377.088 191.266 377.091L14.6279 409.026C14.5258 409.045 14.4261 408.982 14.3981 408.882L8.50854 387.85C8.49316 387.796 8.50164 387.737 8.53183 387.689C8.56202 387.641 8.61122 387.608 8.66684 387.598L185.304 355.662C185.407 355.644 185.506 355.706 185.534 355.806L191.424 376.838C191.439 376.893 191.431 376.951 191.401 377C191.378 377.036 191.345 377.063 191.306 377.079L191.306 377.079ZM14.7366 408.597L190.976 376.734L185.196 356.091L8.95606 387.955L14.7366 408.597Z" fill="#111111"/>
<path d="M59.4179 150.014C57.5323 150.702 52.8025 151.011 51.2614 151.058C42.2068 151.333 34.4308 150.107 25.6251 149.844C16.3854 149.567 7.11544 150.659 -1.78278 153.62C-5.98562 155.018 -9.71577 156.606 -13.7805 158.795C-27.9689 166.439 -33.7415 178.289 -36.6121 193.706C-38.0682 193.44 -39.8024 193.257 -41.0475 192.906C-37.345 169.865 -25.0277 156.779 -3.90528 149.728C6.84755 146.139 14.9336 145.598 24.9377 145.596C34.3583 145.595 41.2595 147.084 50.7319 146.736C52.7492 146.662 57.4444 146.45 59.7943 145.498C59.7429 147.007 59.6445 148.503 59.4179 150.014Z" fill="#B0C3FF"/>
<path d="M-36.5361 193.892C-36.5704 193.906 -36.6091 193.911 -36.6484 193.904C-37.1406 193.814 -37.6762 193.732 -38.1941 193.653C-39.214 193.497 -40.2684 193.335 -41.1021 193.1C-41.2005 193.073 -41.2626 192.976 -41.2464 192.875C-39.4025 181.398 -35.4488 172.342 -29.1603 165.188C-23.0976 158.292 -14.8578 153.172 -3.96921 149.538C6.45535 146.058 14.2327 145.397 24.9376 145.395C29.2146 145.395 33.0111 145.704 36.6823 146.003C41.2459 146.374 45.5563 146.725 50.7245 146.535C55.0844 146.375 58.1104 145.963 59.7186 145.311C59.7817 145.286 59.8538 145.294 59.9096 145.333C59.9657 145.372 59.9978 145.437 59.9956 145.505C59.9343 147.307 59.8177 148.707 59.6171 150.044C59.6061 150.117 59.5565 150.179 59.487 150.204C57.4891 150.933 52.4954 151.222 51.2675 151.259C45.7726 151.427 40.6459 151.034 35.6879 150.655C32.4426 150.406 29.0868 150.149 25.6191 150.045C15.8667 149.753 6.66877 151.021 -1.719 153.811C-6.03202 155.246 -9.7224 156.838 -13.6849 158.973C-26.349 165.796 -33.1465 176.194 -36.414 193.743C-36.427 193.813 -36.4747 193.867 -36.5361 193.892ZM-40.8197 192.76C-40.0376 192.963 -39.0705 193.111 -38.1332 193.255C-37.6804 193.324 -37.2144 193.395 -36.7735 193.473C-33.467 175.91 -26.6118 165.48 -13.8761 158.618C-9.89242 156.472 -6.18222 154.871 -1.84652 153.429C6.58639 150.623 15.8311 149.349 25.631 149.643C29.108 149.747 32.4684 150.004 35.7184 150.253C40.6658 150.632 45.7818 151.023 51.2551 150.857C52.4466 150.821 57.2181 150.547 59.2363 149.865C59.4126 148.655 59.5207 147.383 59.5818 145.794C57.0132 146.707 52.3207 146.88 50.7392 146.938C45.5471 147.129 41.2252 146.777 36.6495 146.404C32.9862 146.106 29.1981 145.798 24.9376 145.799C14.2751 145.8 6.53058 146.458 -3.84172 149.92C-25.4795 157.143 -37.2329 170.757 -40.8198 192.76L-40.8197 192.76Z" fill="#111111"/>
<path d="M267.592 293.576L222.521 357.797L199.112 362.03L244.183 297.808L267.592 293.576Z" fill="white"/>
<path d="M222.597 357.984C222.585 357.989 222.571 357.993 222.557 357.996L199.147 362.228C199.067 362.243 198.986 362.207 198.942 362.138C198.898 362.07 198.9 361.981 198.947 361.914L244.018 297.693C244.048 297.649 244.095 297.62 244.147 297.61L267.556 293.378C267.637 293.364 267.718 293.399 267.762 293.468C267.806 293.537 267.804 293.625 267.757 293.692L222.686 357.913C222.664 357.945 222.633 357.97 222.597 357.984ZM199.558 361.745L222.404 357.614L267.146 293.862L244.3 297.992L199.558 361.745Z" fill="#111111"/>
<path d="M267.592 293.576L271.174 306.366L226.103 370.588L222.521 357.797L267.592 293.576Z" fill="#3658C1"/>
<path d="M226.179 370.774C226.145 370.788 226.107 370.793 226.069 370.786C225.992 370.773 225.93 370.717 225.909 370.642L222.327 357.852C222.311 357.794 222.322 357.731 222.356 357.682L267.427 293.46C267.472 293.397 267.549 293.365 267.626 293.377C267.703 293.391 267.765 293.447 267.786 293.522L271.367 306.312C271.384 306.37 271.373 306.433 271.338 306.482L226.268 370.704C226.245 370.736 226.214 370.76 226.179 370.774ZM222.741 357.835L226.182 370.124L270.954 306.329L267.513 294.04L222.741 357.835Z" fill="#111111"/>
<path d="M222.521 357.797L226.103 370.588L202.693 374.82L199.112 362.03L222.521 357.797Z" fill="#B0C3FF"/>
<path d="M226.179 370.774C226.166 370.779 226.152 370.783 226.138 370.786L202.729 375.018C202.627 375.037 202.527 374.974 202.499 374.874L198.917 362.084C198.902 362.03 198.911 361.971 198.941 361.923C198.971 361.875 199.02 361.841 199.076 361.831L222.485 357.599C222.587 357.581 222.687 357.643 222.715 357.743L226.297 370.534C226.312 370.588 226.303 370.647 226.273 370.695C226.251 370.731 226.217 370.758 226.179 370.774ZM202.838 374.589L225.849 370.429L222.376 358.028L199.365 362.189L202.838 374.589Z" fill="#111111"/>
<path d="M-46.4942 124.547L21.394 366.983L-2.01532 371.215L-69.9037 128.779L-46.4942 124.547Z" fill="#B0C3FF"/>
<path d="M21.4704 367.17C21.4575 367.175 21.4439 367.179 21.4299 367.181L-1.97957 371.414C-2.0817 371.432 -2.18142 371.37 -2.20928 371.27L-70.0975 128.834C-70.1128 128.779 -70.1044 128.721 -70.0742 128.673C-70.044 128.625 -69.9949 128.592 -69.9392 128.581L-46.5297 124.349C-46.4276 124.33 -46.3279 124.393 -46.3 124.493L21.5881 366.929C21.6034 366.983 21.595 367.042 21.5648 367.09C21.5423 367.126 21.5091 367.154 21.4705 367.169L21.4704 367.17ZM-1.87083 370.985L21.1403 366.824L-46.6386 124.778L-69.6497 128.938L-1.87064 370.985L-1.87083 370.985Z" fill="#111111"/>
<path d="M-46.4942 124.547L-43.7791 120.679L24.109 363.114L21.394 366.983L-46.4942 124.547Z" fill="#3658C1"/>
<path d="M21.4704 367.169C21.4361 367.183 21.3982 367.188 21.3603 367.182C21.2835 367.168 21.2213 367.112 21.2002 367.037L-46.6881 124.602C-46.7043 124.543 -46.6937 124.481 -46.6589 124.432L-43.9438 120.563C-43.8989 120.499 -43.8216 120.467 -43.7451 120.48C-43.6683 120.493 -43.6061 120.549 -43.585 120.624L24.3031 363.06C24.3193 363.118 24.3087 363.181 24.2739 363.23L21.5589 367.099C21.5361 367.131 21.5053 367.155 21.4702 367.17L21.4704 367.169ZM-46.2743 124.585L21.4734 366.519L23.8894 363.077L-43.8583 121.142L-46.2743 124.585Z" fill="#111111"/>
<path d="M218.138 282.642L180.67 336.03C179.367 337.886 175.649 339.989 171.048 341.673C168.236 342.702 165.093 343.575 161.972 344.139L15.1292 370.688C14.7458 370.757 14.3693 370.821 14.0003 370.878C8.06728 371.805 4.06567 371.237 3.59773 369.566L5.3645 375.876C5.83243 377.547 9.8341 378.115 15.767 377.188C16.1361 377.13 16.5125 377.067 16.896 376.997L163.738 350.449C166.86 349.885 170.002 349.012 172.815 347.982C177.416 346.298 181.134 344.196 182.437 342.339L219.905 288.951C220.333 288.341 220.468 287.805 220.34 287.35L218.573 281.041C218.701 281.495 218.567 282.032 218.138 282.642Z" fill="url(#paint0_linear_127_170)"/>
<path d="M174.596 347.509C174.044 347.735 173.473 347.956 172.884 348.172C169.957 349.243 166.807 350.099 163.775 350.647L16.9321 377.196C16.5521 377.265 16.1707 377.329 15.7985 377.387C9.75915 378.331 5.68685 377.773 5.17097 375.93L3.40422 369.621C3.37418 369.514 3.43753 369.401 3.54384 369.372C3.65101 369.342 3.76218 369.405 3.79204 369.512C4.16037 370.827 7.45033 371.699 13.9696 370.68C14.3335 370.623 14.7118 370.559 15.0936 370.49L161.936 343.942C164.946 343.397 168.074 342.547 170.979 341.484C175.711 339.752 179.274 337.67 180.506 335.914L217.974 282.526C218.356 281.981 218.493 281.5 218.38 281.095C218.35 280.988 218.412 280.877 218.519 280.847C218.627 280.817 218.738 280.879 218.768 280.987L220.535 287.296C220.682 287.823 220.526 288.419 220.07 289.067L182.602 342.455C181.482 344.052 178.547 345.893 174.596 347.51L174.596 347.509ZM4.07842 370.534L5.55872 375.821C5.92705 377.137 9.21701 378.008 15.7362 376.989C16.1055 376.931 16.4837 376.867 16.8605 376.799L163.703 350.251C166.713 349.706 169.84 348.857 172.746 347.793C177.48 346.06 181.041 343.979 182.273 342.223L219.741 288.835C220.123 288.29 220.26 287.809 220.147 287.404L218.665 282.113C218.579 282.321 218.459 282.536 218.304 282.757L180.836 336.145C179.558 337.965 175.925 340.103 171.117 341.862C168.191 342.933 165.041 343.789 162.008 344.337L15.1652 370.886C14.7801 370.955 14.3988 371.02 14.0316 371.077C9.14643 371.841 5.54831 371.621 4.07853 370.534L4.07842 370.534Z" fill="#111111"/>
<path d="M207.042 279.919C215.271 278.431 220.238 279.65 218.139 282.642L180.671 336.03C178.571 339.021 170.2 342.652 161.972 344.139L15.1292 370.688C6.90082 372.176 1.93329 370.956 4.03279 367.965L41.5008 314.577C43.6003 311.586 51.9713 307.955 60.1998 306.467L207.042 279.919Z" fill="#B0C3FF"/>
<path d="M172.808 341.202C169.58 342.522 165.775 343.657 162.008 344.338L15.165 370.886C9.06832 371.988 4.63021 371.655 3.58252 370.017C3.31371 369.596 3.14509 368.879 3.86794 367.849L41.336 314.461C43.4583 311.437 51.9043 307.762 60.164 306.269L207.006 279.72C213.103 278.618 217.541 278.951 218.589 280.59C218.858 281.01 219.026 281.727 218.304 282.757L180.835 336.145C179.681 337.79 176.656 339.628 172.808 341.202ZM49.47 309.788C45.7185 311.322 42.7821 313.102 41.6656 314.693L4.19753 368.081C3.72018 368.761 3.62744 369.339 3.92178 369.8C4.85079 371.253 9.34017 371.53 15.0931 370.49L161.936 343.942C170.105 342.465 178.436 338.864 180.505 335.914L217.974 282.526C218.451 281.846 218.544 281.268 218.249 280.807C217.32 279.355 212.831 279.077 207.078 280.117L60.2355 306.666C56.4724 307.346 52.674 308.477 49.4701 309.788L49.47 309.788Z" fill="#111111"/>
<path d="M131.412 332.136C122.062 335.96 111.021 339.252 100.085 341.229C82.8041 344.353 69.7567 343.429 66.8447 338.875C65.8015 337.243 66.0774 335.27 67.664 333.009C73.7764 324.299 98.1909 313.699 122.088 309.378C139.368 306.254 152.416 307.178 155.328 311.732C156.371 313.364 156.095 315.337 154.508 317.599C151.193 322.322 142.492 327.604 131.412 332.136ZM90.8672 318.854C79.8832 323.347 71.2711 328.57 67.9935 333.24C66.5096 335.354 66.2374 337.177 67.184 338.658C70.0078 343.074 82.8938 343.928 100.013 340.833C123.82 336.528 148.119 326.002 154.179 317.367C155.662 315.253 155.935 313.43 154.988 311.949C152.165 307.533 139.278 306.679 122.159 309.774C111.228 311.751 100.193 315.039 90.8671 318.854L90.8672 318.854Z" fill="#111111"/>
<path d="M176.478 84.2351L244.366 326.671L220.957 330.903L153.069 88.4674L176.478 84.2351Z" fill="#B0C3FF"/>
<path d="M244.443 326.857C244.43 326.862 244.416 326.867 244.402 326.869L220.993 331.102C220.891 331.12 220.791 331.058 220.763 330.957L152.875 88.5216C152.859 88.4671 152.868 88.4084 152.898 88.3604C152.928 88.3123 152.978 88.2793 153.033 88.269L176.442 84.0366C176.545 84.0182 176.644 84.0805 176.672 84.1805L244.56 326.616C244.576 326.671 244.567 326.729 244.537 326.777C244.514 326.813 244.481 326.841 244.443 326.857L244.443 326.857ZM221.101 330.672L244.112 326.512L176.333 84.466L153.322 88.6262L221.101 330.672Z" fill="#111111"/>
<path d="M176.478 84.2351L179.193 80.3662L247.081 322.802L244.366 326.671L176.478 84.2351Z" fill="#3658C1"/>
<path d="M244.442 326.857C244.408 326.871 244.37 326.876 244.332 326.869C244.255 326.856 244.193 326.8 244.172 326.725L176.284 84.2894C176.268 84.2311 176.278 84.1687 176.313 84.1192L179.028 80.2504C179.073 80.1868 179.151 80.1545 179.227 80.1676C179.304 80.1808 179.366 80.237 179.387 80.3119L247.275 322.748C247.291 322.806 247.281 322.868 247.246 322.918L244.531 326.787C244.508 326.819 244.477 326.843 244.442 326.857ZM176.698 84.2725L244.445 326.207L246.861 322.764L179.114 80.8299L176.698 84.2725Z" fill="#111111"/>
<path d="M153.069 88.4673L155.784 84.5985L179.193 80.3662L176.478 84.235L153.069 88.4673Z" fill="white"/>
<path d="M176.554 84.4214C176.541 84.4267 176.528 84.4307 176.514 84.4332L153.104 88.6656C153.024 88.6801 152.943 88.6448 152.899 88.576C152.855 88.5072 152.857 88.4186 152.903 88.3518L155.619 84.483C155.649 84.4397 155.696 84.41 155.748 84.4006L179.157 80.1683C179.237 80.1537 179.319 80.189 179.363 80.2578C179.407 80.3267 179.405 80.4152 179.358 80.482L176.643 84.3508C176.62 84.3825 176.589 84.407 176.554 84.4214ZM153.515 88.182L176.361 84.0516L178.747 80.6517L155.901 84.7821L153.515 88.182Z" fill="#111111"/>
<path d="M170 61.1002L176.478 84.2352L-69.9035 128.78L-76.3817 105.645L170 61.1002Z" fill="#B0C3FF"/>
<path d="M176.554 84.4215C176.541 84.4267 176.528 84.4308 176.514 84.4332L-69.8677 128.978C-69.9699 128.996 -70.0696 128.934 -70.0974 128.834L-76.5758 105.699C-76.5912 105.644 -76.5827 105.586 -76.5525 105.538C-76.5223 105.49 -76.4731 105.456 -76.4175 105.446L169.964 60.9018C170.066 60.8833 170.166 60.9457 170.194 61.0457L176.672 84.1805C176.687 84.2351 176.679 84.2936 176.649 84.3417C176.626 84.3777 176.593 84.4054 176.554 84.4212L176.554 84.4215ZM-69.759 128.549L176.224 84.0761L169.855 61.3309L-76.1281 105.803L-69.759 128.549Z" fill="#111111"/>
<path d="M170 61.1002L172.715 57.2314L179.193 80.3664L176.478 84.2352L170 61.1002Z" fill="#3658C1"/>
<path d="M176.554 84.4216C176.52 84.4356 176.482 84.4403 176.444 84.4338C176.367 84.4206 176.305 84.3644 176.284 84.2895L169.806 61.1547C169.789 61.0966 169.8 61.0341 169.835 60.9846L172.55 57.1161C172.595 57.0524 172.672 57.0201 172.749 57.0332C172.825 57.0463 172.887 57.1026 172.909 57.1776L179.387 80.3123C179.403 80.3704 179.392 80.4328 179.358 80.4824L176.643 84.3511C176.62 84.3833 176.589 84.4074 176.554 84.4218L176.554 84.4216ZM170.219 61.1379L176.557 83.7716L178.973 80.329L172.635 57.6952L170.219 61.1379Z" fill="#111111"/>
<path d="M-76.3819 105.645L-73.6668 101.776L172.715 57.2314L169.999 61.1001L-76.3819 105.645Z" fill="white"/>
<path d="M170.076 61.2864C170.063 61.2917 170.049 61.2957 170.035 61.2982L-76.346 105.843C-76.4262 105.857 -76.5075 105.822 -76.5515 105.753C-76.5955 105.684 -76.5935 105.596 -76.5466 105.529L-73.8316 101.66C-73.8012 101.617 -73.7547 101.587 -73.7025 101.578L172.679 57.0331C172.759 57.0185 172.84 57.0538 172.884 57.1226C172.928 57.1915 172.926 57.28 172.879 57.3468L170.164 61.2154C170.142 61.2472 170.111 61.2716 170.076 61.2861L170.076 61.2864ZM-75.9354 105.359L169.882 60.9167L172.268 57.5168L-73.5495 101.959L-75.9354 105.359Z" fill="#111111"/>
<path d="M136.993 315.376C136.832 315.184 136.636 315.003 136.408 314.834L132.314 311.806C132.517 311.956 132.69 312.116 132.833 312.287C133.578 313.175 133.503 314.341 132.46 315.744C129.179 320.158 117.47 325.375 105.481 327.918C104.537 328.118 103.59 328.302 102.647 328.467C90.7754 330.547 83.3887 329.01 85.0039 325.057L83.0779 329.771C81.2573 334.227 89.5838 335.96 102.965 333.615C104.029 333.428 105.096 333.221 106.161 332.995C119.675 330.129 132.874 324.249 136.572 319.273C137.748 317.691 137.833 316.377 136.993 315.376L136.993 315.376Z" fill="#3658C1"/>
<path d="M122.669 328.163C117.737 330.18 112.024 331.958 106.203 333.193C105.131 333.42 104.053 333.629 103 333.814C92.8672 335.589 85.2783 335.086 83.1953 332.501C82.5569 331.709 82.4546 330.764 82.8916 329.695L84.8176 324.981C84.8596 324.878 84.9773 324.829 85.0804 324.871C85.1834 324.913 85.2328 325.03 85.1907 325.133C84.8591 325.944 84.9311 326.653 85.404 327.24C87.1383 329.393 93.893 329.797 102.612 328.269C103.541 328.106 104.492 327.921 105.44 327.721C117.532 325.156 129.079 319.955 132.299 315.624C133.256 314.336 133.384 313.257 132.679 312.416C132.549 312.261 132.387 312.111 132.199 311.971L132.194 311.968C132.105 311.901 132.086 311.775 132.152 311.686C132.218 311.597 132.344 311.578 132.434 311.644L136.528 314.671C136.769 314.85 136.977 315.043 137.148 315.247C137.793 316.016 138.245 317.361 136.734 319.393C134.613 322.247 129.361 325.425 122.669 328.162L122.669 328.163ZM84.6227 326.523L83.2645 329.847C82.8871 330.771 82.9694 331.579 83.5089 332.248C85.4698 334.682 93.0933 335.141 102.931 333.417C103.979 333.233 105.052 333.025 106.119 332.799C119.756 329.907 132.778 324.04 136.411 319.153C137.498 317.691 137.642 316.464 136.839 315.506C136.689 315.327 136.504 315.155 136.288 314.996L133.398 312.858C133.655 313.567 133.595 314.557 132.622 315.865C129.35 320.266 117.7 325.533 105.523 328.115C104.571 328.317 103.615 328.502 102.681 328.666C93.6837 330.243 86.9432 329.793 85.0901 327.493C84.8487 327.194 84.6926 326.87 84.6226 326.523L84.6227 326.523Z" fill="#111111"/>
<path d="M94.1966 210.125C93.564 207.866 86.4645 207.88 78.3395 210.155C70.2145 212.43 64.1407 216.106 64.7733 218.365C65.4059 220.624 72.5054 220.611 80.6304 218.336C88.7554 216.06 94.8292 212.385 94.1966 210.125Z" fill="white"/>
<path d="M86.2434 216.63C83.0683 217.929 79.3127 219.04 75.6224 219.687C69.8718 220.694 65.6997 220.348 64.7345 218.782C64.4757 218.362 64.3273 217.646 65.0909 216.619C67.2665 213.693 75.456 210.187 83.3474 208.804C89.098 207.797 93.27 208.143 94.2353 209.708C94.4941 210.128 94.6425 210.844 93.8789 211.872C92.7208 213.429 89.8579 215.152 86.2434 216.63ZM72.838 212.242C69.3148 213.683 66.5348 215.352 65.4142 216.859C64.9092 217.539 64.7959 218.115 65.0774 218.571C65.785 219.718 69.2984 220.386 75.5528 219.29C83.357 217.922 91.4328 214.487 93.5554 211.631C94.0604 210.952 94.1736 210.376 93.8922 209.92C93.1847 208.773 89.6713 208.105 83.4169 209.201C79.7329 209.847 75.9884 210.953 72.838 212.242Z" fill="#111111"/>
<path d="M61.3699 304.452C66.4238 315.364 74.1808 323.89 87.6465 328.75C100.391 332.035 128.239 323.059 133.646 314.271L133.646 314.272C140.374 305.199 143.336 292.776 141.766 281.522C141.013 276.122 139.169 271.024 136.365 266.429C124.539 247.601 101.693 235.293 94.1906 210.091C95.1266 215.408 68.0871 223.692 64.7718 218.38C73.2823 250.901 49.3471 278.492 61.3699 304.452Z" fill="#3658C1"/>
<path d="M119.438 324.059C108.846 328.392 95.3254 330.937 87.5964 328.945C75.2178 324.478 66.8317 316.724 61.1871 304.536C54.9785 291.131 58.3137 277.29 61.845 262.637C65.2154 248.651 68.7008 234.188 64.5771 218.43C64.5519 218.334 64.6009 218.233 64.6923 218.194C64.787 218.158 64.8903 218.188 64.9429 218.272C66.7838 221.222 76.8789 219.807 85.1524 216.636C90.92 214.425 94.3098 211.929 93.9924 210.126C93.9738 210.021 94.0401 209.919 94.1446 209.895C94.2484 209.87 94.3535 209.931 94.3838 210.033C98.995 225.522 109.433 236.14 119.528 246.407C125.936 252.926 131.989 259.083 136.536 266.322C139.386 270.993 141.213 276.097 141.966 281.494C142.744 287.077 142.415 293.049 141.013 298.763C139.596 304.541 137.105 309.944 133.81 314.388C131.665 317.862 126.137 321.319 119.438 324.059L119.438 324.059ZM61.5527 304.367C67.1491 316.451 75.4622 324.138 87.715 328.56C93.5231 330.056 103.348 329.018 113.337 325.845C123.266 322.692 130.982 318.216 133.474 314.165C133.48 314.156 133.486 314.148 133.492 314.14C140.143 305.166 143.162 292.983 141.567 281.549C140.821 276.208 139.014 271.156 136.193 266.534C131.671 259.334 125.633 253.192 119.24 246.69C109.311 236.591 99.0511 226.154 94.2794 211.066C93.5994 212.911 90.3858 215.062 85.2965 217.012C77.5178 219.994 68.0973 221.482 65.1666 219.115C69.0006 234.664 65.5628 248.929 62.2366 262.731C58.7223 277.314 55.403 291.088 61.5527 304.367Z" fill="#111111"/>
<path d="M106.832 204.049L64.324 211.512L55.2744 181.058L97.7828 173.595L106.832 204.049Z" fill="#111111"/>
<path d="M106.909 204.235C106.895 204.24 106.882 204.244 106.867 204.247L64.359 211.71C64.2583 211.728 64.1602 211.667 64.1312 211.569L55.0816 181.115C55.0652 181.06 55.0731 181.001 55.1034 180.952C55.1335 180.903 55.183 180.869 55.2399 180.859L97.7483 173.396C97.849 173.378 97.9471 173.439 97.9761 173.537L107.026 203.991C107.042 204.046 107.034 204.105 107.004 204.154C106.981 204.191 106.948 204.219 106.909 204.235ZM64.466 211.282L106.575 203.889L97.641 173.824L55.5321 181.217L64.466 211.282Z" fill="#111111"/>
<path d="M95.4172 165.628L100.577 158.276L111.523 197.365L106.833 204.048L97.783 173.595" fill="#3658C1"/>
<path d="M106.909 204.235C106.875 204.249 106.838 204.253 106.8 204.247C106.724 204.235 106.662 204.18 106.64 204.106L97.59 173.652C97.5583 173.545 97.6201 173.433 97.7256 173.402C97.8324 173.37 97.9445 173.431 97.9761 173.537L106.907 203.592L111.304 197.327L100.498 158.74L95.5823 165.744C95.5185 165.835 95.3928 165.857 95.3016 165.793C95.2106 165.729 95.1886 165.604 95.2525 165.513L100.413 158.16C100.457 158.097 100.535 158.064 100.611 158.077C100.688 158.091 100.75 158.147 100.771 158.222L111.717 197.31C111.734 197.369 111.723 197.431 111.688 197.481L106.998 204.164C106.975 204.196 106.944 204.221 106.909 204.235Z" fill="#111111"/>
<path d="M190.328 160.324L194.451 175.047L-40.1303 217.458L-44.2531 202.735L190.328 160.324Z" fill="#B0C3FF"/>
<path d="M194.527 175.233C194.514 175.239 194.5 175.243 194.486 175.245L-40.0948 217.656C-40.1969 217.675 -40.2966 217.613 -40.3245 217.513L-44.4473 202.79C-44.4627 202.735 -44.4542 202.677 -44.424 202.628C-44.3938 202.58 -44.3448 202.548 -44.289 202.537L190.292 160.126C190.394 160.107 190.494 160.17 190.522 160.27L194.644 174.993C194.66 175.047 194.651 175.106 194.621 175.154C194.599 175.19 194.565 175.218 194.527 175.234L194.527 175.233ZM-39.9858 217.227L194.197 174.888L190.183 160.555L-43.9996 202.894L-39.9858 217.227Z" fill="#111111"/>
<path d="M190.328 160.324L193.043 156.456L197.166 171.178L194.45 175.047L190.328 160.324Z" fill="white"/>
<path d="M194.527 175.233C194.493 175.247 194.455 175.252 194.417 175.245C194.34 175.232 194.278 175.176 194.257 175.101L190.134 160.378C190.118 160.32 190.128 160.258 190.163 160.208L192.878 156.34C192.923 156.276 193 156.244 193.077 156.257C193.154 156.27 193.216 156.326 193.237 156.401L197.36 171.124C197.376 171.182 197.365 171.244 197.331 171.294L194.616 175.163C194.593 175.195 194.562 175.219 194.527 175.233L194.527 175.233ZM190.547 160.361L194.53 174.583L196.946 171.141L192.963 156.919L190.547 160.361L190.547 160.361Z" fill="#111111"/>
<path d="M-44.253 202.735L-41.5379 198.866L193.043 156.455L190.328 160.324L-44.253 202.735Z" fill="white"/>
<path d="M190.404 160.511C190.391 160.516 190.378 160.52 190.364 160.522L-44.2174 202.933C-44.2976 202.948 -44.3789 202.913 -44.4229 202.844C-44.467 202.775 -44.4649 202.687 -44.418 202.62L-41.7028 198.751C-41.6724 198.708 -41.6259 198.678 -41.5737 198.668L193.007 156.257C193.088 156.243 193.169 156.278 193.213 156.347C193.257 156.416 193.255 156.504 193.208 156.571L190.493 160.44C190.471 160.471 190.44 160.496 190.404 160.51L190.404 160.511ZM-43.8068 202.45L190.21 160.141L192.596 156.741L-41.4206 199.05L-43.8068 202.45Z" fill="#111111"/>
<path d="M198.379 181.466C199.814 182.312 201.526 182.679 203.21 182.375L224.648 178.499L211.002 194.903C210.142 195.937 209.112 196.516 208.017 196.714C203.795 197.478 198.606 192.571 198.476 186.188L198.378 181.466L198.379 181.466Z" fill="white"/>
<path d="M209.047 196.624C208.729 196.754 208.398 196.85 208.053 196.912C206.291 197.231 204.273 196.589 202.517 195.152C199.932 193.037 198.346 189.688 198.274 186.192L198.177 181.47C198.176 181.397 198.214 181.329 198.277 181.292C198.34 181.255 198.418 181.255 198.481 181.292C199.931 182.147 201.598 182.461 203.174 182.176L224.611 178.3C224.695 178.285 224.779 178.324 224.821 178.397C224.864 178.471 224.856 178.562 224.802 178.628L211.156 195.031C210.545 195.767 209.838 196.3 209.046 196.624L209.047 196.624ZM198.587 181.813L198.677 186.184C198.746 189.563 200.277 192.799 202.772 194.84C204.437 196.203 206.336 196.814 207.982 196.516C209.088 196.316 210.053 195.73 210.847 194.774L224.139 178.796L203.245 182.573C201.687 182.855 200.046 182.585 198.587 181.814L198.587 181.813Z" fill="#111111"/>
<path d="M197.414 132.815C196.086 132.177 194.847 132.008 193.752 132.206C192.419 132.447 191.299 133.233 190.495 134.378L187.78 138.247C188.584 137.102 189.704 136.316 191.037 136.075C192.132 135.877 193.371 136.046 194.699 136.683L215.777 146.812L218.492 142.943L197.414 132.815Z" fill="#3658C1"/>
<path d="M215.853 146.998C215.802 147.019 215.743 147.019 215.69 146.993L194.612 136.865C193.376 136.271 192.185 136.072 191.073 136.273C189.828 136.498 188.747 137.221 187.945 138.363C187.881 138.453 187.756 138.476 187.665 138.412C187.573 138.348 187.552 138.222 187.615 138.131L190.33 134.262C191.194 133.032 192.364 132.252 193.716 132.008C194.913 131.791 196.187 132.001 197.501 132.633L218.579 142.761C218.632 142.787 218.672 142.835 218.687 142.892C218.702 142.949 218.691 143.01 218.657 143.058L215.942 146.927C215.919 146.96 215.888 146.984 215.853 146.998L215.853 146.998ZM190.006 136.166C190.324 136.036 190.657 135.939 191.002 135.876C192.199 135.66 193.472 135.87 194.786 136.502L215.71 146.556L218.191 143.022L197.327 132.996C196.091 132.402 194.9 132.203 193.788 132.404C192.544 132.629 191.462 133.352 190.661 134.494L189.186 136.594C189.447 136.426 189.721 136.283 190.006 136.166Z" fill="#111111"/>
<path d="M190.456 153.172L188.026 148.872C184.741 143.057 186.815 136.838 191.037 136.075C192.132 135.877 193.371 136.045 194.699 136.683L215.777 146.811L194.336 150.688C192.652 150.992 191.302 151.913 190.456 153.172Z" fill="white"/>
<path d="M215.853 146.998C215.84 147.003 215.827 147.007 215.813 147.01L194.372 150.886C192.803 151.17 191.472 152.022 190.623 153.284C190.584 153.342 190.518 153.376 190.448 153.373C190.378 153.371 190.315 153.332 190.28 153.271L187.851 148.971C186.02 145.729 185.698 141.977 187.011 139.179C187.865 137.361 189.282 136.188 191.002 135.877C192.199 135.66 193.472 135.87 194.786 136.502L215.864 146.63C215.943 146.668 215.988 146.752 215.977 146.839C215.967 146.911 215.919 146.971 215.853 146.998ZM192.994 150.869C193.408 150.7 193.845 150.572 194.301 150.49L215.129 146.724L194.612 136.865C193.375 136.271 192.185 136.072 191.073 136.273C189.486 136.56 188.172 137.653 187.376 139.35C186.117 142.032 186.433 145.643 188.201 148.773L190.475 152.797C191.122 151.94 191.987 151.281 192.994 150.869Z" fill="#111111"/>
<path d="M223.486 145.418C227.012 144.78 230.663 147.088 231.639 150.572L236.978 169.641C237.954 173.126 235.886 176.467 232.359 177.105L224.647 178.499L203.21 182.375C201.526 182.679 199.814 182.312 198.379 181.466C196.808 180.54 195.569 179.041 195.059 177.22L194.45 175.047L190.328 160.324L189.719 158.151C189.209 156.331 189.53 154.549 190.456 153.172C191.301 151.913 192.653 150.992 194.336 150.688L215.777 146.812L223.486 145.418L223.486 145.418Z" fill="white"/>
<path d="M233.708 176.923C233.293 177.092 232.854 177.22 232.395 177.303L203.246 182.573C201.575 182.875 199.81 182.544 198.276 181.64C196.61 180.657 195.367 179.066 194.865 177.274L189.526 158.206C189.022 156.407 189.3 154.531 190.289 153.06C191.199 151.706 192.624 150.793 194.301 150.49L223.451 145.22C227.071 144.565 230.832 146.942 231.833 150.518L237.173 169.587C237.663 171.339 237.429 173.11 236.512 174.573C235.845 175.639 234.874 176.446 233.708 176.923ZM193.148 151.241C192.114 151.664 191.241 152.365 190.623 153.284C189.7 154.658 189.441 156.412 189.913 158.097L195.253 177.166C195.727 178.858 196.904 180.362 198.481 181.292C199.932 182.148 201.598 182.461 203.174 182.177L232.324 176.907C233.961 176.61 235.327 175.706 236.171 174.359C237.026 172.993 237.244 171.337 236.784 169.696L231.445 150.627C230.498 147.245 226.944 144.997 223.522 145.616L194.372 150.886C193.945 150.963 193.535 151.083 193.148 151.241Z" fill="#111111"/>
<path d="M226.201 141.549L218.492 142.943L215.777 146.812L223.486 145.418C227.012 144.78 230.663 147.087 231.639 150.572L236.979 169.641C237.5 171.503 237.152 173.325 236.177 174.714L238.892 170.845C239.867 169.456 240.215 167.634 239.694 165.772L234.354 146.703C233.378 143.219 229.728 140.912 226.201 141.549Z" fill="#3658C1"/>
<path d="M236.253 174.901C236.192 174.926 236.12 174.92 236.061 174.879C235.97 174.815 235.948 174.69 236.012 174.598L236.015 174.594C236.987 173.206 237.268 171.421 236.784 169.696L231.445 150.627C230.498 147.245 226.944 144.997 223.522 145.616L215.813 147.01C215.732 147.024 215.651 146.989 215.607 146.92C215.563 146.851 215.565 146.763 215.612 146.696L218.327 142.827C218.357 142.784 218.404 142.754 218.456 142.745L226.166 141.351C229.786 140.696 233.546 143.073 234.548 146.649L239.888 165.718C240.404 167.562 240.101 169.473 239.057 170.961L236.342 174.83C236.319 174.863 236.288 174.886 236.253 174.901ZM216.223 146.526L223.45 145.22C227.071 144.565 230.831 146.942 231.833 150.518L237.172 169.587C237.48 170.685 237.497 171.807 237.24 172.849L238.727 170.73C239.702 169.341 239.983 167.554 239.5 165.827L234.16 146.758C233.213 143.376 229.659 141.129 226.237 141.747L218.61 143.126L216.223 146.526Z" fill="#111111"/>
<path d="M97.7831 173.594L95.5193 177.399L104.448 207.446L93.1265 223.578L81.7099 185.16L95.4173 165.628" fill="#3658C1"/>
<path d="M93.2025 223.765C93.1688 223.778 93.1313 223.783 93.094 223.777C93.0178 223.765 92.9552 223.71 92.9332 223.636L81.5166 185.217C81.499 185.158 81.5094 185.094 81.5448 185.044L95.2521 165.513C95.316 165.422 95.4416 165.399 95.5328 165.464C95.6239 165.527 95.6458 165.653 95.5819 165.744L81.9305 185.196L93.2005 223.122L104.227 207.41L95.3258 177.456C95.3098 177.402 95.3169 177.344 95.3457 177.296L97.6095 173.492C97.6665 173.396 97.7901 173.365 97.8857 173.421C97.9812 173.478 98.0126 173.602 97.9558 173.698L95.7372 177.426L104.641 207.389C104.659 207.448 104.648 207.511 104.613 207.562L93.291 223.694C93.2683 223.726 93.2375 223.75 93.2024 223.765L93.2025 223.765Z" fill="#111111"/>
<path d="M93.1263 223.578L50.618 231.041L39.2015 192.623L81.7097 185.16L93.1263 223.578Z" fill="#B0C3FF"/>
<path d="M93.2026 223.765C93.1894 223.77 93.1756 223.774 93.1612 223.776L50.6528 231.24C50.5521 231.258 50.454 231.197 50.4249 231.099L39.0085 192.681C38.9921 192.626 39.0002 192.566 39.0303 192.517C39.0606 192.468 39.1097 192.435 39.1668 192.425L81.675 184.962C81.7757 184.944 81.8739 185.005 81.9029 185.103L93.3195 223.521C93.3359 223.576 93.3278 223.635 93.2978 223.684C93.2752 223.721 93.2418 223.749 93.2026 223.765ZM50.76 230.812L92.869 223.419L81.5681 185.389L39.4592 192.782L50.7602 230.812L50.76 230.812Z" fill="#111111"/>
<path d="M61.8553 193.599C62.2665 193.527 62.6781 193.476 63.0892 193.437L64.8682 199.424C66.4533 199.36 68.0242 199.695 69.45 200.348L72.5591 195.349C73.3304 195.75 74.0745 196.208 74.7791 196.717L71.6697 201.716C72.8925 202.695 73.8948 203.947 74.5436 205.386L80.7203 204.302C80.8686 204.686 81.0063 205.075 81.1249 205.473C81.2433 205.872 81.3391 206.269 81.4228 206.666L75.2462 207.75C75.4743 209.263 75.2784 210.723 74.7299 212.014L80.3549 215.48C80.008 216.175 79.596 216.834 79.1283 217.455L73.5034 213.989C72.5879 215.052 71.3615 215.876 69.898 216.35L71.6765 222.335C71.3089 222.431 70.9348 222.517 70.5509 222.587C78.7651 221.102 83.4977 213.458 81.125 205.473C78.7454 197.465 70.1171 192.149 61.8554 193.599M51.1817 210.651C51.0734 210.278 50.9842 209.906 50.9064 209.536L57.081 208.452C56.8548 206.939 57.0483 205.477 57.5968 204.187L51.9719 200.721C52.3213 200.027 52.7306 199.366 53.2009 198.747L58.8258 202.213C59.7413 201.149 60.9672 200.323 62.4292 199.852L60.6502 193.865C61.0445 193.763 61.4441 193.672 61.8553 193.599C53.6174 195.046 48.8536 202.671 51.1815 210.651M51.2263 210.802C53.6303 218.745 62.1813 224.014 70.3957 222.614C70.0104 222.679 69.6246 222.726 69.2376 222.763L67.4591 216.778C65.8758 216.841 64.305 216.506 62.8794 215.853L59.7703 220.853C58.9964 220.45 58.2549 219.993 57.548 219.483L60.6571 214.484C59.4343 213.505 58.4346 212.254 57.7837 210.816L51.609 211.9C51.4696 211.538 51.3397 211.174 51.2266 210.801" fill="#111111"/>
<path d="M73.6264 221.905C72.6696 222.297 71.6531 222.592 70.5875 222.785C70.5875 222.785 70.5875 222.785 70.587 222.785C70.5592 222.79 70.5317 222.789 70.5056 222.783C70.483 222.798 70.4576 222.808 70.4298 222.813L70.4287 222.813C66.4078 223.498 62.1809 222.635 58.5266 220.383C54.8716 218.131 52.2106 214.749 51.0337 210.86C51.0255 210.833 51.0232 210.806 51.0263 210.78C51.0093 210.759 50.9963 210.735 50.9883 210.708C49.8491 206.803 50.3396 202.856 52.3692 199.595C54.4081 196.318 57.7562 194.121 61.7977 193.405C61.8054 193.404 61.8129 193.402 61.8206 193.401L61.8213 193.401C61.8264 193.4 61.8315 193.399 61.8366 193.398C65.5482 192.75 69.3383 193.458 72.6134 195.154C72.6265 195.158 72.6394 195.163 72.6519 195.17C73.4306 195.575 74.1859 196.04 74.8968 196.553C74.9085 196.561 74.9188 196.571 74.9281 196.581C77.9187 198.746 80.2472 201.813 81.3179 205.416C82.4786 209.322 82.0083 213.276 79.9936 216.55C78.503 218.973 76.2983 220.812 73.6262 221.906L73.6264 221.905ZM71.8154 222.095C74.6756 221.313 77.1034 219.728 78.8362 217.511L73.5425 214.249C72.6414 215.25 71.4737 216.017 70.1468 216.479L71.8154 222.095ZM70.4747 222.401C70.4873 222.395 70.5009 222.391 70.515 222.389C70.8034 222.336 71.1025 222.271 71.4239 222.191L69.705 216.407C69.6739 216.302 69.7323 216.191 69.836 216.158C71.2272 215.707 72.4424 214.912 73.3507 213.857C73.4154 213.782 73.525 213.765 73.6091 213.817L79.0768 217.186C79.4594 216.663 79.7997 216.115 80.0912 215.553L74.6242 212.185C74.5395 212.133 74.5055 212.026 74.5444 211.934C75.0899 210.652 75.2635 209.215 75.0469 207.78C75.0306 207.672 75.1039 207.571 75.2113 207.551L81.1816 206.503C81.1054 206.16 81.0257 205.849 80.9397 205.557C80.9371 205.548 80.9345 205.539 80.9317 205.53C80.9294 205.523 80.9273 205.515 80.9251 205.508C80.8335 205.202 80.7237 204.88 80.5915 204.528L74.5786 205.584C74.4878 205.6 74.3978 205.553 74.36 205.469C73.741 204.096 72.7673 202.852 71.544 201.873C71.4643 201.809 71.4448 201.696 71.4988 201.609L74.5077 196.771C73.9069 196.348 73.2792 195.961 72.6306 195.615L69.621 200.454C69.5674 200.54 69.4581 200.573 69.3662 200.531C67.9391 199.878 66.3867 199.564 64.8765 199.625C64.7844 199.629 64.7016 199.569 64.6753 199.481L62.9437 193.654C62.5651 193.693 62.2238 193.739 61.9047 193.795C61.8998 193.796 61.8953 193.797 61.8902 193.797C61.8845 193.798 61.8784 193.799 61.8727 193.8C61.5679 193.854 61.2488 193.923 60.9032 194.008L62.6226 199.794C62.6537 199.899 62.5965 200.009 62.4912 200.043C61.1035 200.49 59.889 201.286 58.9787 202.344C58.9142 202.42 58.8046 202.436 58.7203 202.384L53.2522 199.015C52.8767 199.525 52.5359 200.072 52.2362 200.647L57.7026 204.015C57.7873 204.067 57.8213 204.173 57.7824 204.265C57.2387 205.544 57.0651 206.981 57.2804 208.422C57.2966 208.53 57.2235 208.631 57.1161 208.65L51.1475 209.698C51.2189 210.019 51.2937 210.314 51.3751 210.595C51.3826 210.621 51.3848 210.648 51.3818 210.673C51.3982 210.693 51.411 210.717 51.4191 210.743C51.4271 210.769 51.4193 210.743 51.4195 210.744C51.5081 211.035 51.6129 211.341 51.7378 211.672L57.7488 210.617C57.8393 210.601 57.9292 210.649 57.9672 210.732C58.5886 212.106 59.5625 213.349 60.7828 214.326C60.8625 214.39 60.882 214.504 60.828 214.59L57.8257 219.418C58.4273 219.841 59.0557 220.229 59.7051 220.576L62.7082 215.747C62.7618 215.661 62.8711 215.628 62.963 215.67C64.3897 216.324 65.9416 216.637 67.4509 216.576C67.543 216.573 67.6258 216.632 67.6521 216.72L69.3831 222.546C69.7375 222.509 70.0584 222.466 70.3597 222.415C70.3603 222.415 70.3613 222.415 70.3619 222.415C70.389 222.41 70.4157 222.411 70.441 222.417C70.4515 222.41 70.4624 222.405 70.4742 222.4L70.4747 222.401ZM60.0639 220.763C62.8002 222.147 65.8911 222.829 68.9756 222.587L67.3105 216.984C65.845 217.019 64.3471 216.718 62.9578 216.109L60.0639 220.763ZM74.9817 211.932L80.277 215.195C81.4979 212.662 81.8411 209.791 81.2699 206.897L75.473 207.915C75.6495 209.299 75.4805 210.68 74.9817 211.932ZM51.8836 212.057C53.0417 214.912 55.0335 217.362 57.4984 219.182L60.3924 214.529C59.229 213.564 58.2908 212.364 57.6659 211.041L51.8836 212.057ZM74.662 205.161L80.447 204.145C79.288 201.281 77.2984 198.828 74.8354 197.008L71.9348 201.672C73.1008 202.638 74.0391 203.839 74.662 205.161ZM51.06 209.305L56.8555 208.287C56.68 206.898 56.8486 205.517 57.346 204.268L52.0521 201.006C50.8318 203.538 50.4883 206.409 51.0602 209.305L51.06 209.305ZM65.0176 199.218C66.484 199.183 67.9823 199.484 69.3722 200.092L72.2724 195.429C69.5366 194.046 66.4448 193.367 63.3517 193.612L65.0176 199.218ZM53.4925 198.69L58.7875 201.953C59.69 200.95 60.8564 200.183 62.1815 199.723L60.512 194.106C57.6536 194.887 55.2259 196.472 53.4925 198.69Z" fill="#111111"/>
<path d="M51.2038 210.727C51.2113 210.752 51.2189 210.777 51.2263 210.802C51.3397 211.174 51.4693 211.539 51.6088 211.9L57.7835 210.816C58.4344 212.255 59.4339 213.506 60.6569 214.485L57.5477 219.484C58.2547 219.994 58.9964 220.451 59.77 220.854L62.8792 215.854C64.305 216.507 65.8758 216.842 67.4589 216.779L69.2374 222.764C69.6243 222.727 70.0101 222.68 70.3955 222.615C70.4213 222.61 70.4471 222.606 70.4731 222.601C70.4991 222.597 70.5249 222.592 70.5506 222.587C70.9346 222.517 71.3086 222.431 71.6761 222.335L69.8977 216.351C71.3611 215.877 72.5874 215.053 73.5031 213.989L79.128 217.455C79.5957 216.835 80.0076 216.175 80.3546 215.48L74.7296 212.014C75.2781 210.724 75.4741 209.263 75.2458 207.751L81.4225 206.666C81.3387 206.27 81.243 205.873 81.1246 205.474C81.0061 205.076 80.8682 204.686 80.72 204.302L74.5433 205.387C73.8944 203.948 72.8924 202.696 71.6694 201.717L74.7787 196.717C74.0742 196.209 73.3301 195.75 72.5587 195.349L69.4497 200.349C68.0239 199.696 66.4531 199.361 64.8679 199.425L63.0889 193.438C62.6779 193.477 62.2661 193.528 61.855 193.6C61.4438 193.672 61.0442 193.764 60.6499 193.866L62.429 199.853C60.967 200.324 59.741 201.15 58.8255 202.214L53.2007 198.748C52.7305 199.367 52.3212 200.028 51.9717 200.721L57.5965 204.187C57.048 205.478 56.8544 206.94 57.0808 208.453L50.9061 209.537C50.9841 209.907 51.0732 210.279 51.1815 210.652C51.1889 210.677 51.1961 210.702 51.2035 210.727" fill="#B0C3FF"/>
<path d="M71.7525 222.521C71.7443 222.525 71.7357 222.528 71.727 222.53C71.3179 222.636 70.9448 222.72 70.5868 222.785L70.4296 222.813C70.0713 222.873 69.6877 222.922 69.2565 222.963C69.1606 222.973 69.0718 222.913 69.0444 222.82L67.3101 216.984C65.8445 217.019 64.3467 216.718 62.9573 216.109L59.941 220.96C59.8854 221.049 59.7704 221.08 59.6769 221.032C58.8975 220.626 58.1413 220.16 57.4297 219.647C57.3438 219.585 57.3205 219.467 57.3766 219.377L60.3922 214.529C59.2288 213.564 58.2906 212.364 57.6657 211.041L51.6436 212.099C51.5487 212.115 51.4556 212.063 51.4208 211.973C51.2654 211.571 51.139 211.207 51.0338 210.861L50.9882 210.708C50.8872 210.359 50.7959 209.99 50.7092 209.578C50.698 209.524 50.709 209.469 50.7395 209.423C50.7701 209.378 50.818 209.347 50.8716 209.338L56.8552 208.287C56.6797 206.898 56.8482 205.517 57.3457 204.269L51.8665 200.892C51.7775 200.838 51.7452 200.724 51.7923 200.63C52.1509 199.919 52.571 199.244 53.0407 198.625C53.1033 198.543 53.2184 198.521 53.3068 198.576L58.7871 201.953C59.6899 200.95 60.8573 200.183 62.1811 199.723L60.4572 193.923C60.4417 193.87 60.4481 193.814 60.4748 193.766C60.5018 193.719 60.5468 193.684 60.5996 193.67C61.0418 193.555 61.4412 193.467 61.8205 193.401C62.1998 193.334 62.6085 193.28 63.0701 193.237C63.166 193.227 63.2548 193.287 63.2823 193.38L65.0172 199.218C66.4835 199.183 67.9818 199.483 69.3717 200.092L72.388 195.242C72.4435 195.152 72.5586 195.121 72.652 195.17C73.4307 195.574 74.1861 196.04 74.897 196.553C74.9828 196.615 75.006 196.733 74.9501 196.823L71.9344 201.672C73.1004 202.638 74.0387 203.839 74.6616 205.161L80.6856 204.103C80.7804 204.087 80.8736 204.139 80.9083 204.229C81.0748 204.66 81.2088 205.049 81.3178 205.416C81.4267 205.782 81.5255 206.177 81.6198 206.624C81.631 206.678 81.6201 206.733 81.5896 206.778C81.5591 206.824 81.5114 206.855 81.4575 206.864L75.4722 207.915C75.6487 209.3 75.4799 210.68 74.9811 211.932L80.4604 215.308C80.5491 215.363 80.5814 215.476 80.5348 215.57C80.188 216.264 79.7688 216.939 79.2888 217.576C79.2264 217.659 79.1108 217.681 79.0223 217.626L73.542 214.249C72.6409 215.25 71.4732 216.017 70.1463 216.479L71.8694 222.277C71.885 222.33 71.8786 222.386 71.8518 222.434C71.8293 222.473 71.7944 222.504 71.7526 222.521L71.7525 222.521ZM69.383 222.546C69.7382 222.51 70.0597 222.467 70.3619 222.416L70.5152 222.389C70.8031 222.337 71.102 222.271 71.4234 222.192L69.7045 216.408C69.6734 216.303 69.7319 216.192 69.8355 216.159C71.2267 215.708 72.442 214.913 73.3502 213.857C73.415 213.783 73.5246 213.765 73.6087 213.817L79.0764 217.186C79.459 216.663 79.7993 216.116 80.0907 215.554L74.6237 212.185C74.539 212.133 74.5051 212.027 74.544 211.935C75.0894 210.652 75.2631 209.216 75.0464 207.78C75.0301 207.672 75.1033 207.571 75.2109 207.552L81.1812 206.504C81.1025 206.15 81.0203 205.83 80.9313 205.531C80.8384 205.218 80.7267 204.889 80.5909 204.529L74.5779 205.585C74.4872 205.601 74.3972 205.553 74.3593 205.469C73.7404 204.096 72.7667 202.853 71.5433 201.874C71.4637 201.81 71.4441 201.696 71.4982 201.61L74.5075 196.771C73.9082 196.348 73.278 195.96 72.6305 195.614L69.6203 200.455C69.5667 200.541 69.4574 200.574 69.3655 200.531C67.9384 199.878 66.386 199.565 64.8758 199.625C64.7837 199.629 64.7009 199.57 64.6746 199.482L62.943 193.654C62.5589 193.694 62.2128 193.741 61.8898 193.798C61.5797 193.852 61.2551 193.922 60.9026 194.009L62.622 199.795C62.6531 199.9 62.5959 200.01 62.4906 200.044C61.1029 200.491 59.8884 201.287 58.9781 202.345C58.9138 202.42 58.8041 202.437 58.7197 202.385L53.2516 199.015C52.8762 199.526 52.5353 200.073 52.2357 200.647L57.7021 204.015C57.7868 204.068 57.8207 204.174 57.7818 204.266C57.2381 205.545 57.0646 206.982 57.2798 208.422C57.296 208.531 57.223 208.632 57.1155 208.651L51.1469 209.699C51.2183 210.02 51.2932 210.315 51.3746 210.596L51.3962 210.669L51.3965 210.67L51.4186 210.744C51.5073 211.036 51.612 211.341 51.7373 211.673L57.7483 210.618C57.8388 210.602 57.9287 210.649 57.9667 210.733C58.5882 212.107 59.562 213.35 60.7824 214.327C60.862 214.391 60.8816 214.504 60.8275 214.591L57.8181 219.43C58.4182 219.853 59.049 220.242 59.6975 220.588L62.7078 215.748C62.7613 215.662 62.8706 215.629 62.9625 215.671C64.3892 216.324 65.9411 216.638 67.4504 216.577C67.5425 216.574 67.6253 216.633 67.6516 216.721L69.3826 222.547L69.383 222.546Z" fill="#111111"/>
<path d="M81.7098 185.16L39.2016 192.623L58.0689 165.739L100.577 158.276L81.7098 185.16Z" fill="white"/>
<path d="M81.7861 185.347C81.7729 185.352 81.7589 185.356 81.7447 185.358L39.2364 192.822C39.1562 192.836 39.0752 192.8 39.0317 192.731C38.9881 192.662 38.99 192.574 39.0367 192.507L57.904 165.623C57.9345 165.58 57.9811 165.55 58.0341 165.541L100.542 158.078C100.623 158.064 100.704 158.099 100.747 158.168C100.791 158.237 100.789 158.325 100.742 158.392L81.8748 185.276C81.8525 185.308 81.8215 185.332 81.7861 185.347ZM39.6459 192.341L81.5928 184.976L100.133 158.559L58.1858 165.923L39.6459 192.341Z" fill="#111111"/>
<path d="M76.8169 178.301C76.3402 176.599 70.9901 176.609 64.8671 178.323C58.7442 180.038 54.167 182.808 54.6437 184.511C55.1204 186.213 60.4705 186.203 66.5934 184.488C72.7164 182.774 77.2936 180.003 76.8169 178.301Z" fill="white"/>
<path d="M70.833 183.251C68.4957 184.207 65.742 185.029 63.0167 185.522C58.5849 186.323 55.3531 186.072 54.583 184.867C54.3795 184.549 54.2502 184.008 54.7906 183.238C56.3326 181.041 62.4576 178.373 68.4438 177.29C72.8757 176.489 76.1075 176.74 76.8777 177.944C77.0813 178.263 77.2105 178.804 76.6702 179.574C75.83 180.771 73.63 182.108 70.8333 183.252L70.833 183.251ZM60.7337 179.943C58.0341 181.047 55.9223 182.327 55.1201 183.47C54.7892 183.941 54.7226 184.338 54.9221 184.65C55.4713 185.509 58.1651 185.989 62.9449 185.125C68.8414 184.059 74.8503 181.465 76.3401 179.342C76.6709 178.871 76.7375 178.473 76.5381 178.161C75.9889 177.302 73.2951 176.822 68.5151 177.686C65.7937 178.179 63.0477 178.996 60.7337 179.943Z" fill="#111111"/>
<path d="M75.0391 174.223C74.0968 175.565 71.4067 177.086 68.0786 178.304C66.0444 179.049 63.772 179.68 61.5148 180.088C61.2376 180.138 60.9656 180.184 60.6988 180.226C56.4081 180.896 53.5132 180.485 53.1747 179.276L54.6407 184.511C54.9791 185.72 57.874 186.132 62.1647 185.461C62.4314 185.419 62.7035 185.373 62.9807 185.323C65.2378 184.915 67.5102 184.284 69.5444 183.539C72.8724 182.322 75.5627 180.8 76.505 179.458C76.8145 179.017 76.9117 178.629 76.8194 178.3L75.3535 173.065C75.4455 173.394 75.3484 173.782 75.0389 174.223L75.0391 174.223Z" fill="#B0C3FF"/>
<path d="M70.8523 183.249C70.4531 183.413 70.0399 183.573 69.6139 183.729C67.4941 184.505 65.2128 185.125 63.0168 185.522C62.7382 185.572 62.4643 185.618 62.1961 185.66C57.7978 186.348 54.8285 185.928 54.447 184.566L52.9814 179.332C52.9814 179.332 52.9811 179.331 52.9809 179.33C52.9508 179.223 53.0145 179.111 53.1205 179.082C53.2275 179.052 53.3387 179.115 53.3687 179.222L53.3694 179.224C53.6234 180.121 56.0145 180.754 60.6677 180.027C60.9329 179.985 61.2034 179.94 61.479 179.89C63.6524 179.497 65.9106 178.883 68.0094 178.115C71.4232 176.866 73.9896 175.367 74.8742 174.107C75.1402 173.727 75.2363 173.396 75.1601 173.12L75.1595 173.119C75.1296 173.012 75.1923 172.9 75.2993 172.871C75.4065 172.841 75.5177 172.903 75.5476 173.01L75.5483 173.012L77.0137 178.246C77.1251 178.643 77.0094 179.09 76.6701 179.573C75.8538 180.737 73.7211 182.076 70.8523 183.249ZM53.6157 180.103L54.8347 184.457C55.0861 185.355 57.4776 185.99 62.1336 185.262C62.3988 185.221 62.6693 185.175 62.9449 185.125C65.1185 184.732 67.3766 184.118 69.4751 183.35C72.8887 182.101 75.4555 180.603 76.34 179.342C76.6064 178.962 76.7025 178.63 76.6254 178.355L75.4065 174.002C75.3513 174.112 75.2838 174.224 75.2036 174.338C74.2738 175.663 71.6358 177.216 68.1475 178.494C66.0275 179.269 63.7462 179.889 61.5503 180.286C61.2717 180.337 60.9978 180.383 60.7296 180.425C57.3183 180.958 54.7669 180.826 53.6153 180.104L53.6157 180.103Z" fill="#111111"/>
<path d="M75.3508 173.066C74.8741 171.363 69.524 171.373 63.4011 173.088C57.2781 174.803 52.7009 177.573 53.1776 179.275C53.6543 180.978 59.0044 180.968 65.1274 179.253C71.2504 177.538 75.8276 174.768 75.3508 173.066Z" fill="white"/>
<path d="M69.3669 178.016C67.0296 178.972 64.276 179.793 61.5507 180.286C57.1188 181.088 53.887 180.837 53.117 179.632C52.9134 179.314 52.7842 178.773 53.3246 178.003C54.8666 175.805 60.9915 173.137 66.9778 172.055C71.4096 171.254 74.6414 171.504 75.4117 172.709C75.6152 173.027 75.7445 173.568 75.2041 174.338C74.364 175.535 72.164 176.872 69.3673 178.016L69.3669 178.016ZM59.2676 174.708C56.5681 175.812 54.4562 177.091 53.654 178.234C53.3232 178.706 53.2566 179.103 53.4561 179.415C54.0052 180.274 56.699 180.754 61.4788 179.89C67.3754 178.824 73.3843 176.23 74.874 174.107C75.2049 173.635 75.2715 173.238 75.072 172.926C74.5228 172.067 71.829 171.587 67.049 172.451C64.3276 172.943 61.5816 173.761 59.2676 174.708Z" fill="#111111"/>
<path d="M73.6824 129.645C73.2541 126.775 69.713 125.379 66.7842 125.865C60.2218 127.443 59.0436 137.128 59.5156 145.275L59.9209 149.749C60.9175 158.009 63.2977 167.218 66.1409 175.538C65.7847 176.406 62.3718 177.181 61.9874 176.477C58.7434 166.983 56.6236 158.412 55.6562 150.884L55.2145 146.509C54.5135 135.923 55.9757 123.799 65.5537 121.693C70.9461 120.695 77.137 123.984 77.9846 129.258C79.4337 137.768 71.5498 146.718 59.9209 149.749L59.5155 145.275C68.122 142.861 74.7415 135.532 73.6823 129.645" fill="#B0C3FF"/>
<path d="M65.1921 176.458C64.5228 176.732 63.6979 176.912 63.0817 176.946C62.3941 176.984 61.9663 176.858 61.8104 176.573C61.8049 176.563 61.8002 176.552 61.7967 176.541C58.5568 167.06 56.4236 158.436 55.4562 150.909L55.0139 146.528C54.337 136.307 55.6107 123.674 65.5104 121.496C68.5272 120.938 71.8454 121.678 74.3931 123.475C76.4774 124.945 77.8237 126.987 78.1833 129.226C78.8944 133.401 77.4117 137.829 74.0078 141.691C70.652 145.498 65.733 148.409 60.1416 149.898C61.0642 157.409 63.2598 166.485 66.3312 175.473C66.347 175.519 66.3454 175.569 66.3271 175.615C66.1933 175.94 65.7462 176.231 65.1921 176.458ZM62.1707 176.39C62.2274 176.467 62.4688 176.576 63.0596 176.543C64.2025 176.48 65.6369 175.96 65.9225 175.522C62.8343 166.468 60.6323 157.327 59.721 149.773L59.7203 149.767L59.315 145.293C59.3145 145.289 59.3144 145.285 59.3142 145.28C59.121 141.936 59.1398 137.11 60.3184 133.05C61.5274 128.886 63.6874 126.402 66.7371 125.669C68.6411 125.352 70.6945 125.798 72.1101 126.828C73.104 127.551 73.7164 128.514 73.8809 129.612C74.9521 135.582 68.3548 142.937 59.7312 145.424L60.1 149.493C65.5894 148.018 70.4145 145.159 73.7059 141.425C77.0278 137.656 78.4768 133.347 77.7862 129.292C77.4436 127.159 76.1561 125.211 74.1611 123.804C71.7003 122.069 68.4962 121.354 65.5906 121.891C55.976 124.006 54.7498 136.438 55.4158 146.495L55.8568 150.863C56.8193 158.353 58.9437 166.943 62.1708 176.39L62.1707 176.39ZM59.7026 145.012C68.1029 142.556 74.5205 135.44 73.4841 129.68C73.4837 129.678 73.4833 129.676 73.4832 129.674C73.3354 128.684 72.7788 127.812 71.8732 127.153C70.5418 126.184 68.6044 125.767 66.8171 126.063C63.9324 126.758 61.8712 129.147 60.7055 133.162C59.5703 137.072 59.5266 141.717 59.7028 145.012L59.7026 145.012Z" fill="#111111"/>
</g>
<defs>
<linearGradient id="paint0_linear_127_170" x1="5.77309" y1="373.298" x2="220.708" y2="306.813" gradientUnits="userSpaceOnUse">
<stop stop-color="#3658C1"/>
<stop offset="0.385" stop-color="#B0C3FF"/>
<stop offset="0.877" stop-color="#3658C1"/>
</linearGradient>
<clipPath id="clip0_127_170">
<rect width="337.754" height="362.697" fill="white" transform="translate(-138 127.874) rotate(-22.2471)"/>
</clipPath>
</defs>
</svg>
