<svg width="309" height="384" viewBox="0 0 309 384" fill="none" xmlns="http://www.w3.org/2000/svg">
<g clip-path="url(#clip0_127_114)">
<path d="M11.675 247.867C8.89156 246.405 7.44085 244.737 7.61406 243.208L0.292917 307.894C0.119961 309.423 1.57042 311.092 4.35386 312.553C6.09571 313.435 7.92451 314.133 9.8108 314.638L17.1322 249.952C15.2458 249.447 13.4169 248.749 11.675 247.867Z" fill="#3658C1"/>
<path d="M9.81068 314.89C9.78776 314.89 9.76494 314.887 9.74286 314.88C7.83948 314.372 5.99418 313.667 4.23675 312.776C1.34541 311.258 -0.143878 309.514 0.042441 307.866L7.36383 243.18C7.37136 243.113 7.40499 243.053 7.45733 243.011C7.50967 242.969 7.57643 242.95 7.64293 242.958C7.70943 242.965 7.77022 242.999 7.81192 243.051C7.85362 243.103 7.87283 243.17 7.8653 243.237C7.70596 244.643 9.13752 246.25 11.7929 247.644C13.5189 248.518 15.3311 249.21 17.2004 249.709C17.2581 249.725 17.3082 249.761 17.3417 249.811C17.3752 249.86 17.3899 249.92 17.3832 249.98L10.0615 314.666C10.0545 314.728 10.0251 314.785 9.9789 314.826C9.93268 314.867 9.87263 314.89 9.81068 314.89ZM7.69008 244.78L0.543661 307.923C0.384572 309.329 1.81612 310.936 4.47123 312.33C6.10797 313.161 7.82403 313.826 9.59361 314.314L16.8578 250.136C15.0266 249.635 13.2509 248.95 11.5581 248.09C9.59134 247.058 8.27349 245.921 7.69008 244.78Z" fill="#111111"/>
<path d="M403.283 242.55L281.521 316.943L274.199 381.629L395.962 307.236C397.118 306.53 397.718 305.721 397.815 304.868L405.136 240.182C405.04 241.035 404.439 241.844 403.283 242.55Z" fill="url(#paint0_linear_127_114)"/>
<path d="M274.2 381.882C274.164 381.882 274.129 381.874 274.097 381.86C274.064 381.845 274.035 381.824 274.012 381.798C273.988 381.771 273.97 381.74 273.96 381.706C273.949 381.672 273.945 381.637 273.949 381.601L281.271 316.915C281.275 316.877 281.288 316.841 281.308 316.808C281.329 316.776 281.357 316.749 281.389 316.729L403.152 242.335C404.211 241.687 404.795 240.954 404.886 240.154C404.893 240.088 404.927 240.027 404.979 239.985C405.031 239.944 405.098 239.925 405.165 239.932C405.231 239.939 405.292 239.973 405.334 240.025C405.375 240.078 405.394 240.144 405.387 240.211V240.212L398.066 304.897C397.957 305.859 397.293 306.718 396.094 307.451L274.331 381.844C274.292 381.869 274.246 381.882 274.2 381.882ZM281.757 317.095L274.508 381.146L395.83 307.021C396.888 306.374 397.473 305.64 397.564 304.84L404.71 241.696C404.338 242.119 403.9 242.48 403.414 242.765L281.757 317.095Z" fill="#111111"/>
<path d="M258.212 317.39L250.891 382.076L9.81079 314.638L17.1322 249.952L258.212 317.39Z" fill="#B0C3FF"/>
<path d="M250.891 382.329C250.868 382.329 250.845 382.326 250.823 382.319L9.74345 314.881C9.68575 314.865 9.63567 314.829 9.60218 314.779C9.56868 314.73 9.55397 314.67 9.56066 314.61L16.8813 249.924C16.8854 249.887 16.8973 249.852 16.9163 249.821C16.9352 249.79 16.9607 249.763 16.991 249.743C17.0213 249.722 17.0557 249.709 17.0918 249.703C17.1279 249.697 17.1648 249.699 17.2 249.709L258.28 317.147C258.337 317.163 258.388 317.199 258.421 317.249C258.455 317.299 258.469 317.359 258.463 317.418L251.141 382.105C251.134 382.167 251.105 382.223 251.059 382.265C251.012 382.306 250.952 382.329 250.891 382.329H250.891ZM10.0866 314.453L250.675 381.754L257.939 317.575L17.3492 250.274L10.0866 314.453Z" fill="#111111"/>
<path d="M151.25 316.231L25.9603 281.183C23.601 280.523 21.4665 281.986 21.1869 284.455C20.9083 286.917 22.5902 289.454 24.9496 290.114L150.242 325.162C152.596 325.821 154.737 324.353 155.015 321.891C155.294 319.421 153.606 316.89 151.252 316.231" fill="white"/>
<path d="M151.365 325.572C150.962 325.571 150.561 325.515 150.173 325.405L24.8829 290.357C22.4157 289.667 20.6458 287.005 20.9375 284.427C20.989 283.829 21.1717 283.249 21.4726 282.73C21.7736 282.21 22.1853 281.763 22.6786 281.421C23.1677 281.1 23.7215 280.89 24.3007 280.808C24.8798 280.725 25.4701 280.771 26.0296 280.942L151.319 315.99C153.787 316.68 155.557 319.342 155.265 321.92C155.213 322.518 155.03 323.097 154.728 323.616C154.427 324.135 154.015 324.582 153.522 324.924C152.884 325.351 152.133 325.577 151.365 325.572ZM24.8358 281.277C24.1688 281.272 23.5157 281.468 22.9615 281.839C22.5292 282.141 22.1687 282.534 21.9058 282.991C21.6429 283.449 21.4839 283.958 21.4402 284.483C21.1747 286.827 22.7805 289.245 25.0203 289.871L150.31 324.92C150.799 325.07 151.316 325.111 151.822 325.039C152.329 324.967 152.814 324.785 153.242 324.504C153.674 324.203 154.035 323.81 154.298 323.353C154.561 322.897 154.721 322.388 154.765 321.863C155.03 319.519 153.425 317.1 151.185 316.474L25.8947 281.426C25.5502 281.328 25.1939 281.278 24.8358 281.277Z" fill="#111111"/>
<path d="M184.534 321.994C180.36 320.826 176.576 323.419 176.082 327.786C175.588 332.152 178.572 336.631 182.745 337.799C186.918 338.968 190.696 336.378 191.191 332.012C191.686 327.646 188.708 323.161 184.535 321.994" fill="white"/>
<path d="M184.741 338.332C184.043 338.329 183.349 338.231 182.677 338.041C178.396 336.843 175.325 332.229 175.831 327.756C176.082 325.548 177.147 323.708 178.83 322.575C180.482 321.463 182.532 321.17 184.602 321.75C188.88 322.946 191.948 327.562 191.441 332.039C191.191 334.246 190.127 336.086 188.445 337.218C187.35 337.952 186.06 338.34 184.741 338.332ZM182.541 321.964C181.321 321.955 180.126 322.314 179.113 322.993C177.553 324.042 176.566 325.754 176.333 327.813C175.854 332.051 178.761 336.422 182.813 337.556C184.739 338.094 186.639 337.826 188.164 336.8C189.721 335.751 190.707 334.041 190.94 331.982C191.419 327.74 188.516 323.368 184.466 322.235C183.84 322.057 183.192 321.966 182.541 321.964Z" fill="#111111"/>
<path d="M212.352 329.774C208.184 328.608 204.4 331.201 203.906 335.568C203.412 339.934 206.395 344.413 210.562 345.58C214.736 346.748 218.519 344.16 219.013 339.794C219.507 335.428 216.524 330.942 212.351 329.774" fill="#3658C1"/>
<path d="M212.56 346.114C211.862 346.111 211.167 346.013 210.495 345.823C206.217 344.626 203.148 340.013 203.655 335.539C203.905 333.331 204.97 331.491 206.655 330.357C208.305 329.246 210.353 328.953 212.42 329.531C216.701 330.729 219.771 335.345 219.264 339.822C219.015 342.028 217.951 343.866 216.269 344.998C215.173 345.734 213.88 346.122 212.56 346.114ZM210.363 329.746C209.144 329.738 207.95 330.096 206.937 330.775C205.376 331.825 204.389 333.537 204.156 335.596C203.677 339.834 206.581 344.205 210.631 345.337C212.559 345.877 214.461 345.608 215.987 344.581C217.545 343.533 218.53 341.823 218.763 339.767C219.242 335.525 216.337 331.151 212.284 330.018C211.659 329.84 211.013 329.749 210.363 329.746Z" fill="#111111"/>
<path d="M240.176 337.557C236.002 336.39 232.218 338.983 231.724 343.349C231.23 347.715 234.213 352.195 238.387 353.363C242.56 354.532 246.338 351.942 246.833 347.576C247.328 343.209 244.35 338.725 240.177 337.557" fill="#3658C1"/>
<path d="M240.383 353.897C239.685 353.894 238.99 353.796 238.319 353.606C234.038 352.408 230.967 347.795 231.473 343.321C231.723 341.113 232.788 339.273 234.472 338.14C236.123 337.028 238.172 336.735 240.244 337.314C244.521 338.511 247.589 343.127 247.083 347.604C246.833 349.811 245.769 351.651 244.087 352.783C242.992 353.517 241.701 353.905 240.383 353.897ZM238.183 337.528C236.963 337.52 235.768 337.879 234.754 338.558C233.195 339.608 232.208 341.319 231.975 343.378C231.496 347.616 234.402 351.987 238.454 353.121C240.38 353.659 242.28 353.391 243.805 352.365C245.363 351.316 246.348 349.606 246.581 347.547C247.06 343.306 244.157 338.933 240.108 337.8C239.481 337.622 238.833 337.531 238.182 337.528H238.183Z" fill="#111111"/>
<path d="M395.618 233.439C404.171 235.831 407.603 239.911 403.283 242.55L281.52 316.943C277.201 319.583 266.765 319.783 258.212 317.39L17.1322 249.952C8.57922 247.56 5.14757 243.48 9.4677 240.841L131.23 166.447C135.549 163.807 145.985 163.608 154.538 165.999L395.618 233.439Z" fill="#111111"/>
<path d="M270.615 319.307C266.402 319.303 262.209 318.741 258.145 317.633L17.0648 250.195C11.329 248.59 7.70598 246.202 7.37343 243.805C7.25771 242.973 7.50453 241.745 9.33646 240.626L131.099 166.233C135.464 163.566 146.01 163.353 154.607 165.758L395.687 233.196C401.422 234.801 405.045 237.19 405.378 239.586C405.494 240.418 405.247 241.646 403.415 242.765L281.652 317.158C279.322 318.582 275.231 319.306 270.615 319.307ZM142.104 164.58C137.6 164.58 133.622 165.281 131.361 166.662L9.59867 241.056C8.31486 241.84 7.73296 242.741 7.87188 243.735C8.17165 245.894 11.746 248.183 17.2004 249.709L258.28 317.147C266.761 319.52 277.128 319.331 281.389 316.728L403.152 242.334C404.435 241.55 405.016 240.648 404.878 239.655C404.578 237.495 401.004 235.206 395.55 233.681L154.47 166.243C150.44 165.143 146.281 164.584 142.104 164.58Z" fill="#111111"/>
<path d="M273.937 318.928C268.646 319.313 263.328 318.793 258.213 317.391L250.891 382.077C256.007 383.479 261.325 383.999 266.615 383.614C269.778 383.347 272.476 382.682 274.2 381.63L281.521 316.944C279.797 317.997 277.1 318.662 273.937 318.928Z" fill="#3658C1"/>
<path d="M263.347 383.998C259.117 383.993 254.906 383.428 250.823 382.319C250.766 382.303 250.716 382.267 250.682 382.217C250.649 382.168 250.634 382.108 250.64 382.048L257.962 317.362C257.966 317.326 257.978 317.291 257.997 317.26C258.016 317.229 258.042 317.202 258.072 317.182C258.102 317.161 258.137 317.148 258.173 317.142C258.209 317.136 258.245 317.138 258.281 317.148C263.178 318.518 269.023 319.09 273.915 318.677C277.168 318.403 279.752 317.729 281.389 316.729C281.43 316.704 281.476 316.691 281.523 316.692C281.57 316.692 281.617 316.706 281.656 316.731C281.696 316.757 281.728 316.793 281.748 316.835C281.769 316.878 281.777 316.925 281.771 316.972L274.45 381.658C274.446 381.696 274.433 381.733 274.412 381.765C274.392 381.798 274.364 381.825 274.331 381.845C272.627 382.886 269.966 383.584 266.637 383.865C265.578 383.955 264.475 383.998 263.347 383.998ZM251.166 381.891C256.021 383.22 261.77 383.77 266.594 383.363C269.778 383.095 272.321 382.444 273.963 381.478L281.215 317.408C279.508 318.311 277.015 318.922 273.958 319.179C269.103 319.589 263.323 319.04 258.43 317.712L251.166 381.891Z" fill="#111111"/>
<path d="M20.9606 165.829C18.1769 164.367 16.7264 162.699 16.8994 161.17L9.57824 225.856C9.40579 227.385 10.8558 229.052 13.6392 230.514C15.381 231.396 17.2097 232.094 19.0959 232.598L26.4173 167.914C24.531 167.41 22.7023 166.711 20.9606 165.829Z" fill="#3658C1"/>
<path d="M19.0963 232.851C19.0733 232.851 19.0504 232.848 19.0283 232.842C17.1249 232.333 15.2796 231.628 13.5222 230.738C10.6308 229.22 9.14128 227.476 9.3276 225.826L16.6495 161.141C16.6528 161.109 16.6627 161.077 16.6785 161.048C16.6943 161.019 16.7158 160.993 16.7416 160.972C16.7674 160.952 16.7971 160.936 16.8289 160.927C16.8607 160.918 16.894 160.916 16.9268 160.919C16.9932 160.927 17.054 160.96 17.0957 161.013C17.1374 161.065 17.1566 161.132 17.1492 161.198C16.9899 162.605 18.4214 164.211 21.0765 165.606C22.8025 166.479 24.6148 167.171 26.484 167.671C26.5417 167.687 26.5918 167.723 26.6253 167.772C26.6588 167.822 26.6735 167.882 26.6668 167.941L19.347 232.627C19.34 232.689 19.3106 232.746 19.2644 232.787C19.2182 232.828 19.1583 232.851 19.0963 232.851ZM16.9755 162.742L9.82881 225.884C9.66973 227.291 11.1013 228.897 13.7566 230.292C15.3934 231.123 17.1094 231.787 18.879 232.276L26.1429 168.097C24.3117 167.597 22.536 166.911 20.8433 166.052C18.8767 165.019 17.5589 163.882 16.9755 162.742V162.742Z" fill="#111111"/>
<path d="M412.569 160.512L290.806 234.905L283.485 299.591L405.247 225.198C406.403 224.492 407.004 223.683 407.1 222.83L414.422 158.144C414.325 158.996 413.724 159.806 412.569 160.512Z" fill="url(#paint1_linear_127_114)"/>
<path d="M283.485 299.843C283.449 299.843 283.414 299.836 283.382 299.821C283.35 299.807 283.321 299.786 283.297 299.759C283.273 299.733 283.256 299.701 283.245 299.668C283.234 299.634 283.231 299.598 283.234 299.563L290.556 234.877C290.56 234.839 290.573 234.802 290.594 234.77C290.614 234.737 290.642 234.71 290.675 234.69L412.437 160.297C413.496 159.649 414.081 158.915 414.171 158.116C414.174 158.082 414.184 158.05 414.2 158.02C414.215 157.991 414.237 157.965 414.263 157.944C414.289 157.922 414.319 157.907 414.351 157.897C414.383 157.888 414.417 157.885 414.45 157.889C414.484 157.892 414.516 157.903 414.545 157.919C414.575 157.935 414.6 157.957 414.621 157.984C414.642 158.01 414.657 158.041 414.666 158.073C414.674 158.105 414.677 158.139 414.672 158.172V158.174L407.351 222.858C407.242 223.82 406.578 224.68 405.379 225.412L283.616 299.806C283.577 299.83 283.531 299.843 283.485 299.843ZM291.043 235.056L283.793 299.108L405.115 224.983C406.174 224.335 406.758 223.601 406.849 222.802L413.996 159.657C413.623 160.081 413.186 160.442 412.699 160.727L291.043 235.056Z" fill="#111111"/>
<path d="M267.498 235.352L260.176 300.038L19.0959 232.599L26.4173 167.913L267.498 235.352Z" fill="#B0C3FF"/>
<path d="M260.176 300.29C260.153 300.29 260.131 300.287 260.108 300.281L19.0286 232.843C18.9709 232.827 18.9208 232.791 18.8873 232.741C18.8538 232.691 18.8391 232.632 18.8458 232.572L26.1675 167.886C26.1716 167.85 26.1835 167.815 26.2024 167.784C26.2213 167.753 26.2468 167.726 26.277 167.705C26.3073 167.685 26.3416 167.671 26.3776 167.666C26.4136 167.66 26.4505 167.662 26.4856 167.672L267.565 235.11C267.623 235.126 267.673 235.162 267.707 235.212C267.74 235.261 267.755 235.321 267.748 235.381L260.427 300.067C260.42 300.128 260.39 300.185 260.344 300.226C260.298 300.268 260.238 300.29 260.176 300.29L260.176 300.29ZM19.3707 232.415L259.959 299.716L267.223 235.537L26.6344 168.236L19.3707 232.415Z" fill="#111111"/>
<path d="M160.537 234.193L35.247 199.145C32.8877 198.485 30.7529 199.948 30.4736 202.417C30.1947 204.879 31.8769 207.416 34.2363 208.076L159.526 243.124C161.88 243.782 164.021 242.315 164.3 239.852C164.579 237.383 162.89 234.852 160.537 234.193Z" fill="white"/>
<path d="M160.65 243.534C160.247 243.533 159.846 243.476 159.458 243.366L34.1681 208.318C31.7008 207.628 29.9309 204.968 30.2226 202.388C30.2742 201.79 30.4569 201.211 30.7579 200.691C31.0588 200.171 31.4705 199.725 31.9638 199.382C32.4529 199.061 33.0068 198.852 33.586 198.769C34.1652 198.686 34.7555 198.732 35.315 198.903L160.604 233.95C163.071 234.641 164.841 237.302 164.549 239.881C164.497 240.479 164.314 241.058 164.013 241.577C163.711 242.096 163.299 242.542 162.806 242.884C162.169 243.312 161.417 243.538 160.65 243.534ZM34.1199 199.239C33.4529 199.234 32.7997 199.43 32.2454 199.801C31.813 200.103 31.4524 200.497 31.1895 200.955C30.9266 201.412 30.7677 201.922 30.7241 202.447C30.4586 204.791 32.0646 207.209 34.3042 207.835L159.594 242.883C160.083 243.034 160.6 243.074 161.106 243.003C161.613 242.931 162.098 242.748 162.526 242.468C162.958 242.167 163.319 241.774 163.582 241.317C163.845 240.86 164.005 240.352 164.049 239.826C164.314 237.483 162.709 235.063 160.469 234.438L35.1791 199.388C34.8345 199.29 34.4781 199.24 34.1199 199.239Z" fill="#111111"/>
<path d="M193.819 239.954C189.646 238.786 185.862 241.379 185.367 245.746C184.873 250.112 187.857 254.591 192.03 255.76C196.204 256.928 199.982 254.338 200.476 249.972C200.971 245.606 197.994 241.121 193.82 239.954" fill="white"/>
<path d="M194.026 256.294C193.328 256.292 192.634 256.194 191.962 256.004C187.681 254.806 184.611 250.193 185.117 245.719C185.367 243.511 186.432 241.671 188.116 240.538C189.767 239.426 191.817 239.133 193.887 239.712C198.165 240.909 201.233 245.525 200.726 250.002C200.476 252.209 199.412 254.049 197.731 255.181C196.636 255.915 195.345 256.303 194.026 256.294ZM191.827 239.926C190.606 239.918 189.412 240.277 188.398 240.956C186.838 242.005 185.851 243.717 185.618 245.775C185.139 250.014 188.046 254.385 192.098 255.519C194.024 256.057 195.924 255.789 197.449 254.763C199.006 253.714 199.992 252.003 200.225 249.945C200.704 245.703 197.801 241.331 193.751 240.198C193.125 240.02 192.478 239.928 191.827 239.925V239.926Z" fill="#111111"/>
<path d="M221.637 247.736C217.469 246.57 213.685 249.163 213.191 253.529C212.697 257.896 215.681 262.375 219.849 263.542C224.022 264.709 227.805 262.122 228.299 257.756C228.794 253.389 225.811 248.903 221.637 247.736Z" fill="#3658C1"/>
<path d="M221.846 264.075C221.147 264.073 220.452 263.975 219.78 263.784C215.502 262.588 212.434 257.974 212.94 253.501C213.19 251.293 214.256 249.452 215.941 248.318C217.591 247.208 219.639 246.914 221.706 247.493C225.986 248.69 229.057 253.307 228.55 257.784C228.301 259.989 227.237 261.828 225.555 262.96C224.458 263.695 223.166 264.084 221.846 264.075ZM219.649 247.707C218.429 247.699 217.235 248.058 216.222 248.736C214.662 249.786 213.675 251.498 213.442 253.557C212.963 257.796 215.867 262.166 219.916 263.299C221.844 263.838 223.746 263.569 225.273 262.543C226.83 261.495 227.816 259.785 228.049 257.728C228.528 253.486 225.622 249.113 221.569 247.979C220.944 247.802 220.298 247.71 219.649 247.707Z" fill="#111111"/>
<path d="M249.461 255.519C245.287 254.351 241.503 256.944 241.009 261.311C240.515 265.677 243.498 270.156 247.672 271.325C251.846 272.493 255.623 269.904 256.118 265.537C256.613 261.171 253.635 256.686 249.462 255.519" fill="white"/>
<path d="M249.668 271.858C248.97 271.856 248.276 271.758 247.604 271.568C243.323 270.37 240.252 265.756 240.758 261.283C241.008 259.075 242.074 257.235 243.759 256.101C245.41 254.99 247.458 254.697 249.53 255.276C253.808 256.473 256.876 261.088 256.369 265.565C256.119 267.773 255.055 269.612 253.373 270.744C252.278 271.479 250.987 271.867 249.668 271.858ZM247.468 255.49C246.248 255.482 245.053 255.84 244.039 256.52C242.48 257.569 241.493 259.281 241.26 261.339C240.781 265.578 243.687 269.948 247.739 271.082C249.665 271.621 251.565 271.352 253.09 270.326C254.647 269.278 255.633 267.567 255.866 265.509C256.345 261.267 253.442 256.894 249.392 255.761C248.766 255.584 248.119 255.492 247.468 255.49Z" fill="#111111"/>
<path d="M404.904 151.401C413.457 153.793 416.889 157.872 412.568 160.512L290.806 234.905C286.486 237.545 276.051 237.744 267.498 235.352L26.4179 167.914C17.8649 165.521 14.4332 161.442 18.7533 158.803L140.516 84.4092C144.836 81.7699 155.271 81.5698 163.824 83.9624L404.904 151.401Z" fill="#111111"/>
<path d="M279.9 237.268C275.688 237.265 271.494 236.702 267.43 235.594L26.3501 168.156C20.6146 166.552 16.9916 164.163 16.6588 161.766C16.5433 160.935 16.7899 159.707 18.622 158.587L140.384 84.1936C144.749 81.5269 155.294 81.3139 163.891 83.7191L404.971 151.157C410.707 152.762 414.33 155.15 414.663 157.547C414.778 158.379 414.531 159.607 412.699 160.726L290.937 235.119C288.608 236.544 284.516 237.268 279.9 237.268ZM151.389 82.5412C146.885 82.5412 142.907 83.2423 140.647 84.6236L18.8842 159.019C17.6004 159.803 17.0185 160.704 17.1575 161.698C17.4572 163.857 21.0313 166.146 26.486 167.672L267.566 235.11C276.047 237.482 286.413 237.294 290.675 234.691L412.437 160.297C413.721 159.513 414.303 158.611 414.164 157.618C413.864 155.459 410.29 153.169 404.835 151.645L163.755 84.207C159.725 83.1068 155.567 82.5466 151.389 82.5412Z" fill="#111111"/>
<path d="M283.222 236.89C277.931 237.274 272.614 236.755 267.498 235.352L260.177 300.038C265.292 301.44 270.61 301.96 275.901 301.576C279.064 301.309 281.761 300.643 283.485 299.591L290.806 234.905C289.083 235.958 286.385 236.623 283.222 236.89Z" fill="#3658C1"/>
<path d="M272.632 301.96C268.402 301.954 264.191 301.39 260.109 300.281C260.051 300.265 260.001 300.228 259.968 300.179C259.934 300.129 259.92 300.069 259.926 300.01L267.247 235.324C267.251 235.288 267.263 235.253 267.282 235.221C267.301 235.19 267.327 235.163 267.357 235.143C267.387 235.123 267.422 235.109 267.458 235.103C267.494 235.097 267.531 235.1 267.566 235.109C272.463 236.48 278.308 237.051 283.201 236.639C286.453 236.365 289.037 235.691 290.675 234.69C290.715 234.666 290.762 234.653 290.809 234.653C290.856 234.654 290.902 234.667 290.942 234.693C290.982 234.718 291.014 234.754 291.034 234.797C291.054 234.839 291.062 234.887 291.057 234.934L283.735 299.62C283.731 299.658 283.718 299.695 283.697 299.727C283.677 299.759 283.649 299.786 283.616 299.807C281.913 300.848 279.252 301.545 275.922 301.827C274.863 301.916 273.76 301.96 272.632 301.96ZM260.452 299.853C265.306 301.181 271.056 301.732 275.879 301.325C279.063 301.056 281.606 300.405 283.248 299.439L290.5 235.369C288.793 236.273 286.3 236.883 283.243 237.141C278.389 237.55 272.609 237.002 267.715 235.673L260.452 299.853Z" fill="#111111"/>
<path d="M30.2458 83.7903C27.4624 82.3286 26.0117 80.6605 26.1849 79.1313L18.8635 143.817C18.6905 145.347 20.141 147.015 22.9244 148.477C24.6663 149.358 26.4951 150.057 28.3814 150.561L35.7022 85.8749C33.8161 85.3707 31.9875 84.6721 30.2458 83.7903Z" fill="#3658C1"/>
<path d="M28.3815 150.813C28.3585 150.813 28.3356 150.81 28.3135 150.803C26.4101 150.295 24.5648 149.59 22.8073 148.699C19.9163 147.181 18.4265 145.437 18.613 143.789L25.9347 79.103C25.9381 79.07 25.948 79.0381 25.9639 79.009C25.9799 78.9799 26.0014 78.9542 26.0274 78.9336C26.0533 78.9129 26.0831 78.8976 26.115 78.8886C26.1469 78.8795 26.1803 78.877 26.2133 78.881C26.2462 78.8847 26.278 78.8948 26.307 78.9109C26.336 78.9269 26.3616 78.9484 26.3822 78.9743C26.4029 79.0002 26.4182 79.0299 26.4274 79.0617C26.4366 79.0935 26.4394 79.1268 26.4356 79.1597C26.2763 80.5664 27.7079 82.173 30.3632 83.5671C32.0892 84.4409 33.9015 85.133 35.7707 85.6321C35.8284 85.6482 35.8785 85.6843 35.912 85.7339C35.9455 85.7836 35.9602 85.8435 35.9535 85.903L28.6321 150.589C28.6251 150.651 28.5957 150.708 28.5495 150.749C28.5033 150.79 28.4435 150.813 28.3815 150.813ZM26.2609 80.7035L19.114 143.846C18.9549 145.252 20.3865 146.859 23.0418 148.253C24.6786 149.084 26.3946 149.749 28.1642 150.237L35.4284 86.059C33.5972 85.558 31.8215 84.8727 30.1287 84.0134C28.1622 82.9807 26.8441 81.8436 26.2609 80.7033V80.7035Z" fill="#111111"/>
<path d="M421.854 78.4734L300.091 152.867L292.77 217.553L414.532 143.159C415.688 142.454 416.289 141.644 416.385 140.792L423.707 76.1057C423.611 76.9583 423.01 77.7672 421.854 78.4734Z" fill="url(#paint2_linear_127_114)"/>
<path d="M292.77 217.805C292.735 217.805 292.699 217.797 292.667 217.783C292.635 217.768 292.606 217.747 292.582 217.721C292.558 217.694 292.541 217.663 292.53 217.629C292.519 217.595 292.516 217.56 292.52 217.524L299.841 152.838C299.845 152.8 299.858 152.764 299.879 152.731C299.899 152.699 299.927 152.672 299.96 152.652L421.723 78.2582C422.781 77.6106 423.366 76.8767 423.456 76.0773C423.465 76.012 423.499 75.9526 423.551 75.912C423.603 75.8714 423.669 75.8528 423.734 75.8602C423.8 75.8676 423.86 75.9004 423.902 75.9515C423.943 76.0027 423.963 76.0681 423.957 76.1338V76.1353L416.636 140.82C416.527 141.782 415.864 142.641 414.664 143.374L292.902 217.767C292.862 217.792 292.817 217.805 292.77 217.805ZM300.328 153.018L293.079 217.069L414.4 142.944C415.459 142.297 416.043 141.563 416.134 140.763L423.282 77.6191C422.91 78.0424 422.472 78.4034 421.985 78.6884L300.328 153.018Z" fill="#111111"/>
<path d="M276.783 153.313L269.462 218L28.3813 150.561L35.7027 85.8748L276.783 153.313Z" fill="#B0C3FF"/>
<path d="M269.462 218.252C269.439 218.252 269.416 218.249 269.394 218.242L28.314 150.804C28.2564 150.788 28.2063 150.752 28.1729 150.703C28.1394 150.653 28.1248 150.593 28.1315 150.534L35.4529 85.8476C35.457 85.8113 35.4689 85.7763 35.4878 85.7451C35.5067 85.7139 35.5322 85.6872 35.5625 85.6668C35.5928 85.6464 35.6272 85.6328 35.6632 85.627C35.6992 85.6212 35.7361 85.6233 35.7713 85.6331L276.851 153.071C276.909 153.087 276.959 153.123 276.992 153.173C277.026 153.223 277.041 153.283 277.034 153.342L269.712 218.028C269.705 218.09 269.676 218.147 269.63 218.188C269.584 218.229 269.524 218.252 269.462 218.252ZM28.6561 150.376L269.245 217.677L276.508 153.498L35.9198 86.1973L28.6561 150.376Z" fill="#111111"/>
<path d="M169.822 152.154L44.5324 117.107C42.1728 116.447 40.0383 117.909 39.7587 120.378C39.4814 122.84 41.162 125.377 43.5214 126.037L168.811 161.085C171.165 161.743 173.306 160.276 173.585 157.814C173.864 155.344 172.176 152.813 169.822 152.154Z" fill="white"/>
<path d="M169.935 161.496C169.532 161.494 169.131 161.438 168.743 161.328L43.4535 126.28C40.9863 125.59 39.2164 122.929 39.5083 120.35C39.5598 119.752 39.7424 119.172 40.0432 118.653C40.3441 118.133 40.7557 117.686 41.249 117.344C41.738 117.023 42.2918 116.813 42.871 116.73C43.4502 116.648 44.0405 116.694 44.5999 116.865L169.89 151.912C172.357 152.602 174.127 155.264 173.835 157.842C173.783 158.44 173.6 159.019 173.299 159.538C172.998 160.057 172.586 160.504 172.093 160.846C171.455 161.274 170.703 161.5 169.935 161.496ZM43.4054 117.2C42.7383 117.195 42.0851 117.391 41.5308 117.762C41.0984 118.064 40.7379 118.458 40.475 118.915C40.212 119.372 40.0531 119.882 40.0095 120.408C39.7441 122.751 41.3501 125.169 43.5897 125.796L168.88 160.844C169.369 160.994 169.885 161.035 170.392 160.963C170.898 160.891 171.383 160.709 171.811 160.429C172.244 160.127 172.604 159.734 172.867 159.278C173.131 158.821 173.29 158.312 173.334 157.787C173.6 155.443 171.994 153.024 169.754 152.398L44.4643 117.349C44.1198 117.252 43.7635 117.201 43.4054 117.2Z" fill="#111111"/>
<path d="M203.105 157.916C198.931 156.748 195.147 159.341 194.653 163.707C194.158 168.074 197.142 172.553 201.315 173.722C205.489 174.89 209.267 172.3 209.762 167.934C210.257 163.567 207.279 159.083 203.106 157.916" fill="#3658C1"/>
<path d="M203.312 174.255C202.614 174.252 201.919 174.155 201.248 173.964C196.967 172.767 193.896 168.153 194.402 163.679C194.652 161.472 195.717 159.632 197.401 158.498C199.052 157.387 201.102 157.094 203.172 157.673C207.45 158.869 210.518 163.485 210.012 167.962C209.762 170.17 208.698 172.009 207.016 173.141C205.921 173.875 204.63 174.263 203.312 174.255ZM201.112 157.887C199.891 157.878 198.697 158.237 197.683 158.916C196.124 159.966 195.136 161.678 194.903 163.736C194.424 167.974 197.331 172.345 201.383 173.479C203.309 174.018 205.209 173.749 206.734 172.723C208.291 171.675 209.277 169.964 209.51 167.906C209.989 163.664 207.086 159.291 203.036 158.158C202.41 157.981 201.763 157.889 201.112 157.887Z" fill="#111111"/>
<path d="M230.923 165.697C226.755 164.531 222.97 167.124 222.477 171.491C221.983 175.857 224.966 180.336 229.133 181.503C233.306 182.67 237.089 180.083 237.584 175.717C238.078 171.35 235.095 166.864 230.922 165.697" fill="#3658C1"/>
<path d="M231.131 182.037C230.432 182.034 229.738 181.936 229.066 181.746C224.788 180.549 221.719 175.936 222.225 171.462C222.476 169.254 223.541 167.414 225.226 166.28C226.876 165.169 228.924 164.876 230.991 165.454C235.272 166.652 238.342 171.268 237.835 175.745C237.586 177.951 236.522 179.789 234.84 180.921C233.744 181.656 232.451 182.045 231.131 182.037ZM228.934 165.669C227.714 165.661 226.52 166.019 225.507 166.698C223.947 167.748 222.961 169.46 222.727 171.519C222.248 175.757 225.152 180.127 229.201 181.26C231.129 181.799 233.031 181.53 234.558 180.504C236.115 179.456 237.101 177.746 237.334 175.691C237.813 171.449 234.908 167.076 230.854 165.942C230.23 165.764 229.584 165.672 228.934 165.669Z" fill="#111111"/>
<path d="M258.746 173.48C254.573 172.313 250.789 174.906 250.294 179.272C249.8 183.639 252.784 188.118 256.957 189.287C261.131 190.455 264.909 187.865 265.403 183.499C265.898 179.133 262.921 174.648 258.747 173.48" fill="white"/>
<path d="M258.953 189.82C258.255 189.817 257.561 189.72 256.889 189.529C252.608 188.332 249.537 183.718 250.044 179.244C250.293 177.037 251.359 175.196 253.043 174.063C254.694 172.952 256.743 172.658 258.814 173.238C263.092 174.434 266.16 179.05 265.653 183.527C265.403 185.735 264.339 187.574 262.658 188.706C261.562 189.44 260.272 189.828 258.953 189.82ZM256.754 173.452C255.533 173.443 254.339 173.802 253.325 174.481C251.765 175.531 250.778 177.242 250.546 179.301C250.067 183.539 252.973 187.91 257.025 189.044C258.95 189.582 260.851 189.314 262.376 188.288C263.933 187.24 264.919 185.529 265.152 183.47C265.631 179.228 262.728 174.856 258.678 173.723C258.052 173.545 257.404 173.454 256.754 173.452Z" fill="#111111"/>
<path d="M414.189 69.3621C422.742 71.7547 426.174 75.834 421.853 78.4733L300.091 152.867C295.771 155.506 285.336 155.706 276.783 153.313L35.703 85.8754C27.15 83.4828 23.7184 79.4037 28.0385 76.7644L149.8 2.36898C154.12 -0.269064 164.556 -0.46916 173.109 1.92343L414.189 69.3621Z" fill="white"/>
<path d="M289.187 155.23C284.974 155.227 280.781 154.664 276.716 153.556L35.6366 86.1182C29.9008 84.5137 26.2778 82.1249 25.9452 79.7283C25.8295 78.8966 26.0763 77.6688 27.9082 76.5494L149.669 2.15521C154.034 -0.511567 164.579 -0.724264 173.177 1.68067L414.257 69.1186C419.992 70.7232 423.615 73.112 423.948 75.5086C424.064 76.3402 423.817 77.5683 421.985 78.6875L300.222 153.081C297.893 154.505 293.8 155.23 289.187 155.23ZM160.675 0.504035C156.17 0.504035 152.193 1.20513 149.932 2.5864L28.1694 76.9799C26.8856 77.7641 26.3037 78.6655 26.4426 79.6592C26.7427 81.8184 30.3168 84.1075 35.7712 85.6319L276.851 153.07C285.332 155.443 295.698 155.254 299.96 152.651L421.722 78.2573C423.006 77.473 423.588 76.5713 423.449 75.5777C423.149 73.4184 419.575 71.1294 414.121 69.6038L173.041 2.1673C169.011 1.06795 164.852 0.508633 160.675 0.504035Z" fill="#111111"/>
<path d="M292.507 154.851C287.217 155.236 281.899 154.716 276.783 153.314L269.462 218C274.578 219.402 279.895 219.922 285.186 219.538C288.349 219.271 291.047 218.605 292.77 217.553L300.092 152.867C298.368 153.92 295.67 154.585 292.507 154.851Z" fill="#3658C1"/>
<path d="M281.918 219.922C277.687 219.916 273.476 219.351 269.394 218.242C269.336 218.226 269.286 218.19 269.253 218.14C269.219 218.091 269.205 218.031 269.212 217.971L276.533 153.285C276.537 153.249 276.549 153.214 276.568 153.183C276.587 153.152 276.612 153.125 276.642 153.105C276.673 153.084 276.707 153.071 276.743 153.065C276.779 153.059 276.816 153.061 276.851 153.071C281.749 154.441 287.593 155.013 292.486 154.6C295.738 154.326 298.322 153.652 299.96 152.652C300 152.627 300.047 152.614 300.094 152.615C300.141 152.615 300.187 152.629 300.227 152.654C300.267 152.68 300.299 152.716 300.319 152.758C300.34 152.801 300.347 152.848 300.342 152.895L293.021 217.581C293.016 217.619 293.003 217.656 292.983 217.688C292.962 217.721 292.934 217.748 292.902 217.768C291.198 218.809 288.537 219.507 285.207 219.789C284.149 219.879 283.046 219.922 281.918 219.922ZM269.737 217.814C274.591 219.143 280.34 219.693 285.165 219.286C288.348 219.018 290.892 218.367 292.534 217.401L299.785 153.331C298.079 154.235 295.585 154.845 292.528 155.103C287.673 155.512 281.894 154.963 277.001 153.635L269.737 217.814Z" fill="#111111"/>
</g>
<defs>
<linearGradient id="paint0_linear_127_114" x1="292.968" y1="308.137" x2="420.467" y2="315.703" gradientUnits="userSpaceOnUse">
<stop stop-color="#B0C3FF"/>
<stop offset="0.716" stop-color="#3658C1"/>
</linearGradient>
<linearGradient id="paint1_linear_127_114" x1="292.879" y1="236.824" x2="422.933" y2="218.355" gradientUnits="userSpaceOnUse">
<stop offset="0.081" stop-color="#B0C3FF"/>
<stop offset="1" stop-color="#3658C1"/>
</linearGradient>
<linearGradient id="paint2_linear_127_114" x1="285.046" y1="151.996" x2="429.793" y2="141.769" gradientUnits="userSpaceOnUse">
<stop offset="0.261" stop-color="#B0C3FF"/>
<stop offset="1" stop-color="#3658C1"/>
</linearGradient>
<clipPath id="clip0_127_114">
<rect width="424" height="384" fill="white"/>
</clipPath>
</defs>
</svg>
