<svg width="234" height="327" viewBox="0 0 234 327" fill="none" xmlns="http://www.w3.org/2000/svg">
<g clip-path="url(#clip0_83_2172)">
<path d="M323.424 145.881C322.929 140.392 321.047 135.574 317.779 131.622L249.294 48.8014C252.166 52.2736 253.819 56.5064 254.254 61.3284C255.479 74.9012 247.054 93.1407 228.981 112.218C215.884 126.044 199.64 138.283 182.687 147.818C155.845 162.915 127.224 171.235 106.503 168.342C94.6021 166.681 86.8925 161.543 83.375 154.023L128.924 251.389C132.928 259.948 141.703 265.797 155.249 267.688C178.835 270.98 211.411 261.51 241.964 244.326C261.261 233.473 279.75 219.542 294.658 203.806C315.229 182.091 324.819 161.33 323.424 145.881Z" fill="url(#paint0_linear_83_2172)"/>
<path d="M164.937 268.768C161.525 268.768 158.269 268.556 155.188 268.127C141.943 266.278 132.723 260.555 128.522 251.577L82.9733 154.211C82.8696 153.989 82.9649 153.725 83.1865 153.621C83.4081 153.518 83.6722 153.613 83.7755 153.835C87.3404 161.455 95.2206 166.319 106.564 167.903C126.385 170.668 154.759 163.017 182.468 147.431C200.032 137.553 216.005 125.271 228.659 111.913C245.901 93.7132 255.069 75.2904 253.812 61.3683C253.381 56.5981 251.748 52.4669 248.957 49.09L248.952 49.0838C248.796 48.8949 248.822 48.6155 249.011 48.4594C249.201 48.3029 249.479 48.33 249.635 48.5184L318.12 131.339C321.424 135.335 323.357 140.214 323.865 145.84C325.319 161.958 314.791 183.197 294.979 204.11C280.512 219.381 262.254 233.422 242.18 244.712C214.759 260.135 186.731 268.767 164.937 268.767L164.937 268.768ZM86.3707 159.381L129.325 251.201C133.392 259.894 142.378 265.443 155.31 267.248C177.884 270.398 210.195 261.685 241.746 243.939C261.744 232.692 279.929 218.708 294.336 203.5C313.972 182.773 324.413 161.784 322.983 145.92C322.491 140.476 320.626 135.76 317.437 131.905L252.859 53.8092C253.837 56.0948 254.452 58.5945 254.695 61.2885C255.975 75.4638 246.719 94.1384 229.302 112.523C216.588 125.945 200.543 138.283 182.904 148.204C155.031 163.881 126.445 171.574 106.442 168.781C97.5734 167.543 90.7538 164.33 86.3707 159.381Z" fill="#111111"/>
<path d="M155.066 0.443481L315.097 16.19L160.474 184.768L0.443115 169.022L155.066 0.443481Z" fill="#B0C3FF"/>
<path d="M160.474 185.211C160.46 185.211 160.445 185.211 160.43 185.209L0.399613 169.463C0.232535 169.447 0.0889445 169.337 0.0286721 169.18C-0.0311571 169.023 0.00252449 168.846 0.116422 168.722L154.739 0.143601C154.833 0.0411639 154.97 -0.0120502 155.109 0.0021402L315.14 15.7482C315.307 15.7646 315.451 15.8741 315.511 16.0311C315.571 16.1881 315.537 16.3655 315.423 16.4892L160.8 185.068C160.716 185.16 160.597 185.211 160.474 185.211H160.474ZM1.36929 168.667L160.297 184.305L314.17 16.5442L155.242 0.906337L1.36929 168.667Z" fill="#111111"/>
<path d="M315.097 16.1899L322.906 28.2075L168.283 196.785L160.474 184.768L315.097 16.1899Z" fill="#3658C1"/>
<path d="M168.283 197.229C168.271 197.229 168.258 197.229 168.246 197.228C168.109 197.216 167.986 197.142 167.911 197.027L160.102 185.01C159.992 184.84 160.011 184.617 160.148 184.468L314.77 15.8897C314.863 15.789 314.994 15.7362 315.133 15.7478C315.27 15.7593 315.393 15.8329 315.468 15.9482L323.277 27.9657C323.387 28.1351 323.368 28.3582 323.232 28.5072L168.608 197.086C168.525 197.177 168.406 197.229 168.282 197.229L168.283 197.229ZM161.033 184.814L168.343 196.064L322.347 28.1609L315.037 16.9109L161.033 184.814Z" fill="#111111"/>
<path d="M160.474 184.768L168.283 196.785L8.25194 181.039L0.443115 169.022L160.474 184.768Z" fill="#3658C1"/>
<path d="M168.283 197.229C168.269 197.229 168.254 197.228 168.239 197.227L8.20857 181.481C8.07428 181.467 7.95374 181.394 7.88017 181.281L0.0717934 169.263C-0.0212743 169.121 -0.0239333 168.937 0.0642594 168.792C0.152452 168.646 0.318644 168.561 0.486166 168.581L160.517 184.327C160.652 184.34 160.772 184.414 160.845 184.527L168.654 196.544C168.747 196.687 168.75 196.871 168.662 197.016C168.581 197.149 168.436 197.229 168.283 197.229ZM8.50727 180.618L167.409 196.254L160.219 185.188L1.31713 169.553L8.50727 180.618Z" fill="#111111"/>
<path d="M84.2463 250.886C83.7787 250.886 83.3874 250.52 83.3621 250.047L79.4036 176.926C79.3908 176.687 79.4741 176.454 79.6354 176.278L156.927 92.0099C157.258 91.6494 157.818 91.6245 158.18 91.9562C158.54 92.2875 158.564 92.8485 158.233 93.2094L81.1936 177.203L85.1317 249.951C85.1583 250.44 84.7834 250.858 84.2946 250.884C84.2782 250.885 84.2622 250.886 84.2458 250.886L84.2463 250.886Z" fill="#111111"/>
<path d="M150.924 91.9367C147.27 95.9202 147.374 99.4399 151.156 99.812C154.939 100.184 160.965 97.2679 164.619 93.2844C168.274 89.2995 168.17 85.7599 164.386 85.3874C160.604 85.0153 154.579 87.9519 150.924 91.9367" fill="#3658C1"/>
<path d="M151.814 100.286C151.573 100.286 151.339 100.276 151.113 100.253C149.094 100.054 148.31 99.0687 148.007 98.2767C147.353 96.565 148.298 94.1446 150.598 91.6369C154.332 87.5651 160.537 84.5617 164.43 84.9461C166.447 85.1443 167.232 86.1328 167.535 86.927C168.192 88.6467 167.248 91.0733 164.945 93.5841C161.437 97.4098 155.727 100.286 151.814 100.286ZM163.703 85.7984C160.036 85.7984 154.619 88.5642 151.251 92.2369C149.216 94.4546 148.313 96.5947 148.835 97.9601C149.222 98.972 150.334 99.2856 151.199 99.3707C154.863 99.729 160.732 96.8656 164.292 92.9846C166.329 90.7638 167.232 88.6179 166.707 87.2441C166.319 86.2286 165.207 85.9142 164.343 85.829C164.136 85.8086 163.922 85.7984 163.703 85.7984Z" fill="#111111"/>
<path d="M88.3907 326.534C83.7019 326.788 78.8965 324.88 78.662 320.556C78.2202 312.398 77.988 277.306 82.0692 265.992C78.9767 264.947 76.6722 262.116 76.4851 258.656C76.2396 254.121 79.715 250.245 84.2474 250C88.7798 249.754 92.6532 253.231 92.8987 257.766C93.0862 261.226 91.1008 264.29 88.1394 265.663C93.4182 276.47 96.9755 311.382 97.417 319.539C97.651 323.864 93.0796 326.28 88.3907 326.534Z" fill="#B0C3FF"/>
<path d="M87.5526 327C85.3363 327 83.2649 326.531 81.6446 325.651C79.5214 324.499 78.3367 322.745 78.2193 320.579C77.7912 312.672 77.5474 278.074 81.5072 266.257C78.3545 265.013 76.2268 262.084 76.0424 258.679C75.784 253.907 79.4535 249.815 84.223 249.556C86.5373 249.431 88.7541 250.213 90.4763 251.759C92.1985 253.305 93.2156 255.43 93.341 257.741C93.5254 261.146 91.7256 264.288 88.7262 265.866C93.9366 277.182 97.4311 311.606 97.8592 319.515C98.1167 324.275 93.1434 326.72 88.4137 326.977C88.1248 326.992 87.8367 327 87.5522 327H87.5526ZM84.7012 250.43C84.5581 250.43 84.4149 250.434 84.2705 250.442C79.9898 250.674 76.6952 254.348 76.9274 258.631C77.1003 261.821 79.1739 264.545 82.211 265.571C82.3236 265.609 82.4166 265.691 82.468 265.798C82.5199 265.906 82.5265 266.029 82.4858 266.142C78.4205 277.413 78.6727 312.565 79.1043 320.531C79.2306 322.859 80.7853 324.177 82.0674 324.872C83.7542 325.788 85.9927 326.22 88.3668 326.092C92.67 325.859 97.1993 323.716 96.9746 319.563C96.5425 311.596 92.9975 276.619 87.741 265.857C87.6887 265.751 87.6816 265.627 87.7215 265.515C87.7614 265.402 87.8447 265.311 87.9524 265.26C90.861 263.912 92.6288 260.98 92.4555 257.79C92.3434 255.715 91.4305 253.808 89.8842 252.42C88.4457 251.128 86.6193 250.431 84.7012 250.431V250.43Z" fill="#111111"/>
<path d="M84.6902 266.372C89.2119 266.372 92.8775 262.704 92.8775 258.179C92.8775 253.655 89.2119 249.987 84.6902 249.987C80.1685 249.987 76.5029 253.655 76.5029 258.179C76.5029 262.704 80.1685 266.372 84.6902 266.372Z" fill="#B0C3FF"/>
<path d="M84.6849 266.815C80.1379 266.815 76.3208 263.243 76.0721 258.646C75.8146 253.891 79.4709 249.814 84.2231 249.556C88.9726 249.295 93.0503 252.958 93.3078 257.712C93.4324 260.015 92.6532 262.23 91.1136 263.947C89.574 265.664 87.4587 266.678 85.1569 266.802C84.9991 266.811 84.8409 266.815 84.6849 266.815ZM84.6942 250.43C84.5537 250.43 84.4128 250.434 84.2705 250.442C80.0071 250.673 76.7263 254.332 76.9572 258.599C77.1876 262.865 80.8301 266.15 85.109 265.917C87.1742 265.805 89.0724 264.895 90.4542 263.354C91.836 261.814 92.5345 259.827 92.4228 257.76C92.1999 253.636 88.7741 250.43 84.6942 250.43Z" fill="#111111"/>
</g>
<defs>
<linearGradient id="paint0_linear_83_2172" x1="125.199" y1="220.648" x2="300.023" y2="113.383" gradientUnits="userSpaceOnUse">
<stop stop-color="#111111"/>
<stop offset="1" stop-color="#3658C1"/>
</linearGradient>
<clipPath id="clip0_83_2172">
<rect width="324" height="327" fill="white"/>
</clipPath>
</defs>
</svg>
