<svg width="20" height="21" viewBox="0 0 20 21" fill="none" xmlns="http://www.w3.org/2000/svg">
<path fill-rule="evenodd" clip-rule="evenodd" d="M7.5253 13.9004L12.4194 9.00635L12.7192 12.3033C12.7481 12.6242 13.0323 12.8606 13.3528 12.8313C13.6741 12.802 13.9101 12.5182 13.8812 12.1973L13.4687 7.66002C13.4654 7.62455 13.4506 7.59402 13.4411 7.56061C13.4336 7.53339 13.4308 7.50658 13.4192 7.48018C13.3903 7.41418 13.3516 7.35314 13.3012 7.30281C13.3008 7.3024 13.3004 7.30116 13.3 7.30075C13.2996 7.30034 13.2984 7.29993 13.2979 7.29951C13.2476 7.24919 13.1866 7.21042 13.1206 7.18154C13.0942 7.16999 13.0674 7.16711 13.0401 7.15968C13.0067 7.1502 12.9762 7.13535 12.9407 7.13205L8.40347 6.71957C8.22363 6.70389 8.05575 6.7703 7.93778 6.88827C7.84456 6.98149 7.78227 7.10647 7.76949 7.24795C7.7402 7.56845 7.97655 7.85265 8.29746 7.88152L11.5944 8.18139L6.70034 13.0755C6.47265 13.3031 6.47265 13.6727 6.70034 13.9004C6.92803 14.1281 7.29761 14.1281 7.5253 13.9004" fill="white"/>
<mask id="mask0_134_125" style="mask-type:luminance" maskUnits="userSpaceOnUse" x="6" y="6" width="8" height="9">
<path fill-rule="evenodd" clip-rule="evenodd" d="M7.5253 13.9004L12.4194 9.00635L12.7192 12.3033C12.7481 12.6242 13.0323 12.8606 13.3528 12.8313C13.6741 12.802 13.9101 12.5182 13.8812 12.1973L13.4687 7.66002C13.4654 7.62455 13.4506 7.59402 13.4411 7.56061C13.4336 7.53339 13.4308 7.50658 13.4192 7.48018C13.3903 7.41418 13.3516 7.35314 13.3012 7.30281C13.3008 7.3024 13.3004 7.30116 13.3 7.30075C13.2996 7.30034 13.2984 7.29993 13.2979 7.29951C13.2476 7.24919 13.1866 7.21042 13.1206 7.18154C13.0942 7.16999 13.0674 7.16711 13.0401 7.15968C13.0067 7.1502 12.9762 7.13535 12.9407 7.13205L8.40347 6.71957C8.22363 6.70389 8.05575 6.7703 7.93778 6.88827C7.84456 6.98149 7.78227 7.10647 7.76949 7.24795C7.7402 7.56845 7.97655 7.85265 8.29746 7.88152L11.5944 8.18139L6.70034 13.0755C6.47265 13.3031 6.47265 13.6727 6.70034 13.9004C6.92803 14.1281 7.29761 14.1281 7.5253 13.9004" fill="white"/>
</mask>
<g mask="url(#mask0_134_125)">
<rect x="0.100586" y="10.6006" width="14" height="14" transform="rotate(-45 0.100586 10.6006)" fill="white"/>
</g>
</svg>
