<svg width="24" height="25" viewBox="0 0 24 25" fill="none" xmlns="http://www.w3.org/2000/svg">
<path fill-rule="evenodd" clip-rule="evenodd" d="M11 5.5V17.365L6.64 13.732C6.216 13.378 5.585 13.436 5.232 13.86C4.878 14.285 4.936 14.915 5.36 15.269L11.36 20.269C11.407 20.308 11.462 20.327 11.514 20.356C11.556 20.38 11.592 20.409 11.638 20.427C11.753 20.472 11.874 20.499 11.996 20.499C11.997 20.499 11.999 20.5 12 20.5C12.001 20.5 12.003 20.499 12.004 20.499C12.126 20.499 12.247 20.472 12.362 20.427C12.408 20.409 12.444 20.38 12.486 20.356C12.538 20.327 12.593 20.308 12.64 20.269L18.64 15.269C18.877 15.07 19 14.786 19 14.5C19 14.274 18.924 14.047 18.768 13.86C18.415 13.436 17.784 13.378 17.36 13.732L13 17.365V5.5C13 4.948 12.552 4.5 12 4.5C11.448 4.5 11 4.948 11 5.5Z" fill="#EAA360"/>
<mask id="mask0_332_370" style="mask-type:luminance" maskUnits="userSpaceOnUse" x="5" y="4" width="14" height="17">
<path fill-rule="evenodd" clip-rule="evenodd" d="M11 5.5V17.365L6.64 13.732C6.216 13.378 5.585 13.436 5.232 13.86C4.878 14.285 4.936 14.915 5.36 15.269L11.36 20.269C11.407 20.308 11.462 20.327 11.514 20.356C11.556 20.38 11.592 20.409 11.638 20.427C11.753 20.472 11.874 20.499 11.996 20.499C11.997 20.499 11.999 20.5 12 20.5C12.001 20.5 12.003 20.499 12.004 20.499C12.126 20.499 12.247 20.472 12.362 20.427C12.408 20.409 12.444 20.38 12.486 20.356C12.538 20.327 12.593 20.308 12.64 20.269L18.64 15.269C18.877 15.07 19 14.786 19 14.5C19 14.274 18.924 14.047 18.768 13.86C18.415 13.436 17.784 13.378 17.36 13.732L13 17.365V5.5C13 4.948 12.552 4.5 12 4.5C11.448 4.5 11 4.948 11 5.5Z" fill="white"/>
</mask>
<g mask="url(#mask0_332_370)">
<rect x="24" y="0.5" width="24" height="24" transform="rotate(90 24 0.5)" fill="#EAA360"/>
</g>
</svg>
