<svg width="34" height="34" viewBox="0 0 34 34" fill="none" xmlns="http://www.w3.org/2000/svg">
<path fill-rule="evenodd" clip-rule="evenodd" d="M12.728 22.6569L21.1178 14.2671L21.6319 19.919C21.6814 20.4691 22.1686 20.8743 22.718 20.8241C23.2688 20.7739 23.6733 20.2874 23.6238 19.7373L22.9167 11.9591C22.911 11.8983 22.8856 11.8459 22.8693 11.7887C22.8566 11.742 22.8516 11.696 22.8318 11.6508C22.7823 11.5376 22.7159 11.433 22.6296 11.3467C22.6289 11.346 22.6282 11.3439 22.6275 11.3432C22.6268 11.3425 22.6246 11.3418 22.6239 11.3411C22.5377 11.2548 22.433 11.1883 22.3199 11.1388C22.2746 11.119 22.2287 11.1141 22.182 11.1014C22.1247 11.0851 22.0724 11.0596 22.0116 11.054L14.2334 10.3469C13.9251 10.32 13.6373 10.4339 13.4351 10.6361C13.2753 10.7959 13.1685 11.0101 13.1466 11.2527C13.0964 11.8021 13.5015 12.2893 14.0517 12.3388L19.7036 12.8529L11.3138 21.2427C10.9234 21.633 10.9234 22.2666 11.3138 22.6569C11.7041 23.0472 12.3377 23.0472 12.728 22.6569Z" fill="#231F20"/>
<mask id="mask0_24_153" style="mask-type:luminance" maskUnits="userSpaceOnUse" x="11" y="10" width="13" height="13">
<path fill-rule="evenodd" clip-rule="evenodd" d="M12.728 22.6569L21.1178 14.2671L21.6319 19.919C21.6814 20.4691 22.1686 20.8743 22.718 20.8241C23.2688 20.7739 23.6733 20.2874 23.6238 19.7373L22.9167 11.9591C22.911 11.8983 22.8856 11.8459 22.8693 11.7887C22.8566 11.742 22.8516 11.696 22.8318 11.6508C22.7823 11.5376 22.7159 11.433 22.6296 11.3467C22.6289 11.346 22.6282 11.3439 22.6275 11.3432C22.6268 11.3425 22.6246 11.3418 22.6239 11.3411C22.5377 11.2548 22.433 11.1883 22.3199 11.1388C22.2746 11.119 22.2287 11.1141 22.182 11.1014C22.1247 11.0851 22.0724 11.0596 22.0116 11.054L14.2334 10.3469C13.9251 10.32 13.6373 10.4339 13.4351 10.6361C13.2753 10.7959 13.1685 11.0101 13.1466 11.2527C13.0964 11.8021 13.5015 12.2893 14.0517 12.3388L19.7036 12.8529L11.3138 21.2427C10.9234 21.633 10.9234 22.2666 11.3138 22.6569C11.7041 23.0472 12.3377 23.0472 12.728 22.6569Z" fill="white"/>
</mask>
<g mask="url(#mask0_24_153)">
<rect y="17" width="24" height="24" transform="rotate(-45 0 17)" fill="#9A9A9A"/>
</g>
</svg>
