<svg width="7" height="6" viewBox="0 0 7 6" fill="none" xmlns="http://www.w3.org/2000/svg">
<path d="M3.48847 5.444C3.04047 5.444 2.61647 5.332 2.21647 5.108C1.81647 4.884 1.49647 4.58 1.25647 4.196C1.03247 3.796 0.920469 3.34 0.920469 2.828C0.920469 2.332 1.03247 1.892 1.25647 1.508C1.49647 1.108 1.81647 0.796 2.21647 0.572C2.61647 0.348 3.04047 0.236 3.48847 0.236C3.96847 0.236 4.40047 0.348 4.78447 0.572C5.18447 0.796 5.49647 1.108 5.72047 1.508C5.96047 1.892 6.08047 2.332 6.08047 2.828C6.08047 3.34 5.96047 3.796 5.72047 4.196C5.49647 4.58 5.18447 4.884 4.78447 5.108C4.40047 5.332 3.96847 5.444 3.48847 5.444Z" fill="#36BA6B"/>
</svg>
