<svg class="gr" width="34" height="34" viewBox="0 0 34 34" fill="none" xmlns="http://www.w3.org/2000/svg">
<path fill-rule="evenodd" clip-rule="evenodd" d="M12.7868 22.6569L21.1766 14.2671L21.6907 19.919C21.7402 20.4691 22.2274 20.8743 22.7768 20.8241C23.3277 20.7739 23.7321 20.2874 23.6826 19.7373L22.9755 11.9591C22.9699 11.8983 22.9444 11.8459 22.9281 11.7887C22.9154 11.742 22.9105 11.696 22.8907 11.6508C22.8412 11.5376 22.7747 11.433 22.6884 11.3467C22.6877 11.346 22.687 11.3439 22.6863 11.3432C22.6856 11.3425 22.6835 11.3418 22.6828 11.3411C22.5965 11.2548 22.4919 11.1883 22.3787 11.1388C22.3335 11.119 22.2875 11.1141 22.2408 11.1014C22.1836 11.0851 22.1312 11.0596 22.0704 11.054L14.2922 10.3469C13.9839 10.32 13.6962 10.4339 13.4939 10.6361C13.3341 10.7959 13.2273 11.0101 13.2054 11.2527C13.1552 11.8021 13.5604 12.2893 14.1105 12.3388L19.7624 12.8529L11.3726 21.2427C10.9823 21.633 10.9823 22.2666 11.3726 22.6569C11.7629 23.0472 12.3965 23.0472 12.7868 22.6569Z" fill="#36BA6B"/>
<mask id="mask0_1_1288" style="mask-type:luminance" maskUnits="userSpaceOnUse" x="11" y="10" width="13" height="13">
<path fill-rule="evenodd" clip-rule="evenodd" d="M12.7868 22.6569L21.1766 14.2671L21.6907 19.919C21.7402 20.4691 22.2274 20.8743 22.7768 20.8241C23.3277 20.7739 23.7321 20.2874 23.6826 19.7373L22.9755 11.9591C22.9699 11.8983 22.9444 11.8459 22.9281 11.7887C22.9154 11.742 22.9105 11.696 22.8907 11.6508C22.8412 11.5376 22.7747 11.433 22.6884 11.3467C22.6877 11.346 22.687 11.3439 22.6863 11.3432C22.6856 11.3425 22.6835 11.3418 22.6828 11.3411C22.5965 11.2548 22.4919 11.1883 22.3787 11.1388C22.3335 11.119 22.2875 11.1141 22.2408 11.1014C22.1836 11.0851 22.1312 11.0596 22.0704 11.054L14.2922 10.3469C13.9839 10.32 13.6962 10.4339 13.4939 10.6361C13.3341 10.7959 13.2273 11.0101 13.2054 11.2527C13.1552 11.8021 13.5604 12.2893 14.1105 12.3388L19.7624 12.8529L11.3726 21.2427C10.9823 21.633 10.9823 22.2666 11.3726 22.6569C11.7629 23.0472 12.3965 23.0472 12.7868 22.6569Z" fill="white"/>
</mask>
<g mask="url(#mask0_1_1288)">
<rect x="0.0588379" y="17" width="24" height="24" transform="rotate(-45 0.0588379 17)" fill="#36BA6B"/>
</g>
</svg>
