<svg width="34" height="34" viewBox="0 0 34 34" fill="none" xmlns="http://www.w3.org/2000/svg">
<path fill-rule="evenodd" clip-rule="evenodd" d="M12.7863 22.6272L21.1761 14.2374L21.6902 19.8893C21.7397 20.4394 22.2269 20.8446 22.7763 20.7944C23.3272 20.7442 23.7316 20.2577 23.6821 19.7076L22.975 11.9294C22.9694 11.8686 22.9439 11.8163 22.9276 11.759C22.9149 11.7123 22.91 11.6664 22.8902 11.6211C22.8407 11.508 22.7742 11.4033 22.6879 11.3171C22.6872 11.3164 22.6865 11.3142 22.6858 11.3135C22.6851 11.3128 22.683 11.3121 22.6823 11.3114C22.596 11.2251 22.4914 11.1587 22.3782 11.1092C22.333 11.0894 22.287 11.0844 22.2403 11.0717C22.1831 11.0554 22.1307 11.03 22.0699 11.0243L14.2918 10.3172C13.9835 10.2903 13.6957 10.4042 13.4934 10.6064C13.3336 10.7662 13.2269 10.9805 13.2049 11.223C13.1547 11.7724 13.5599 12.2596 14.11 12.3091L19.7619 12.8232L11.3721 21.213C10.9818 21.6033 10.9818 22.2369 11.3721 22.6272C11.7624 23.0176 12.396 23.0176 12.7863 22.6272Z" fill="#EAA360"/>
<mask id="mask0_398_306" style="mask-type:luminance" maskUnits="userSpaceOnUse" x="11" y="10" width="13" height="13">
<path fill-rule="evenodd" clip-rule="evenodd" d="M12.7863 22.6272L21.1761 14.2374L21.6902 19.8893C21.7397 20.4394 22.2269 20.8446 22.7763 20.7944C23.3272 20.7442 23.7316 20.2577 23.6821 19.7076L22.975 11.9294C22.9694 11.8686 22.9439 11.8163 22.9276 11.759C22.9149 11.7123 22.91 11.6664 22.8902 11.6211C22.8407 11.508 22.7742 11.4033 22.6879 11.3171C22.6872 11.3164 22.6865 11.3142 22.6858 11.3135C22.6851 11.3128 22.683 11.3121 22.6823 11.3114C22.596 11.2251 22.4914 11.1587 22.3782 11.1092C22.333 11.0894 22.287 11.0844 22.2403 11.0717C22.1831 11.0554 22.1307 11.03 22.0699 11.0243L14.2918 10.3172C13.9835 10.2903 13.6957 10.4042 13.4934 10.6064C13.3336 10.7662 13.2269 10.9805 13.2049 11.223C13.1547 11.7724 13.5599 12.2596 14.11 12.3091L19.7619 12.8232L11.3721 21.213C10.9818 21.6033 10.9818 22.2369 11.3721 22.6272C11.7624 23.0176 12.396 23.0176 12.7863 22.6272Z" fill="white"/>
</mask>
<g mask="url(#mask0_398_306)">
<rect x="0.0585938" y="16.9705" width="24" height="24" transform="rotate(-45 0.0585938 16.9705)" fill="#EAA360"/>
</g>
</svg>
