<svg width="24" height="25" viewBox="0 0 24 25" fill="none" xmlns="http://www.w3.org/2000/svg">
<path fill-rule="evenodd" clip-rule="evenodd" d="M11.9998 15.531C11.7438 15.531 11.4878 15.433 11.2928 15.238L7.29276 11.238C6.90176 10.847 6.90176 10.215 7.29276 9.82401C7.68376 9.43301 8.31576 9.43301 8.70676 9.82401L12.0118 13.129L15.3048 9.94901C15.7038 9.56601 16.3348 9.57701 16.7188 9.97401C17.1028 10.371 17.0918 11.005 16.6948 11.388L12.6948 15.25C12.4998 15.438 12.2498 15.531 11.9998 15.531Z" fill="#231F20"/>
<mask id="mask0_230_393" style="mask-type:luminance" maskUnits="userSpaceOnUse" x="6" y="9" width="11" height="7">
<path fill-rule="evenodd" clip-rule="evenodd" d="M11.9998 15.531C11.7438 15.531 11.4878 15.433 11.2928 15.238L7.29276 11.238C6.90176 10.847 6.90176 10.215 7.29276 9.82401C7.68376 9.43301 8.31576 9.43301 8.70676 9.82401L12.0118 13.129L15.3048 9.94901C15.7038 9.56601 16.3348 9.57701 16.7188 9.97401C17.1028 10.371 17.0918 11.005 16.6948 11.388L12.6948 15.25C12.4998 15.438 12.2498 15.531 11.9998 15.531Z" fill="white"/>
</mask>
<g mask="url(#mask0_230_393)">
<rect y="0.03125" width="24" height="24" fill="#7A87A7"/>
</g>
</svg>
