<svg width="48" height="49" viewBox="0 0 48 49" fill="none" xmlns="http://www.w3.org/2000/svg">
<g id="icons8-facebook 1">
<path id="Vector" d="M24 5.5C18.9609 5.5 14.1282 7.50178 10.565 11.065C7.00178 14.6282 5 19.4609 5 24.5C5 29.5391 7.00178 34.3718 10.565 37.935C14.1282 41.4982 18.9609 43.5 24 43.5C29.0391 43.5 33.8718 41.4982 37.435 37.935C40.9982 34.3718 43 29.5391 43 24.5C43 19.4609 40.9982 14.6282 37.435 11.065C33.8718 7.50178 29.0391 5.5 24 5.5Z" fill="#039BE5"/>
<path id="Vector_2" d="M26.572 29.536H31.489L32.261 24.541H26.571V21.811C26.571 19.736 27.249 17.896 29.19 17.896H32.309V13.537C31.761 13.463 30.602 13.301 28.412 13.301C23.839 13.301 21.158 15.716 21.158 21.218V24.541H16.457V29.536H21.158V43.265C22.089 43.405 23.032 43.5 24 43.5C24.875 43.5 25.729 43.42 26.572 43.306V29.536Z" fill="white"/>
</g>
</svg>
