<svg width="48" height="49" viewBox="0 0 48 49" fill="none" xmlns="http://www.w3.org/2000/svg">
<g id="icons8-instagram 1">
<path id="Vector" d="M41.6699 13.98C41.2699 14.24 40.6999 14.48 40.4599 14.75C40.3699 14.84 40.3199 14.94 40.3399 15.04V16.07L40.0399 17.08L39.7399 18.08L39.4099 19.18L38.7299 21.43L38.0699 23.65L37.5699 25.32C37.5699 25.58 37.5599 25.84 37.5399 26.09C37.4699 27.05 37.2699 27.97 36.9499 28.83C36.7599 29.36 36.5299 29.87 36.2499 30.35C36.1499 30.54 36.0299 30.73 35.9099 30.91C35.5099 31.54 35.0299 32.12 34.4999 32.63C34.0899 33.04 33.6399 33.42 33.1499 33.74C33.1499 33.74 33.1499 33.74 33.1399 33.74C33.0599 33.81 32.9699 33.87 32.8699 33.92C32.5599 34.13 32.2299 34.31 31.8899 34.47C31.6599 34.59 31.4299 34.69 31.1899 34.78C31.1399 34.81 31.0799 34.83 31.0299 34.85C30.4599 35.12 29.7999 35.3 29.1399 35.39C29.0999 35.4 29.0699 35.4 29.0299 35.41C28.6299 35.48 28.2399 35.54 27.8399 35.57C27.6599 35.59 27.4699 35.6 27.2899 35.6L26.5799 35.56L23.1599 35.38C23.1599 35.37 23.1499 35.38 23.1499 35.38L21.4299 35.29C21.2999 35.29 21.1599 35.29 21.0299 35.28C20.4899 35.26 19.9699 35.2 19.4499 35.09C19.4399 35.09 19.4399 35.09 19.4399 35.09C18.4899 34.91 17.5799 34.59 16.7299 34.16C16.2599 33.92 15.7999 33.65 15.3699 33.34C15.1899 33.21 15.0199 33.07 14.8499 32.92C14.3699 32.52 13.9399 32.09 13.5399 31.65C13.4799 31.59 13.4299 31.53 13.3799 31.47C13.3199 31.41 13.2599 31.34 13.2099 31.28C12.8299 30.8 12.5099 30.31 12.2499 29.79C12.0099 29.33 11.8199 28.84 11.6699 28.3C11.6099 28.11 11.5599 27.93 11.5199 27.73C11.5099 27.72 11.4999 27.7 11.4999 27.68C11.3999 27.27 11.3099 26.84 11.2599 26.41C11.1999 26.08 11.1699 25.75 11.1699 25.41C11.1499 25.28 11.1499 25.14 11.1499 25.01L13.0599 22.06L14.9299 19.18L15.7799 17.87L16.5499 16.69L16.8099 16.28V15.25C16.8299 15.02 16.8399 14.78 16.8299 14.56C16.8199 13.86 16.6799 13.18 16.4499 12.53C16.2299 11.84 15.9199 11.19 15.5999 10.59C15.2199 9.9 14.8199 9.28 14.4899 8.72C13.9999 7.9 13.6599 7.23 13.7499 6.76C14.4699 6.59 15.2299 6.5 15.9999 6.5H31.9999C36.1799 6.5 39.7799 9.1 41.2699 12.76C41.4299 13.15 41.5699 13.56 41.6699 13.98Z" fill="#304FFE"/>
<path id="Vector_2" d="M42.0001 16.5V16.77L40.6201 17.57L39.7401 18.08L38.7701 18.64L36.8301 19.77L34.9301 20.87L32.9901 21.99L32.2201 22.44C32.2201 22.92 32.1001 23.36 31.8801 23.76C31.5701 24.34 31.0501 24.82 30.3901 25.23C29.7201 25.64 28.9001 25.97 27.9801 26.21C27.9801 26.21 27.9801 26.2 27.9701 26.21C24.4101 27.13 19.5501 26.71 17.1901 24.95C16.5301 24.46 16.0701 23.86 15.8701 23.17C15.8101 22.94 15.7801 22.69 15.7801 22.44V15.25C15.7901 15.1 15.6901 14.95 15.5101 14.8C14.9701 14.37 13.7001 13.96 12.2801 13.55C11.1701 13.24 9.98012 12.93 8.98012 12.63C8.19012 12.39 7.52012 12.15 7.12012 11.92C7.30012 11.57 7.51012 11.22 7.73012 10.89C9.13012 8.84 11.2701 7.33 13.7501 6.76C14.4701 6.59 15.2301 6.5 16.0001 6.5H26.8001C32.1701 7.44 37.1201 9.63 41.2701 12.76C41.4301 13.15 41.5701 13.56 41.6701 13.98C41.8501 14.64 41.9601 15.32 41.9901 16.03C42.0001 16.18 42.0001 16.34 42.0001 16.5Z" fill="#4928F4"/>
<path id="Vector_3" d="M41.9999 16.5001V20.9101L41.7799 21.5901L41.0299 23.9201L40.2499 26.3201L39.8399 27.6001L39.4599 28.7901L39.0899 29.9201L38.7299 31.0401L38.5399 31.6301L38.2899 32.4101C38.2899 33.1701 38.2699 33.8401 38.2199 34.4101C38.2099 34.4701 38.1999 34.5301 38.1999 34.5901C38.1399 35.1201 38.0599 35.5701 37.9299 35.9501C37.9199 36.0101 37.8999 36.0701 37.8799 36.1201C37.6199 36.8401 37.2299 37.3001 36.6499 37.6001C36.5099 37.6801 36.3499 37.7401 36.1799 37.8001C35.6499 37.9801 34.9799 38.0701 34.1599 38.1201C33.5599 38.1601 32.8699 38.1701 32.0899 38.1701H31.3999L30.2099 38.1201L29.9999 38.1101L27.8299 38.0201L25.6299 37.9301L18.3799 37.6301L16.4999 37.5501H16.2399C15.4599 37.5401 14.7899 37.4901 14.2099 37.4101C13.3699 37.2801 12.7199 37.0601 12.2299 36.7301C11.5299 36.2801 11.1199 35.6201 10.8799 34.7001C10.8199 34.4801 10.7699 34.2501 10.7399 34.0001C10.6399 33.4201 10.5899 32.7501 10.5599 32.0001C10.5599 31.8501 10.5599 31.7001 10.5499 31.5401C10.5399 31.5301 10.5499 31.5301 10.5499 31.5301V30.9501C10.5399 30.6601 10.5399 30.3601 10.5399 30.0501L10.5899 28.4401L10.6199 27.2901L10.6599 25.9501V25.7601L10.7299 23.3001L10.7999 20.8401L10.8699 18.5301L10.9299 16.2601L10.9499 15.6601C10.9499 15.3501 9.89992 15.1701 8.72992 15.0201C7.79992 14.9001 6.77992 14.7901 6.16992 14.6501C6.21992 14.4201 6.26992 14.1901 6.32992 13.9701C6.50992 13.2501 6.77992 12.5701 7.11992 11.9201C7.29992 11.5701 7.50992 11.2201 7.72992 10.8901C9.88992 9.94006 12.1399 9.20006 14.4899 8.72006C16.5499 8.29006 18.6999 8.06006 20.9199 8.06006C28.2799 8.06006 35.0799 10.5501 40.4599 14.7501C40.9799 15.1501 41.4899 15.5801 41.9899 16.0301C41.9999 16.1801 41.9999 16.3401 41.9999 16.5001Z" fill="#6200EA"/>
<path id="Vector_4" d="M42 18.8701V23.4101L41.45 24.4701L40.4 26.5201L39.84 27.6001L39.33 28.5901L39.11 29.0201C39.11 29.3301 39.11 29.6301 39.09 29.9201C39.09 30.3501 39.07 30.7601 39.04 31.1401C39 31.5901 38.94 32.0001 38.88 32.3801C38.73 33.1701 38.52 33.8501 38.22 34.4101C38.18 34.4801 38.14 34.5501 38.1 34.6101C37.99 34.7901 37.86 34.9601 37.72 35.1201C37.54 35.3401 37.34 35.5301 37.11 35.6901C36.77 35.9501 36.37 36.1601 35.91 36.3201C35.34 36.5301 34.68 36.6701 33.9 36.7501C33.39 36.8001 32.83 36.8301 32.22 36.8301L31.8 36.8501L29.72 36.9701H29.71L27.5 37.1001L25.25 37.2301L22.15 37.4101L18.38 37.6301L17.83 37.6601C17.32 37.6601 16.84 37.6301 16.38 37.5701C16.33 37.5601 16.29 37.5501 16.24 37.5501C15.56 37.4401 14.94 37.2601 14.38 37.0101C13.7 36.7101 13.11 36.3101 12.61 35.8301C12.17 35.4001 11.79 34.9101 11.48 34.3601C11.41 34.2301 11.34 34.1101 11.28 33.9701C10.98 33.3801 10.74 32.7201 10.56 32.0001C10.53 31.8801 10.5 31.7501 10.48 31.6201C10.42 31.3901 10.37 31.1501 10.34 30.9001C10.23 30.2601 10.17 29.5801 10.14 28.8701V28.8601C10.13 28.5701 10.12 28.2901 10.12 27.9901L9.63 26.8201L9.56 26.6401L9.5 26.4901L8.75 24.7001L8.63 24.4101L7.91 22.6801L7.11 20.7501C7.11 20.7501 7.11 20.7501 7.1 20.7501L6.29 18.8001L6 18.0901V16.5001C6 15.8701 6.06 15.2501 6.17 14.6501C6.22 14.4201 6.27 14.1901 6.33 13.9701C7.18 13.4801 8.07 13.0301 8.98 12.6301C11.06 11.7001 13.29 11.0101 15.6 10.5901C17.32 10.2801 19.11 10.1101 20.92 10.1101C28.23 10.1101 34.86 12.7601 40.04 17.0801C40.24 17.2401 40.43 17.4001 40.62 17.5701C41.09 17.9801 41.55 18.4101 42 18.8701Z" fill="#673AB7"/>
<path id="Vector_5" d="M42 21.8499V26.9899L41.43 28.1799L40.35 30.4299L40.34 30.4599C40.34 30.8899 40.32 31.2799 40.29 31.6299C40.19 32.7799 39.91 33.5099 39.45 33.9599C39.12 34.2999 38.71 34.4899 38.2 34.5899C38.17 34.5999 38.13 34.5999 38.1 34.6099C37.94 34.6399 37.77 34.6599 37.59 34.6599C36.97 34.7199 36.24 34.6799 35.4 34.6199C35.31 34.6199 35.21 34.6099 35.11 34.5999C34.5 34.5599 33.85 34.5199 33.13 34.4899C32.74 34.4799 32.33 34.4699 31.91 34.4699H31.89L30.88 34.5499H30.87L28.6 34.7099L26.01 34.9099L25.63 34.9399L22.6 35.1599L21.03 35.2799L19.48 35.3899C19.21 35.3899 18.95 35.3899 18.69 35.3799C18.69 35.3799 18.68 35.3699 18.68 35.3799C17.55 35.3599 16.54 35.2899 15.64 35.1199C14.81 34.9799 14.08 34.7599 13.46 34.4299C12.82 34.1199 12.29 33.6799 11.86 33.1199C11.45 32.5699 11.15 31.8799 10.96 31.0499C10.96 31.0399 10.96 31.0399 10.96 31.0399C10.82 30.3699 10.74 29.5899 10.74 28.7099L10.59 28.4399L9.7 26.8499L9.57 26.6299L9.5 26.4899L8.57 24.8399L8.11 24.0099L7.53 22.9799L6.53 21.1899L6 20.2499V16.5699C6.88 15.9899 7.79 15.4799 8.73 15.0199C9.87 14.4399 11.05 13.9499 12.28 13.5499C13.62 13.1099 15.02 12.7599 16.45 12.5299C17.9 12.2899 19.39 12.1699 20.92 12.1699C27.72 12.1699 33.96 14.5999 38.77 18.6399C38.99 18.8099 39.2 18.9999 39.41 19.1799C40.25 19.9299 41.05 20.7399 41.78 21.5899C41.86 21.6799 41.94 21.7599 42 21.8499Z" fill="#8E24AA"/>
<path id="Vector_6" d="M42 25.21V32.44C41.76 32.3 41.43 32.13 41.02 31.95C40.8 31.84 40.55 31.73 40.29 31.63C39.91 31.46 39.5 31.3 39.04 31.14C38.94 31.1 38.84 31.07 38.73 31.04C38.55 30.97 38.36 30.91 38.17 30.85C37.58 30.67 36.93 30.5 36.25 30.35C35.99 30.3 35.72 30.25 35.45 30.21C34.58 30.06 33.65 29.97 32.68 29.96C32.6 29.95 32.51 29.95 32.43 29.95L29.86 29.97L26.36 29.99H26.35L18.86 30.05C16.48 30.05 15.02 30.62 14.14 30.85C14.14 30.85 14.13 30.85 14.13 30.86C13.2 31.1 12.91 30.95 12.83 29.32C12.81 28.87 12.8 28.29 12.8 27.58L12.24 27.15L11.26 26.41L10.66 25.95L10.54 25.86L8.88 24.6L8.63 24.41L8.11 24.01L7.15 23.29L6 22.41V19.01C6.1 18.93 6.19 18.86 6.29 18.8C7.74 17.8 9.29 16.95 10.93 16.26C12.39 15.64 13.93 15.15 15.51 14.8C15.94 14.71 16.38 14.62 16.83 14.56C18.16 14.33 19.53 14.22 20.92 14.22C26.93 14.22 32.45 16.31 36.83 19.77C37.49 20.29 38.13 20.84 38.73 21.43C39.55 22.21 40.32 23.04 41.03 23.92C41.17 24.1 41.31 24.28 41.45 24.47C41.64 24.71 41.82 24.96 42 25.21Z" fill="#C2185B"/>
<path id="Vector_7" d="M42 29.22V32.5C42 33.15 41.94 33.79 41.82 34.41C41.64 35.33 41.33 36.21 40.91 37.03C40.69 37.08 40.44 37.08 40.16 37.04C39.53 36.93 38.79 36.6 37.99 36.17C37.95 36.16 37.91 36.14 37.88 36.12C37.63 35.99 37.37 35.85 37.11 35.69C36.58 35.4 36.02 35.08 35.46 34.78C35.34 34.72 35.22 34.66 35.11 34.6C34.47 34.27 33.81 33.97 33.15 33.74C33.15 33.74 33.15 33.74 33.14 33.74C33 33.69 32.85 33.64 32.7 33.6C32.13 33.44 31.55 33.34 30.99 33.34L29.89 33.02L25.02 31.61C25.02 31.61 25.02 31.61 25.01 31.61L22.02 30.74H22.01L20.71 30.36C16.95 30.36 14.64 31.96 13.52 31.35C13.08 31.12 12.82 30.54 12.73 29.4C12.7 29.08 12.69 28.72 12.69 28.3L11.52 27.73L11.47 27.71H11.46L10.62 27.29L9.7 26.85L9.63 26.82L9.46 26.73L7.5 25.78L6 25.05V21.62C6.17 21.47 6.35 21.33 6.53 21.19C6.72 21.04 6.91 20.9 7.1 20.75C7.11 20.75 7.11 20.75 7.11 20.75C8.29 19.9 9.54 19.15 10.87 18.53C12.42 17.79 14.07 17.22 15.78 16.85C16.03 16.79 16.29 16.73 16.55 16.69C17.97 16.42 19.43 16.28 20.92 16.28C26.19 16.28 31.03 17.99 34.93 20.87C36.06 21.71 37.11 22.64 38.07 23.65C38.86 24.48 39.59 25.38 40.25 26.32C40.3 26.39 40.35 26.46 40.4 26.52C40.77 27.06 41.11 27.61 41.43 28.18C41.64 28.52 41.82 28.87 42 29.22Z" fill="#D81B60"/>
<path id="Vector_8" d="M41.82 34.4101C41.64 35.3301 41.33 36.2101 40.91 37.0301C40.72 37.4001 40.51 37.7501 40.28 38.0901C40.14 38.3001 39.99 38.5001 39.84 38.6901C39.48 38.5501 38.95 38.3501 38.3 38.1301C38.3 38.1301 38.3 38.1301 38.3 38.1201C37.81 37.9501 37.25 37.7701 36.65 37.6001C36.48 37.5501 36.31 37.5001 36.13 37.4501C35.42 37.2601 34.68 37.0901 33.96 36.9901C33.36 36.8901 32.77 36.8301 32.22 36.8301L31.76 36.7001H31.75L29.33 36.0001L27.84 35.5701L26.18 35.0901H26.17L25.63 34.9401L19.1 33.0601L17.22 32.5201L15.82 32.1901L13.54 31.6501L13.26 31.5801C13.26 31.5801 13.26 31.5801 13.25 31.5801L10.96 31.0501C10.96 31.0401 10.96 31.0401 10.96 31.0401L10.55 30.9501L10.34 30.9001L8.67 30.5101L8.48 30.4601L7.06 29.2901L6 28.4001V24.3201C6.37 23.9601 6.75 23.6201 7.15 23.2901C7.27 23.1801 7.4 23.0801 7.53 22.9801C7.65 22.8801 7.78 22.7801 7.91 22.6801C8.82 21.9901 9.78 21.3701 10.8 20.8401C12.1 20.1401 13.48 19.5801 14.93 19.1801C15.21 19.0901 15.49 19.0101 15.78 18.9501C17.42 18.5401 19.14 18.3301 20.92 18.3301C25.39 18.3301 29.55 19.6801 32.99 21.9901C34.7 23.1401 36.24 24.5201 37.54 26.0901C38.2 26.8801 38.8 27.7101 39.33 28.5901C39.38 28.6601 39.42 28.7201 39.46 28.7901C39.78 29.3201 40.08 29.8701 40.35 30.4301C40.6 30.9301 40.82 31.4301 41.02 31.9501C41.34 32.7501 41.6 33.5701 41.82 34.4101Z" fill="#F50057"/>
<path id="Vector_9" d="M40.28 38.0899C40.14 38.2999 39.99 38.4999 39.84 38.6899C39.4 39.2399 38.92 39.7399 38.38 40.1799C37.91 40.5699 37.41 40.9199 36.88 41.2199C36.68 41.1699 36.48 41.1099 36.27 41.0299C35.61 40.7999 34.92 40.4199 34.28 40.0199C33.32 39.4099 32.49 38.7499 32.12 38.4499C31.98 38.3299 31.91 38.2699 31.91 38.2699L30.21 38.1199L30 38.0999L27.8 37.9099L25.52 37.7099L22.15 37.4099L16.81 36.9399L16.79 36.9299L14.91 36.0199L13.01 35.0999L11.48 34.3599L11.15 34.1999L10.74 33.9999L9.32 33.3099L7.43 32.3999L6.84 32.1099L6 31.8499V27.3799C6.47 26.8199 6.97 26.2899 7.5 25.7799C7.84 25.4599 8.2 25.1399 8.57 24.8399C8.63 24.7899 8.69 24.7399 8.75 24.6999C8.79 24.6499 8.84 24.6199 8.88 24.5999C9.47 24.1199 10.09 23.6899 10.73 23.2999C11.47 22.8299 12.25 22.4099 13.06 22.0599C13.93 21.6699 14.84 21.3399 15.78 21.0899C17.41 20.6299 19.14 20.3899 20.92 20.3899C25 20.3899 28.77 21.6299 31.88 23.7599C33.87 25.1199 35.59 26.8399 36.95 28.8299C37.4 29.4699 37.8 30.1499 38.17 30.8499C38.3 31.1099 38.43 31.3699 38.54 31.6299C38.66 31.8799 38.77 32.1299 38.88 32.3799C39.09 32.8999 39.28 33.4199 39.45 33.9599C39.77 34.9599 40.01 35.9799 40.16 37.0399C40.21 37.3899 40.25 37.7399 40.28 38.0899Z" fill="#FF1744"/>
<path id="Vector_10" d="M38.39 39.9199C38.39 39.9999 38.39 40.0899 38.38 40.1799C37.91 40.5699 37.41 40.9199 36.88 41.2199C36.66 41.3399 36.44 41.4599 36.21 41.5599C35.98 41.6699 35.75 41.7699 35.51 41.8599C35.17 41.6799 34.71 41.4599 34.22 41.2499C33.53 40.9399 32.78 40.6599 32.2 40.5699C32.06 40.5399 31.93 40.5299 31.81 40.5299L30.17 40.3199H30.15L28.11 40.0499L26.05 39.7799L25.09 39.6599L17.53 38.6799C17.04 38.6799 16.52 38.6499 15.98 38.5799C15.32 38.5199 14.63 38.4199 13.94 38.2799C13.26 38.1599 12.57 37.9999 11.91 37.8299C11.22 37.6699 10.54 37.4799 9.91 37.2999C9.18 37.0799 8.5 36.8699 7.93 36.6799C7.46 36.5299 7.06 36.3899 6.75 36.2799C6.57 35.8499 6.42 35.3999 6.31 34.9399C6.1 34.1599 6 33.3399 6 32.4999V30.8299C6.32 30.2999 6.67 29.7799 7.06 29.2899C7.77 28.3499 8.58 27.4899 9.46 26.7299C9.49 26.6899 9.53 26.6599 9.56 26.6399L9.57 26.6299C9.88 26.3499 10.2 26.0999 10.54 25.8599C10.58 25.8199 10.62 25.7899 10.66 25.7599C10.82 25.6399 10.99 25.5199 11.17 25.4099C12.6 24.4399 14.18 23.6799 15.87 23.1699C17.47 22.6899 19.16 22.4399 20.92 22.4399C24.41 22.4399 27.67 23.4699 30.39 25.2299C32.4 26.5199 34.13 28.2199 35.45 30.2099C35.61 30.4399 35.76 30.6699 35.91 30.9099C36.6 32.0799 37.17 33.3399 37.59 34.6599C37.64 34.8099 37.68 34.9599 37.72 35.1199C37.8 35.3899 37.87 35.6699 37.93 35.9499C37.95 36.0199 37.97 36.0899 37.99 36.1699C38.13 36.7999 38.23 37.4599 38.3 38.1199C38.3 38.1299 38.3 38.1299 38.3 38.1299C38.36 38.7199 38.39 39.3199 38.39 39.9199Z" fill="#FF5722"/>
<path id="Vector_11" d="M36.3301 39.92C36.3301 40.27 36.3101 40.65 36.2701 41.03C36.2501 41.21 36.2301 41.39 36.2101 41.56C35.9801 41.67 35.7501 41.77 35.5101 41.86C35.0601 42.03 34.6001 42.17 34.1301 42.27C33.8101 42.34 33.4801 42.4 33.1501 42.43H33.1401C32.8301 42.24 32.4701 42.01 32.1001 41.75C31.4301 41.28 30.7301 40.75 30.1701 40.32C30.1601 40.31 30.1601 40.31 30.1501 40.3C29.5601 39.85 29.1401 39.51 29.1401 39.51L28.0801 39.55L26.0401 39.62L25.0901 39.66L21.2701 39.8L18.0401 39.92C17.8301 39.93 17.5801 39.93 17.2701 39.92H17.2601C16.8401 39.91 16.3401 39.88 15.7901 39.83C15.1501 39.78 14.4501 39.72 13.7401 39.65C13.0501 39.57 12.3501 39.49 11.6801 39.41C10.9401 39.33 10.2401 39.24 9.64006 39.16C9.17006 39.1 8.76006 39.05 8.43006 39.01C8.15006 38.69 7.90006 38.36 7.66006 38C7.30006 37.46 6.99006 36.89 6.75006 36.28C6.57006 35.85 6.42006 35.4 6.31006 34.94C6.60006 34.05 6.98006 33.21 7.43006 32.4C7.79006 31.74 8.21006 31.11 8.67006 30.51C9.12006 29.92 9.61006 29.37 10.1401 28.87V28.86C10.2901 28.71 10.4401 28.57 10.5901 28.44C10.8701 28.18 11.1601 27.94 11.4601 27.71H11.4701C11.4801 27.69 11.4901 27.69 11.5001 27.68C11.7401 27.49 11.9901 27.32 12.2401 27.15C13.7201 26.14 15.3901 25.39 17.1901 24.95C18.3801 24.66 19.6301 24.5 20.9201 24.5C23.4601 24.5 25.8601 25.11 27.9701 26.21H27.9801C29.7901 27.14 31.3901 28.42 32.6801 29.96C33.3901 30.78 34.0001 31.68 34.5001 32.63C34.8501 33.27 35.1501 33.94 35.4001 34.62C35.4201 34.68 35.4401 34.73 35.4601 34.78C35.6301 35.28 35.7801 35.8 35.9101 36.32C36.0001 36.69 36.0701 37.07 36.1301 37.45C36.1501 37.57 36.1701 37.68 36.1801 37.8C36.2801 38.49 36.3301 39.2 36.3301 39.92Z" fill="#FF6F00"/>
<path id="Vector_12" d="M34.2799 39.9201V40.0201C34.2799 40.3601 34.2499 40.7901 34.2199 41.2501C34.1899 41.5901 34.1599 41.9401 34.1299 42.2701C33.8099 42.3401 33.4799 42.4001 33.1499 42.4301H33.1399C32.7599 42.4801 32.3899 42.5001 31.9999 42.5001H30.2499L29.8699 42.3901L27.8999 41.7901L25.8999 41.1901L21.2699 39.8001L19.2699 39.2001C19.2699 39.2001 18.4399 39.5301 17.2699 39.9201H17.2599C16.8099 40.0701 16.3199 40.2301 15.7999 40.3901C15.1499 40.5801 14.4599 40.7701 13.7799 40.9201C13.0799 41.0801 12.3899 41.2001 11.7699 41.2501C11.5799 41.2701 11.3899 41.2801 11.2199 41.2801C10.6599 40.9701 10.1199 40.6001 9.62991 40.1901C9.19991 39.8301 8.79991 39.4401 8.42991 39.0101C8.14991 38.6901 7.89991 38.3601 7.65991 38.0001C7.72991 37.5501 7.80991 37.1101 7.92991 36.6801C8.22991 35.4901 8.69991 34.3501 9.31991 33.3101C9.65991 32.7201 10.0399 32.1501 10.4799 31.6201C10.4899 31.5901 10.5199 31.5601 10.5499 31.5401C10.5399 31.5301 10.5499 31.5301 10.5499 31.5301C10.6799 31.3601 10.8199 31.2001 10.9599 31.0501C10.9599 31.0401 10.9599 31.0401 10.9599 31.0401C11.3699 30.6001 11.7899 30.1801 12.2499 29.7901C12.4099 29.6601 12.5599 29.5301 12.7299 29.4001C12.7599 29.3701 12.7899 29.3501 12.8299 29.3201C15.0799 27.6001 17.8899 26.5601 20.9199 26.5601C24.3599 26.5601 27.4899 27.8501 29.8599 29.9701C30.9999 31.0001 31.9699 32.2301 32.6999 33.6001C32.7599 33.7001 32.8199 33.8101 32.8699 33.9201C32.9599 34.1001 33.0499 34.2901 33.1299 34.4901C33.4599 35.2101 33.7199 35.9701 33.8999 36.7501C33.9199 36.8301 33.9399 36.9101 33.9599 36.9901C34.0399 37.3601 34.1099 37.7401 34.1599 38.1201C34.2399 38.7101 34.2799 39.3101 34.2799 39.9201Z" fill="#FF9800"/>
<path id="Vector_13" d="M32.2201 39.9201C32.2201 40.1201 32.2101 40.3401 32.2001 40.5701C32.1801 40.9401 32.1501 41.3401 32.1001 41.7501C32.0801 42.0001 32.0401 42.2501 32.0001 42.5001H26.5201L25.4601 42.3301L21.3201 41.6701L20.7301 41.5801L19.3801 41.3601C18.7901 41.3601 17.5101 41.6201 16.1601 41.8701C15.4501 42.0001 14.7301 42.1401 14.0801 42.2301C14.0001 42.2401 13.9201 42.2501 13.8501 42.2601H13.8401C13.1401 42.1101 12.4601 41.8801 11.8201 41.5801C11.6201 41.4901 11.4201 41.3901 11.2201 41.2801C10.6601 40.9701 10.1201 40.6001 9.63011 40.1901C9.62011 40.0701 9.61011 39.9701 9.61011 39.9201C9.61011 39.6601 9.62011 39.4101 9.64011 39.1601C9.68011 38.5201 9.77011 37.9001 9.91011 37.3001C10.1301 36.3901 10.4501 35.5101 10.8801 34.7001C10.9601 34.5301 11.0501 34.3601 11.1501 34.2001C11.1901 34.1201 11.2401 34.0501 11.2801 33.9701C11.4601 33.6801 11.6601 33.4001 11.8601 33.1201C12.2801 32.5701 12.7501 32.0501 13.2501 31.5801C13.2601 31.5801 13.2601 31.5801 13.2601 31.5801C13.3001 31.5401 13.3401 31.5001 13.3801 31.4701C13.4301 31.4301 13.4701 31.3801 13.5201 31.3501C13.7201 31.1701 13.9201 31.0101 14.1301 30.8601C14.1301 30.8501 14.1401 30.8501 14.1401 30.8501C16.0301 29.4401 18.3701 28.6101 20.9201 28.6101C22.9001 28.6101 24.7401 29.1101 26.3501 29.9901H26.3601C27.7401 30.7501 28.9401 31.7801 29.8901 33.0201C30.2601 33.5001 30.5901 34.0101 30.8701 34.5501H30.8801C30.9301 34.6501 30.9801 34.7501 31.0301 34.8501C31.3301 35.4401 31.5701 36.0601 31.7501 36.7001H31.7601C31.7701 36.7501 31.7901 36.8001 31.8001 36.8501C31.9201 37.2801 32.0201 37.7201 32.0901 38.1701C32.1001 38.2601 32.1101 38.3601 32.1201 38.4501C32.1901 38.9301 32.2201 39.4201 32.2201 39.9201Z" fill="#FFC107"/>
<path id="Vector_14" d="M30.1699 39.8099C30.1699 39.9699 30.1699 40.1399 30.1499 40.2999V40.3099C30.1499 40.3199 30.1499 40.3199 30.1499 40.3199C30.1299 41.0399 30.0299 41.7499 29.8699 42.3899C29.8699 42.4299 29.8599 42.4599 29.8399 42.4999H25.1699L21.3199 41.6699L20.8099 41.5599L20.7299 41.5799L16.4599 42.4599L16.2699 42.4999H15.9999C15.3599 42.4999 14.7299 42.4399 14.1199 42.3199C14.0299 42.2999 13.9399 42.2799 13.8499 42.2599H13.8399C13.1399 42.1099 12.4599 41.8799 11.8199 41.5799C11.7999 41.4699 11.7799 41.3599 11.7699 41.2499C11.6999 40.8199 11.6699 40.3699 11.6699 39.9199C11.6699 39.7499 11.6699 39.5799 11.6799 39.4099C11.7099 38.8699 11.7899 38.3399 11.9099 37.8299C11.9899 37.4499 12.0999 37.0799 12.2299 36.7299C12.3399 36.4199 12.4699 36.1199 12.6099 35.8299C12.7299 35.5799 12.8699 35.3399 13.0099 35.0999C13.1499 34.8699 13.2999 34.6499 13.4599 34.4299C13.8599 33.8799 14.3299 33.3699 14.8499 32.9199C15.1499 32.6599 15.4799 32.4099 15.8199 32.1899C17.2799 31.2299 19.0299 30.6699 20.9199 30.6699C21.2899 30.6699 21.6499 30.6899 21.9999 30.7399H22.0199C23.0899 30.8599 24.0899 31.1599 25.0099 31.6099C25.0199 31.6099 25.0199 31.6099 25.0199 31.6099C26.4699 32.3199 27.6999 33.3899 28.5999 34.7099C28.7499 34.9299 28.8999 35.1699 29.0299 35.4099C29.1399 35.5999 29.2399 35.7999 29.3299 35.9999C29.4699 36.3099 29.5999 36.6399 29.7099 36.9699H29.7199C29.8299 37.3399 29.9299 37.7099 29.9999 38.0999V38.1099C30.1099 38.6599 30.1699 39.2299 30.1699 39.8099Z" fill="#FFD54F"/>
<path id="Vector_15" d="M28.11 40.0201V40.0501C28.11 40.6401 28.04 41.2201 27.9 41.7901C27.85 42.0301 27.78 42.2701 27.69 42.5001H23.21L20.92 41.8701L18.63 42.5001H16C15.36 42.5001 14.73 42.4401 14.12 42.3201C14.1 42.2901 14.09 42.2601 14.08 42.2301C13.94 41.8001 13.83 41.3701 13.78 40.9201C13.74 40.6301 13.72 40.3301 13.72 40.0201C13.72 39.9001 13.72 39.7701 13.74 39.6501C13.75 39.1801 13.82 38.7201 13.94 38.2801C14 37.9801 14.09 37.6901 14.21 37.4101C14.25 37.2701 14.31 37.1401 14.38 37.0101C14.53 36.6701 14.71 36.3401 14.91 36.0201C15.13 35.7001 15.37 35.4001 15.64 35.1201C15.96 34.7601 16.32 34.4301 16.73 34.1601C17.43 33.6501 18.23 33.2701 19.1 33.0601C19.68 32.9001 20.29 32.8201 20.92 32.8201C22.92 32.8201 24.71 33.6201 26.01 34.9101C26.06 34.9601 26.12 35.0201 26.17 35.0901H26.18C26.32 35.2401 26.45 35.3901 26.58 35.5601C26.95 36.0301 27.26 36.5401 27.5 37.1001C27.62 37.3601 27.72 37.6301 27.8 37.9101C27.81 37.9501 27.82 37.9801 27.83 38.0201C27.97 38.5101 28.06 39.0201 28.08 39.5501C28.1 39.7001 28.11 39.8601 28.11 40.0201Z" fill="#FFE082"/>
<path id="Vector_16" d="M26.06 40.0199C26.06 40.4299 26.01 40.8199 25.9 41.1899C25.8 41.5899 25.65 41.9699 25.46 42.3299C25.43 42.3899 25.36 42.4999 25.36 42.4999H16.48C16.47 42.4899 16.46 42.4699 16.46 42.4599C16.34 42.2699 16.24 42.0799 16.16 41.8699C15.96 41.4099 15.84 40.9099 15.8 40.3899C15.78 40.2699 15.78 40.1399 15.78 40.0199C15.78 39.9599 15.78 39.8899 15.79 39.8299C15.8 39.3899 15.86 38.9699 15.98 38.5799C16.08 38.2199 16.21 37.8899 16.38 37.5699C16.38 37.5699 16.39 37.5599 16.39 37.5499C16.51 37.3399 16.64 37.1299 16.79 36.9299C17.28 36.2699 17.93 35.7299 18.68 35.3799C18.69 35.3799 18.69 35.3799 18.69 35.3799C18.93 35.2599 19.18 35.1599 19.44 35.0899C19.44 35.0899 19.44 35.0899 19.45 35.0899C19.91 34.9499 20.41 34.8799 20.92 34.8799C21.51 34.8799 22.08 34.9699 22.6 35.1599C22.79 35.2099 22.97 35.2899 23.15 35.3799C23.15 35.3799 23.15 35.3799 23.16 35.3799C24.02 35.7899 24.75 36.4299 25.25 37.2299C25.35 37.3799 25.44 37.5399 25.52 37.7099C25.56 37.7799 25.6 37.8599 25.63 37.9299C25.86 38.4499 26 39.0199 26.04 39.6199C26.05 39.6699 26.05 39.7199 26.05 39.7799C26.06 39.8599 26.06 39.9399 26.06 40.0199Z" fill="#FFECB3"/>
<g id="Group">
<path id="Vector_17" d="M30 11.5H18C14.1 11.5 11 14.6 11 18.5V30.5C11 34.4 14.1 37.5 18 37.5H30C33.9 37.5 37 34.4 37 30.5V18.5C37 14.6 33.9 11.5 30 11.5Z" stroke="white" stroke-width="2" stroke-miterlimit="10" stroke-linecap="round" stroke-linejoin="round"/>
<path id="Vector_18" d="M31 17.5C31.5523 17.5 32 17.0523 32 16.5C32 15.9477 31.5523 15.5 31 15.5C30.4477 15.5 30 15.9477 30 16.5C30 17.0523 30.4477 17.5 31 17.5Z" fill="white"/>
</g>
<g id="Group_2">
<path id="Vector_19" d="M24 30.5C27.3137 30.5 30 27.8137 30 24.5C30 21.1863 27.3137 18.5 24 18.5C20.6863 18.5 18 21.1863 18 24.5C18 27.8137 20.6863 30.5 24 30.5Z" stroke="white" stroke-width="2" stroke-miterlimit="10" stroke-linecap="round" stroke-linejoin="round"/>
</g>
</g>
</svg>
