<svg width="48" height="49" viewBox="0 0 48 49" fill="none" xmlns="http://www.w3.org/2000/svg">
<g id="icons8-tiktok 1">
<path id="Vector" fill-rule="evenodd" clip-rule="evenodd" d="M10.904 6.5H37.095C39.804 6.5 42 8.696 42 11.404V37.595C42 40.304 39.804 42.5 37.096 42.5H10.904C8.196 42.5 6 40.304 6 37.596V11.404C6 8.696 8.196 6.5 10.904 6.5Z" fill="#212121"/>
<path id="Vector_2" fill-rule="evenodd" clip-rule="evenodd" d="M29.208 21.107C30.784 22.233 32.715 22.895 34.8 22.895V18.884C34.405 18.884 34.012 18.843 33.626 18.761V21.918C31.541 21.918 29.611 21.255 28.034 20.13V28.314C28.034 32.408 24.713 35.727 20.617 35.727C19.089 35.727 17.668 35.265 16.488 34.473C17.835 35.849 19.713 36.703 21.791 36.703C25.887 36.703 29.208 33.384 29.208 29.29V21.107ZM30.657 17.061C29.852 16.182 29.323 15.045 29.208 13.788V13.272H28.095C28.375 14.869 29.331 16.234 30.657 17.061ZM19.079 31.332C18.629 30.742 18.386 30.021 18.387 29.279C18.387 27.406 19.906 25.888 21.78 25.888C22.129 25.888 22.476 25.941 22.809 26.047V21.947C22.42 21.894 22.028 21.871 21.635 21.879V25.07C21.302 24.964 20.955 24.911 20.605 24.911C18.731 24.911 17.212 26.429 17.212 28.302C17.213 29.627 17.972 30.774 19.079 31.332Z" fill="#EC407A"/>
<path id="Vector_3" fill-rule="evenodd" clip-rule="evenodd" d="M28.034 20.13C29.61 21.256 31.541 21.918 33.626 21.918V18.761C32.462 18.513 31.432 17.905 30.657 17.06C29.331 16.233 28.376 14.869 28.096 13.272H25.173V29.29C25.166 31.157 23.65 32.669 21.78 32.669C20.678 32.669 19.699 32.144 19.079 31.331C17.972 30.773 17.213 29.626 17.213 28.302C17.213 26.429 18.732 24.911 20.606 24.911C20.965 24.911 21.311 24.967 21.636 25.07V21.88C17.612 21.963 14.376 25.249 14.376 29.291C14.376 31.309 15.182 33.138 16.49 34.474C17.67 35.266 19.091 35.728 20.619 35.728C24.715 35.728 28.036 32.409 28.036 28.315L28.034 20.13Z" fill="white"/>
<path id="Vector_4" fill-rule="evenodd" clip-rule="evenodd" d="M33.6259 18.7619V17.9079C32.576 17.9099 31.548 17.6159 30.657 17.0599C31.445 17.9229 32.483 18.5179 33.6259 18.7619ZM28.095 13.2719C28.068 13.1189 28.048 12.9659 28.034 12.8109V12.2949H23.998V28.3139C23.992 30.1809 22.475 31.6929 20.605 31.6929C20.056 31.6929 19.538 31.5629 19.079 31.3309C19.699 32.1439 20.678 32.6689 21.78 32.6689C23.65 32.6689 25.166 31.1569 25.173 29.2899V13.2719H28.095ZM21.635 21.8799V20.9709C21.298 20.9249 20.958 20.9019 20.617 20.9019C16.52 20.9019 13.2 24.2209 13.2 28.3149C13.2 30.8819 14.505 33.1439 16.488 34.4739C15.18 33.1379 14.374 31.3089 14.374 29.2909C14.374 25.2489 17.611 21.9629 21.635 21.8799Z" fill="#81D4FA"/>
</g>
</svg>
