<svg width="36" height="36" viewBox="0 0 36 36" fill="none" xmlns="http://www.w3.org/2000/svg">
<path d="M16.3098 16.875H21.3723L14.3709 2.87212C14.1802 2.49075 13.7904 2.25 13.3646 2.25H10.4806C9.79889 2.25 9.35564 2.96719 9.66052 3.57694L16.3098 16.875Z" fill="#A8172D"/>
<path d="M19.6875 16.875H14.625L21.6264 2.87212C21.8171 2.49075 22.2069 2.25 22.6327 2.25H25.5167C26.1984 2.25 26.6417 2.96719 26.3368 3.57694L19.6875 16.875Z" fill="#FD3C4F"/>
<path d="M18 31.5C22.9706 31.5 27 27.4706 27 22.5C27 17.5294 22.9706 13.5 18 13.5C13.0294 13.5 9 17.5294 9 22.5C9 27.4706 13.0294 31.5 18 31.5Z" fill="#FFCE29"/>
<path opacity="0.15" d="M26.5618 19.7319C25.218 19.9434 24.1875 21.0971 24.1875 22.5C24.1875 25.9116 21.4116 28.6875 18 28.6875C16.5966 28.6875 15.4434 29.718 15.2319 31.0618C16.1044 31.3436 17.0336 31.5 18 31.5C22.9708 31.5 27 27.4708 27 22.5C27 21.5336 26.8436 20.6044 26.5618 19.7319Z" fill="black"/>
<path opacity="0.3" d="M18 16.3125C19.4034 16.3125 20.5566 15.282 20.7681 13.9382C19.8956 13.6564 18.9664 13.5 18 13.5C13.0292 13.5 9 17.5292 9 22.5C9 23.4664 9.15637 24.3956 9.43819 25.2681C10.782 25.0566 11.8125 23.9029 11.8125 22.5C11.8125 19.0884 14.5884 16.3125 18 16.3125Z" fill="white"/>
<path d="M18 28.6875C21.4173 28.6875 24.1875 25.9173 24.1875 22.5C24.1875 19.0827 21.4173 16.3125 18 16.3125C14.5827 16.3125 11.8125 19.0827 11.8125 22.5C11.8125 25.9173 14.5827 28.6875 18 28.6875Z" fill="#FFA500"/>
<path opacity="0.3" d="M18 36C23.9025 36 28.6875 35.2445 28.6875 34.3125C28.6875 33.3805 23.9025 32.625 18 32.625C12.0975 32.625 7.3125 33.3805 7.3125 34.3125C7.3125 35.2445 12.0975 36 18 36Z" fill="black"/>
<path d="M11.6191 19.5474C12.2351 18.2216 13.2526 17.1185 14.5143 16.3951" stroke="white" stroke-width="3" stroke-miterlimit="10" stroke-linecap="round" stroke-linejoin="round"/>
<path d="M16.2246 19.863H17.2669V23.0625H18.8548V19.863H19.7785C20.2285 19.863 20.4546 19.6481 20.4546 19.2178C20.4546 18.7808 20.2285 18.5625 19.7785 18.5625H16.2246C15.7802 18.5625 15.5586 18.7808 15.5586 19.2178C15.5586 19.6481 15.7802 19.863 16.2246 19.863Z" fill="#FFCE29"/>
<path d="M19.7892 24.5745H18.8571V21.375H17.2692V24.5745H16.2347C15.7847 24.5745 15.5586 24.7894 15.5586 25.2197C15.5586 25.6567 15.7847 25.875 16.2347 25.875H19.7886C20.233 25.875 20.4546 25.6567 20.4546 25.2197C20.4552 24.7894 20.2335 24.5745 19.7892 24.5745Z" fill="#FFCE29"/>
</svg>
