<svg width="154" height="301" viewBox="0 0 154 301" fill="none" xmlns="http://www.w3.org/2000/svg">
<g clip-path="url(#clip0_129_85)">
<path d="M96.6379 230.466C96.61 230.466 96.5821 230.466 96.5541 230.464C95.3504 230.414 94.4103 229.304 94.4565 227.984C94.5028 226.652 94.5491 222.031 93.217 218.454C92.7613 217.231 93.2964 215.835 94.4129 215.336C95.5302 214.837 96.8029 215.424 97.2577 216.647C98.8761 220.989 98.8883 226.149 98.8185 228.166C98.774 229.454 97.8059 230.466 96.6379 230.466Z" fill="#095DDB"/>
<path d="M135.117 213.82C138.906 224.906 134.183 237.198 124.537 242.096C124.066 242.325 123.586 242.545 123.097 242.746C112.526 247.079 100.681 241.244 96.6913 229.574C81.6073 185.4 80.7693 140.299 94.1948 95.5411C100.235 75.4246 99.3363 59.6605 91.7419 52.3141C85.841 46.5939 75.6366 45.9721 66.3575 50.7645C59.0337 54.5525 42.1253 67.246 43.2601 103.232C43.6529 115.638 34.7928 126.046 23.471 126.476C12.1231 126.868 2.65198 117.198 2.25917 104.791C1.0109 65.2373 15.2394 35.1056 36.6521 18.0406C40.5017 14.9604 44.5869 12.3108 48.8555 10.1011C100.174 -16.4339 157.743 27.6636 133.171 109.583C122.73 144.383 123.385 179.46 135.117 213.82Z" fill="#095DDB"/>
<path d="M115.933 246.563C106.734 246.563 98.0592 240.391 94.6479 230.412C79.3858 185.715 78.5355 140.087 92.1216 94.7942C97.8776 75.6256 97.2125 60.7951 90.2981 54.1068C85.0388 49.0084 75.792 48.5349 67.288 52.9274C60.3571 56.5126 44.3513 68.5834 45.4415 103.149C45.6519 109.787 43.4906 116.119 39.3547 120.976C35.2188 125.834 29.6051 128.635 23.547 128.866C23.3044 128.874 23.0599 128.878 22.819 128.878C10.6296 128.879 0.502893 118.27 0.078655 104.873C-1.10851 67.2806 11.7548 34.9259 35.3689 16.1065C39.2875 12.9709 43.5133 10.2218 47.9232 7.93844C73.3644 -5.21618 100.983 -1.94474 120.003 16.4748C129.91 26.0681 136.677 39.2122 139.573 54.4856C142.765 71.3221 141.308 90.1108 135.244 110.33C124.962 144.604 125.606 179.141 137.161 212.981C141.298 225.089 136.157 238.831 125.455 244.264C124.912 244.528 124.392 244.767 123.863 244.984C121.251 246.054 118.57 246.562 115.933 246.562V246.563ZM78.9092 45.1754C84.4443 45.1754 89.5343 46.9805 93.1883 50.5226C101.472 58.5357 102.595 75.2172 96.268 96.2883C82.9996 140.522 83.8289 185.084 98.7348 228.736C102.28 239.106 112.866 244.387 122.332 240.506C122.779 240.322 123.22 240.121 123.652 239.91C132.264 235.538 136.416 224.439 133.074 214.659C121.162 179.774 120.498 144.17 131.097 108.836C142.211 71.786 137.114 39.4275 117.113 20.059C99.421 2.92606 73.6236 -0.0612743 49.7869 12.2631C45.6257 14.4172 41.64 17.0105 37.9388 19.971C15.5136 37.8444 3.30496 68.7288 4.44062 104.708C4.78979 115.742 13.2824 124.435 23.403 124.086C28.2896 123.9 32.8235 121.637 36.1633 117.713C39.5031 113.79 41.2498 108.677 41.0796 103.314C39.9003 65.9089 57.713 52.5916 65.427 48.6018C69.871 46.307 74.5297 45.1754 78.9092 45.1754Z" fill="#095DDB"/>
<path d="M115.897 246.578C112.704 246.578 109.519 245.83 106.524 244.341C100.996 241.592 96.7777 236.645 94.6495 230.41C79.3883 185.712 78.5381 140.084 92.1233 94.7939C97.8732 75.6244 97.2089 60.7939 90.3006 54.1047C85.0352 49.0062 75.7884 48.5327 67.2914 52.9262C60.357 56.5114 44.3468 68.5813 45.4423 103.15C45.8761 116.855 36.055 128.393 23.5478 128.869C11.0171 129.303 0.509783 118.538 0.077689 104.876C-1.3312 60.396 16.554 24.1586 47.9214 7.94108C73.3634 -5.21259 100.983 -1.94211 120.005 16.4793C129.911 26.0727 136.678 39.2158 139.573 54.4873C142.766 71.3228 141.309 90.1096 135.245 110.327C124.963 144.602 125.608 179.139 137.161 212.978C139.286 219.2 139.072 225.957 136.56 232.002C134.047 238.047 129.537 242.659 123.858 244.987C121.271 246.049 118.581 246.577 115.896 246.577L115.897 246.578ZM78.9073 45.1733C84.4407 45.1733 89.5333 46.9783 93.1909 50.5205C101.468 58.5355 102.59 75.2169 96.2696 96.2871C83.0013 140.518 83.8315 185.08 98.7365 228.733C100.456 233.769 103.862 237.765 108.326 239.984C112.782 242.199 117.753 242.385 122.329 240.508C126.915 238.627 130.559 234.902 132.588 230.02C134.618 225.137 134.79 219.68 133.074 214.655C121.163 179.771 120.499 144.168 131.098 108.834C142.21 71.7877 137.114 39.432 117.114 20.0636C99.4226 2.9287 73.6227 -0.0586405 49.7842 12.2666C20.0439 27.6434 3.09274 62.201 4.43965 104.71C4.78795 115.744 13.2596 124.44 23.4029 124.089C33.4973 123.704 41.4304 114.385 41.0795 103.316C39.8941 65.9058 57.7129 52.5895 65.4286 48.6006C69.87 46.3039 74.527 45.1733 78.9073 45.1733Z" fill="#095DDB"/>
<path d="M137.867 297.413C137.841 297.422 137.806 297.433 137.78 297.441L137.771 297.451C135.632 298.235 133.441 298.608 131.294 298.608C122.739 298.608 114.761 292.697 111.863 283.324L111.601 282.482C108.589 272.773 111.976 262.375 119.282 256.789C120.827 255.612 122.538 254.655 124.406 253.957C135.135 249.949 146.788 256.234 150.437 267.98L150.734 268.927C154.356 280.684 148.604 293.444 137.867 297.414V297.413Z" fill="#095DDB"/>
<path d="M131.294 301C121.562 301 112.922 294.204 109.796 284.091L109.535 283.254C106.299 272.817 109.793 261.128 118.034 254.828C119.772 253.505 121.678 252.451 123.702 251.694C129.441 249.549 135.599 249.983 141.04 252.915C146.479 255.845 150.55 260.923 152.503 267.209L152.797 268.15C154.74 274.453 154.327 281.197 151.641 287.15C148.952 293.105 144.308 297.555 138.564 299.679L138.56 299.681C138.528 299.694 138.495 299.708 138.463 299.719C136.146 300.569 133.734 301 131.293 301H131.294ZM131.042 255.135C129.05 255.135 127.051 255.494 125.11 256.219C123.471 256.833 121.928 257.684 120.527 258.751C113.874 263.838 111.052 273.281 113.666 281.711L113.927 282.551C116.455 290.726 123.432 296.217 131.293 296.217C133.219 296.217 135.123 295.884 136.955 295.228C137.002 295.207 137.05 295.187 137.099 295.17C137.119 295.162 137.168 295.146 137.197 295.136C141.823 293.417 145.562 289.829 147.728 285.029C149.898 280.221 150.231 274.774 148.665 269.692L148.372 268.756C146.793 263.673 143.505 259.573 139.112 257.206C136.558 255.829 133.809 255.135 131.042 255.135Z" fill="#095DDB"/>
<path d="M131.295 301C121.558 301 112.918 294.204 109.797 284.088L109.537 283.248C107.584 276.963 107.981 270.217 110.656 264.256C113.332 258.294 117.966 253.832 123.704 251.689C135.55 247.27 148.47 254.233 152.506 267.212L152.797 268.155C154.739 274.451 154.328 281.195 151.64 287.15C148.953 293.105 144.31 297.555 138.567 299.683C136.208 300.557 133.762 301 131.295 301ZM131.005 255.143C129.049 255.143 127.062 255.489 125.111 256.217C120.476 257.946 116.733 261.551 114.572 266.366C112.411 271.181 112.09 276.63 113.669 281.708L113.931 282.554C116.453 290.727 123.431 296.217 131.295 296.217C133.286 296.217 135.262 295.858 137.169 295.153C141.808 293.435 145.558 289.839 147.729 285.03C149.9 280.221 150.232 274.773 148.664 269.69L148.373 268.751C145.78 260.409 138.637 255.143 131.006 255.143H131.005Z" fill="#095DDB"/>
</g>
<defs>
<clipPath id="clip0_129_85">
<rect width="154" height="301" fill="white"/>
</clipPath>
</defs>
</svg>
