<svg width="28" height="28" viewBox="0 0 28 28" fill="none" xmlns="http://www.w3.org/2000/svg">
<path fill-rule="evenodd" clip-rule="evenodd" d="M7.70016 4.66659C6.02716 4.66659 4.66683 6.02692 4.66683 7.69992C4.66683 16.3193 11.6797 23.3333 20.3002 23.3333C21.972 23.3333 23.3335 21.9729 23.3335 20.2999C23.3335 20.1704 23.3253 20.0433 23.309 19.9173L17.919 18.6806C17.8117 18.8859 17.6938 19.1088 17.5865 19.3164C17.0545 20.3314 16.6695 21.0688 15.6872 20.6733C11.8302 19.3199 8.68133 16.1699 7.3105 12.2663C6.894 11.3504 7.68733 10.9351 8.693 10.4101C8.89716 10.3028 9.11766 10.1873 9.3195 10.0823L8.08283 4.69109C7.95333 4.67475 7.82733 4.66659 7.70016 4.66659ZM20.3002 25.6666C10.3928 25.6666 2.3335 17.6073 2.3335 7.69992C2.3335 4.74009 4.74033 2.33325 7.70016 2.33325C8.0035 2.33325 8.30333 2.35892 8.59383 2.40909C8.87733 2.45459 9.162 2.52692 9.43966 2.62259C9.81883 2.75442 10.1047 3.07292 10.1945 3.46492L11.7917 10.4229C11.8803 10.8056 11.7695 11.2069 11.4965 11.4916C11.3378 11.6573 11.3343 11.6608 9.88766 12.4179C11.059 14.9543 13.0948 16.9831 15.5798 18.1148C16.3382 16.6669 16.3428 16.6623 16.5085 16.5036C16.7932 16.2306 17.1968 16.1244 17.5772 16.2084L24.5363 17.8056C24.9272 17.8954 25.2457 18.1801 25.3763 18.5593C25.472 18.8346 25.5443 19.1193 25.5922 19.4121C25.6412 19.7003 25.6668 19.9989 25.6668 20.2999C25.6668 23.2598 23.2588 25.6666 20.3002 25.6666Z" fill="#EAA360"/>
<mask id="mask0_24_228" style="mask-type:luminance" maskUnits="userSpaceOnUse" x="2" y="2" width="24" height="24">
<path fill-rule="evenodd" clip-rule="evenodd" d="M7.70016 4.66659C6.02716 4.66659 4.66683 6.02692 4.66683 7.69992C4.66683 16.3193 11.6797 23.3333 20.3002 23.3333C21.972 23.3333 23.3335 21.9729 23.3335 20.2999C23.3335 20.1704 23.3253 20.0433 23.309 19.9173L17.919 18.6806C17.8117 18.8859 17.6938 19.1088 17.5865 19.3164C17.0545 20.3314 16.6695 21.0688 15.6872 20.6733C11.8302 19.3199 8.68133 16.1699 7.3105 12.2663C6.894 11.3504 7.68733 10.9351 8.693 10.4101C8.89716 10.3028 9.11766 10.1873 9.3195 10.0823L8.08283 4.69109C7.95333 4.67475 7.82733 4.66659 7.70016 4.66659ZM20.3002 25.6666C10.3928 25.6666 2.3335 17.6073 2.3335 7.69992C2.3335 4.74009 4.74033 2.33325 7.70016 2.33325C8.0035 2.33325 8.30333 2.35892 8.59383 2.40909C8.87733 2.45459 9.162 2.52692 9.43966 2.62259C9.81883 2.75442 10.1047 3.07292 10.1945 3.46492L11.7917 10.4229C11.8803 10.8056 11.7695 11.2069 11.4965 11.4916C11.3378 11.6573 11.3343 11.6608 9.88766 12.4179C11.059 14.9543 13.0948 16.9831 15.5798 18.1148C16.3382 16.6669 16.3428 16.6623 16.5085 16.5036C16.7932 16.2306 17.1968 16.1244 17.5772 16.2084L24.5363 17.8056C24.9272 17.8954 25.2457 18.1801 25.3763 18.5593C25.472 18.8346 25.5443 19.1193 25.5922 19.4121C25.6412 19.7003 25.6668 19.9989 25.6668 20.2999C25.6668 23.2598 23.2588 25.6666 20.3002 25.6666Z" fill="white"/>
</mask>
<g mask="url(#mask0_24_228)">
<rect width="28" height="28" fill="#EAA360"/>
</g>
</svg>
