<svg width="24" height="25" viewBox="0 0 24 25" fill="none" xmlns="http://www.w3.org/2000/svg">
<path fill-rule="evenodd" clip-rule="evenodd" d="M11.9998 15.5313C11.7438 15.5313 11.4878 15.4333 11.2928 15.2383L7.29276 11.2383C6.90176 10.8473 6.90176 10.2153 7.29276 9.82426C7.68376 9.43326 8.31576 9.43326 8.70676 9.82426L12.0118 13.1293L15.3048 9.94926C15.7038 9.56626 16.3348 9.57726 16.7188 9.97426C17.1028 10.3713 17.0918 11.0053 16.6948 11.3883L12.6948 15.2503C12.4998 15.4383 12.2498 15.5313 11.9998 15.5313Z" fill="white"/>
<mask id="mask0_66_80" style="mask-type:luminance" maskUnits="userSpaceOnUse" x="6" y="9" width="11" height="7">
<path fill-rule="evenodd" clip-rule="evenodd" d="M11.9998 15.5313C11.7438 15.5313 11.4878 15.4333 11.2928 15.2383L7.29276 11.2383C6.90176 10.8473 6.90176 10.2153 7.29276 9.82426C7.68376 9.43326 8.31576 9.43326 8.70676 9.82426L12.0118 13.1293L15.3048 9.94926C15.7038 9.56626 16.3348 9.57726 16.7188 9.97426C17.1028 10.3713 17.0918 11.0053 16.6948 11.3883L12.6948 15.2503C12.4998 15.4383 12.2498 15.5313 11.9998 15.5313Z" fill="white"/>
</mask>
<g mask="url(#mask0_66_80)">
<rect y="0.03125" width="24" height="24" fill="#EAA360"/>
</g>
</svg>
